<svg version="1.1" xmlns="http://www.w3.org/2000/svg" width="800" height="400"><defs><clipPath id="saSGTATspPwf"><path fill="none" stroke="none" d="M 0.5 0.5 L 800.5 0.5 L 800.5 400.5 L 0.5 400.5 L 0.5 0.5 Z M 29.5 27.5 L 770.5 27.5 L 770.5 322.5 L 29.5 322.5 L 29.5 27.5 Z" clip-rule="evenodd"/></clipPath><clipPath id="fpnwqXnzuogw"><path fill="none" stroke="none" d="M 29.5 27.5 L 770.5 27.5 L 770.5 322.5 L 29.5 322.5 L 29.5 27.5 Z"/></clipPath><clipPath id="saMZlGNwDwPQ"><path fill="none" stroke="none" d="M 29.5 27.5 L 770.5 27.5 L 770.5 322.5 L 29.5 322.5 L 29.5 27.5 Z"/></clipPath><clipPath id="NIsZvCTrgxpL"><path fill="none" stroke="none" d="M 29.5 27.5 L 770.5 27.5 L 770.5 322.5 L 29.5 322.5 L 29.5 27.5 Z"/></clipPath><clipPath id="sgJSJwHUpMTC"><path fill="none" stroke="none" d="M 29.5 27.5 L 770.5 27.5 L 770.5 322.5 L 29.5 322.5 L 29.5 27.5 Z"/></clipPath></defs><path fill="rgb(255,255,255)" stroke="none" paint-order="stroke" d="M 0.5 0.5 L 800.5 0.5 L 800.5 400.5 L 0.5 400.5 L 0.5 0.5 Z" fill-opacity="1" clip-path="url(#saSGTATspPwf)"/><path fill="rgb(255,255,255)" stroke="none" paint-order="stroke" d="M 29.5 27.5 L 770.5 27.5 L 770.5 322.5 L 29.5 322.5 L 29.5 27.5 Z" fill-opacity="1"/><path fill="none" stroke="rgb(229,229,229)" paint-order="fill" d="M 29.5 27.5 L 770.5 27.5 L 770.5 322.5 L 29.5 322.5 L 29.5 27.5 Z" stroke-opacity="1" stroke-linejoin="bevel" stroke-miterlimit="10"/><path fill="none" stroke="rgb(229,229,229)" paint-order="fill" d="M 29.5 253.5 L 770.5 253.5 M 29.5 185.5 L 770.5 185.5 M 29.5 116.5 L 770.5 116.5 M 29.5 48.5 L 770.5 48.5" stroke-opacity="1" stroke-linejoin="bevel" stroke-miterlimit="10" clip-path="url(#saMZlGNwDwPQ)"/><path fill="rgb(31,119,180)" stroke="rgb(255,255,255)" paint-order="fill" d="M 64.09213638305664 315.6474914550781 L 80.47789001464844 315.6474914550781 L 80.47789001464844 322.5 L 64.09213638305664 322.5 L 64.09213638305664 315.6474914550781 Z" fill-opacity="1" clip-path="url(#NIsZvCTrgxpL)" stroke-opacity="1" stroke-linejoin="bevel" stroke-miterlimit="10"/><path fill="rgb(255,127,14)" stroke="rgb(255,255,255)" paint-order="fill" d="M 82.29852294921875 315.6474914550781 L 98.68428039550781 315.6474914550781 L 98.68428039550781 322.5 L 82.29852294921875 322.5 L 82.29852294921875 315.6474914550781 Z" fill-opacity="1" clip-path="url(#NIsZvCTrgxpL)" stroke-opacity="1" stroke-linejoin="bevel" stroke-miterlimit="10"/><path fill="rgb(44,160,44)" stroke="rgb(255,255,255)" paint-order="fill" d="M 100.50491333007812 315.6474914550781 L 116.89067077636719 315.6474914550781 L 116.89067077636719 322.5 L 100.50491333007812 322.5 L 100.50491333007812 315.6474914550781 Z" fill-opacity="1" clip-path="url(#NIsZvCTrgxpL)" stroke-opacity="1" stroke-linejoin="bevel" stroke-miterlimit="10"/><path fill="rgb(214,39,40)" stroke="rgb(255,255,255)" paint-order="fill" d="M 118.7113037109375 315.6474914550781 L 135.0970458984375 315.6474914550781 L 135.0970458984375 322.5 L 118.7113037109375 322.5 L 118.7113037109375 315.6474914550781 Z" fill-opacity="1" clip-path="url(#NIsZvCTrgxpL)" stroke-opacity="1" stroke-linejoin="bevel" stroke-miterlimit="10"/><path fill="rgb(148,103,189)" stroke="rgb(255,255,255)" paint-order="fill" d="M 136.91769409179688 315.6474914550781 L 153.30343627929688 315.6474914550781 L 153.30343627929688 322.5 L 136.91769409179688 322.5 L 136.91769409179688 315.6474914550781 Z" fill-opacity="1" clip-path="url(#NIsZvCTrgxpL)" stroke-opacity="1" stroke-linejoin="bevel" stroke-miterlimit="10"/><path fill="rgb(31,119,180)" stroke="rgb(255,255,255)" paint-order="fill" d="M 180.61302185058594 288.2375183105469 L 196.99876403808594 288.2375183105469 L 196.99876403808594 322.5 L 180.61302185058594 322.5 L 180.61302185058594 288.2375183105469 Z" fill-opacity="1" clip-path="url(#NIsZvCTrgxpL)" stroke-opacity="1" stroke-linejoin="bevel" stroke-miterlimit="10"/><path fill="rgb(255,127,14)" stroke="rgb(255,255,255)" paint-order="fill" d="M 198.8194122314453 288.2375183105469 L 215.2051544189453 288.2375183105469 L 215.2051544189453 322.5 L 198.8194122314453 322.5 L 198.8194122314453 288.2375183105469 Z" fill-opacity="1" clip-path="url(#NIsZvCTrgxpL)" stroke-opacity="1" stroke-linejoin="bevel" stroke-miterlimit="10"/><path fill="rgb(44,160,44)" stroke="rgb(255,255,255)" paint-order="fill" d="M 217.0258026123047 295.09002685546875 L 233.4115447998047 295.09002685546875 L 233.4115447998047 322.5 L 217.0258026123047 322.5 L 217.0258026123047 295.09002685546875 Z" fill-opacity="1" clip-path="url(#NIsZvCTrgxpL)" stroke-opacity="1" stroke-linejoin="bevel" stroke-miterlimit="10"/><path fill="rgb(214,39,40)" stroke="rgb(255,255,255)" paint-order="fill" d="M 235.232177734375 295.09002685546875 L 251.617919921875 295.09002685546875 L 251.617919921875 322.5 L 235.232177734375 322.5 L 235.232177734375 295.09002685546875 Z" fill-opacity="1" clip-path="url(#NIsZvCTrgxpL)" stroke-opacity="1" stroke-linejoin="bevel" stroke-miterlimit="10"/><path fill="rgb(148,103,189)" stroke="rgb(255,255,255)" paint-order="fill" d="M 253.43856811523438 308.7950134277344 L 269.8243103027344 308.7950134277344 L 269.8243103027344 322.5 L 253.43856811523438 322.5 L 253.43856811523438 308.7950134277344 Z" fill-opacity="1" clip-path="url(#NIsZvCTrgxpL)" stroke-opacity="1" stroke-linejoin="bevel" stroke-miterlimit="10"/><path fill="rgb(31,119,180)" stroke="rgb(255,255,255)" paint-order="fill" d="M 297.1339111328125 288.2375183105469 L 313.5196533203125 288.2375183105469 L 313.5196533203125 322.5 L 297.1339111328125 322.5 L 297.1339111328125 288.2375183105469 Z" fill-opacity="1" clip-path="url(#NIsZvCTrgxpL)" stroke-opacity="1" stroke-linejoin="bevel" stroke-miterlimit="10"/><path fill="rgb(255,127,14)" stroke="rgb(255,255,255)" paint-order="fill" d="M 315.3403015136719 267.6800231933594 L 331.7260437011719 267.6800231933594 L 331.7260437011719 322.5 L 315.3403015136719 322.5 L 315.3403015136719 267.6800231933594 Z" fill-opacity="1" clip-path="url(#NIsZvCTrgxpL)" stroke-opacity="1" stroke-linejoin="bevel" stroke-miterlimit="10"/><path fill="rgb(44,160,44)" stroke="rgb(255,255,255)" paint-order="fill" d="M 333.54669189453125 247.12252807617188 L 349.93243408203125 247.12252807617188 L 349.93243408203125 322.5 L 333.54669189453125 322.5 L 333.54669189453125 247.12252807617188 Z" fill-opacity="1" clip-path="url(#NIsZvCTrgxpL)" stroke-opacity="1" stroke-linejoin="bevel" stroke-miterlimit="10"/><path fill="rgb(214,39,40)" stroke="rgb(255,255,255)" paint-order="fill" d="M 351.7530517578125 288.2375183105469 L 368.1387939453125 288.2375183105469 L 368.1387939453125 322.5 L 351.7530517578125 322.5 L 351.7530517578125 288.2375183105469 Z" fill-opacity="1" clip-path="url(#NIsZvCTrgxpL)" stroke-opacity="1" stroke-linejoin="bevel" stroke-miterlimit="10"/><path fill="rgb(148,103,189)" stroke="rgb(255,255,255)" paint-order="fill" d="M 369.9594421386719 288.2375183105469 L 386.3451843261719 288.2375183105469 L 386.3451843261719 322.5 L 369.9594421386719 322.5 L 369.9594421386719 288.2375183105469 Z" fill-opacity="1" clip-path="url(#NIsZvCTrgxpL)" stroke-opacity="1" stroke-linejoin="bevel" stroke-miterlimit="10"/><path fill="rgb(31,119,180)" stroke="rgb(255,255,255)" paint-order="fill" d="M 413.6548156738281 281.385009765625 L 430.0405578613281 281.385009765625 L 430.0405578613281 322.5 L 413.6548156738281 322.5 L 413.6548156738281 281.385009765625 Z" fill-opacity="1" clip-path="url(#NIsZvCTrgxpL)" stroke-opacity="1" stroke-linejoin="bevel" stroke-miterlimit="10"/><path fill="rgb(255,127,14)" stroke="rgb(255,255,255)" paint-order="fill" d="M 431.8612060546875 253.97503662109375 L 448.2469482421875 253.97503662109375 L 448.2469482421875 322.5 L 431.8612060546875 322.5 L 431.8612060546875 253.97503662109375 Z" fill-opacity="1" clip-path="url(#NIsZvCTrgxpL)" stroke-opacity="1" stroke-linejoin="bevel" stroke-miterlimit="10"/><path fill="rgb(44,160,44)" stroke="rgb(255,255,255)" paint-order="fill" d="M 450.0675964355469 178.59756469726562 L 466.4533386230469 178.59756469726562 L 466.4533386230469 322.5 L 450.0675964355469 322.5 L 450.0675964355469 178.59756469726562 Z" fill-opacity="1" clip-path="url(#NIsZvCTrgxpL)" stroke-opacity="1" stroke-linejoin="bevel" stroke-miterlimit="10"/><path fill="rgb(214,39,40)" stroke="rgb(255,255,255)" paint-order="fill" d="M 468.27398681640625 267.6800231933594 L 484.65972900390625 267.6800231933594 L 484.65972900390625 322.5 L 468.27398681640625 322.5 L 468.27398681640625 267.6800231933594 Z" fill-opacity="1" clip-path="url(#NIsZvCTrgxpL)" stroke-opacity="1" stroke-linejoin="bevel" stroke-miterlimit="10"/><path fill="rgb(148,103,189)" stroke="rgb(255,255,255)" paint-order="fill" d="M 486.4803466796875 295.09002685546875 L 502.8660888671875 295.09002685546875 L 502.8660888671875 322.5 L 486.4803466796875 322.5 L 486.4803466796875 295.09002685546875 Z" fill-opacity="1" clip-path="url(#NIsZvCTrgxpL)" stroke-opacity="1" stroke-linejoin="bevel" stroke-miterlimit="10"/><path fill="rgb(31,119,180)" stroke="rgb(255,255,255)" paint-order="fill" d="M 530.1756591796875 281.385009765625 L 546.5614013671875 281.385009765625 L 546.5614013671875 322.5 L 530.1756591796875 322.5 L 530.1756591796875 281.385009765625 Z" fill-opacity="1" clip-path="url(#NIsZvCTrgxpL)" stroke-opacity="1" stroke-linejoin="bevel" stroke-miterlimit="10"/><path fill="rgb(255,127,14)" stroke="rgb(255,255,255)" paint-order="fill" d="M 548.382080078125 240.27003479003906 L 564.767822265625 240.27003479003906 L 564.767822265625 322.5 L 548.382080078125 322.5 L 548.382080078125 240.27003479003906 Z" fill-opacity="1" clip-path="url(#NIsZvCTrgxpL)" stroke-opacity="1" stroke-linejoin="bevel" stroke-miterlimit="10"/><path fill="rgb(44,160,44)" stroke="rgb(255,255,255)" paint-order="fill" d="M 566.5884399414062 123.777587890625 L 582.9741821289062 123.777587890625 L 582.9741821289062 322.5 L 566.5884399414062 322.5 L 566.5884399414062 123.777587890625 Z" fill-opacity="1" clip-path="url(#NIsZvCTrgxpL)" stroke-opacity="1" stroke-linejoin="bevel" stroke-miterlimit="10"/><path fill="rgb(214,39,40)" stroke="rgb(255,255,255)" paint-order="fill" d="M 584.7948608398438 281.385009765625 L 601.1806030273438 281.385009765625 L 601.1806030273438 322.5 L 584.7948608398438 322.5 L 584.7948608398438 281.385009765625 Z" fill-opacity="1" clip-path="url(#NIsZvCTrgxpL)" stroke-opacity="1" stroke-linejoin="bevel" stroke-miterlimit="10"/><path fill="rgb(148,103,189)" stroke="rgb(255,255,255)" paint-order="fill" d="M 603.001220703125 267.6800231933594 L 619.386962890625 267.6800231933594 L 619.386962890625 322.5 L 603.001220703125 322.5 L 603.001220703125 267.6800231933594 Z" fill-opacity="1" clip-path="url(#NIsZvCTrgxpL)" stroke-opacity="1" stroke-linejoin="bevel" stroke-miterlimit="10"/><path fill="rgb(31,119,180)" stroke="rgb(255,255,255)" paint-order="fill" d="M 646.6965942382812 240.27003479003906 L 663.0823364257812 240.27003479003906 L 663.0823364257812 322.5 L 646.6965942382812 322.5 L 646.6965942382812 240.27003479003906 Z" fill-opacity="1" clip-path="url(#NIsZvCTrgxpL)" stroke-opacity="1" stroke-linejoin="bevel" stroke-miterlimit="10"/><path fill="rgb(255,127,14)" stroke="rgb(255,255,255)" paint-order="fill" d="M 664.9029541015625 233.41754150390625 L 681.2886962890625 233.41754150390625 L 681.2886962890625 322.5 L 664.9029541015625 322.5 L 664.9029541015625 233.41754150390625 Z" fill-opacity="1" clip-path="url(#NIsZvCTrgxpL)" stroke-opacity="1" stroke-linejoin="bevel" stroke-miterlimit="10"/><path fill="rgb(44,160,44)" stroke="rgb(255,255,255)" paint-order="fill" d="M 683.1093139648438 41.5476188659668 L 699.4950561523438 41.5476188659668 L 699.4950561523438 322.5 L 683.1093139648438 322.5 L 683.1093139648438 41.5476188659668 Z" fill-opacity="1" clip-path="url(#NIsZvCTrgxpL)" stroke-opacity="1" stroke-linejoin="bevel" stroke-miterlimit="10"/><path fill="rgb(214,39,40)" stroke="rgb(255,255,255)" paint-order="fill" d="M 701.3157348632812 260.8275146484375 L 717.7014770507812 260.8275146484375 L 717.7014770507812 322.5 L 701.3157348632812 322.5 L 701.3157348632812 260.8275146484375 Z" fill-opacity="1" clip-path="url(#NIsZvCTrgxpL)" stroke-opacity="1" stroke-linejoin="bevel" stroke-miterlimit="10"/><path fill="rgb(148,103,189)" stroke="rgb(255,255,255)" paint-order="fill" d="M 719.5220947265625 226.56504821777344 L 735.9078369140625 226.56504821777344 L 735.9078369140625 322.5 L 719.5220947265625 322.5 L 719.5220947265625 226.56504821777344 Z" fill-opacity="1" clip-path="url(#NIsZvCTrgxpL)" stroke-opacity="1" stroke-linejoin="bevel" stroke-miterlimit="10"/><path fill="none" stroke="rgb(0,0,0)" paint-order="fill" d="M 29.5 322.5 L 770.5 322.5" stroke-opacity="1" stroke-linejoin="bevel" stroke-miterlimit="10"/><path fill="none" stroke="rgb(0,0,0)" paint-order="fill" d="M 72.5 328.5 L 72.5 320.5 M 90.5 328.5 L 90.5 320.5 M 108.5 328.5 L 108.5 320.5 M 126.5 328.5 L 126.5 320.5 M 145.5 328.5 L 145.5 320.5 M 188.5 328.5 L 188.5 320.5 M 207.5 328.5 L 207.5 320.5 M 225.5 328.5 L 225.5 320.5 M 243.5 328.5 L 243.5 320.5 M 261.5 328.5 L 261.5 320.5 M 305.5 328.5 L 305.5 320.5 M 323.5 328.5 L 323.5 320.5 M 341.5 328.5 L 341.5 320.5 M 359.5 328.5 L 359.5 320.5 M 378.5 328.5 L 378.5 320.5 M 421.5 328.5 L 421.5 320.5 M 440.5 328.5 L 440.5 320.5 M 458.5 328.5 L 458.5 320.5 M 476.5 328.5 L 476.5 320.5 M 494.5 328.5 L 494.5 320.5 M 538.5 328.5 L 538.5 320.5 M 556.5 328.5 L 556.5 320.5 M 574.5 328.5 L 574.5 320.5 M 592.5 328.5 L 592.5 320.5 M 611.5 328.5 L 611.5 320.5 M 654.5 328.5 L 654.5 320.5 M 673.5 328.5 L 673.5 320.5 M 691.5 328.5 L 691.5 320.5 M 709.5 328.5 L 709.5 320.5 M 727.5 328.5 L 727.5 320.5" stroke-opacity="1" stroke-linejoin="bevel" stroke-miterlimit="10"/><path fill="none" stroke="rgb(0,0,0)" paint-order="fill" d="" stroke-opacity="1" stroke-linejoin="bevel" stroke-miterlimit="10"/><text fill="rgb(68,68,68)" stroke="none" font-family="helvetica" font-size="11px" font-style="normal" font-weight="normal" text-decoration="normal" x="36.926612854003906" y="337" text-anchor="start" dominant-baseline="alphabetic" transform="matrix(0.5403023058681398, -0.8414709848078965, 0.8414709848078965, 0.5403023058681398, -246.71043377709566, 213.98433629181721)" fill-opacity="1">Django</text><text fill="none" stroke="rgb(0,0,0)" font-family="helvetica" font-size="11px" font-style="normal" font-weight="normal" text-decoration="normal" x="36.926612854003906" y="337" text-anchor="start" dominant-baseline="alphabetic" transform="matrix(0.5403023058681398, -0.8414709848078965, 0.8414709848078965, 0.5403023058681398, -246.71043377709566, 213.98433629181721)" stroke-opacity="0" stroke-linejoin="bevel" stroke-miterlimit="10">Django</text><text fill="rgb(68,68,68)" stroke="none" font-family="helvetica" font-size="11px" font-style="normal" font-weight="normal" text-decoration="normal" x="50.86835479736328" y="337" text-anchor="start" dominant-baseline="alphabetic" transform="matrix(0.5403023058681398, -0.8414709848078965, 0.8414709848078965, 0.5403023058681398, -238.3409981005501, 229.304485535396)" fill-opacity="1">FastAPI</text><text fill="none" stroke="rgb(0,0,0)" font-family="helvetica" font-size="11px" font-style="normal" font-weight="normal" text-decoration="normal" x="50.86835479736328" y="337" text-anchor="start" dominant-baseline="alphabetic" transform="matrix(0.5403023058681398, -0.8414709848078965, 0.8414709848078965, 0.5403023058681398, -238.3409981005501, 229.304485535396)" stroke-opacity="0" stroke-linejoin="bevel" stroke-miterlimit="10">FastAPI</text><text fill="rgb(68,68,68)" stroke="none" font-family="helvetica" font-size="11px" font-style="normal" font-weight="normal" text-decoration="normal" x="75.79935455322266" y="337" text-anchor="start" dominant-baseline="alphabetic" transform="matrix(0.5403023058681398, -0.8414709848078965, 0.8414709848078965, 0.5403023058681398, -229.97156242400456, 244.62463477897472)" fill-opacity="1">Go-chi</text><text fill="none" stroke="rgb(0,0,0)" font-family="helvetica" font-size="11px" font-style="normal" font-weight="normal" text-decoration="normal" x="75.79935455322266" y="337" text-anchor="start" dominant-baseline="alphabetic" transform="matrix(0.5403023058681398, -0.8414709848078965, 0.8414709848078965, 0.5403023058681398, -229.97156242400456, 244.62463477897472)" stroke-opacity="0" stroke-linejoin="bevel" stroke-miterlimit="10">Go-chi</text><text fill="rgb(68,68,68)" stroke="none" font-family="helvetica" font-size="11px" font-style="normal" font-weight="normal" text-decoration="normal" x="76.8880615234375" y="337" text-anchor="start" dominant-baseline="alphabetic" transform="matrix(0.5403023058681398, -0.8414709848078965, 0.8414709848078965, 0.5403023058681398, -221.60213025467414, 259.94477760263936)" fill-opacity="1">express.js</text><text fill="none" stroke="rgb(0,0,0)" font-family="helvetica" font-size="11px" font-style="normal" font-weight="normal" text-decoration="normal" x="76.8880615234375" y="337" text-anchor="start" dominant-baseline="alphabetic" transform="matrix(0.5403023058681398, -0.8414709848078965, 0.8414709848078965, 0.5403023058681398, -221.60213025467414, 259.94477760263936)" stroke-opacity="0" stroke-linejoin="bevel" stroke-miterlimit="10">express.js</text><text fill="rgb(68,68,68)" stroke="none" font-family="helvetica" font-size="11px" font-style="normal" font-weight="normal" text-decoration="normal" x="116.49288940429688" y="337" text-anchor="start" dominant-baseline="alphabetic" transform="matrix(0.5403023058681398, -0.8414709848078965, 0.8414709848078965, 0.5403023058681398, -213.2326945781286, 275.2649268462181)" fill-opacity="1">Axum</text><text fill="none" stroke="rgb(0,0,0)" font-family="helvetica" font-size="11px" font-style="normal" font-weight="normal" text-decoration="normal" x="116.49288940429688" y="337" text-anchor="start" dominant-baseline="alphabetic" transform="matrix(0.5403023058681398, -0.8414709848078965, 0.8414709848078965, 0.5403023058681398, -213.2326945781286, 275.2649268462181)" stroke-opacity="0" stroke-linejoin="bevel" stroke-miterlimit="10">Axum</text><text fill="rgb(68,68,68)" stroke="none" font-family="helvetica" font-size="11px" font-style="normal" font-weight="normal" text-decoration="normal" x="153.44749450683594" y="337" text-anchor="start" dominant-baseline="alphabetic" transform="matrix(0.5403023058681398, -0.8414709848078965, 0.8414709848078965, 0.5403023058681398, -193.1460531630774, 312.03327732691014)" fill-opacity="1">Django</text><text fill="none" stroke="rgb(0,0,0)" font-family="helvetica" font-size="11px" font-style="normal" font-weight="normal" text-decoration="normal" x="153.44749450683594" y="337" text-anchor="start" dominant-baseline="alphabetic" transform="matrix(0.5403023058681398, -0.8414709848078965, 0.8414709848078965, 0.5403023058681398, -193.1460531630774, 312.03327732691014)" stroke-opacity="0" stroke-linejoin="bevel" stroke-miterlimit="10">Django</text><text fill="rgb(68,68,68)" stroke="none" font-family="helvetica" font-size="11px" font-style="normal" font-weight="normal" text-decoration="normal" x="167.3892364501953" y="337" text-anchor="start" dominant-baseline="alphabetic" transform="matrix(0.5403023058681398, -0.8414709848078965, 0.8414709848078965, 0.5403023058681398, -184.77661748653185, 327.35342657048886)" fill-opacity="1">FastAPI</text><text fill="none" stroke="rgb(0,0,0)" font-family="helvetica" font-size="11px" font-style="normal" font-weight="normal" text-decoration="normal" x="167.3892364501953" y="337" text-anchor="start" dominant-baseline="alphabetic" transform="matrix(0.5403023058681398, -0.8414709848078965, 0.8414709848078965, 0.5403023058681398, -184.77661748653185, 327.35342657048886)" stroke-opacity="0" stroke-linejoin="bevel" stroke-miterlimit="10">FastAPI</text><text fill="rgb(68,68,68)" stroke="none" font-family="helvetica" font-size="11px" font-style="normal" font-weight="normal" text-decoration="normal" x="192.3202362060547" y="337" text-anchor="start" dominant-baseline="alphabetic" transform="matrix(0.5403023058681398, -0.8414709848078965, 0.8414709848078965, 0.5403023058681398, -176.4071818099863, 342.67357581406765)" fill-opacity="1">Go-chi</text><text fill="none" stroke="rgb(0,0,0)" font-family="helvetica" font-size="11px" font-style="normal" font-weight="normal" text-decoration="normal" x="192.3202362060547" y="337" text-anchor="start" dominant-baseline="alphabetic" transform="matrix(0.5403023058681398, -0.8414709848078965, 0.8414709848078965, 0.5403023058681398, -176.4071818099863, 342.67357581406765)" stroke-opacity="0" stroke-linejoin="bevel" stroke-miterlimit="10">Go-chi</text><text fill="rgb(68,68,68)" stroke="none" font-family="helvetica" font-size="11px" font-style="normal" font-weight="normal" text-decoration="normal" x="193.40895080566406" y="337" text-anchor="start" dominant-baseline="alphabetic" transform="matrix(0.5403023058681398, -0.8414709848078965, 0.8414709848078965, 0.5403023058681398, -168.0377461334408, 357.99372505764643)" fill-opacity="1">express.js</text><text fill="none" stroke="rgb(0,0,0)" font-family="helvetica" font-size="11px" font-style="normal" font-weight="normal" text-decoration="normal" x="193.40895080566406" y="337" text-anchor="start" dominant-baseline="alphabetic" transform="matrix(0.5403023058681398, -0.8414709848078965, 0.8414709848078965, 0.5403023058681398, -168.0377461334408, 357.99372505764643)" stroke-opacity="0" stroke-linejoin="bevel" stroke-miterlimit="10">express.js</text><text fill="rgb(68,68,68)" stroke="none" font-family="helvetica" font-size="11px" font-style="normal" font-weight="normal" text-decoration="normal" x="233.01376342773438" y="337" text-anchor="start" dominant-baseline="alphabetic" transform="matrix(0.5403023058681398, -0.8414709848078965, 0.8414709848078965, 0.5403023058681398, -159.6683174713254, 373.31386146139687)" fill-opacity="1">Axum</text><text fill="none" stroke="rgb(0,0,0)" font-family="helvetica" font-size="11px" font-style="normal" font-weight="normal" text-decoration="normal" x="233.01376342773438" y="337" text-anchor="start" dominant-baseline="alphabetic" transform="matrix(0.5403023058681398, -0.8414709848078965, 0.8414709848078965, 0.5403023058681398, -159.6683174713254, 373.31386146139687)" stroke-opacity="0" stroke-linejoin="bevel" stroke-miterlimit="10">Axum</text><text fill="rgb(68,68,68)" stroke="none" font-family="helvetica" font-size="11px" font-style="normal" font-weight="normal" text-decoration="normal" x="269.9683837890625" y="337" text-anchor="start" dominant-baseline="alphabetic" transform="matrix(0.5403023058681398, -0.8414709848078965, 0.8414709848078965, 0.5403023058681398, -139.58166904184407, 410.0822247819172)" fill-opacity="1">Django</text><text fill="none" stroke="rgb(0,0,0)" font-family="helvetica" font-size="11px" font-style="normal" font-weight="normal" text-decoration="normal" x="269.9683837890625" y="337" text-anchor="start" dominant-baseline="alphabetic" transform="matrix(0.5403023058681398, -0.8414709848078965, 0.8414709848078965, 0.5403023058681398, -139.58166904184407, 410.0822247819172)" stroke-opacity="0" stroke-linejoin="bevel" stroke-miterlimit="10">Django</text><text fill="rgb(68,68,68)" stroke="none" font-family="helvetica" font-size="11px" font-style="normal" font-weight="normal" text-decoration="normal" x="283.9101257324219" y="337" text-anchor="start" dominant-baseline="alphabetic" transform="matrix(0.5403023058681398, -0.8414709848078965, 0.8414709848078965, 0.5403023058681398, -131.21223336529852, 425.402374025496)" fill-opacity="1">FastAPI</text><text fill="none" stroke="rgb(0,0,0)" font-family="helvetica" font-size="11px" font-style="normal" font-weight="normal" text-decoration="normal" x="283.9101257324219" y="337" text-anchor="start" dominant-baseline="alphabetic" transform="matrix(0.5403023058681398, -0.8414709848078965, 0.8414709848078965, 0.5403023058681398, -131.21223336529852, 425.402374025496)" stroke-opacity="0" stroke-linejoin="bevel" stroke-miterlimit="10">FastAPI</text><text fill="rgb(68,68,68)" stroke="none" font-family="helvetica" font-size="11px" font-style="normal" font-weight="normal" text-decoration="normal" x="308.84112548828125" y="337" text-anchor="start" dominant-baseline="alphabetic" transform="matrix(0.5403023058681398, -0.8414709848078965, 0.8414709848078965, 0.5403023058681398, -122.84279768875297, 440.7225232690747)" fill-opacity="1">Go-chi</text><text fill="none" stroke="rgb(0,0,0)" font-family="helvetica" font-size="11px" font-style="normal" font-weight="normal" text-decoration="normal" x="308.84112548828125" y="337" text-anchor="start" dominant-baseline="alphabetic" transform="matrix(0.5403023058681398, -0.8414709848078965, 0.8414709848078965, 0.5403023058681398, -122.84279768875297, 440.7225232690747)" stroke-opacity="0" stroke-linejoin="bevel" stroke-miterlimit="10">Go-chi</text><text fill="rgb(68,68,68)" stroke="none" font-family="helvetica" font-size="11px" font-style="normal" font-weight="normal" text-decoration="normal" x="309.9298400878906" y="337" text-anchor="start" dominant-baseline="alphabetic" transform="matrix(0.5403023058681398, -0.8414709848078965, 0.8414709848078965, 0.5403023058681398, -114.47336201220742, 456.0426725126535)" fill-opacity="1">express.js</text><text fill="none" stroke="rgb(0,0,0)" font-family="helvetica" font-size="11px" font-style="normal" font-weight="normal" text-decoration="normal" x="309.9298400878906" y="337" text-anchor="start" dominant-baseline="alphabetic" transform="matrix(0.5403023058681398, -0.8414709848078965, 0.8414709848078965, 0.5403023058681398, -114.47336201220742, 456.0426725126535)" stroke-opacity="0" stroke-linejoin="bevel" stroke-miterlimit="10">express.js</text><text fill="rgb(68,68,68)" stroke="none" font-family="helvetica" font-size="11px" font-style="normal" font-weight="normal" text-decoration="normal" x="349.53466796875" y="337" text-anchor="start" dominant-baseline="alphabetic" transform="matrix(0.5403023058681398, -0.8414709848078965, 0.8414709848078965, 0.5403023058681398, -106.10392633566187, 471.3628217562322)" fill-opacity="1">Axum</text><text fill="none" stroke="rgb(0,0,0)" font-family="helvetica" font-size="11px" font-style="normal" font-weight="normal" text-decoration="normal" x="349.53466796875" y="337" text-anchor="start" dominant-baseline="alphabetic" transform="matrix(0.5403023058681398, -0.8414709848078965, 0.8414709848078965, 0.5403023058681398, -106.10392633566187, 471.3628217562322)" stroke-opacity="0" stroke-linejoin="bevel" stroke-miterlimit="10">Axum</text><text fill="rgb(68,68,68)" stroke="none" font-family="helvetica" font-size="11px" font-style="normal" font-weight="normal" text-decoration="normal" x="386.4892578125" y="337" text-anchor="start" dominant-baseline="alphabetic" transform="matrix(0.5403023058681398, -0.8414709848078965, 0.8414709848078965, 0.5403023058681398, -86.01729193504087, 508.131159397096)" fill-opacity="1">Django</text><text fill="none" stroke="rgb(0,0,0)" font-family="helvetica" font-size="11px" font-style="normal" font-weight="normal" text-decoration="normal" x="386.4892578125" y="337" text-anchor="start" dominant-baseline="alphabetic" transform="matrix(0.5403023058681398, -0.8414709848078965, 0.8414709848078965, 0.5403023058681398, -86.01729193504087, 508.131159397096)" stroke-opacity="0" stroke-linejoin="bevel" stroke-miterlimit="10">Django</text><text fill="rgb(68,68,68)" stroke="none" font-family="helvetica" font-size="11px" font-style="normal" font-weight="normal" text-decoration="normal" x="400.4309997558594" y="337" text-anchor="start" dominant-baseline="alphabetic" transform="matrix(0.5403023058681398, -0.8414709848078965, 0.8414709848078965, 0.5403023058681398, -77.64785625849527, 523.4513086406748)" fill-opacity="1">FastAPI</text><text fill="none" stroke="rgb(0,0,0)" font-family="helvetica" font-size="11px" font-style="normal" font-weight="normal" text-decoration="normal" x="400.4309997558594" y="337" text-anchor="start" dominant-baseline="alphabetic" transform="matrix(0.5403023058681398, -0.8414709848078965, 0.8414709848078965, 0.5403023058681398, -77.64785625849527, 523.4513086406748)" stroke-opacity="0" stroke-linejoin="bevel" stroke-miterlimit="10">FastAPI</text><text fill="rgb(68,68,68)" stroke="none" font-family="helvetica" font-size="11px" font-style="normal" font-weight="normal" text-decoration="normal" x="425.36199951171875" y="337" text-anchor="start" dominant-baseline="alphabetic" transform="matrix(0.5403023058681398, -0.8414709848078965, 0.8414709848078965, 0.5403023058681398, -69.27842058194983, 538.7714578842536)" fill-opacity="1">Go-chi</text><text fill="none" stroke="rgb(0,0,0)" font-family="helvetica" font-size="11px" font-style="normal" font-weight="normal" text-decoration="normal" x="425.36199951171875" y="337" text-anchor="start" dominant-baseline="alphabetic" transform="matrix(0.5403023058681398, -0.8414709848078965, 0.8414709848078965, 0.5403023058681398, -69.27842058194983, 538.7714578842536)" stroke-opacity="0" stroke-linejoin="bevel" stroke-miterlimit="10">Go-chi</text><text fill="rgb(68,68,68)" stroke="none" font-family="helvetica" font-size="11px" font-style="normal" font-weight="normal" text-decoration="normal" x="426.4507141113281" y="337" text-anchor="start" dominant-baseline="alphabetic" transform="matrix(0.5403023058681398, -0.8414709848078965, 0.8414709848078965, 0.5403023058681398, -60.90898490540428, 554.0916071278323)" fill-opacity="1">express.js</text><text fill="none" stroke="rgb(0,0,0)" font-family="helvetica" font-size="11px" font-style="normal" font-weight="normal" text-decoration="normal" x="426.4507141113281" y="337" text-anchor="start" dominant-baseline="alphabetic" transform="matrix(0.5403023058681398, -0.8414709848078965, 0.8414709848078965, 0.5403023058681398, -60.90898490540428, 554.0916071278323)" stroke-opacity="0" stroke-linejoin="bevel" stroke-miterlimit="10">express.js</text><text fill="rgb(68,68,68)" stroke="none" font-family="helvetica" font-size="11px" font-style="normal" font-weight="normal" text-decoration="normal" x="466.0555419921875" y="337" text-anchor="start" dominant-baseline="alphabetic" transform="matrix(0.5403023058681398, -0.8414709848078965, 0.8414709848078965, 0.5403023058681398, -52.53954922885873, 569.411756371411)" fill-opacity="1">Axum</text><text fill="none" stroke="rgb(0,0,0)" font-family="helvetica" font-size="11px" font-style="normal" font-weight="normal" text-decoration="normal" x="466.0555419921875" y="337" text-anchor="start" dominant-baseline="alphabetic" transform="matrix(0.5403023058681398, -0.8414709848078965, 0.8414709848078965, 0.5403023058681398, -52.53954922885873, 569.411756371411)" stroke-opacity="0" stroke-linejoin="bevel" stroke-miterlimit="10">Axum</text><text fill="rgb(68,68,68)" stroke="none" font-family="helvetica" font-size="11px" font-style="normal" font-weight="normal" text-decoration="normal" x="503.0101318359375" y="337" text-anchor="start" dominant-baseline="alphabetic" transform="matrix(0.5403023058681398, -0.8414709848078965, 0.8414709848078965, 0.5403023058681398, -32.45291482823768, 606.1800940122748)" fill-opacity="1">Django</text><text fill="none" stroke="rgb(0,0,0)" font-family="helvetica" font-size="11px" font-style="normal" font-weight="normal" text-decoration="normal" x="503.0101318359375" y="337" text-anchor="start" dominant-baseline="alphabetic" transform="matrix(0.5403023058681398, -0.8414709848078965, 0.8414709848078965, 0.5403023058681398, -32.45291482823768, 606.1800940122748)" stroke-opacity="0" stroke-linejoin="bevel" stroke-miterlimit="10">Django</text><text fill="rgb(68,68,68)" stroke="none" font-family="helvetica" font-size="11px" font-style="normal" font-weight="normal" text-decoration="normal" x="516.951904296875" y="337" text-anchor="start" dominant-baseline="alphabetic" transform="matrix(0.5403023058681398, -0.8414709848078965, 0.8414709848078965, 0.5403023058681398, -24.083465122831853, 621.5002689355101)" fill-opacity="1">FastAPI</text><text fill="none" stroke="rgb(0,0,0)" font-family="helvetica" font-size="11px" font-style="normal" font-weight="normal" text-decoration="normal" x="516.951904296875" y="337" text-anchor="start" dominant-baseline="alphabetic" transform="matrix(0.5403023058681398, -0.8414709848078965, 0.8414709848078965, 0.5403023058681398, -24.083465122831853, 621.5002689355101)" stroke-opacity="0" stroke-linejoin="bevel" stroke-miterlimit="10">FastAPI</text><text fill="rgb(68,68,68)" stroke="none" font-family="helvetica" font-size="11px" font-style="normal" font-weight="normal" text-decoration="normal" x="541.8828735351562" y="337" text-anchor="start" dominant-baseline="alphabetic" transform="matrix(0.5403023058681398, -0.8414709848078965, 0.8414709848078965, 0.5403023058681398, -15.714043475146582, 636.8203924994323)" fill-opacity="1">Go-chi</text><text fill="none" stroke="rgb(0,0,0)" font-family="helvetica" font-size="11px" font-style="normal" font-weight="normal" text-decoration="normal" x="541.8828735351562" y="337" text-anchor="start" dominant-baseline="alphabetic" transform="matrix(0.5403023058681398, -0.8414709848078965, 0.8414709848078965, 0.5403023058681398, -15.714043475146582, 636.8203924994323)" stroke-opacity="0" stroke-linejoin="bevel" stroke-miterlimit="10">Go-chi</text><text fill="rgb(68,68,68)" stroke="none" font-family="helvetica" font-size="11px" font-style="normal" font-weight="normal" text-decoration="normal" x="542.9716186523438" y="337" text-anchor="start" dominant-baseline="alphabetic" transform="matrix(0.5403023058681398, -0.8414709848078965, 0.8414709848078965, 0.5403023058681398, -7.344593769740754, 652.1405674226676)" fill-opacity="1">express.js</text><text fill="none" stroke="rgb(0,0,0)" font-family="helvetica" font-size="11px" font-style="normal" font-weight="normal" text-decoration="normal" x="542.9716186523438" y="337" text-anchor="start" dominant-baseline="alphabetic" transform="matrix(0.5403023058681398, -0.8414709848078965, 0.8414709848078965, 0.5403023058681398, -7.344593769740754, 652.1405674226676)" stroke-opacity="0" stroke-linejoin="bevel" stroke-miterlimit="10">express.js</text><text fill="rgb(68,68,68)" stroke="none" font-family="helvetica" font-size="11px" font-style="normal" font-weight="normal" text-decoration="normal" x="582.576416015625" y="337" text-anchor="start" dominant-baseline="alphabetic" transform="matrix(0.5403023058681398, -0.8414709848078965, 0.8414709848078965, 0.5403023058681398, 1.0248278779445172, 667.4606909865898)" fill-opacity="1">Axum</text><text fill="none" stroke="rgb(0,0,0)" font-family="helvetica" font-size="11px" font-style="normal" font-weight="normal" text-decoration="normal" x="582.576416015625" y="337" text-anchor="start" dominant-baseline="alphabetic" transform="matrix(0.5403023058681398, -0.8414709848078965, 0.8414709848078965, 0.5403023058681398, 1.0248278779445172, 667.4606909865898)" stroke-opacity="0" stroke-linejoin="bevel" stroke-miterlimit="10">Axum</text><text fill="rgb(68,68,68)" stroke="none" font-family="helvetica" font-size="11px" font-style="normal" font-weight="normal" text-decoration="normal" x="619.5310668945312" y="337" text-anchor="start" dominant-baseline="alphabetic" transform="matrix(0.5403023058681398, -0.8414709848078965, 0.8414709848078965, 0.5403023058681398, 21.111490336286124, 704.2290799867667)" fill-opacity="1">Django</text><text fill="none" stroke="rgb(0,0,0)" font-family="helvetica" font-size="11px" font-style="normal" font-weight="normal" text-decoration="normal" x="619.5310668945312" y="337" text-anchor="start" dominant-baseline="alphabetic" transform="matrix(0.5403023058681398, -0.8414709848078965, 0.8414709848078965, 0.5403023058681398, 21.111490336286124, 704.2290799867667)" stroke-opacity="0" stroke-linejoin="bevel" stroke-miterlimit="10">Django</text><text fill="rgb(68,68,68)" stroke="none" font-family="helvetica" font-size="11px" font-style="normal" font-weight="normal" text-decoration="normal" x="633.4727783203125" y="337" text-anchor="start" dominant-baseline="alphabetic" transform="matrix(0.5403023058681398, -0.8414709848078965, 0.8414709848078965, 0.5403023058681398, 29.480911983971282, 719.5492035506888)" fill-opacity="1">FastAPI</text><text fill="none" stroke="rgb(0,0,0)" font-family="helvetica" font-size="11px" font-style="normal" font-weight="normal" text-decoration="normal" x="633.4727783203125" y="337" text-anchor="start" dominant-baseline="alphabetic" transform="matrix(0.5403023058681398, -0.8414709848078965, 0.8414709848078965, 0.5403023058681398, 29.480911983971282, 719.5492035506888)" stroke-opacity="0" stroke-linejoin="bevel" stroke-miterlimit="10">FastAPI</text><text fill="rgb(68,68,68)" stroke="none" font-family="helvetica" font-size="11px" font-style="normal" font-weight="normal" text-decoration="normal" x="658.4037475585938" y="337" text-anchor="start" dominant-baseline="alphabetic" transform="matrix(0.5403023058681398, -0.8414709848078965, 0.8414709848078965, 0.5403023058681398, 37.85033363165667, 734.8693271146111)" fill-opacity="1">Go-chi</text><text fill="none" stroke="rgb(0,0,0)" font-family="helvetica" font-size="11px" font-style="normal" font-weight="normal" text-decoration="normal" x="658.4037475585938" y="337" text-anchor="start" dominant-baseline="alphabetic" transform="matrix(0.5403023058681398, -0.8414709848078965, 0.8414709848078965, 0.5403023058681398, 37.85033363165667, 734.8693271146111)" stroke-opacity="0" stroke-linejoin="bevel" stroke-miterlimit="10">Go-chi</text><text fill="rgb(68,68,68)" stroke="none" font-family="helvetica" font-size="11px" font-style="normal" font-weight="normal" text-decoration="normal" x="659.4924926757812" y="337" text-anchor="start" dominant-baseline="alphabetic" transform="matrix(0.5403023058681398, -0.8414709848078965, 0.8414709848078965, 0.5403023058681398, 46.21978333706238, 750.1895020378464)" fill-opacity="1">express.js</text><text fill="none" stroke="rgb(0,0,0)" font-family="helvetica" font-size="11px" font-style="normal" font-weight="normal" text-decoration="normal" x="659.4924926757812" y="337" text-anchor="start" dominant-baseline="alphabetic" transform="matrix(0.5403023058681398, -0.8414709848078965, 0.8414709848078965, 0.5403023058681398, 46.21978333706238, 750.1895020378464)" stroke-opacity="0" stroke-linejoin="bevel" stroke-miterlimit="10">express.js</text><text fill="rgb(68,68,68)" stroke="none" font-family="helvetica" font-size="11px" font-style="normal" font-weight="normal" text-decoration="normal" x="699.0972900390625" y="337" text-anchor="start" dominant-baseline="alphabetic" transform="matrix(0.5403023058681398, -0.8414709848078965, 0.8414709848078965, 0.5403023058681398, 54.58920498474765, 765.5096256017686)" fill-opacity="1">Axum</text><text fill="none" stroke="rgb(0,0,0)" font-family="helvetica" font-size="11px" font-style="normal" font-weight="normal" text-decoration="normal" x="699.0972900390625" y="337" text-anchor="start" dominant-baseline="alphabetic" transform="matrix(0.5403023058681398, -0.8414709848078965, 0.8414709848078965, 0.5403023058681398, 54.58920498474765, 765.5096256017686)" stroke-opacity="0" stroke-linejoin="bevel" stroke-miterlimit="10">Axum</text><text fill="rgb(128,128,128)" stroke="none" font-family="helvetica" font-size="11px" font-style="normal" font-weight="bold" text-decoration="normal" x="105.13895416259766" y="397.1500002770505" text-anchor="start" dominant-baseline="alphabetic" transform="matrix(1, 0, 0, 1, 0.5, 0.5)" fill-opacity="1">1</text><text fill="none" stroke="rgb(0,0,0)" font-family="helvetica" font-size="11px" font-style="normal" font-weight="bold" text-decoration="normal" x="105.13895416259766" y="397.1500002770505" text-anchor="start" dominant-baseline="alphabetic" transform="matrix(1, 0, 0, 1, 0.5, 0.5)" stroke-opacity="0" stroke-linejoin="bevel" stroke-miterlimit="10">1</text><text fill="rgb(128,128,128)" stroke="none" font-family="helvetica" font-size="11px" font-style="normal" font-weight="bold" text-decoration="normal" x="218.6009979248047" y="397.1500002770505" text-anchor="start" dominant-baseline="alphabetic" transform="matrix(1, 0, 0, 1, 0.5, 0.5)" fill-opacity="1">50</text><text fill="none" stroke="rgb(0,0,0)" font-family="helvetica" font-size="11px" font-style="normal" font-weight="bold" text-decoration="normal" x="218.6009979248047" y="397.1500002770505" text-anchor="start" dominant-baseline="alphabetic" transform="matrix(1, 0, 0, 1, 0.5, 0.5)" stroke-opacity="0" stroke-linejoin="bevel" stroke-miterlimit="10">50</text><text fill="rgb(128,128,128)" stroke="none" font-family="helvetica" font-size="11px" font-style="normal" font-weight="bold" text-decoration="normal" x="332.06304931640625" y="397.1500002770505" text-anchor="start" dominant-baseline="alphabetic" transform="matrix(1, 0, 0, 1, 0.5, 0.5)" fill-opacity="1">100</text><text fill="none" stroke="rgb(0,0,0)" font-family="helvetica" font-size="11px" font-style="normal" font-weight="bold" text-decoration="normal" x="332.06304931640625" y="397.1500002770505" text-anchor="start" dominant-baseline="alphabetic" transform="matrix(1, 0, 0, 1, 0.5, 0.5)" stroke-opacity="0" stroke-linejoin="bevel" stroke-miterlimit="10">100</text><text fill="rgb(128,128,128)" stroke="none" font-family="helvetica" font-size="11px" font-style="normal" font-weight="bold" text-decoration="normal" x="448.58392333984375" y="397.1500002770505" text-anchor="start" dominant-baseline="alphabetic" transform="matrix(1, 0, 0, 1, 0.5, 0.5)" fill-opacity="1">150</text><text fill="none" stroke="rgb(0,0,0)" font-family="helvetica" font-size="11px" font-style="normal" font-weight="bold" text-decoration="normal" x="448.58392333984375" y="397.1500002770505" text-anchor="start" dominant-baseline="alphabetic" transform="matrix(1, 0, 0, 1, 0.5, 0.5)" stroke-opacity="0" stroke-linejoin="bevel" stroke-miterlimit="10">150</text><text fill="rgb(128,128,128)" stroke="none" font-family="helvetica" font-size="11px" font-style="normal" font-weight="bold" text-decoration="normal" x="565.1047973632812" y="397.1500002770505" text-anchor="start" dominant-baseline="alphabetic" transform="matrix(1, 0, 0, 1, 0.5, 0.5)" fill-opacity="1">200</text><text fill="none" stroke="rgb(0,0,0)" font-family="helvetica" font-size="11px" font-style="normal" font-weight="bold" text-decoration="normal" x="565.1047973632812" y="397.1500002770505" text-anchor="start" dominant-baseline="alphabetic" transform="matrix(1, 0, 0, 1, 0.5, 0.5)" stroke-opacity="0" stroke-linejoin="bevel" stroke-miterlimit="10">200</text><text fill="rgb(128,128,128)" stroke="none" font-family="helvetica" font-size="11px" font-style="normal" font-weight="bold" text-decoration="normal" x="681.6256713867188" y="397.1500002770505" text-anchor="start" dominant-baseline="alphabetic" transform="matrix(1, 0, 0, 1, 0.5, 0.5)" fill-opacity="1">250</text><text fill="none" stroke="rgb(0,0,0)" font-family="helvetica" font-size="11px" font-style="normal" font-weight="bold" text-decoration="normal" x="681.6256713867188" y="397.1500002770505" text-anchor="start" dominant-baseline="alphabetic" transform="matrix(1, 0, 0, 1, 0.5, 0.5)" stroke-opacity="0" stroke-linejoin="bevel" stroke-miterlimit="10">250</text><path fill="none" stroke="rgb(211,211,211)" paint-order="fill" d="M 166.5 388.5 L 166.5 325.5 M 283.5 388.5 L 283.5 325.5 M 400.5 388.5 L 400.5 325.5 M 516.5 388.5 L 516.5 325.5 M 633.5 388.5 L 633.5 325.5" stroke-opacity="1" stroke-linejoin="bevel" stroke-miterlimit="10" stroke-width="2"/><path fill="none" stroke="rgb(0,0,0)" paint-order="fill" d="M 29.5 322.5 L 29.5 27.5" stroke-opacity="1" stroke-linejoin="bevel" stroke-miterlimit="10"/><path fill="none" stroke="rgb(0,0,0)" paint-order="fill" d="M 23.5 322.5 L 31.5 322.5 M 23.5 253.5 L 31.5 253.5 M 23.5 185.5 L 31.5 185.5 M 23.5 116.5 L 31.5 116.5 M 23.5 48.5 L 31.5 48.5" stroke-opacity="1" stroke-linejoin="bevel" stroke-miterlimit="10"/><path fill="none" stroke="rgb(0,0,0)" paint-order="fill" d="M 25.5 322.5 L 29.5 322.5 M 25.5 308.5 L 29.5 308.5 M 25.5 295.5 L 29.5 295.5 M 25.5 281.5 L 29.5 281.5 M 25.5 267.5 L 29.5 267.5 M 25.5 253.5 L 29.5 253.5 M 25.5 240.5 L 29.5 240.5 M 25.5 226.5 L 29.5 226.5 M 25.5 212.5 L 29.5 212.5 M 25.5 199.5 L 29.5 199.5 M 25.5 185.5 L 29.5 185.5 M 25.5 171.5 L 29.5 171.5 M 25.5 158.5 L 29.5 158.5 M 25.5 144.5 L 29.5 144.5 M 25.5 130.5 L 29.5 130.5 M 25.5 116.5 L 29.5 116.5 M 25.5 103.5 L 29.5 103.5 M 25.5 89.5 L 29.5 89.5 M 25.5 75.5 L 29.5 75.5 M 25.5 62.5 L 29.5 62.5 M 25.5 48.5 L 29.5 48.5 M 25.5 34.5 L 29.5 34.5" stroke-opacity="1" stroke-linejoin="bevel" stroke-miterlimit="10"/><text fill="rgb(68,68,68)" stroke="none" font-family="helvetica" font-size="11px" font-style="normal" font-weight="normal" text-decoration="normal" x="11.88232421875" y="326" text-anchor="start" dominant-baseline="alphabetic" transform="matrix(1, 0, 0, 1, 0.5, 0.5)" fill-opacity="1">0</text><text fill="none" stroke="rgb(0,0,0)" font-family="helvetica" font-size="11px" font-style="normal" font-weight="normal" text-decoration="normal" x="11.88232421875" y="326" text-anchor="start" dominant-baseline="alphabetic" transform="matrix(1, 0, 0, 1, 0.5, 0.5)" stroke-opacity="0" stroke-linejoin="bevel" stroke-miterlimit="10">0</text><text fill="rgb(68,68,68)" stroke="none" font-family="helvetica" font-size="11px" font-style="normal" font-weight="normal" text-decoration="normal" x="2.70849609375" y="257.47503662109375" text-anchor="start" dominant-baseline="alphabetic" transform="matrix(1, 0, 0, 1, 0.5, 0.5)" fill-opacity="1">0.1</text><text fill="none" stroke="rgb(0,0,0)" font-family="helvetica" font-size="11px" font-style="normal" font-weight="normal" text-decoration="normal" x="2.70849609375" y="257.47503662109375" text-anchor="start" dominant-baseline="alphabetic" transform="matrix(1, 0, 0, 1, 0.5, 0.5)" stroke-opacity="0" stroke-linejoin="bevel" stroke-miterlimit="10">0.1</text><text fill="rgb(68,68,68)" stroke="none" font-family="helvetica" font-size="11px" font-style="normal" font-weight="normal" text-decoration="normal" x="2.70849609375" y="188.95005798339844" text-anchor="start" dominant-baseline="alphabetic" transform="matrix(1, 0, 0, 1, 0.5, 0.5)" fill-opacity="1">0.2</text><text fill="none" stroke="rgb(0,0,0)" font-family="helvetica" font-size="11px" font-style="normal" font-weight="normal" text-decoration="normal" x="2.70849609375" y="188.95005798339844" text-anchor="start" dominant-baseline="alphabetic" transform="matrix(1, 0, 0, 1, 0.5, 0.5)" stroke-opacity="0" stroke-linejoin="bevel" stroke-miterlimit="10">0.2</text><text fill="rgb(68,68,68)" stroke="none" font-family="helvetica" font-size="11px" font-style="normal" font-weight="normal" text-decoration="normal" x="2.70849609375" y="120.42508697509766" text-anchor="start" dominant-baseline="alphabetic" transform="matrix(1, 0, 0, 1, 0.5, 0.5)" fill-opacity="1">0.3</text><text fill="none" stroke="rgb(0,0,0)" font-family="helvetica" font-size="11px" font-style="normal" font-weight="normal" text-decoration="normal" x="2.70849609375" y="120.42508697509766" text-anchor="start" dominant-baseline="alphabetic" transform="matrix(1, 0, 0, 1, 0.5, 0.5)" stroke-opacity="0" stroke-linejoin="bevel" stroke-miterlimit="10">0.3</text><text fill="rgb(68,68,68)" stroke="none" font-family="helvetica" font-size="11px" font-style="normal" font-weight="normal" text-decoration="normal" x="2.70849609375" y="51.900115966796875" text-anchor="start" dominant-baseline="alphabetic" transform="matrix(1, 0, 0, 1, 0.5, 0.5)" fill-opacity="1">0.4</text><text fill="none" stroke="rgb(0,0,0)" font-family="helvetica" font-size="11px" font-style="normal" font-weight="normal" text-decoration="normal" x="2.70849609375" y="51.900115966796875" text-anchor="start" dominant-baseline="alphabetic" transform="matrix(1, 0, 0, 1, 0.5, 0.5)" stroke-opacity="0" stroke-linejoin="bevel" stroke-miterlimit="10">0.4</text><text fill="rgb(68,68,68)" stroke="none" font-family="helvetica" font-size="13px" font-style="normal" font-weight="bold" text-decoration="normal" x="0" y="12" text-anchor="start" dominant-baseline="alphabetic" transform="matrix(1, 0, 0, 1, 29.5, 7.5)" fill-opacity="1">Longest Transaction in sec</text><text fill="none" stroke="rgb(0,0,0)" font-family="helvetica" font-size="13px" font-style="normal" font-weight="bold" text-decoration="normal" x="0" y="12" text-anchor="start" dominant-baseline="alphabetic" transform="matrix(1, 0, 0, 1, 29.5, 7.5)" stroke-opacity="0" stroke-miterlimit="10" stroke-dasharray="">Longest Transaction in sec</text></svg>