<svg version="1.1" xmlns="http://www.w3.org/2000/svg" width="800" height="400"><defs><clipPath id="dUFveDPByIrJ"><path fill="none" stroke="none" d="M 0.5 0.5 L 800.5 0.5 L 800.5 400.5 L 0.5 400.5 L 0.5 0.5 Z M 32.5 27.5 L 770.5 27.5 L 770.5 262.5 L 32.5 262.5 L 32.5 27.5 Z" clip-rule="evenodd"/></clipPath><clipPath id="iyqCpuzDHeeB"><path fill="none" stroke="none" d="M 32.5 27.5 L 770.5 27.5 L 770.5 262.5 L 32.5 262.5 L 32.5 27.5 Z"/></clipPath><clipPath id="ldVXgNNIgswV"><path fill="none" stroke="none" d="M 32.5 27.5 L 770.5 27.5 L 770.5 262.5 L 32.5 262.5 L 32.5 27.5 Z"/></clipPath><clipPath id="GxRIBaXmJfko"><path fill="none" stroke="none" d="M 32.5 27.5 L 770.5 27.5 L 770.5 262.5 L 32.5 262.5 L 32.5 27.5 Z"/></clipPath><clipPath id="uMiVIwauahoW"><path fill="none" stroke="none" d="M 32.5 27.5 L 770.5 27.5 L 770.5 262.5 L 32.5 262.5 L 32.5 27.5 Z"/></clipPath></defs><path fill="rgb(255,255,255)" stroke="none" paint-order="stroke" d="M 0.5 0.5 L 800.5 0.5 L 800.5 400.5 L 0.5 400.5 L 0.5 0.5 Z" fill-opacity="1" clip-path="url(#dUFveDPByIrJ)"/><path fill="rgb(255,255,255)" stroke="none" paint-order="stroke" d="M 32.5 27.5 L 770.5 27.5 L 770.5 262.5 L 32.5 262.5 L 32.5 27.5 Z" fill-opacity="1"/><path fill="none" stroke="rgb(229,229,229)" paint-order="fill" d="M 32.5 27.5 L 770.5 27.5 L 770.5 262.5 L 32.5 262.5 L 32.5 27.5 Z" stroke-opacity="1" stroke-linejoin="bevel" stroke-miterlimit="10"/><path fill="none" stroke="rgb(229,229,229)" paint-order="fill" d="M 32.5 210.5 L 770.5 210.5 M 32.5 157.5 L 770.5 157.5 M 32.5 105.5 L 770.5 105.5 M 32.5 53.5 L 770.5 53.5" stroke-opacity="1" stroke-linejoin="bevel" stroke-miterlimit="10" clip-path="url(#ldVXgNNIgswV)"/><path fill="rgb(31,119,180)" stroke="rgb(255,255,255)" paint-order="fill" d="M 66.98774719238281 261.6803894042969 L 83.94892883300781 261.6803894042969 L 83.94892883300781 262.5 L 66.98774719238281 262.5 L 66.98774719238281 261.6803894042969 Z" fill-opacity="1" clip-path="url(#GxRIBaXmJfko)" stroke-opacity="1" stroke-linejoin="bevel" stroke-miterlimit="10"/><path fill="rgb(255,127,14)" stroke="rgb(255,255,255)" paint-order="fill" d="M 85.83350372314453 237.62355041503906 L 102.79468536376953 237.62355041503906 L 102.79468536376953 262.5 L 85.83350372314453 262.5 L 85.83350372314453 237.62355041503906 Z" fill-opacity="1" clip-path="url(#GxRIBaXmJfko)" stroke-opacity="1" stroke-linejoin="bevel" stroke-miterlimit="10"/><path fill="rgb(44,160,44)" stroke="rgb(255,255,255)" paint-order="fill" d="M 104.67926788330078 262.5 L 121.64044952392578 262.5 L 121.64044952392578 262.5 L 104.67926788330078 262.5 L 104.67926788330078 262.5 Z" fill-opacity="1" clip-path="url(#GxRIBaXmJfko)" stroke-opacity="1" stroke-linejoin="bevel" stroke-miterlimit="10"/><path fill="rgb(214,39,40)" stroke="rgb(255,255,255)" paint-order="fill" d="M 123.5250244140625 178.83917236328125 L 140.4862060546875 178.83917236328125 L 140.4862060546875 262.5 L 123.5250244140625 262.5 L 123.5250244140625 178.83917236328125 Z" fill-opacity="1" clip-path="url(#GxRIBaXmJfko)" stroke-opacity="1" stroke-linejoin="bevel" stroke-miterlimit="10"/><path fill="rgb(148,103,189)" stroke="rgb(255,255,255)" paint-order="fill" d="M 142.37078857421875 254.55262756347656 L 159.33197021484375 254.55262756347656 L 159.33197021484375 262.5 L 142.37078857421875 262.5 L 142.37078857421875 254.55262756347656 Z" fill-opacity="1" clip-path="url(#GxRIBaXmJfko)" stroke-opacity="1" stroke-linejoin="bevel" stroke-miterlimit="10"/><path fill="rgb(128,128,128)" stroke="rgb(255,255,255)" paint-order="fill" d="M 161.216552734375 261.29547119140625 L 178.177734375 261.29547119140625 L 178.177734375 262.5 L 161.216552734375 262.5 L 161.216552734375 261.29547119140625 Z" fill-opacity="1" clip-path="url(#GxRIBaXmJfko)" stroke-opacity="1" stroke-linejoin="bevel" stroke-miterlimit="10"/><path fill="rgb(31,119,180)" stroke="rgb(255,255,255)" paint-order="fill" d="M 206.44638061523438 237.62355041503906 L 223.40756225585938 237.62355041503906 L 223.40756225585938 262.5 L 206.44638061523438 262.5 L 206.44638061523438 237.62355041503906 Z" fill-opacity="1" clip-path="url(#GxRIBaXmJfko)" stroke-opacity="1" stroke-linejoin="bevel" stroke-miterlimit="10"/><path fill="rgb(255,127,14)" stroke="rgb(255,255,255)" paint-order="fill" d="M 225.29212951660156 262.5 L 242.25331115722656 262.5 L 242.25331115722656 262.5 L 225.29212951660156 262.5 L 225.29212951660156 262.5 Z" fill-opacity="1" clip-path="url(#GxRIBaXmJfko)" stroke-opacity="1" stroke-linejoin="bevel" stroke-miterlimit="10"/><path fill="rgb(44,160,44)" stroke="rgb(255,255,255)" paint-order="fill" d="M 244.1378936767578 205.57481384277344 L 261.0990905761719 205.57481384277344 L 261.0990905761719 262.5 L 244.1378936767578 262.5 L 244.1378936767578 205.57481384277344 Z" fill-opacity="1" clip-path="url(#GxRIBaXmJfko)" stroke-opacity="1" stroke-linejoin="bevel" stroke-miterlimit="10"/><path fill="rgb(214,39,40)" stroke="rgb(255,255,255)" paint-order="fill" d="M 262.983642578125 257.0926513671875 L 279.94482421875 257.0926513671875 L 279.94482421875 262.5 L 262.983642578125 262.5 L 262.983642578125 257.0926513671875 Z" fill-opacity="1" clip-path="url(#GxRIBaXmJfko)" stroke-opacity="1" stroke-linejoin="bevel" stroke-miterlimit="10"/><path fill="rgb(148,103,189)" stroke="rgb(255,255,255)" paint-order="fill" d="M 281.82940673828125 260.9786071777344 L 298.79058837890625 260.9786071777344 L 298.79058837890625 262.5 L 281.82940673828125 262.5 L 281.82940673828125 260.9786071777344 Z" fill-opacity="1" clip-path="url(#GxRIBaXmJfko)" stroke-opacity="1" stroke-linejoin="bevel" stroke-miterlimit="10"/><path fill="rgb(128,128,128)" stroke="rgb(255,255,255)" paint-order="fill" d="M 300.6751708984375 238.40911865234375 L 317.6363525390625 238.40911865234375 L 317.6363525390625 262.5 L 300.6751708984375 262.5 L 300.6751708984375 238.40911865234375 Z" fill-opacity="1" clip-path="url(#GxRIBaXmJfko)" stroke-opacity="1" stroke-linejoin="bevel" stroke-miterlimit="10"/><path fill="rgb(31,119,180)" stroke="rgb(255,255,255)" paint-order="fill" d="M 345.9049987792969 262.49737548828125 L 362.8661804199219 262.49737548828125 L 362.8661804199219 262.5 L 345.9049987792969 262.5 L 345.9049987792969 262.49737548828125 Z" fill-opacity="1" clip-path="url(#GxRIBaXmJfko)" stroke-opacity="1" stroke-linejoin="bevel" stroke-miterlimit="10"/><path fill="rgb(255,127,14)" stroke="rgb(255,255,255)" paint-order="fill" d="M 364.7507629394531 217.42910766601562 L 381.7119445800781 217.42910766601562 L 381.7119445800781 262.5 L 364.7507629394531 262.5 L 364.7507629394531 217.42910766601562 Z" fill-opacity="1" clip-path="url(#GxRIBaXmJfko)" stroke-opacity="1" stroke-linejoin="bevel" stroke-miterlimit="10"/><path fill="rgb(44,160,44)" stroke="rgb(255,255,255)" paint-order="fill" d="M 383.5965270996094 258.35479736328125 L 400.5577087402344 258.35479736328125 L 400.5577087402344 262.5 L 383.5965270996094 262.5 L 383.5965270996094 258.35479736328125 Z" fill-opacity="1" clip-path="url(#GxRIBaXmJfko)" stroke-opacity="1" stroke-linejoin="bevel" stroke-miterlimit="10"/><path fill="rgb(214,39,40)" stroke="rgb(255,255,255)" paint-order="fill" d="M 402.4422607421875 262.1805419921875 L 419.4034423828125 262.1805419921875 L 419.4034423828125 262.5 L 402.4422607421875 262.5 L 402.4422607421875 262.1805419921875 Z" fill-opacity="1" clip-path="url(#GxRIBaXmJfko)" stroke-opacity="1" stroke-linejoin="bevel" stroke-miterlimit="10"/><path fill="rgb(148,103,189)" stroke="rgb(255,255,255)" paint-order="fill" d="M 421.28802490234375 237.3616943359375 L 438.24920654296875 237.3616943359375 L 438.24920654296875 262.5 L 421.28802490234375 262.5 L 421.28802490234375 237.3616943359375 Z" fill-opacity="1" clip-path="url(#GxRIBaXmJfko)" stroke-opacity="1" stroke-linejoin="bevel" stroke-miterlimit="10"/><path fill="rgb(128,128,128)" stroke="rgb(255,255,255)" paint-order="fill" d="M 440.1337890625 262.5 L 457.094970703125 262.5 L 457.094970703125 262.5 L 440.1337890625 262.5 L 440.1337890625 262.5 Z" fill-opacity="1" clip-path="url(#GxRIBaXmJfko)" stroke-opacity="1" stroke-linejoin="bevel" stroke-miterlimit="10"/><path fill="rgb(31,119,180)" stroke="rgb(255,255,255)" paint-order="fill" d="M 485.3636474609375 47.86334228515625 L 502.3248291015625 47.86334228515625 L 502.3248291015625 262.5 L 485.3636474609375 262.5 L 485.3636474609375 47.86334228515625 Z" fill-opacity="1" clip-path="url(#GxRIBaXmJfko)" stroke-opacity="1" stroke-linejoin="bevel" stroke-miterlimit="10"/><path fill="rgb(255,127,14)" stroke="rgb(255,255,255)" paint-order="fill" d="M 504.20941162109375 241.89443969726562 L 521.1705932617188 241.89443969726562 L 521.1705932617188 262.5 L 504.20941162109375 262.5 L 504.20941162109375 241.89443969726562 Z" fill-opacity="1" clip-path="url(#GxRIBaXmJfko)" stroke-opacity="1" stroke-linejoin="bevel" stroke-miterlimit="10"/><path fill="rgb(44,160,44)" stroke="rgb(255,255,255)" paint-order="fill" d="M 523.05517578125 261.5127868652344 L 540.016357421875 261.5127868652344 L 540.016357421875 262.5 L 523.05517578125 262.5 L 523.05517578125 261.5127868652344 Z" fill-opacity="1" clip-path="url(#GxRIBaXmJfko)" stroke-opacity="1" stroke-linejoin="bevel" stroke-miterlimit="10"/><path fill="rgb(214,39,40)" stroke="rgb(255,255,255)" paint-order="fill" d="M 541.9009399414062 237.62355041503906 L 558.8621215820312 237.62355041503906 L 558.8621215820312 262.5 L 541.9009399414062 262.5 L 541.9009399414062 237.62355041503906 Z" fill-opacity="1" clip-path="url(#GxRIBaXmJfko)" stroke-opacity="1" stroke-linejoin="bevel" stroke-miterlimit="10"/><path fill="rgb(148,103,189)" stroke="rgb(255,255,255)" paint-order="fill" d="M 560.7467041015625 262.5 L 577.7078857421875 262.5 L 577.7078857421875 262.5 L 560.7467041015625 262.5 L 560.7467041015625 262.5 Z" fill-opacity="1" clip-path="url(#GxRIBaXmJfko)" stroke-opacity="1" stroke-linejoin="bevel" stroke-miterlimit="10"/><path fill="rgb(128,128,128)" stroke="rgb(255,255,255)" paint-order="fill" d="M 579.5924682617188 193.04232788085938 L 596.5536499023438 193.04232788085938 L 596.5536499023438 262.5 L 579.5924682617188 262.5 L 579.5924682617188 193.04232788085938 Z" fill-opacity="1" clip-path="url(#GxRIBaXmJfko)" stroke-opacity="1" stroke-linejoin="bevel" stroke-miterlimit="10"/><path fill="rgb(31,119,180)" stroke="rgb(255,255,255)" paint-order="fill" d="M 624.822265625 255.9011993408203 L 641.783447265625 255.9011993408203 L 641.783447265625 262.5 L 624.822265625 262.5 L 624.822265625 255.9011993408203 Z" fill-opacity="1" clip-path="url(#GxRIBaXmJfko)" stroke-opacity="1" stroke-linejoin="bevel" stroke-miterlimit="10"/><path fill="rgb(255,127,14)" stroke="rgb(255,255,255)" paint-order="fill" d="M 643.6680297851562 262.1936340332031 L 660.6292114257812 262.1936340332031 L 660.6292114257812 262.5 L 643.6680297851562 262.5 L 643.6680297851562 262.1936340332031 Z" fill-opacity="1" clip-path="url(#GxRIBaXmJfko)" stroke-opacity="1" stroke-linejoin="bevel" stroke-miterlimit="10"/><path fill="rgb(44,160,44)" stroke="rgb(255,255,255)" paint-order="fill" d="M 662.5137329101562 237.62355041503906 L 679.4749145507812 237.62355041503906 L 679.4749145507812 262.5 L 662.5137329101562 262.5 L 662.5137329101562 237.62355041503906 Z" fill-opacity="1" clip-path="url(#GxRIBaXmJfko)" stroke-opacity="1" stroke-linejoin="bevel" stroke-miterlimit="10"/><path fill="rgb(214,39,40)" stroke="rgb(255,255,255)" paint-order="fill" d="M 681.3594970703125 262.5 L 698.3206787109375 262.5 L 698.3206787109375 262.5 L 681.3594970703125 262.5 L 681.3594970703125 262.5 Z" fill-opacity="1" clip-path="url(#GxRIBaXmJfko)" stroke-opacity="1" stroke-linejoin="bevel" stroke-miterlimit="10"/><path fill="rgb(148,103,189)" stroke="rgb(255,255,255)" paint-order="fill" d="M 700.2052612304688 38.69047546386719 L 717.1664428710938 38.69047546386719 L 717.1664428710938 262.5 L 700.2052612304688 262.5 L 700.2052612304688 38.69047546386719 Z" fill-opacity="1" clip-path="url(#GxRIBaXmJfko)" stroke-opacity="1" stroke-linejoin="bevel" stroke-miterlimit="10"/><path fill="rgb(128,128,128)" stroke="rgb(255,255,255)" paint-order="fill" d="M 719.051025390625 241.2371826171875 L 736.01220703125 241.2371826171875 L 736.01220703125 262.5 L 719.051025390625 262.5 L 719.051025390625 241.2371826171875 Z" fill-opacity="1" clip-path="url(#GxRIBaXmJfko)" stroke-opacity="1" stroke-linejoin="bevel" stroke-miterlimit="10"/><path fill="none" stroke="rgb(0,0,0)" paint-order="fill" d="M 32.5 262.5 L 770.5 262.5" stroke-opacity="1" stroke-linejoin="bevel" stroke-miterlimit="10"/><path fill="none" stroke="rgb(0,0,0)" paint-order="fill" d="M 75.5 268.5 L 75.5 260.5 M 94.5 268.5 L 94.5 260.5 M 113.5 268.5 L 113.5 260.5 M 132.5 268.5 L 132.5 260.5 M 150.5 268.5 L 150.5 260.5 M 169.5 268.5 L 169.5 260.5 M 214.5 268.5 L 214.5 260.5 M 233.5 268.5 L 233.5 260.5 M 252.5 268.5 L 252.5 260.5 M 271.5 268.5 L 271.5 260.5 M 290.5 268.5 L 290.5 260.5 M 309.5 268.5 L 309.5 260.5 M 354.5 268.5 L 354.5 260.5 M 373.5 268.5 L 373.5 260.5 M 392.5 268.5 L 392.5 260.5 M 410.5 268.5 L 410.5 260.5 M 429.5 268.5 L 429.5 260.5 M 448.5 268.5 L 448.5 260.5 M 493.5 268.5 L 493.5 260.5 M 512.5 268.5 L 512.5 260.5 M 531.5 268.5 L 531.5 260.5 M 550.5 268.5 L 550.5 260.5 M 569.5 268.5 L 569.5 260.5 M 588.5 268.5 L 588.5 260.5 M 633.5 268.5 L 633.5 260.5 M 652.5 268.5 L 652.5 260.5 M 670.5 268.5 L 670.5 260.5 M 689.5 268.5 L 689.5 260.5 M 708.5 268.5 L 708.5 260.5 M 727.5 268.5 L 727.5 260.5" stroke-opacity="1" stroke-linejoin="bevel" stroke-miterlimit="10"/><path fill="none" stroke="rgb(0,0,0)" paint-order="fill" d="" stroke-opacity="1" stroke-linejoin="bevel" stroke-miterlimit="10"/><text fill="rgb(68,68,68)" stroke="none" font-family="helvetica" font-size="11px" font-style="normal" font-weight="normal" text-decoration="normal" x="40.10993957519531" y="277" text-anchor="start" dominant-baseline="alphabetic" transform="matrix(0.5403023058681398, -0.8414709848078965, 0.8414709848078965, 0.5403023058681398, -194.7588067352218, 189.08115171495183)" fill-opacity="1">Django</text><text fill="none" stroke="rgb(0,0,0)" font-family="helvetica" font-size="11px" font-style="normal" font-weight="normal" text-decoration="normal" x="40.10993957519531" y="277" text-anchor="start" dominant-baseline="alphabetic" transform="matrix(0.5403023058681398, -0.8414709848078965, 0.8414709848078965, 0.5403023058681398, -194.7588067352218, 189.08115171495183)" stroke-opacity="0" stroke-linejoin="bevel" stroke-miterlimit="10">Django</text><text fill="rgb(68,68,68)" stroke="none" font-family="helvetica" font-size="11px" font-style="normal" font-weight="normal" text-decoration="normal" x="23.81262969970703" y="277" text-anchor="start" dominant-baseline="alphabetic" transform="matrix(0.5403023058681398, -0.8414709848078965, 0.8414709848078965, 0.5403023058681398, -186.09545591386023, 204.93930902234175)" fill-opacity="1">Django + DRF</text><text fill="none" stroke="rgb(0,0,0)" font-family="helvetica" font-size="11px" font-style="normal" font-weight="normal" text-decoration="normal" x="23.81262969970703" y="277" text-anchor="start" dominant-baseline="alphabetic" transform="matrix(0.5403023058681398, -0.8414709848078965, 0.8414709848078965, 0.5403023058681398, -186.09545591386023, 204.93930902234175)" stroke-opacity="0" stroke-linejoin="bevel" stroke-miterlimit="10">Django + DRF</text><text fill="rgb(68,68,68)" stroke="none" font-family="helvetica" font-size="11px" font-style="normal" font-weight="normal" text-decoration="normal" x="-3.1892623901367188" y="277" text-anchor="start" dominant-baseline="alphabetic" transform="matrix(0.5403023058681398, -0.8414709848078965, 0.8414709848078965, 0.5403023058681398, -177.43210158528353, 220.7974727496458)" fill-opacity="1">FastAPI + SQLAlchemy</text><text fill="none" stroke="rgb(0,0,0)" font-family="helvetica" font-size="11px" font-style="normal" font-weight="normal" text-decoration="normal" x="-3.1892623901367188" y="277" text-anchor="start" dominant-baseline="alphabetic" transform="matrix(0.5403023058681398, -0.8414709848078965, 0.8414709848078965, 0.5403023058681398, -177.43210158528353, 220.7974727496458)" stroke-opacity="0" stroke-linejoin="bevel" stroke-miterlimit="10">FastAPI + SQLAlchemy</text><text fill="rgb(68,68,68)" stroke="none" font-family="helvetica" font-size="11px" font-style="normal" font-weight="normal" text-decoration="normal" x="52.351806640625" y="277" text-anchor="start" dominant-baseline="alphabetic" transform="matrix(0.5403023058681398, -0.8414709848078965, 0.8414709848078965, 0.5403023058681398, -168.76875076392196, 236.6556300570357)" fill-opacity="1">Go-chi + GORM</text><text fill="none" stroke="rgb(0,0,0)" font-family="helvetica" font-size="11px" font-style="normal" font-weight="normal" text-decoration="normal" x="52.351806640625" y="277" text-anchor="start" dominant-baseline="alphabetic" transform="matrix(0.5403023058681398, -0.8414709848078965, 0.8414709848078965, 0.5403023058681398, -168.76875076392196, 236.6556300570357)" stroke-opacity="0" stroke-linejoin="bevel" stroke-miterlimit="10">Go-chi + GORM</text><text fill="rgb(68,68,68)" stroke="none" font-family="helvetica" font-size="11px" font-style="normal" font-weight="normal" text-decoration="normal" x="55.29376220703125" y="277" text-anchor="start" dominant-baseline="alphabetic" transform="matrix(0.5403023058681398, -0.8414709848078965, 0.8414709848078965, 0.5403023058681398, -160.10539643534526, 252.51379378433973)" fill-opacity="1">express.js + prisma</text><text fill="none" stroke="rgb(0,0,0)" font-family="helvetica" font-size="11px" font-style="normal" font-weight="normal" text-decoration="normal" x="55.29376220703125" y="277" text-anchor="start" dominant-baseline="alphabetic" transform="matrix(0.5403023058681398, -0.8414709848078965, 0.8414709848078965, 0.5403023058681398, -160.10539643534526, 252.51379378433973)" stroke-opacity="0" stroke-linejoin="bevel" stroke-miterlimit="10">express.js + prisma</text><text fill="rgb(68,68,68)" stroke="none" font-family="helvetica" font-size="11px" font-style="normal" font-weight="normal" text-decoration="normal" x="101.0325927734375" y="277" text-anchor="start" dominant-baseline="alphabetic" transform="matrix(0.5403023058681398, -0.8414709848078965, 0.8414709848078965, 0.5403023058681398, -151.44204210676855, 268.3719575116438)" fill-opacity="1">Axum + SQLx</text><text fill="none" stroke="rgb(0,0,0)" font-family="helvetica" font-size="11px" font-style="normal" font-weight="normal" text-decoration="normal" x="101.0325927734375" y="277" text-anchor="start" dominant-baseline="alphabetic" transform="matrix(0.5403023058681398, -0.8414709848078965, 0.8414709848078965, 0.5403023058681398, -151.44204210676855, 268.3719575116438)" stroke-opacity="0" stroke-linejoin="bevel" stroke-miterlimit="10">Axum + SQLx</text><text fill="rgb(68,68,68)" stroke="none" font-family="helvetica" font-size="11px" font-style="normal" font-weight="normal" text-decoration="normal" x="179.56857299804688" y="277" text-anchor="start" dominant-baseline="alphabetic" transform="matrix(0.5403023058681398, -0.8414709848078965, 0.8414709848078965, 0.5403023058681398, -130.6499945239566, 306.4315453212422)" fill-opacity="1">Django</text><text fill="none" stroke="rgb(0,0,0)" font-family="helvetica" font-size="11px" font-style="normal" font-weight="normal" text-decoration="normal" x="179.56857299804688" y="277" text-anchor="start" dominant-baseline="alphabetic" transform="matrix(0.5403023058681398, -0.8414709848078965, 0.8414709848078965, 0.5403023058681398, -130.6499945239566, 306.4315453212422)" stroke-opacity="0" stroke-linejoin="bevel" stroke-miterlimit="10">Django</text><text fill="rgb(68,68,68)" stroke="none" font-family="helvetica" font-size="11px" font-style="normal" font-weight="normal" text-decoration="normal" x="163.27125549316406" y="277" text-anchor="start" dominant-baseline="alphabetic" transform="matrix(0.5403023058681398, -0.8414709848078965, 0.8414709848078965, 0.5403023058681398, -121.98664720981003, 322.28969620871794)" fill-opacity="1">Django + DRF</text><text fill="none" stroke="rgb(0,0,0)" font-family="helvetica" font-size="11px" font-style="normal" font-weight="normal" text-decoration="normal" x="163.27125549316406" y="277" text-anchor="start" dominant-baseline="alphabetic" transform="matrix(0.5403023058681398, -0.8414709848078965, 0.8414709848078965, 0.5403023058681398, -121.98664720981003, 322.28969620871794)" stroke-opacity="0" stroke-linejoin="bevel" stroke-miterlimit="10">Django + DRF</text><text fill="rgb(68,68,68)" stroke="none" font-family="helvetica" font-size="11px" font-style="normal" font-weight="normal" text-decoration="normal" x="136.2693634033203" y="277" text-anchor="start" dominant-baseline="alphabetic" transform="matrix(0.5403023058681398, -0.8414709848078965, 0.8414709848078965, 0.5403023058681398, -113.32329288123339, 338.147859936022)" fill-opacity="1">FastAPI + SQLAlchemy</text><text fill="none" stroke="rgb(0,0,0)" font-family="helvetica" font-size="11px" font-style="normal" font-weight="normal" text-decoration="normal" x="136.2693634033203" y="277" text-anchor="start" dominant-baseline="alphabetic" transform="matrix(0.5403023058681398, -0.8414709848078965, 0.8414709848078965, 0.5403023058681398, -113.32329288123339, 338.147859936022)" stroke-opacity="0" stroke-linejoin="bevel" stroke-miterlimit="10">FastAPI + SQLAlchemy</text><text fill="rgb(68,68,68)" stroke="none" font-family="helvetica" font-size="11px" font-style="normal" font-weight="normal" text-decoration="normal" x="191.81045532226562" y="277" text-anchor="start" dominant-baseline="alphabetic" transform="matrix(0.5403023058681398, -0.8414709848078965, 0.8414709848078965, 0.5403023058681398, -104.65993153822654, 354.0060365031543)" fill-opacity="1">Go-chi + GORM</text><text fill="none" stroke="rgb(0,0,0)" font-family="helvetica" font-size="11px" font-style="normal" font-weight="normal" text-decoration="normal" x="191.81045532226562" y="277" text-anchor="start" dominant-baseline="alphabetic" transform="matrix(0.5403023058681398, -0.8414709848078965, 0.8414709848078965, 0.5403023058681398, -104.65993153822654, 354.0060365031543)" stroke-opacity="0" stroke-linejoin="bevel" stroke-miterlimit="10">Go-chi + GORM</text><text fill="rgb(68,68,68)" stroke="none" font-family="helvetica" font-size="11px" font-style="normal" font-weight="normal" text-decoration="normal" x="194.75238037109375" y="277" text-anchor="start" dominant-baseline="alphabetic" transform="matrix(0.5403023058681398, -0.8414709848078965, 0.8414709848078965, 0.5403023058681398, -95.99659123851018, 369.8641745508018)" fill-opacity="1">express.js + prisma</text><text fill="none" stroke="rgb(0,0,0)" font-family="helvetica" font-size="11px" font-style="normal" font-weight="normal" text-decoration="normal" x="194.75238037109375" y="277" text-anchor="start" dominant-baseline="alphabetic" transform="matrix(0.5403023058681398, -0.8414709848078965, 0.8414709848078965, 0.5403023058681398, -95.99659123851018, 369.8641745508018)" stroke-opacity="0" stroke-linejoin="bevel" stroke-miterlimit="10">express.js + prisma</text><text fill="rgb(68,68,68)" stroke="none" font-family="helvetica" font-size="11px" font-style="normal" font-weight="normal" text-decoration="normal" x="240.4912109375" y="277" text-anchor="start" dominant-baseline="alphabetic" transform="matrix(0.5403023058681398, -0.8414709848078965, 0.8414709848078965, 0.5403023058681398, -87.33323690993348, 385.7223382781059)" fill-opacity="1">Axum + SQLx</text><text fill="none" stroke="rgb(0,0,0)" font-family="helvetica" font-size="11px" font-style="normal" font-weight="normal" text-decoration="normal" x="240.4912109375" y="277" text-anchor="start" dominant-baseline="alphabetic" transform="matrix(0.5403023058681398, -0.8414709848078965, 0.8414709848078965, 0.5403023058681398, -87.33323690993348, 385.7223382781059)" stroke-opacity="0" stroke-linejoin="bevel" stroke-miterlimit="10">Axum + SQLx</text><text fill="rgb(68,68,68)" stroke="none" font-family="helvetica" font-size="11px" font-style="normal" font-weight="normal" text-decoration="normal" x="319.0271911621094" y="277" text-anchor="start" dominant-baseline="alphabetic" transform="matrix(0.5403023058681398, -0.8414709848078965, 0.8414709848078965, 0.5403023058681398, -66.54118932712151, 423.7819260877043)" fill-opacity="1">Django</text><text fill="none" stroke="rgb(0,0,0)" font-family="helvetica" font-size="11px" font-style="normal" font-weight="normal" text-decoration="normal" x="319.0271911621094" y="277" text-anchor="start" dominant-baseline="alphabetic" transform="matrix(0.5403023058681398, -0.8414709848078965, 0.8414709848078965, 0.5403023058681398, -66.54118932712151, 423.7819260877043)" stroke-opacity="0" stroke-linejoin="bevel" stroke-miterlimit="10">Django</text><text fill="rgb(68,68,68)" stroke="none" font-family="helvetica" font-size="11px" font-style="normal" font-weight="normal" text-decoration="normal" x="302.7298889160156" y="277" text-anchor="start" dominant-baseline="alphabetic" transform="matrix(0.5403023058681398, -0.8414709848078965, 0.8414709848078965, 0.5403023058681398, -57.87783499854481, 439.6400898150083)" fill-opacity="1">Django + DRF</text><text fill="none" stroke="rgb(0,0,0)" font-family="helvetica" font-size="11px" font-style="normal" font-weight="normal" text-decoration="normal" x="302.7298889160156" y="277" text-anchor="start" dominant-baseline="alphabetic" transform="matrix(0.5403023058681398, -0.8414709848078965, 0.8414709848078965, 0.5403023058681398, -57.87783499854481, 439.6400898150083)" stroke-opacity="0" stroke-linejoin="bevel" stroke-miterlimit="10">Django + DRF</text><text fill="rgb(68,68,68)" stroke="none" font-family="helvetica" font-size="11px" font-style="normal" font-weight="normal" text-decoration="normal" x="275.7279968261719" y="277" text-anchor="start" dominant-baseline="alphabetic" transform="matrix(0.5403023058681398, -0.8414709848078965, 0.8414709848078965, 0.5403023058681398, -49.21448066996811, 455.49825354231234)" fill-opacity="1">FastAPI + SQLAlchemy</text><text fill="none" stroke="rgb(0,0,0)" font-family="helvetica" font-size="11px" font-style="normal" font-weight="normal" text-decoration="normal" x="275.7279968261719" y="277" text-anchor="start" dominant-baseline="alphabetic" transform="matrix(0.5403023058681398, -0.8414709848078965, 0.8414709848078965, 0.5403023058681398, -49.21448066996811, 455.49825354231234)" stroke-opacity="0" stroke-linejoin="bevel" stroke-miterlimit="10">FastAPI + SQLAlchemy</text><text fill="rgb(68,68,68)" stroke="none" font-family="helvetica" font-size="11px" font-style="normal" font-weight="normal" text-decoration="normal" x="331.2690734863281" y="277" text-anchor="start" dominant-baseline="alphabetic" transform="matrix(0.5403023058681398, -0.8414709848078965, 0.8414709848078965, 0.5403023058681398, -40.551126341391466, 471.3564172696164)" fill-opacity="1">Go-chi + GORM</text><text fill="none" stroke="rgb(0,0,0)" font-family="helvetica" font-size="11px" font-style="normal" font-weight="normal" text-decoration="normal" x="331.2690734863281" y="277" text-anchor="start" dominant-baseline="alphabetic" transform="matrix(0.5403023058681398, -0.8414709848078965, 0.8414709848078965, 0.5403023058681398, -40.551126341391466, 471.3564172696164)" stroke-opacity="0" stroke-linejoin="bevel" stroke-miterlimit="10">Go-chi + GORM</text><text fill="rgb(68,68,68)" stroke="none" font-family="helvetica" font-size="11px" font-style="normal" font-weight="normal" text-decoration="normal" x="334.2110290527344" y="277" text-anchor="start" dominant-baseline="alphabetic" transform="matrix(0.5403023058681398, -0.8414709848078965, 0.8414709848078965, 0.5403023058681398, -31.887772012814764, 487.2145809969204)" fill-opacity="1">express.js + prisma</text><text fill="none" stroke="rgb(0,0,0)" font-family="helvetica" font-size="11px" font-style="normal" font-weight="normal" text-decoration="normal" x="334.2110290527344" y="277" text-anchor="start" dominant-baseline="alphabetic" transform="matrix(0.5403023058681398, -0.8414709848078965, 0.8414709848078965, 0.5403023058681398, -31.887772012814764, 487.2145809969204)" stroke-opacity="0" stroke-linejoin="bevel" stroke-miterlimit="10">express.js + prisma</text><text fill="rgb(68,68,68)" stroke="none" font-family="helvetica" font-size="11px" font-style="normal" font-weight="normal" text-decoration="normal" x="379.9498596191406" y="277" text-anchor="start" dominant-baseline="alphabetic" transform="matrix(0.5403023058681398, -0.8414709848078965, 0.8414709848078965, 0.5403023058681398, -23.22441768423812, 503.07274472422444)" fill-opacity="1">Axum + SQLx</text><text fill="none" stroke="rgb(0,0,0)" font-family="helvetica" font-size="11px" font-style="normal" font-weight="normal" text-decoration="normal" x="379.9498596191406" y="277" text-anchor="start" dominant-baseline="alphabetic" transform="matrix(0.5403023058681398, -0.8414709848078965, 0.8414709848078965, 0.5403023058681398, -23.22441768423812, 503.07274472422444)" stroke-opacity="0" stroke-linejoin="bevel" stroke-miterlimit="10">Axum + SQLx</text><text fill="rgb(68,68,68)" stroke="none" font-family="helvetica" font-size="11px" font-style="normal" font-weight="normal" text-decoration="normal" x="458.48583984375" y="277" text-anchor="start" dominant-baseline="alphabetic" transform="matrix(0.5403023058681398, -0.8414709848078965, 0.8414709848078965, 0.5403023058681398, -2.432370101426102, 541.1323325338228)" fill-opacity="1">Django</text><text fill="none" stroke="rgb(0,0,0)" font-family="helvetica" font-size="11px" font-style="normal" font-weight="normal" text-decoration="normal" x="458.48583984375" y="277" text-anchor="start" dominant-baseline="alphabetic" transform="matrix(0.5403023058681398, -0.8414709848078965, 0.8414709848078965, 0.5403023058681398, -2.432370101426102, 541.1323325338228)" stroke-opacity="0" stroke-linejoin="bevel" stroke-miterlimit="10">Django</text><text fill="rgb(68,68,68)" stroke="none" font-family="helvetica" font-size="11px" font-style="normal" font-weight="normal" text-decoration="normal" x="442.18853759765625" y="277" text-anchor="start" dominant-baseline="alphabetic" transform="matrix(0.5403023058681398, -0.8414709848078965, 0.8414709848078965, 0.5403023058681398, 6.230984227150543, 556.9904962611269)" fill-opacity="1">Django + DRF</text><text fill="none" stroke="rgb(0,0,0)" font-family="helvetica" font-size="11px" font-style="normal" font-weight="normal" text-decoration="normal" x="442.18853759765625" y="277" text-anchor="start" dominant-baseline="alphabetic" transform="matrix(0.5403023058681398, -0.8414709848078965, 0.8414709848078965, 0.5403023058681398, 6.230984227150543, 556.9904962611269)" stroke-opacity="0" stroke-linejoin="bevel" stroke-miterlimit="10">Django + DRF</text><text fill="rgb(68,68,68)" stroke="none" font-family="helvetica" font-size="11px" font-style="normal" font-weight="normal" text-decoration="normal" x="415.1866455078125" y="277" text-anchor="start" dominant-baseline="alphabetic" transform="matrix(0.5403023058681398, -0.8414709848078965, 0.8414709848078965, 0.5403023058681398, 14.894338555727245, 572.8486599884309)" fill-opacity="1">FastAPI + SQLAlchemy</text><text fill="none" stroke="rgb(0,0,0)" font-family="helvetica" font-size="11px" font-style="normal" font-weight="normal" text-decoration="normal" x="415.1866455078125" y="277" text-anchor="start" dominant-baseline="alphabetic" transform="matrix(0.5403023058681398, -0.8414709848078965, 0.8414709848078965, 0.5403023058681398, 14.894338555727245, 572.8486599884309)" stroke-opacity="0" stroke-linejoin="bevel" stroke-miterlimit="10">FastAPI + SQLAlchemy</text><text fill="rgb(68,68,68)" stroke="none" font-family="helvetica" font-size="11px" font-style="normal" font-weight="normal" text-decoration="normal" x="470.72772216796875" y="277" text-anchor="start" dominant-baseline="alphabetic" transform="matrix(0.5403023058681398, -0.8414709848078965, 0.8414709848078965, 0.5403023058681398, 23.557692884303947, 588.7068237157349)" fill-opacity="1">Go-chi + GORM</text><text fill="none" stroke="rgb(0,0,0)" font-family="helvetica" font-size="11px" font-style="normal" font-weight="normal" text-decoration="normal" x="470.72772216796875" y="277" text-anchor="start" dominant-baseline="alphabetic" transform="matrix(0.5403023058681398, -0.8414709848078965, 0.8414709848078965, 0.5403023058681398, 23.557692884303947, 588.7068237157349)" stroke-opacity="0" stroke-linejoin="bevel" stroke-miterlimit="10">Go-chi + GORM</text><text fill="rgb(68,68,68)" stroke="none" font-family="helvetica" font-size="11px" font-style="normal" font-weight="normal" text-decoration="normal" x="473.669677734375" y="277" text-anchor="start" dominant-baseline="alphabetic" transform="matrix(0.5403023058681398, -0.8414709848078965, 0.8414709848078965, 0.5403023058681398, 32.22104721288065, 604.5649874430391)" fill-opacity="1">express.js + prisma</text><text fill="none" stroke="rgb(0,0,0)" font-family="helvetica" font-size="11px" font-style="normal" font-weight="normal" text-decoration="normal" x="473.669677734375" y="277" text-anchor="start" dominant-baseline="alphabetic" transform="matrix(0.5403023058681398, -0.8414709848078965, 0.8414709848078965, 0.5403023058681398, 32.22104721288065, 604.5649874430391)" stroke-opacity="0" stroke-linejoin="bevel" stroke-miterlimit="10">express.js + prisma</text><text fill="rgb(68,68,68)" stroke="none" font-family="helvetica" font-size="11px" font-style="normal" font-weight="normal" text-decoration="normal" x="519.4085083007812" y="277" text-anchor="start" dominant-baseline="alphabetic" transform="matrix(0.5403023058681398, -0.8414709848078965, 0.8414709848078965, 0.5403023058681398, 40.88440154145724, 620.4231511703431)" fill-opacity="1">Axum + SQLx</text><text fill="none" stroke="rgb(0,0,0)" font-family="helvetica" font-size="11px" font-style="normal" font-weight="normal" text-decoration="normal" x="519.4085083007812" y="277" text-anchor="start" dominant-baseline="alphabetic" transform="matrix(0.5403023058681398, -0.8414709848078965, 0.8414709848078965, 0.5403023058681398, 40.88440154145724, 620.4231511703431)" stroke-opacity="0" stroke-linejoin="bevel" stroke-miterlimit="10">Axum + SQLx</text><text fill="rgb(68,68,68)" stroke="none" font-family="helvetica" font-size="11px" font-style="normal" font-weight="normal" text-decoration="normal" x="597.9444580078125" y="277" text-anchor="start" dominant-baseline="alphabetic" transform="matrix(0.5403023058681398, -0.8414709848078965, 0.8414709848078965, 0.5403023058681398, 61.67643509540903, 658.4827133002849)" fill-opacity="1">Django</text><text fill="none" stroke="rgb(0,0,0)" font-family="helvetica" font-size="11px" font-style="normal" font-weight="normal" text-decoration="normal" x="597.9444580078125" y="277" text-anchor="start" dominant-baseline="alphabetic" transform="matrix(0.5403023058681398, -0.8414709848078965, 0.8414709848078965, 0.5403023058681398, 61.67643509540903, 658.4827133002849)" stroke-opacity="0" stroke-linejoin="bevel" stroke-miterlimit="10">Django</text><text fill="rgb(68,68,68)" stroke="none" font-family="helvetica" font-size="11px" font-style="normal" font-weight="normal" text-decoration="normal" x="581.6471557617188" y="277" text-anchor="start" dominant-baseline="alphabetic" transform="matrix(0.5403023058681398, -0.8414709848078965, 0.8414709848078965, 0.5403023058681398, 70.33978942398562, 674.3408770275889)" fill-opacity="1">Django + DRF</text><text fill="none" stroke="rgb(0,0,0)" font-family="helvetica" font-size="11px" font-style="normal" font-weight="normal" text-decoration="normal" x="581.6471557617188" y="277" text-anchor="start" dominant-baseline="alphabetic" transform="matrix(0.5403023058681398, -0.8414709848078965, 0.8414709848078965, 0.5403023058681398, 70.33978942398562, 674.3408770275889)" stroke-opacity="0" stroke-linejoin="bevel" stroke-miterlimit="10">Django + DRF</text><text fill="rgb(68,68,68)" stroke="none" font-family="helvetica" font-size="11px" font-style="normal" font-weight="normal" text-decoration="normal" x="554.645263671875" y="277" text-anchor="start" dominant-baseline="alphabetic" transform="matrix(0.5403023058681398, -0.8414709848078965, 0.8414709848078965, 0.5403023058681398, 79.00314375256232, 690.199040754893)" fill-opacity="1">FastAPI + SQLAlchemy</text><text fill="none" stroke="rgb(0,0,0)" font-family="helvetica" font-size="11px" font-style="normal" font-weight="normal" text-decoration="normal" x="554.645263671875" y="277" text-anchor="start" dominant-baseline="alphabetic" transform="matrix(0.5403023058681398, -0.8414709848078965, 0.8414709848078965, 0.5403023058681398, 79.00314375256232, 690.199040754893)" stroke-opacity="0" stroke-linejoin="bevel" stroke-miterlimit="10">FastAPI + SQLAlchemy</text><text fill="rgb(68,68,68)" stroke="none" font-family="helvetica" font-size="11px" font-style="normal" font-weight="normal" text-decoration="normal" x="610.1863403320312" y="277" text-anchor="start" dominant-baseline="alphabetic" transform="matrix(0.5403023058681398, -0.8414709848078965, 0.8414709848078965, 0.5403023058681398, 87.66649808113903, 706.057204482197)" fill-opacity="1">Go-chi + GORM</text><text fill="none" stroke="rgb(0,0,0)" font-family="helvetica" font-size="11px" font-style="normal" font-weight="normal" text-decoration="normal" x="610.1863403320312" y="277" text-anchor="start" dominant-baseline="alphabetic" transform="matrix(0.5403023058681398, -0.8414709848078965, 0.8414709848078965, 0.5403023058681398, 87.66649808113903, 706.057204482197)" stroke-opacity="0" stroke-linejoin="bevel" stroke-miterlimit="10">Go-chi + GORM</text><text fill="rgb(68,68,68)" stroke="none" font-family="helvetica" font-size="11px" font-style="normal" font-weight="normal" text-decoration="normal" x="613.1282958984375" y="277" text-anchor="start" dominant-baseline="alphabetic" transform="matrix(0.5403023058681398, -0.8414709848078965, 0.8414709848078965, 0.5403023058681398, 96.32985240971573, 721.915368209501)" fill-opacity="1">express.js + prisma</text><text fill="none" stroke="rgb(0,0,0)" font-family="helvetica" font-size="11px" font-style="normal" font-weight="normal" text-decoration="normal" x="613.1282958984375" y="277" text-anchor="start" dominant-baseline="alphabetic" transform="matrix(0.5403023058681398, -0.8414709848078965, 0.8414709848078965, 0.5403023058681398, 96.32985240971573, 721.915368209501)" stroke-opacity="0" stroke-linejoin="bevel" stroke-miterlimit="10">express.js + prisma</text><text fill="rgb(68,68,68)" stroke="none" font-family="helvetica" font-size="11px" font-style="normal" font-weight="normal" text-decoration="normal" x="658.8671264648438" y="277" text-anchor="start" dominant-baseline="alphabetic" transform="matrix(0.5403023058681398, -0.8414709848078965, 0.8414709848078965, 0.5403023058681398, 104.99320673829243, 737.773531936805)" fill-opacity="1">Axum + SQLx</text><text fill="none" stroke="rgb(0,0,0)" font-family="helvetica" font-size="11px" font-style="normal" font-weight="normal" text-decoration="normal" x="658.8671264648438" y="277" text-anchor="start" dominant-baseline="alphabetic" transform="matrix(0.5403023058681398, -0.8414709848078965, 0.8414709848078965, 0.5403023058681398, 104.99320673829243, 737.773531936805)" stroke-opacity="0" stroke-linejoin="bevel" stroke-miterlimit="10">Axum + SQLx</text><text fill="rgb(128,128,128)" stroke="none" font-family="helvetica" font-size="11px" font-style="normal" font-weight="bold" text-decoration="normal" x="86.7248306274414" y="394.9673016863047" text-anchor="start" dominant-baseline="alphabetic" transform="matrix(1, 0, 0, 1, 0.5, 0.5)" fill-opacity="1">Elapsed Time</text><text fill="none" stroke="rgb(0,0,0)" font-family="helvetica" font-size="11px" font-style="normal" font-weight="bold" text-decoration="normal" x="86.7248306274414" y="394.9673016863047" text-anchor="start" dominant-baseline="alphabetic" transform="matrix(1, 0, 0, 1, 0.5, 0.5)" stroke-opacity="0" stroke-linejoin="bevel" stroke-miterlimit="10">Elapsed Time</text><text fill="rgb(128,128,128)" stroke="none" font-family="helvetica" font-size="11px" font-style="normal" font-weight="bold" text-decoration="normal" x="217.8287353515625" y="394.9673016863047" text-anchor="start" dominant-baseline="alphabetic" transform="matrix(1, 0, 0, 1, 0.5, 0.5)" fill-opacity="1">Data Transferred</text><text fill="none" stroke="rgb(0,0,0)" font-family="helvetica" font-size="11px" font-style="normal" font-weight="bold" text-decoration="normal" x="217.8287353515625" y="394.9673016863047" text-anchor="start" dominant-baseline="alphabetic" transform="matrix(1, 0, 0, 1, 0.5, 0.5)" stroke-opacity="0" stroke-linejoin="bevel" stroke-miterlimit="10">Data Transferred</text><text fill="rgb(128,128,128)" stroke="none" font-family="helvetica" font-size="11px" font-style="normal" font-weight="bold" text-decoration="normal" x="360.4482421875" y="394.9673016863047" text-anchor="start" dominant-baseline="alphabetic" transform="matrix(1, 0, 0, 1, 0.5, 0.5)" fill-opacity="1">Response Time</text><text fill="none" stroke="rgb(0,0,0)" font-family="helvetica" font-size="11px" font-style="normal" font-weight="bold" text-decoration="normal" x="360.4482421875" y="394.9673016863047" text-anchor="start" dominant-baseline="alphabetic" transform="matrix(1, 0, 0, 1, 0.5, 0.5)" stroke-opacity="0" stroke-linejoin="bevel" stroke-miterlimit="10">Response Time</text><text fill="rgb(128,128,128)" stroke="none" font-family="helvetica" font-size="11px" font-style="normal" font-weight="bold" text-decoration="normal" x="496.1390380859375" y="394.9673016863047" text-anchor="start" dominant-baseline="alphabetic" transform="matrix(1, 0, 0, 1, 0.5, 0.5)" fill-opacity="1">Transaction Rate</text><text fill="none" stroke="rgb(0,0,0)" font-family="helvetica" font-size="11px" font-style="normal" font-weight="bold" text-decoration="normal" x="496.1390380859375" y="394.9673016863047" text-anchor="start" dominant-baseline="alphabetic" transform="matrix(1, 0, 0, 1, 0.5, 0.5)" stroke-opacity="0" stroke-linejoin="bevel" stroke-miterlimit="10">Transaction Rate</text><text fill="rgb(128,128,128)" stroke="none" font-family="helvetica" font-size="11px" font-style="normal" font-weight="bold" text-decoration="normal" x="649.068359375" y="394.9673016863047" text-anchor="start" dominant-baseline="alphabetic" transform="matrix(1, 0, 0, 1, 0.5, 0.5)" fill-opacity="1">Throughput</text><text fill="none" stroke="rgb(0,0,0)" font-family="helvetica" font-size="11px" font-style="normal" font-weight="bold" text-decoration="normal" x="649.068359375" y="394.9673016863047" text-anchor="start" dominant-baseline="alphabetic" transform="matrix(1, 0, 0, 1, 0.5, 0.5)" stroke-opacity="0" stroke-linejoin="bevel" stroke-miterlimit="10">Throughput</text><path fill="none" stroke="rgb(211,211,211)" paint-order="fill" d="M 192.5 388.5 L 192.5 265.5 M 331.5 388.5 L 331.5 265.5 M 471.5 388.5 L 471.5 265.5 M 610.5 388.5 L 610.5 265.5" stroke-opacity="1" stroke-linejoin="bevel" stroke-miterlimit="10" stroke-width="2"/><path fill="none" stroke="rgb(0,0,0)" paint-order="fill" d="M 32.5 262.5 L 32.5 27.5" stroke-opacity="1" stroke-linejoin="bevel" stroke-miterlimit="10"/><path fill="none" stroke="rgb(0,0,0)" paint-order="fill" d="M 26.5 262.5 L 34.5 262.5 M 26.5 210.5 L 34.5 210.5 M 26.5 157.5 L 34.5 157.5 M 26.5 105.5 L 34.5 105.5 M 26.5 53.5 L 34.5 53.5" stroke-opacity="1" stroke-linejoin="bevel" stroke-miterlimit="10"/><path fill="none" stroke="rgb(0,0,0)" paint-order="fill" d="M 28.5 262.5 L 32.5 262.5 M 28.5 252.5 L 32.5 252.5 M 28.5 241.5 L 32.5 241.5 M 28.5 231.5 L 32.5 231.5 M 28.5 220.5 L 32.5 220.5 M 28.5 210.5 L 32.5 210.5 M 28.5 199.5 L 32.5 199.5 M 28.5 189.5 L 32.5 189.5 M 28.5 178.5 L 32.5 178.5 M 28.5 168.5 L 32.5 168.5 M 28.5 157.5 L 32.5 157.5 M 28.5 147.5 L 32.5 147.5 M 28.5 136.5 L 32.5 136.5 M 28.5 126.5 L 32.5 126.5 M 28.5 115.5 L 32.5 115.5 M 28.5 105.5 L 32.5 105.5 M 28.5 94.5 L 32.5 94.5 M 28.5 84.5 L 32.5 84.5 M 28.5 73.5 L 32.5 73.5 M 28.5 63.5 L 32.5 63.5 M 28.5 53.5 L 32.5 53.5 M 28.5 42.5 L 32.5 42.5 M 28.5 32.5 L 32.5 32.5" stroke-opacity="1" stroke-linejoin="bevel" stroke-miterlimit="10"/><text fill="rgb(68,68,68)" stroke="none" font-family="helvetica" font-size="11px" font-style="normal" font-weight="normal" text-decoration="normal" x="14.88232421875" y="266" text-anchor="start" dominant-baseline="alphabetic" transform="matrix(1, 0, 0, 1, 0.5, 0.5)" fill-opacity="1">0</text><text fill="none" stroke="rgb(0,0,0)" font-family="helvetica" font-size="11px" font-style="normal" font-weight="normal" text-decoration="normal" x="14.88232421875" y="266" text-anchor="start" dominant-baseline="alphabetic" transform="matrix(1, 0, 0, 1, 0.5, 0.5)" stroke-opacity="0" stroke-linejoin="bevel" stroke-miterlimit="10">0</text><text fill="rgb(68,68,68)" stroke="none" font-family="helvetica" font-size="11px" font-style="normal" font-weight="normal" text-decoration="normal" x="2.64697265625" y="213.62852478027344" text-anchor="start" dominant-baseline="alphabetic" transform="matrix(1, 0, 0, 1, 0.5, 0.5)" fill-opacity="1">200</text><text fill="none" stroke="rgb(0,0,0)" font-family="helvetica" font-size="11px" font-style="normal" font-weight="normal" text-decoration="normal" x="2.64697265625" y="213.62852478027344" text-anchor="start" dominant-baseline="alphabetic" transform="matrix(1, 0, 0, 1, 0.5, 0.5)" stroke-opacity="0" stroke-linejoin="bevel" stroke-miterlimit="10">200</text><text fill="rgb(68,68,68)" stroke="none" font-family="helvetica" font-size="11px" font-style="normal" font-weight="normal" text-decoration="normal" x="2.64697265625" y="161.2570343017578" text-anchor="start" dominant-baseline="alphabetic" transform="matrix(1, 0, 0, 1, 0.5, 0.5)" fill-opacity="1">400</text><text fill="none" stroke="rgb(0,0,0)" font-family="helvetica" font-size="11px" font-style="normal" font-weight="normal" text-decoration="normal" x="2.64697265625" y="161.2570343017578" text-anchor="start" dominant-baseline="alphabetic" transform="matrix(1, 0, 0, 1, 0.5, 0.5)" stroke-opacity="0" stroke-linejoin="bevel" stroke-miterlimit="10">400</text><text fill="rgb(68,68,68)" stroke="none" font-family="helvetica" font-size="11px" font-style="normal" font-weight="normal" text-decoration="normal" x="2.64697265625" y="108.88555908203125" text-anchor="start" dominant-baseline="alphabetic" transform="matrix(1, 0, 0, 1, 0.5, 0.5)" fill-opacity="1">600</text><text fill="none" stroke="rgb(0,0,0)" font-family="helvetica" font-size="11px" font-style="normal" font-weight="normal" text-decoration="normal" x="2.64697265625" y="108.88555908203125" text-anchor="start" dominant-baseline="alphabetic" transform="matrix(1, 0, 0, 1, 0.5, 0.5)" stroke-opacity="0" stroke-linejoin="bevel" stroke-miterlimit="10">600</text><text fill="rgb(68,68,68)" stroke="none" font-family="helvetica" font-size="11px" font-style="normal" font-weight="normal" text-decoration="normal" x="2.64697265625" y="56.514076232910156" text-anchor="start" dominant-baseline="alphabetic" transform="matrix(1, 0, 0, 1, 0.5, 0.5)" fill-opacity="1">800</text><text fill="none" stroke="rgb(0,0,0)" font-family="helvetica" font-size="11px" font-style="normal" font-weight="normal" text-decoration="normal" x="2.64697265625" y="56.514076232910156" text-anchor="start" dominant-baseline="alphabetic" transform="matrix(1, 0, 0, 1, 0.5, 0.5)" stroke-opacity="0" stroke-linejoin="bevel" stroke-miterlimit="10">800</text><text fill="rgb(68,68,68)" stroke="none" font-family="helvetica" font-size="13px" font-style="normal" font-weight="bold" text-decoration="normal" x="0" y="12" text-anchor="start" dominant-baseline="alphabetic" transform="matrix(1, 0, 0, 1, 32.5, 7.5)" fill-opacity="1">Metrics</text><text fill="none" stroke="rgb(0,0,0)" font-family="helvetica" font-size="13px" font-style="normal" font-weight="bold" text-decoration="normal" x="0" y="12" text-anchor="start" dominant-baseline="alphabetic" transform="matrix(1, 0, 0, 1, 32.5, 7.5)" stroke-opacity="0" stroke-miterlimit="10" stroke-dasharray="">Metrics</text></svg>