<svg version="1.1" xmlns="http://www.w3.org/2000/svg" width="800" height="400"><defs><clipPath id="svdROtkEEBJA"><path fill="none" stroke="none" d="M 0.5 0.5 L 800.5 0.5 L 800.5 400.5 L 0.5 400.5 L 0.5 0.5 Z M 35.5 27.5 L 770.5 27.5 L 770.5 322.5 L 35.5 322.5 L 35.5 27.5 Z" clip-rule="evenodd"/></clipPath><clipPath id="otKTQDdOXOZQ"><path fill="none" stroke="none" d="M 35.5 27.5 L 770.5 27.5 L 770.5 322.5 L 35.5 322.5 L 35.5 27.5 Z"/></clipPath><clipPath id="tUEZiWFaCgrp"><path fill="none" stroke="none" d="M 35.5 27.5 L 770.5 27.5 L 770.5 322.5 L 35.5 322.5 L 35.5 27.5 Z"/></clipPath><clipPath id="EnrEocbNaCeN"><path fill="none" stroke="none" d="M 35.5 27.5 L 770.5 27.5 L 770.5 322.5 L 35.5 322.5 L 35.5 27.5 Z"/></clipPath><clipPath id="XszCHRBsRfew"><path fill="none" stroke="none" d="M 35.5 27.5 L 770.5 27.5 L 770.5 322.5 L 35.5 322.5 L 35.5 27.5 Z"/></clipPath></defs><path fill="rgb(255,255,255)" stroke="none" paint-order="stroke" d="M 0.5 0.5 L 800.5 0.5 L 800.5 400.5 L 0.5 400.5 L 0.5 0.5 Z" fill-opacity="1" clip-path="url(#svdROtkEEBJA)"/><path fill="rgb(255,255,255)" stroke="none" paint-order="stroke" d="M 35.5 27.5 L 770.5 27.5 L 770.5 322.5 L 35.5 322.5 L 35.5 27.5 Z" fill-opacity="1"/><path fill="none" stroke="rgb(229,229,229)" paint-order="fill" d="M 35.5 27.5 L 770.5 27.5 L 770.5 322.5 L 35.5 322.5 L 35.5 27.5 Z" stroke-opacity="1" stroke-linejoin="bevel" stroke-miterlimit="10"/><path fill="none" stroke="rgb(229,229,229)" paint-order="fill" d="M 35.5 275.5 L 770.5 275.5 M 35.5 228.5 L 770.5 228.5 M 35.5 182.5 L 770.5 182.5 M 35.5 135.5 L 770.5 135.5 M 35.5 88.5 L 770.5 88.5 M 35.5 41.5 L 770.5 41.5" stroke-opacity="1" stroke-linejoin="bevel" stroke-miterlimit="10" clip-path="url(#tUEZiWFaCgrp)"/><path fill="rgb(31,119,180)" stroke="rgb(255,255,255)" paint-order="fill" d="M 69.81204223632812 322.5 L 86.06510925292969 322.5 L 86.06510925292969 322.5 L 69.81204223632812 322.5 L 69.81204223632812 322.5 Z" fill-opacity="1" clip-path="url(#EnrEocbNaCeN)" stroke-opacity="1" stroke-linejoin="bevel" stroke-miterlimit="10"/><path fill="rgb(255,127,14)" stroke="rgb(255,255,255)" paint-order="fill" d="M 87.87100982666016 322.5 L 104.12407684326172 322.5 L 104.12407684326172 322.5 L 87.87100982666016 322.5 L 87.87100982666016 322.5 Z" fill-opacity="1" clip-path="url(#EnrEocbNaCeN)" stroke-opacity="1" stroke-linejoin="bevel" stroke-miterlimit="10"/><path fill="rgb(44,160,44)" stroke="rgb(255,255,255)" paint-order="fill" d="M 105.92997741699219 322.5 L 122.18304443359375 322.5 L 122.18304443359375 322.5 L 105.92997741699219 322.5 L 105.92997741699219 322.5 Z" fill-opacity="1" clip-path="url(#EnrEocbNaCeN)" stroke-opacity="1" stroke-linejoin="bevel" stroke-miterlimit="10"/><path fill="rgb(214,39,40)" stroke="rgb(255,255,255)" paint-order="fill" d="M 123.98894500732422 322.5 L 140.2420196533203 322.5 L 140.2420196533203 322.5 L 123.98894500732422 322.5 L 123.98894500732422 322.5 Z" fill-opacity="1" clip-path="url(#EnrEocbNaCeN)" stroke-opacity="1" stroke-linejoin="bevel" stroke-miterlimit="10"/><path fill="rgb(148,103,189)" stroke="rgb(255,255,255)" paint-order="fill" d="M 142.04791259765625 322.5 L 158.30099487304688 322.5 L 158.30099487304688 322.5 L 142.04791259765625 322.5 L 142.04791259765625 322.5 Z" fill-opacity="1" clip-path="url(#EnrEocbNaCeN)" stroke-opacity="1" stroke-linejoin="bevel" stroke-miterlimit="10"/><path fill="rgb(31,119,180)" stroke="rgb(255,255,255)" paint-order="fill" d="M 185.38943481445312 275.6745910644531 L 201.64251708984375 275.6745910644531 L 201.64251708984375 322.5 L 185.38943481445312 322.5 L 185.38943481445312 275.6745910644531 Z" fill-opacity="1" clip-path="url(#EnrEocbNaCeN)" stroke-opacity="1" stroke-linejoin="bevel" stroke-miterlimit="10"/><path fill="rgb(255,127,14)" stroke="rgb(255,255,255)" paint-order="fill" d="M 203.44839477539062 275.6745910644531 L 219.70147705078125 275.6745910644531 L 219.70147705078125 322.5 L 203.44839477539062 322.5 L 203.44839477539062 275.6745910644531 Z" fill-opacity="1" clip-path="url(#EnrEocbNaCeN)" stroke-opacity="1" stroke-linejoin="bevel" stroke-miterlimit="10"/><path fill="rgb(44,160,44)" stroke="rgb(255,255,255)" paint-order="fill" d="M 221.50735473632812 322.5 L 237.76043701171875 322.5 L 237.76043701171875 322.5 L 221.50735473632812 322.5 L 221.50735473632812 322.5 Z" fill-opacity="1" clip-path="url(#EnrEocbNaCeN)" stroke-opacity="1" stroke-linejoin="bevel" stroke-miterlimit="10"/><path fill="rgb(214,39,40)" stroke="rgb(255,255,255)" paint-order="fill" d="M 239.5663299560547 275.6745910644531 L 255.8194122314453 275.6745910644531 L 255.8194122314453 322.5 L 239.5663299560547 322.5 L 239.5663299560547 275.6745910644531 Z" fill-opacity="1" clip-path="url(#EnrEocbNaCeN)" stroke-opacity="1" stroke-linejoin="bevel" stroke-miterlimit="10"/><path fill="rgb(148,103,189)" stroke="rgb(255,255,255)" paint-order="fill" d="M 257.62530517578125 322.5 L 273.87835693359375 322.5 L 273.87835693359375 322.5 L 257.62530517578125 322.5 L 257.62530517578125 322.5 Z" fill-opacity="1" clip-path="url(#EnrEocbNaCeN)" stroke-opacity="1" stroke-linejoin="bevel" stroke-miterlimit="10"/><path fill="rgb(31,119,180)" stroke="rgb(255,255,255)" paint-order="fill" d="M 300.96685791015625 275.6745910644531 L 317.21990966796875 275.6745910644531 L 317.21990966796875 322.5 L 300.96685791015625 322.5 L 300.96685791015625 275.6745910644531 Z" fill-opacity="1" clip-path="url(#EnrEocbNaCeN)" stroke-opacity="1" stroke-linejoin="bevel" stroke-miterlimit="10"/><path fill="rgb(255,127,14)" stroke="rgb(255,255,255)" paint-order="fill" d="M 319.02581787109375 228.84921264648438 L 335.27886962890625 228.84921264648438 L 335.27886962890625 322.5 L 319.02581787109375 322.5 L 319.02581787109375 228.84921264648438 Z" fill-opacity="1" clip-path="url(#EnrEocbNaCeN)" stroke-opacity="1" stroke-linejoin="bevel" stroke-miterlimit="10"/><path fill="rgb(44,160,44)" stroke="rgb(255,255,255)" paint-order="fill" d="M 337.08477783203125 275.6745910644531 L 353.33782958984375 275.6745910644531 L 353.33782958984375 322.5 L 337.08477783203125 322.5 L 337.08477783203125 275.6745910644531 Z" fill-opacity="1" clip-path="url(#EnrEocbNaCeN)" stroke-opacity="1" stroke-linejoin="bevel" stroke-miterlimit="10"/><path fill="rgb(214,39,40)" stroke="rgb(255,255,255)" paint-order="fill" d="M 355.14373779296875 275.6745910644531 L 371.39678955078125 275.6745910644531 L 371.39678955078125 322.5 L 355.14373779296875 322.5 L 355.14373779296875 275.6745910644531 Z" fill-opacity="1" clip-path="url(#EnrEocbNaCeN)" stroke-opacity="1" stroke-linejoin="bevel" stroke-miterlimit="10"/><path fill="rgb(148,103,189)" stroke="rgb(255,255,255)" paint-order="fill" d="M 373.20269775390625 275.6745910644531 L 389.45574951171875 275.6745910644531 L 389.45574951171875 322.5 L 373.20269775390625 322.5 L 373.20269775390625 275.6745910644531 Z" fill-opacity="1" clip-path="url(#EnrEocbNaCeN)" stroke-opacity="1" stroke-linejoin="bevel" stroke-miterlimit="10"/><path fill="rgb(31,119,180)" stroke="rgb(255,255,255)" paint-order="fill" d="M 416.54425048828125 228.84921264648438 L 432.79730224609375 228.84921264648438 L 432.79730224609375 322.5 L 416.54425048828125 322.5 L 416.54425048828125 228.84921264648438 Z" fill-opacity="1" clip-path="url(#EnrEocbNaCeN)" stroke-opacity="1" stroke-linejoin="bevel" stroke-miterlimit="10"/><path fill="rgb(255,127,14)" stroke="rgb(255,255,255)" paint-order="fill" d="M 434.60321044921875 135.1984100341797 L 450.85626220703125 135.1984100341797 L 450.85626220703125 322.5 L 434.60321044921875 322.5 L 434.60321044921875 135.1984100341797 Z" fill-opacity="1" clip-path="url(#EnrEocbNaCeN)" stroke-opacity="1" stroke-linejoin="bevel" stroke-miterlimit="10"/><path fill="rgb(44,160,44)" stroke="rgb(255,255,255)" paint-order="fill" d="M 452.6622009277344 275.6745910644531 L 468.9152526855469 275.6745910644531 L 468.9152526855469 322.5 L 452.6622009277344 322.5 L 452.6622009277344 275.6745910644531 Z" fill-opacity="1" clip-path="url(#EnrEocbNaCeN)" stroke-opacity="1" stroke-linejoin="bevel" stroke-miterlimit="10"/><path fill="rgb(214,39,40)" stroke="rgb(255,255,255)" paint-order="fill" d="M 470.7211608886719 228.84921264648438 L 486.9742126464844 228.84921264648438 L 486.9742126464844 322.5 L 470.7211608886719 322.5 L 470.7211608886719 228.84921264648438 Z" fill-opacity="1" clip-path="url(#EnrEocbNaCeN)" stroke-opacity="1" stroke-linejoin="bevel" stroke-miterlimit="10"/><path fill="rgb(148,103,189)" stroke="rgb(255,255,255)" paint-order="fill" d="M 488.7801208496094 275.6745910644531 L 505.0331726074219 275.6745910644531 L 505.0331726074219 322.5 L 488.7801208496094 322.5 L 488.7801208496094 275.6745910644531 Z" fill-opacity="1" clip-path="url(#EnrEocbNaCeN)" stroke-opacity="1" stroke-linejoin="bevel" stroke-miterlimit="10"/><path fill="rgb(31,119,180)" stroke="rgb(255,255,255)" paint-order="fill" d="M 532.1216430664062 228.84921264648438 L 548.3746948242188 228.84921264648438 L 548.3746948242188 322.5 L 532.1216430664062 322.5 L 532.1216430664062 228.84921264648438 Z" fill-opacity="1" clip-path="url(#EnrEocbNaCeN)" stroke-opacity="1" stroke-linejoin="bevel" stroke-miterlimit="10"/><path fill="rgb(255,127,14)" stroke="rgb(255,255,255)" paint-order="fill" d="M 550.1806030273438 88.37301635742188 L 566.4336547851562 88.37301635742188 L 566.4336547851562 322.5 L 550.1806030273438 322.5 L 550.1806030273438 88.37301635742188 Z" fill-opacity="1" clip-path="url(#EnrEocbNaCeN)" stroke-opacity="1" stroke-linejoin="bevel" stroke-miterlimit="10"/><path fill="rgb(44,160,44)" stroke="rgb(255,255,255)" paint-order="fill" d="M 568.2395629882812 228.84921264648438 L 584.4926147460938 228.84921264648438 L 584.4926147460938 322.5 L 568.2395629882812 322.5 L 568.2395629882812 228.84921264648438 Z" fill-opacity="1" clip-path="url(#EnrEocbNaCeN)" stroke-opacity="1" stroke-linejoin="bevel" stroke-miterlimit="10"/><path fill="rgb(214,39,40)" stroke="rgb(255,255,255)" paint-order="fill" d="M 586.2985229492188 182.0238037109375 L 602.5515747070312 182.0238037109375 L 602.5515747070312 322.5 L 586.2985229492188 322.5 L 586.2985229492188 182.0238037109375 Z" fill-opacity="1" clip-path="url(#EnrEocbNaCeN)" stroke-opacity="1" stroke-linejoin="bevel" stroke-miterlimit="10"/><path fill="rgb(148,103,189)" stroke="rgb(255,255,255)" paint-order="fill" d="M 604.3574829101562 275.6745910644531 L 620.6105346679688 275.6745910644531 L 620.6105346679688 322.5 L 604.3574829101562 322.5 L 604.3574829101562 275.6745910644531 Z" fill-opacity="1" clip-path="url(#EnrEocbNaCeN)" stroke-opacity="1" stroke-linejoin="bevel" stroke-miterlimit="10"/><path fill="rgb(31,119,180)" stroke="rgb(255,255,255)" paint-order="fill" d="M 647.6990356445312 182.0238037109375 L 663.9520874023438 182.0238037109375 L 663.9520874023438 322.5 L 647.6990356445312 322.5 L 647.6990356445312 182.0238037109375 Z" fill-opacity="1" clip-path="url(#EnrEocbNaCeN)" stroke-opacity="1" stroke-linejoin="bevel" stroke-miterlimit="10"/><path fill="rgb(255,127,14)" stroke="rgb(255,255,255)" paint-order="fill" d="M 665.7579956054688 41.5476188659668 L 682.0110473632812 41.5476188659668 L 682.0110473632812 322.5 L 665.7579956054688 322.5 L 665.7579956054688 41.5476188659668 Z" fill-opacity="1" clip-path="url(#EnrEocbNaCeN)" stroke-opacity="1" stroke-linejoin="bevel" stroke-miterlimit="10"/><path fill="rgb(44,160,44)" stroke="rgb(255,255,255)" paint-order="fill" d="M 683.8169555664062 228.84921264648438 L 700.0700073242188 228.84921264648438 L 700.0700073242188 322.5 L 683.8169555664062 322.5 L 683.8169555664062 228.84921264648438 Z" fill-opacity="1" clip-path="url(#EnrEocbNaCeN)" stroke-opacity="1" stroke-linejoin="bevel" stroke-miterlimit="10"/><path fill="rgb(214,39,40)" stroke="rgb(255,255,255)" paint-order="fill" d="M 701.8759155273438 182.0238037109375 L 718.1289672851562 182.0238037109375 L 718.1289672851562 322.5 L 701.8759155273438 322.5 L 701.8759155273438 182.0238037109375 Z" fill-opacity="1" clip-path="url(#EnrEocbNaCeN)" stroke-opacity="1" stroke-linejoin="bevel" stroke-miterlimit="10"/><path fill="rgb(148,103,189)" stroke="rgb(255,255,255)" paint-order="fill" d="M 719.9348754882812 228.84921264648438 L 736.1879272460938 228.84921264648438 L 736.1879272460938 322.5 L 719.9348754882812 322.5 L 719.9348754882812 228.84921264648438 Z" fill-opacity="1" clip-path="url(#EnrEocbNaCeN)" stroke-opacity="1" stroke-linejoin="bevel" stroke-miterlimit="10"/><path fill="none" stroke="rgb(0,0,0)" paint-order="fill" d="M 35.5 322.5 L 770.5 322.5" stroke-opacity="1" stroke-linejoin="bevel" stroke-miterlimit="10"/><path fill="none" stroke="rgb(0,0,0)" paint-order="fill" d="M 77.5 328.5 L 77.5 320.5 M 95.5 328.5 L 95.5 320.5 M 114.5 328.5 L 114.5 320.5 M 132.5 328.5 L 132.5 320.5 M 150.5 328.5 L 150.5 320.5 M 193.5 328.5 L 193.5 320.5 M 211.5 328.5 L 211.5 320.5 M 229.5 328.5 L 229.5 320.5 M 247.5 328.5 L 247.5 320.5 M 265.5 328.5 L 265.5 320.5 M 309.5 328.5 L 309.5 320.5 M 327.5 328.5 L 327.5 320.5 M 345.5 328.5 L 345.5 320.5 M 363.5 328.5 L 363.5 320.5 M 381.5 328.5 L 381.5 320.5 M 424.5 328.5 L 424.5 320.5 M 442.5 328.5 L 442.5 320.5 M 460.5 328.5 L 460.5 320.5 M 478.5 328.5 L 478.5 320.5 M 496.5 328.5 L 496.5 320.5 M 540.5 328.5 L 540.5 320.5 M 558.5 328.5 L 558.5 320.5 M 576.5 328.5 L 576.5 320.5 M 594.5 328.5 L 594.5 320.5 M 612.5 328.5 L 612.5 320.5 M 655.5 328.5 L 655.5 320.5 M 673.5 328.5 L 673.5 320.5 M 691.5 328.5 L 691.5 320.5 M 710.5 328.5 L 710.5 320.5 M 728.5 328.5 L 728.5 320.5" stroke-opacity="1" stroke-linejoin="bevel" stroke-miterlimit="10"/><path fill="none" stroke="rgb(0,0,0)" paint-order="fill" d="" stroke-opacity="1" stroke-linejoin="bevel" stroke-miterlimit="10"/><text fill="rgb(68,68,68)" stroke="none" font-family="helvetica" font-size="11px" font-style="normal" font-weight="normal" text-decoration="normal" x="42.580177307128906" y="337" text-anchor="start" dominant-baseline="alphabetic" transform="matrix(0.5403023058681398, -0.8414709848078965, 0.8414709848078965, 0.5403023058681398, -244.11150323436823, 218.74164673986323)" fill-opacity="1">Django</text><text fill="none" stroke="rgb(0,0,0)" font-family="helvetica" font-size="11px" font-style="normal" font-weight="normal" text-decoration="normal" x="42.580177307128906" y="337" text-anchor="start" dominant-baseline="alphabetic" transform="matrix(0.5403023058681398, -0.8414709848078965, 0.8414709848078965, 0.5403023058681398, -244.11150323436823, 218.74164673986323)" stroke-opacity="0" stroke-linejoin="bevel" stroke-miterlimit="10">Django</text><text fill="rgb(68,68,68)" stroke="none" font-family="helvetica" font-size="11px" font-style="normal" font-weight="normal" text-decoration="normal" x="56.37449645996094" y="337" text-anchor="start" dominant-baseline="alphabetic" transform="matrix(0.5403023058681398, -0.8414709848078965, 0.8414709848078965, 0.5403023058681398, -235.8098374746906, 233.9377439827138)" fill-opacity="1">FastAPI</text><text fill="none" stroke="rgb(0,0,0)" font-family="helvetica" font-size="11px" font-style="normal" font-weight="normal" text-decoration="normal" x="56.37449645996094" y="337" text-anchor="start" dominant-baseline="alphabetic" transform="matrix(0.5403023058681398, -0.8414709848078965, 0.8414709848078965, 0.5403023058681398, -235.8098374746906, 233.9377439827138)" stroke-opacity="0" stroke-linejoin="bevel" stroke-miterlimit="10">FastAPI</text><text fill="rgb(68,68,68)" stroke="none" font-family="helvetica" font-size="11px" font-style="normal" font-weight="normal" text-decoration="normal" x="81.15807342529297" y="337" text-anchor="start" dominant-baseline="alphabetic" transform="matrix(0.5403023058681398, -0.8414709848078965, 0.8414709848078965, 0.5403023058681398, -227.50817171501296, 249.1338412255644)" fill-opacity="1">Go-chi</text><text fill="none" stroke="rgb(0,0,0)" font-family="helvetica" font-size="11px" font-style="normal" font-weight="normal" text-decoration="normal" x="81.15807342529297" y="337" text-anchor="start" dominant-baseline="alphabetic" transform="matrix(0.5403023058681398, -0.8414709848078965, 0.8414709848078965, 0.5403023058681398, -227.50817171501296, 249.1338412255644)" stroke-opacity="0" stroke-linejoin="bevel" stroke-miterlimit="10">Go-chi</text><text fill="rgb(68,68,68)" stroke="none" font-family="helvetica" font-size="11px" font-style="normal" font-weight="normal" text-decoration="normal" x="82.099365234375" y="337" text-anchor="start" dominant-baseline="alphabetic" transform="matrix(0.5403023058681398, -0.8414709848078965, 0.8414709848078965, 0.5403023058681398, -219.20650595533533, 264.329938468415)" fill-opacity="1">express.js</text><text fill="none" stroke="rgb(0,0,0)" font-family="helvetica" font-size="11px" font-style="normal" font-weight="normal" text-decoration="normal" x="82.099365234375" y="337" text-anchor="start" dominant-baseline="alphabetic" transform="matrix(0.5403023058681398, -0.8414709848078965, 0.8414709848078965, 0.5403023058681398, -219.20650595533533, 264.329938468415)" stroke-opacity="0" stroke-linejoin="bevel" stroke-miterlimit="10">express.js</text><text fill="rgb(68,68,68)" stroke="none" font-family="helvetica" font-size="11px" font-style="normal" font-weight="normal" text-decoration="normal" x="121.55677795410156" y="337" text-anchor="start" dominant-baseline="alphabetic" transform="matrix(0.5403023058681398, -0.8414709848078965, 0.8414709848078965, 0.5403023058681398, -210.90483668844263, 279.5260421311797)" fill-opacity="1">Axum</text><text fill="none" stroke="rgb(0,0,0)" font-family="helvetica" font-size="11px" font-style="normal" font-weight="normal" text-decoration="normal" x="121.55677795410156" y="337" text-anchor="start" dominant-baseline="alphabetic" transform="matrix(0.5403023058681398, -0.8414709848078965, 0.8414709848078965, 0.5403023058681398, -210.90483668844263, 279.5260421311797)" stroke-opacity="0" stroke-linejoin="bevel" stroke-miterlimit="10">Axum</text><text fill="rgb(68,68,68)" stroke="none" font-family="helvetica" font-size="11px" font-style="normal" font-weight="normal" text-decoration="normal" x="158.15757751464844" y="337" text-anchor="start" dominant-baseline="alphabetic" transform="matrix(0.5403023058681398, -0.8414709848078965, 0.8414709848078965, 0.5403023058681398, -190.98083886521636, 315.99667551402104)" fill-opacity="1">Django</text><text fill="none" stroke="rgb(0,0,0)" font-family="helvetica" font-size="11px" font-style="normal" font-weight="normal" text-decoration="normal" x="158.15757751464844" y="337" text-anchor="start" dominant-baseline="alphabetic" transform="matrix(0.5403023058681398, -0.8414709848078965, 0.8414709848078965, 0.5403023058681398, -190.98083886521636, 315.99667551402104)" stroke-opacity="0" stroke-linejoin="bevel" stroke-miterlimit="10">Django</text><text fill="rgb(68,68,68)" stroke="none" font-family="helvetica" font-size="11px" font-style="normal" font-weight="normal" text-decoration="normal" x="171.95188903808594" y="337" text-anchor="start" dominant-baseline="alphabetic" transform="matrix(0.5403023058681398, -0.8414709848078965, 0.8414709848078965, 0.5403023058681398, -182.67917661275374, 331.19276633695756)" fill-opacity="1">FastAPI</text><text fill="none" stroke="rgb(0,0,0)" font-family="helvetica" font-size="11px" font-style="normal" font-weight="normal" text-decoration="normal" x="171.95188903808594" y="337" text-anchor="start" dominant-baseline="alphabetic" transform="matrix(0.5403023058681398, -0.8414709848078965, 0.8414709848078965, 0.5403023058681398, -182.67917661275374, 331.19276633695756)" stroke-opacity="0" stroke-linejoin="bevel" stroke-miterlimit="10">FastAPI</text><text fill="rgb(68,68,68)" stroke="none" font-family="helvetica" font-size="11px" font-style="normal" font-weight="normal" text-decoration="normal" x="196.7354736328125" y="337" text-anchor="start" dominant-baseline="alphabetic" transform="matrix(0.5403023058681398, -0.8414709848078965, 0.8414709848078965, 0.5403023058681398, -174.3775073458611, 346.38886999972226)" fill-opacity="1">Go-chi</text><text fill="none" stroke="rgb(0,0,0)" font-family="helvetica" font-size="11px" font-style="normal" font-weight="normal" text-decoration="normal" x="196.7354736328125" y="337" text-anchor="start" dominant-baseline="alphabetic" transform="matrix(0.5403023058681398, -0.8414709848078965, 0.8414709848078965, 0.5403023058681398, -174.3775073458611, 346.38886999972226)" stroke-opacity="0" stroke-linejoin="bevel" stroke-miterlimit="10">Go-chi</text><text fill="rgb(68,68,68)" stroke="none" font-family="helvetica" font-size="11px" font-style="normal" font-weight="normal" text-decoration="normal" x="197.6767578125" y="337" text-anchor="start" dominant-baseline="alphabetic" transform="matrix(0.5403023058681398, -0.8414709848078965, 0.8414709848078965, 0.5403023058681398, -166.07584509339847, 361.5849608226587)" fill-opacity="1">express.js</text><text fill="none" stroke="rgb(0,0,0)" font-family="helvetica" font-size="11px" font-style="normal" font-weight="normal" text-decoration="normal" x="197.6767578125" y="337" text-anchor="start" dominant-baseline="alphabetic" transform="matrix(0.5403023058681398, -0.8414709848078965, 0.8414709848078965, 0.5403023058681398, -166.07584509339847, 361.5849608226587)" stroke-opacity="0" stroke-linejoin="bevel" stroke-miterlimit="10">express.js</text><text fill="rgb(68,68,68)" stroke="none" font-family="helvetica" font-size="11px" font-style="normal" font-weight="normal" text-decoration="normal" x="237.1341552734375" y="337" text-anchor="start" dominant-baseline="alphabetic" transform="matrix(0.5403023058681398, -0.8414709848078965, 0.8414709848078965, 0.5403023058681398, -157.77418284093596, 376.78105164559514)" fill-opacity="1">Axum</text><text fill="none" stroke="rgb(0,0,0)" font-family="helvetica" font-size="11px" font-style="normal" font-weight="normal" text-decoration="normal" x="237.1341552734375" y="337" text-anchor="start" dominant-baseline="alphabetic" transform="matrix(0.5403023058681398, -0.8414709848078965, 0.8414709848078965, 0.5403023058681398, -157.77418284093596, 376.78105164559514)" stroke-opacity="0" stroke-linejoin="bevel" stroke-miterlimit="10">Axum</text><text fill="rgb(68,68,68)" stroke="none" font-family="helvetica" font-size="11px" font-style="normal" font-weight="normal" text-decoration="normal" x="273.7349548339844" y="337" text-anchor="start" dominant-baseline="alphabetic" transform="matrix(0.5403023058681398, -0.8414709848078965, 0.8414709848078965, 0.5403023058681398, -137.85018501770963, 413.25168502843655)" fill-opacity="1">Django</text><text fill="none" stroke="rgb(0,0,0)" font-family="helvetica" font-size="11px" font-style="normal" font-weight="normal" text-decoration="normal" x="273.7349548339844" y="337" text-anchor="start" dominant-baseline="alphabetic" transform="matrix(0.5403023058681398, -0.8414709848078965, 0.8414709848078965, 0.5403023058681398, -137.85018501770963, 413.25168502843655)" stroke-opacity="0" stroke-linejoin="bevel" stroke-miterlimit="10">Django</text><text fill="rgb(68,68,68)" stroke="none" font-family="helvetica" font-size="11px" font-style="normal" font-weight="normal" text-decoration="normal" x="287.529296875" y="337" text-anchor="start" dominant-baseline="alphabetic" transform="matrix(0.5403023058681398, -0.8414709848078965, 0.8414709848078965, 0.5403023058681398, -129.5485087363868, 428.4478015310295)" fill-opacity="1">FastAPI</text><text fill="none" stroke="rgb(0,0,0)" font-family="helvetica" font-size="11px" font-style="normal" font-weight="normal" text-decoration="normal" x="287.529296875" y="337" text-anchor="start" dominant-baseline="alphabetic" transform="matrix(0.5403023058681398, -0.8414709848078965, 0.8414709848078965, 0.5403023058681398, -129.5485087363868, 428.4478015310295)" stroke-opacity="0" stroke-linejoin="bevel" stroke-miterlimit="10">FastAPI</text><text fill="rgb(68,68,68)" stroke="none" font-family="helvetica" font-size="11px" font-style="normal" font-weight="normal" text-decoration="normal" x="312.3128662109375" y="337" text-anchor="start" dominant-baseline="alphabetic" transform="matrix(0.5403023058681398, -0.8414709848078965, 0.8414709848078965, 0.5403023058681398, -121.24684648392423, 443.64389235396595)" fill-opacity="1">Go-chi</text><text fill="none" stroke="rgb(0,0,0)" font-family="helvetica" font-size="11px" font-style="normal" font-weight="normal" text-decoration="normal" x="312.3128662109375" y="337" text-anchor="start" dominant-baseline="alphabetic" transform="matrix(0.5403023058681398, -0.8414709848078965, 0.8414709848078965, 0.5403023058681398, -121.24684648392423, 443.64389235396595)" stroke-opacity="0" stroke-linejoin="bevel" stroke-miterlimit="10">Go-chi</text><text fill="rgb(68,68,68)" stroke="none" font-family="helvetica" font-size="11px" font-style="normal" font-weight="normal" text-decoration="normal" x="313.254150390625" y="337" text-anchor="start" dominant-baseline="alphabetic" transform="matrix(0.5403023058681398, -0.8414709848078965, 0.8414709848078965, 0.5403023058681398, -112.94518423146167, 458.8399831769024)" fill-opacity="1">express.js</text><text fill="none" stroke="rgb(0,0,0)" font-family="helvetica" font-size="11px" font-style="normal" font-weight="normal" text-decoration="normal" x="313.254150390625" y="337" text-anchor="start" dominant-baseline="alphabetic" transform="matrix(0.5403023058681398, -0.8414709848078965, 0.8414709848078965, 0.5403023058681398, -112.94518423146167, 458.8399831769024)" stroke-opacity="0" stroke-linejoin="bevel" stroke-miterlimit="10">express.js</text><text fill="rgb(68,68,68)" stroke="none" font-family="helvetica" font-size="11px" font-style="normal" font-weight="normal" text-decoration="normal" x="352.7115478515625" y="337" text-anchor="start" dominant-baseline="alphabetic" transform="matrix(0.5403023058681398, -0.8414709848078965, 0.8414709848078965, 0.5403023058681398, -104.6435219789991, 474.03607399983883)" fill-opacity="1">Axum</text><text fill="none" stroke="rgb(0,0,0)" font-family="helvetica" font-size="11px" font-style="normal" font-weight="normal" text-decoration="normal" x="352.7115478515625" y="337" text-anchor="start" dominant-baseline="alphabetic" transform="matrix(0.5403023058681398, -0.8414709848078965, 0.8414709848078965, 0.5403023058681398, -104.6435219789991, 474.03607399983883)" stroke-opacity="0" stroke-linejoin="bevel" stroke-miterlimit="10">Axum</text><text fill="rgb(68,68,68)" stroke="none" font-family="helvetica" font-size="11px" font-style="normal" font-weight="normal" text-decoration="normal" x="389.3123779296875" y="337" text-anchor="start" dominant-baseline="alphabetic" transform="matrix(0.5403023058681398, -0.8414709848078965, 0.8414709848078965, 0.5403023058681398, -84.7195101269125, 510.50673306233676)" fill-opacity="1">Django</text><text fill="none" stroke="rgb(0,0,0)" font-family="helvetica" font-size="11px" font-style="normal" font-weight="normal" text-decoration="normal" x="389.3123779296875" y="337" text-anchor="start" dominant-baseline="alphabetic" transform="matrix(0.5403023058681398, -0.8414709848078965, 0.8414709848078965, 0.5403023058681398, -84.7195101269125, 510.50673306233676)" stroke-opacity="0" stroke-linejoin="bevel" stroke-miterlimit="10">Django</text><text fill="rgb(68,68,68)" stroke="none" font-family="helvetica" font-size="11px" font-style="normal" font-weight="normal" text-decoration="normal" x="403.106689453125" y="337" text-anchor="start" dominant-baseline="alphabetic" transform="matrix(0.5403023058681398, -0.8414709848078965, 0.8414709848078965, 0.5403023058681398, -76.41784787444999, 525.7028238852732)" fill-opacity="1">FastAPI</text><text fill="none" stroke="rgb(0,0,0)" font-family="helvetica" font-size="11px" font-style="normal" font-weight="normal" text-decoration="normal" x="403.106689453125" y="337" text-anchor="start" dominant-baseline="alphabetic" transform="matrix(0.5403023058681398, -0.8414709848078965, 0.8414709848078965, 0.5403023058681398, -76.41784787444999, 525.7028238852732)" stroke-opacity="0" stroke-linejoin="bevel" stroke-miterlimit="10">FastAPI</text><text fill="rgb(68,68,68)" stroke="none" font-family="helvetica" font-size="11px" font-style="normal" font-weight="normal" text-decoration="normal" x="427.8902587890625" y="337" text-anchor="start" dominant-baseline="alphabetic" transform="matrix(0.5403023058681398, -0.8414709848078965, 0.8414709848078965, 0.5403023058681398, -68.11618562198737, 540.8989147082096)" fill-opacity="1">Go-chi</text><text fill="none" stroke="rgb(0,0,0)" font-family="helvetica" font-size="11px" font-style="normal" font-weight="normal" text-decoration="normal" x="427.8902587890625" y="337" text-anchor="start" dominant-baseline="alphabetic" transform="matrix(0.5403023058681398, -0.8414709848078965, 0.8414709848078965, 0.5403023058681398, -68.11618562198737, 540.8989147082096)" stroke-opacity="0" stroke-linejoin="bevel" stroke-miterlimit="10">Go-chi</text><text fill="rgb(68,68,68)" stroke="none" font-family="helvetica" font-size="11px" font-style="normal" font-weight="normal" text-decoration="normal" x="428.83154296875" y="337" text-anchor="start" dominant-baseline="alphabetic" transform="matrix(0.5403023058681398, -0.8414709848078965, 0.8414709848078965, 0.5403023058681398, -59.81452336952475, 556.0950055311462)" fill-opacity="1">express.js</text><text fill="none" stroke="rgb(0,0,0)" font-family="helvetica" font-size="11px" font-style="normal" font-weight="normal" text-decoration="normal" x="428.83154296875" y="337" text-anchor="start" dominant-baseline="alphabetic" transform="matrix(0.5403023058681398, -0.8414709848078965, 0.8414709848078965, 0.5403023058681398, -59.81452336952475, 556.0950055311462)" stroke-opacity="0" stroke-linejoin="bevel" stroke-miterlimit="10">express.js</text><text fill="rgb(68,68,68)" stroke="none" font-family="helvetica" font-size="11px" font-style="normal" font-weight="normal" text-decoration="normal" x="468.2889709472656" y="337" text-anchor="start" dominant-baseline="alphabetic" transform="matrix(0.5403023058681398, -0.8414709848078965, 0.8414709848078965, 0.5403023058681398, -51.512847088201966, 571.2911220337392)" fill-opacity="1">Axum</text><text fill="none" stroke="rgb(0,0,0)" font-family="helvetica" font-size="11px" font-style="normal" font-weight="normal" text-decoration="normal" x="468.2889709472656" y="337" text-anchor="start" dominant-baseline="alphabetic" transform="matrix(0.5403023058681398, -0.8414709848078965, 0.8414709848078965, 0.5403023058681398, -51.512847088201966, 571.2911220337392)" stroke-opacity="0" stroke-linejoin="bevel" stroke-miterlimit="10">Axum</text><text fill="rgb(68,68,68)" stroke="none" font-family="helvetica" font-size="11px" font-style="normal" font-weight="normal" text-decoration="normal" x="504.8897705078125" y="337" text-anchor="start" dominant-baseline="alphabetic" transform="matrix(0.5403023058681398, -0.8414709848078965, 0.8414709848078965, 0.5403023058681398, -31.58884926497558, 607.7617554165804)" fill-opacity="1">Django</text><text fill="none" stroke="rgb(0,0,0)" font-family="helvetica" font-size="11px" font-style="normal" font-weight="normal" text-decoration="normal" x="504.8897705078125" y="337" text-anchor="start" dominant-baseline="alphabetic" transform="matrix(0.5403023058681398, -0.8414709848078965, 0.8414709848078965, 0.5403023058681398, -31.58884926497558, 607.7617554165804)" stroke-opacity="0" stroke-linejoin="bevel" stroke-miterlimit="10">Django</text><text fill="rgb(68,68,68)" stroke="none" font-family="helvetica" font-size="11px" font-style="normal" font-weight="normal" text-decoration="normal" x="518.68408203125" y="337" text-anchor="start" dominant-baseline="alphabetic" transform="matrix(0.5403023058681398, -0.8414709848078965, 0.8414709848078965, 0.5403023058681398, -23.287187012513186, 622.9578462395169)" fill-opacity="1">FastAPI</text><text fill="none" stroke="rgb(0,0,0)" font-family="helvetica" font-size="11px" font-style="normal" font-weight="normal" text-decoration="normal" x="518.68408203125" y="337" text-anchor="start" dominant-baseline="alphabetic" transform="matrix(0.5403023058681398, -0.8414709848078965, 0.8414709848078965, 0.5403023058681398, -23.287187012513186, 622.9578462395169)" stroke-opacity="0" stroke-linejoin="bevel" stroke-miterlimit="10">FastAPI</text><text fill="rgb(68,68,68)" stroke="none" font-family="helvetica" font-size="11px" font-style="normal" font-weight="normal" text-decoration="normal" x="543.4676513671875" y="337" text-anchor="start" dominant-baseline="alphabetic" transform="matrix(0.5403023058681398, -0.8414709848078965, 0.8414709848078965, 0.5403023058681398, -14.985524760050566, 638.1539370624535)" fill-opacity="1">Go-chi</text><text fill="none" stroke="rgb(0,0,0)" font-family="helvetica" font-size="11px" font-style="normal" font-weight="normal" text-decoration="normal" x="543.4676513671875" y="337" text-anchor="start" dominant-baseline="alphabetic" transform="matrix(0.5403023058681398, -0.8414709848078965, 0.8414709848078965, 0.5403023058681398, -14.985524760050566, 638.1539370624535)" stroke-opacity="0" stroke-linejoin="bevel" stroke-miterlimit="10">Go-chi</text><text fill="rgb(68,68,68)" stroke="none" font-family="helvetica" font-size="11px" font-style="normal" font-weight="normal" text-decoration="normal" x="544.408935546875" y="337" text-anchor="start" dominant-baseline="alphabetic" transform="matrix(0.5403023058681398, -0.8414709848078965, 0.8414709848078965, 0.5403023058681398, -6.683862507587946, 653.3500278853899)" fill-opacity="1">express.js</text><text fill="none" stroke="rgb(0,0,0)" font-family="helvetica" font-size="11px" font-style="normal" font-weight="normal" text-decoration="normal" x="544.408935546875" y="337" text-anchor="start" dominant-baseline="alphabetic" transform="matrix(0.5403023058681398, -0.8414709848078965, 0.8414709848078965, 0.5403023058681398, -6.683862507587946, 653.3500278853899)" stroke-opacity="0" stroke-linejoin="bevel" stroke-miterlimit="10">express.js</text><text fill="rgb(68,68,68)" stroke="none" font-family="helvetica" font-size="11px" font-style="normal" font-weight="normal" text-decoration="normal" x="583.8663330078125" y="337" text-anchor="start" dominant-baseline="alphabetic" transform="matrix(0.5403023058681398, -0.8414709848078965, 0.8414709848078965, 0.5403023058681398, 1.61779974487456, 668.5461187083263)" fill-opacity="1">Axum</text><text fill="none" stroke="rgb(0,0,0)" font-family="helvetica" font-size="11px" font-style="normal" font-weight="normal" text-decoration="normal" x="583.8663330078125" y="337" text-anchor="start" dominant-baseline="alphabetic" transform="matrix(0.5403023058681398, -0.8414709848078965, 0.8414709848078965, 0.5403023058681398, 1.61779974487456, 668.5461187083263)" stroke-opacity="0" stroke-linejoin="bevel" stroke-miterlimit="10">Axum</text><text fill="rgb(68,68,68)" stroke="none" font-family="helvetica" font-size="11px" font-style="normal" font-weight="normal" text-decoration="normal" x="620.4671630859375" y="337" text-anchor="start" dominant-baseline="alphabetic" transform="matrix(0.5403023058681398, -0.8414709848078965, 0.8414709848078965, 0.5403023058681398, 21.541811596961224, 705.0167777708242)" fill-opacity="1">Django</text><text fill="none" stroke="rgb(0,0,0)" font-family="helvetica" font-size="11px" font-style="normal" font-weight="normal" text-decoration="normal" x="620.4671630859375" y="337" text-anchor="start" dominant-baseline="alphabetic" transform="matrix(0.5403023058681398, -0.8414709848078965, 0.8414709848078965, 0.5403023058681398, 21.541811596961224, 705.0167777708242)" stroke-opacity="0" stroke-linejoin="bevel" stroke-miterlimit="10">Django</text><text fill="rgb(68,68,68)" stroke="none" font-family="helvetica" font-size="11px" font-style="normal" font-weight="normal" text-decoration="normal" x="634.261474609375" y="337" text-anchor="start" dominant-baseline="alphabetic" transform="matrix(0.5403023058681398, -0.8414709848078965, 0.8414709848078965, 0.5403023058681398, 29.84347384942373, 720.2128685937606)" fill-opacity="1">FastAPI</text><text fill="none" stroke="rgb(0,0,0)" font-family="helvetica" font-size="11px" font-style="normal" font-weight="normal" text-decoration="normal" x="634.261474609375" y="337" text-anchor="start" dominant-baseline="alphabetic" transform="matrix(0.5403023058681398, -0.8414709848078965, 0.8414709848078965, 0.5403023058681398, 29.84347384942373, 720.2128685937606)" stroke-opacity="0" stroke-linejoin="bevel" stroke-miterlimit="10">FastAPI</text><text fill="rgb(68,68,68)" stroke="none" font-family="helvetica" font-size="11px" font-style="normal" font-weight="normal" text-decoration="normal" x="659.0450439453125" y="337" text-anchor="start" dominant-baseline="alphabetic" transform="matrix(0.5403023058681398, -0.8414709848078965, 0.8414709848078965, 0.5403023058681398, 38.14513610188624, 735.408959416697)" fill-opacity="1">Go-chi</text><text fill="none" stroke="rgb(0,0,0)" font-family="helvetica" font-size="11px" font-style="normal" font-weight="normal" text-decoration="normal" x="659.0450439453125" y="337" text-anchor="start" dominant-baseline="alphabetic" transform="matrix(0.5403023058681398, -0.8414709848078965, 0.8414709848078965, 0.5403023058681398, 38.14513610188624, 735.408959416697)" stroke-opacity="0" stroke-linejoin="bevel" stroke-miterlimit="10">Go-chi</text><text fill="rgb(68,68,68)" stroke="none" font-family="helvetica" font-size="11px" font-style="normal" font-weight="normal" text-decoration="normal" x="659.986328125" y="337" text-anchor="start" dominant-baseline="alphabetic" transform="matrix(0.5403023058681398, -0.8414709848078965, 0.8414709848078965, 0.5403023058681398, 46.44679835434886, 750.6050502396336)" fill-opacity="1">express.js</text><text fill="none" stroke="rgb(0,0,0)" font-family="helvetica" font-size="11px" font-style="normal" font-weight="normal" text-decoration="normal" x="659.986328125" y="337" text-anchor="start" dominant-baseline="alphabetic" transform="matrix(0.5403023058681398, -0.8414709848078965, 0.8414709848078965, 0.5403023058681398, 46.44679835434886, 750.6050502396336)" stroke-opacity="0" stroke-linejoin="bevel" stroke-miterlimit="10">express.js</text><text fill="rgb(68,68,68)" stroke="none" font-family="helvetica" font-size="11px" font-style="normal" font-weight="normal" text-decoration="normal" x="699.4437255859375" y="337" text-anchor="start" dominant-baseline="alphabetic" transform="matrix(0.5403023058681398, -0.8414709848078965, 0.8414709848078965, 0.5403023058681398, 54.74846060681148, 765.80114106257)" fill-opacity="1">Axum</text><text fill="none" stroke="rgb(0,0,0)" font-family="helvetica" font-size="11px" font-style="normal" font-weight="normal" text-decoration="normal" x="699.4437255859375" y="337" text-anchor="start" dominant-baseline="alphabetic" transform="matrix(0.5403023058681398, -0.8414709848078965, 0.8414709848078965, 0.5403023058681398, 54.74846060681148, 765.80114106257)" stroke-opacity="0" stroke-linejoin="bevel" stroke-miterlimit="10">Axum</text><text fill="rgb(128,128,128)" stroke="none" font-family="helvetica" font-size="11px" font-style="normal" font-weight="bold" text-decoration="normal" x="110.49767303466797" y="397.1500002770505" text-anchor="start" dominant-baseline="alphabetic" transform="matrix(1, 0, 0, 1, 0.5, 0.5)" fill-opacity="1">1</text><text fill="none" stroke="rgb(0,0,0)" font-family="helvetica" font-size="11px" font-style="normal" font-weight="bold" text-decoration="normal" x="110.49767303466797" y="397.1500002770505" text-anchor="start" dominant-baseline="alphabetic" transform="matrix(1, 0, 0, 1, 0.5, 0.5)" stroke-opacity="0" stroke-linejoin="bevel" stroke-miterlimit="10">1</text><text fill="rgb(128,128,128)" stroke="none" font-family="helvetica" font-size="11px" font-style="normal" font-weight="bold" text-decoration="normal" x="223.0162353515625" y="397.1500002770505" text-anchor="start" dominant-baseline="alphabetic" transform="matrix(1, 0, 0, 1, 0.5, 0.5)" fill-opacity="1">50</text><text fill="none" stroke="rgb(0,0,0)" font-family="helvetica" font-size="11px" font-style="normal" font-weight="bold" text-decoration="normal" x="223.0162353515625" y="397.1500002770505" text-anchor="start" dominant-baseline="alphabetic" transform="matrix(1, 0, 0, 1, 0.5, 0.5)" stroke-opacity="0" stroke-linejoin="bevel" stroke-miterlimit="10">50</text><text fill="rgb(128,128,128)" stroke="none" font-family="helvetica" font-size="11px" font-style="normal" font-weight="bold" text-decoration="normal" x="335.5347900390625" y="397.1500002770505" text-anchor="start" dominant-baseline="alphabetic" transform="matrix(1, 0, 0, 1, 0.5, 0.5)" fill-opacity="1">100</text><text fill="none" stroke="rgb(0,0,0)" font-family="helvetica" font-size="11px" font-style="normal" font-weight="bold" text-decoration="normal" x="335.5347900390625" y="397.1500002770505" text-anchor="start" dominant-baseline="alphabetic" transform="matrix(1, 0, 0, 1, 0.5, 0.5)" stroke-opacity="0" stroke-linejoin="bevel" stroke-miterlimit="10">100</text><text fill="rgb(128,128,128)" stroke="none" font-family="helvetica" font-size="11px" font-style="normal" font-weight="bold" text-decoration="normal" x="451.1121826171875" y="397.1500002770505" text-anchor="start" dominant-baseline="alphabetic" transform="matrix(1, 0, 0, 1, 0.5, 0.5)" fill-opacity="1">150</text><text fill="none" stroke="rgb(0,0,0)" font-family="helvetica" font-size="11px" font-style="normal" font-weight="bold" text-decoration="normal" x="451.1121826171875" y="397.1500002770505" text-anchor="start" dominant-baseline="alphabetic" transform="matrix(1, 0, 0, 1, 0.5, 0.5)" stroke-opacity="0" stroke-linejoin="bevel" stroke-miterlimit="10">150</text><text fill="rgb(128,128,128)" stroke="none" font-family="helvetica" font-size="11px" font-style="normal" font-weight="bold" text-decoration="normal" x="566.6895751953125" y="397.1500002770505" text-anchor="start" dominant-baseline="alphabetic" transform="matrix(1, 0, 0, 1, 0.5, 0.5)" fill-opacity="1">200</text><text fill="none" stroke="rgb(0,0,0)" font-family="helvetica" font-size="11px" font-style="normal" font-weight="bold" text-decoration="normal" x="566.6895751953125" y="397.1500002770505" text-anchor="start" dominant-baseline="alphabetic" transform="matrix(1, 0, 0, 1, 0.5, 0.5)" stroke-opacity="0" stroke-linejoin="bevel" stroke-miterlimit="10">200</text><text fill="rgb(128,128,128)" stroke="none" font-family="helvetica" font-size="11px" font-style="normal" font-weight="bold" text-decoration="normal" x="682.2669677734375" y="397.1500002770505" text-anchor="start" dominant-baseline="alphabetic" transform="matrix(1, 0, 0, 1, 0.5, 0.5)" fill-opacity="1">250</text><text fill="none" stroke="rgb(0,0,0)" font-family="helvetica" font-size="11px" font-style="normal" font-weight="bold" text-decoration="normal" x="682.2669677734375" y="397.1500002770505" text-anchor="start" dominant-baseline="alphabetic" transform="matrix(1, 0, 0, 1, 0.5, 0.5)" stroke-opacity="0" stroke-linejoin="bevel" stroke-miterlimit="10">250</text><path fill="none" stroke="rgb(211,211,211)" paint-order="fill" d="M 171.5 388.5 L 171.5 325.5 M 287.5 388.5 L 287.5 325.5 M 403.5 388.5 L 403.5 325.5 M 518.5 388.5 L 518.5 325.5 M 634.5 388.5 L 634.5 325.5" stroke-opacity="1" stroke-linejoin="bevel" stroke-miterlimit="10" stroke-width="2"/><path fill="none" stroke="rgb(0,0,0)" paint-order="fill" d="M 35.5 322.5 L 35.5 27.5" stroke-opacity="1" stroke-linejoin="bevel" stroke-miterlimit="10"/><path fill="none" stroke="rgb(0,0,0)" paint-order="fill" d="M 29.5 322.5 L 37.5 322.5 M 29.5 275.5 L 37.5 275.5 M 29.5 228.5 L 37.5 228.5 M 29.5 182.5 L 37.5 182.5 M 29.5 135.5 L 37.5 135.5 M 29.5 88.5 L 37.5 88.5 M 29.5 41.5 L 37.5 41.5" stroke-opacity="1" stroke-linejoin="bevel" stroke-miterlimit="10"/><path fill="none" stroke="rgb(0,0,0)" paint-order="fill" d="M 31.5 322.5 L 35.5 322.5 M 31.5 313.5 L 35.5 313.5 M 31.5 303.5 L 35.5 303.5 M 31.5 294.5 L 35.5 294.5 M 31.5 285.5 L 35.5 285.5 M 31.5 275.5 L 35.5 275.5 M 31.5 266.5 L 35.5 266.5 M 31.5 256.5 L 35.5 256.5 M 31.5 247.5 L 35.5 247.5 M 31.5 238.5 L 35.5 238.5 M 31.5 228.5 L 35.5 228.5 M 31.5 219.5 L 35.5 219.5 M 31.5 210.5 L 35.5 210.5 M 31.5 200.5 L 35.5 200.5 M 31.5 191.5 L 35.5 191.5 M 31.5 182.5 L 35.5 182.5 M 31.5 172.5 L 35.5 172.5 M 31.5 163.5 L 35.5 163.5 M 31.5 153.5 L 35.5 153.5 M 31.5 144.5 L 35.5 144.5 M 31.5 135.5 L 35.5 135.5 M 31.5 125.5 L 35.5 125.5 M 31.5 116.5 L 35.5 116.5 M 31.5 107.5 L 35.5 107.5 M 31.5 97.5 L 35.5 97.5 M 31.5 88.5 L 35.5 88.5 M 31.5 79.5 L 35.5 79.5 M 31.5 69.5 L 35.5 69.5 M 31.5 60.5 L 35.5 60.5 M 31.5 50.5 L 35.5 50.5 M 31.5 41.5 L 35.5 41.5 M 31.5 32.5 L 35.5 32.5" stroke-opacity="1" stroke-linejoin="bevel" stroke-miterlimit="10"/><text fill="rgb(68,68,68)" stroke="none" font-family="helvetica" font-size="11px" font-style="normal" font-weight="normal" text-decoration="normal" x="17.88232421875" y="326" text-anchor="start" dominant-baseline="alphabetic" transform="matrix(1, 0, 0, 1, 0.5, 0.5)" fill-opacity="1">0</text><text fill="none" stroke="rgb(0,0,0)" font-family="helvetica" font-size="11px" font-style="normal" font-weight="normal" text-decoration="normal" x="17.88232421875" y="326" text-anchor="start" dominant-baseline="alphabetic" transform="matrix(1, 0, 0, 1, 0.5, 0.5)" stroke-opacity="0" stroke-linejoin="bevel" stroke-miterlimit="10">0</text><text fill="rgb(68,68,68)" stroke="none" font-family="helvetica" font-size="11px" font-style="normal" font-weight="normal" text-decoration="normal" x="2.5908203125" y="279.1745910644531" text-anchor="start" dominant-baseline="alphabetic" transform="matrix(1, 0, 0, 1, 0.5, 0.5)" fill-opacity="1">0.01</text><text fill="none" stroke="rgb(0,0,0)" font-family="helvetica" font-size="11px" font-style="normal" font-weight="normal" text-decoration="normal" x="2.5908203125" y="279.1745910644531" text-anchor="start" dominant-baseline="alphabetic" transform="matrix(1, 0, 0, 1, 0.5, 0.5)" stroke-opacity="0" stroke-linejoin="bevel" stroke-miterlimit="10">0.01</text><text fill="rgb(68,68,68)" stroke="none" font-family="helvetica" font-size="11px" font-style="normal" font-weight="normal" text-decoration="normal" x="2.5908203125" y="232.34921264648438" text-anchor="start" dominant-baseline="alphabetic" transform="matrix(1, 0, 0, 1, 0.5, 0.5)" fill-opacity="1">0.02</text><text fill="none" stroke="rgb(0,0,0)" font-family="helvetica" font-size="11px" font-style="normal" font-weight="normal" text-decoration="normal" x="2.5908203125" y="232.34921264648438" text-anchor="start" dominant-baseline="alphabetic" transform="matrix(1, 0, 0, 1, 0.5, 0.5)" stroke-opacity="0" stroke-linejoin="bevel" stroke-miterlimit="10">0.02</text><text fill="rgb(68,68,68)" stroke="none" font-family="helvetica" font-size="11px" font-style="normal" font-weight="normal" text-decoration="normal" x="2.5908203125" y="185.5238037109375" text-anchor="start" dominant-baseline="alphabetic" transform="matrix(1, 0, 0, 1, 0.5, 0.5)" fill-opacity="1">0.03</text><text fill="none" stroke="rgb(0,0,0)" font-family="helvetica" font-size="11px" font-style="normal" font-weight="normal" text-decoration="normal" x="2.5908203125" y="185.5238037109375" text-anchor="start" dominant-baseline="alphabetic" transform="matrix(1, 0, 0, 1, 0.5, 0.5)" stroke-opacity="0" stroke-linejoin="bevel" stroke-miterlimit="10">0.03</text><text fill="rgb(68,68,68)" stroke="none" font-family="helvetica" font-size="11px" font-style="normal" font-weight="normal" text-decoration="normal" x="2.5908203125" y="138.6984100341797" text-anchor="start" dominant-baseline="alphabetic" transform="matrix(1, 0, 0, 1, 0.5, 0.5)" fill-opacity="1">0.04</text><text fill="none" stroke="rgb(0,0,0)" font-family="helvetica" font-size="11px" font-style="normal" font-weight="normal" text-decoration="normal" x="2.5908203125" y="138.6984100341797" text-anchor="start" dominant-baseline="alphabetic" transform="matrix(1, 0, 0, 1, 0.5, 0.5)" stroke-opacity="0" stroke-linejoin="bevel" stroke-miterlimit="10">0.04</text><text fill="rgb(68,68,68)" stroke="none" font-family="helvetica" font-size="11px" font-style="normal" font-weight="normal" text-decoration="normal" x="2.5908203125" y="91.87301635742188" text-anchor="start" dominant-baseline="alphabetic" transform="matrix(1, 0, 0, 1, 0.5, 0.5)" fill-opacity="1">0.05</text><text fill="none" stroke="rgb(0,0,0)" font-family="helvetica" font-size="11px" font-style="normal" font-weight="normal" text-decoration="normal" x="2.5908203125" y="91.87301635742188" text-anchor="start" dominant-baseline="alphabetic" transform="matrix(1, 0, 0, 1, 0.5, 0.5)" stroke-opacity="0" stroke-linejoin="bevel" stroke-miterlimit="10">0.05</text><text fill="rgb(68,68,68)" stroke="none" font-family="helvetica" font-size="11px" font-style="normal" font-weight="normal" text-decoration="normal" x="2.5908203125" y="45.0476188659668" text-anchor="start" dominant-baseline="alphabetic" transform="matrix(1, 0, 0, 1, 0.5, 0.5)" fill-opacity="1">0.06</text><text fill="none" stroke="rgb(0,0,0)" font-family="helvetica" font-size="11px" font-style="normal" font-weight="normal" text-decoration="normal" x="2.5908203125" y="45.0476188659668" text-anchor="start" dominant-baseline="alphabetic" transform="matrix(1, 0, 0, 1, 0.5, 0.5)" stroke-opacity="0" stroke-linejoin="bevel" stroke-miterlimit="10">0.06</text><text fill="rgb(68,68,68)" stroke="none" font-family="helvetica" font-size="13px" font-style="normal" font-weight="bold" text-decoration="normal" x="0" y="12" text-anchor="start" dominant-baseline="alphabetic" transform="matrix(1, 0, 0, 1, 35.5, 7.5)" fill-opacity="1">Response Time</text><text fill="none" stroke="rgb(0,0,0)" font-family="helvetica" font-size="13px" font-style="normal" font-weight="bold" text-decoration="normal" x="0" y="12" text-anchor="start" dominant-baseline="alphabetic" transform="matrix(1, 0, 0, 1, 35.5, 7.5)" stroke-opacity="0" stroke-miterlimit="10" stroke-dasharray="">Response Time</text></svg>