<svg version="1.1" xmlns="http://www.w3.org/2000/svg" width="800" height="400"><defs><clipPath id="hgqhNlkTVZhv"><path fill="none" stroke="none" d="M 0.5 0.5 L 800.5 0.5 L 800.5 400.5 L 0.5 400.5 L 0.5 0.5 Z M 26.5 27.5 L 770.5 27.5 L 770.5 306.5 L 26.5 306.5 L 26.5 27.5 Z" clip-rule="evenodd"/></clipPath><clipPath id="KgHfRAhtWyPM"><path fill="none" stroke="none" d="M 26.5 27.5 L 770.5 27.5 L 770.5 306.5 L 26.5 306.5 L 26.5 27.5 Z"/></clipPath><clipPath id="qfDxopVswTev"><path fill="none" stroke="none" d="M 26.5 27.5 L 770.5 27.5 L 770.5 306.5 L 26.5 306.5 L 26.5 27.5 Z"/></clipPath><clipPath id="VXFbAPAkFUpn"><path fill="none" stroke="none" d="M 26.5 27.5 L 770.5 27.5 L 770.5 306.5 L 26.5 306.5 L 26.5 27.5 Z"/></clipPath><clipPath id="SclaoTvkQoKH"><path fill="none" stroke="none" d="M 26.5 27.5 L 770.5 27.5 L 770.5 306.5 L 26.5 306.5 L 26.5 27.5 Z"/></clipPath></defs><path fill="rgb(255,255,255)" stroke="none" paint-order="stroke" d="M 0.5 0.5 L 800.5 0.5 L 800.5 400.5 L 0.5 400.5 L 0.5 0.5 Z" fill-opacity="1" clip-path="url(#hgqhNlkTVZhv)"/><path fill="rgb(255,255,255)" stroke="none" paint-order="stroke" d="M 26.5 27.5 L 770.5 27.5 L 770.5 306.5 L 26.5 306.5 L 26.5 27.5 Z" fill-opacity="1"/><path fill="none" stroke="rgb(229,229,229)" paint-order="fill" d="M 26.5 27.5 L 770.5 27.5 L 770.5 306.5 L 26.5 306.5 L 26.5 27.5 Z" stroke-opacity="1" stroke-linejoin="bevel" stroke-miterlimit="10"/><path fill="none" stroke="rgb(229,229,229)" paint-order="fill" d="M 26.5 267.5 L 770.5 267.5 M 26.5 227.5 L 770.5 227.5 M 26.5 188.5 L 770.5 188.5 M 26.5 148.5 L 770.5 148.5 M 26.5 109.5 L 770.5 109.5 M 26.5 69.5 L 770.5 69.5 M 26.5 30.5 L 770.5 30.5" stroke-opacity="1" stroke-linejoin="bevel" stroke-miterlimit="10" clip-path="url(#qfDxopVswTev)"/><path fill="rgb(31,119,180)" stroke="rgb(255,255,255)" paint-order="fill" d="M 61.67090606689453 301.6042175292969 L 86.0199966430664 301.6042175292969 L 86.0199966430664 306.5 L 61.67090606689453 306.5 L 61.67090606689453 301.6042175292969 Z" fill-opacity="1" clip-path="url(#VXFbAPAkFUpn)" stroke-opacity="1" stroke-linejoin="bevel" stroke-miterlimit="10"/><path fill="rgb(255,127,14)" stroke="rgb(255,255,255)" paint-order="fill" d="M 88.72545623779297 303.4993591308594 L 113.07454681396484 303.4993591308594 L 113.07454681396484 306.5 L 88.72545623779297 306.5 L 88.72545623779297 303.4993591308594 Z" fill-opacity="1" clip-path="url(#VXFbAPAkFUpn)" stroke-opacity="1" stroke-linejoin="bevel" stroke-miterlimit="10"/><path fill="rgb(44,160,44)" stroke="rgb(255,255,255)" paint-order="fill" d="M 115.77999877929688 302.39385986328125 L 140.12908935546875 302.39385986328125 L 140.12908935546875 306.5 L 115.77999877929688 306.5 L 115.77999877929688 302.39385986328125 Z" fill-opacity="1" clip-path="url(#VXFbAPAkFUpn)" stroke-opacity="1" stroke-linejoin="bevel" stroke-miterlimit="10"/><path fill="rgb(31,119,180)" stroke="rgb(255,255,255)" paint-order="fill" d="M 180.71090698242188 262.6748962402344 L 205.05999755859375 262.6748962402344 L 205.05999755859375 306.5 L 180.71090698242188 306.5 L 180.71090698242188 262.6748962402344 Z" fill-opacity="1" clip-path="url(#VXFbAPAkFUpn)" stroke-opacity="1" stroke-linejoin="bevel" stroke-miterlimit="10"/><path fill="rgb(255,127,14)" stroke="rgb(255,255,255)" paint-order="fill" d="M 207.7654571533203 270.8871765136719 L 232.1145477294922 270.8871765136719 L 232.1145477294922 306.5 L 207.7654571533203 306.5 L 207.7654571533203 270.8871765136719 Z" fill-opacity="1" clip-path="url(#VXFbAPAkFUpn)" stroke-opacity="1" stroke-linejoin="bevel" stroke-miterlimit="10"/><path fill="rgb(44,160,44)" stroke="rgb(255,255,255)" paint-order="fill" d="M 234.82000732421875 275.8619079589844 L 259.1690979003906 275.8619079589844 L 259.1690979003906 306.5 L 234.82000732421875 306.5 L 234.82000732421875 275.8619079589844 Z" fill-opacity="1" clip-path="url(#VXFbAPAkFUpn)" stroke-opacity="1" stroke-linejoin="bevel" stroke-miterlimit="10"/><path fill="rgb(31,119,180)" stroke="rgb(255,255,255)" paint-order="fill" d="M 299.75091552734375 218.61293029785156 L 324.0999755859375 218.61293029785156 L 324.0999755859375 306.5 L 299.75091552734375 306.5 L 299.75091552734375 218.61293029785156 Z" fill-opacity="1" clip-path="url(#VXFbAPAkFUpn)" stroke-opacity="1" stroke-linejoin="bevel" stroke-miterlimit="10"/><path fill="rgb(255,127,14)" stroke="rgb(255,255,255)" paint-order="fill" d="M 326.80548095703125 234.80056762695312 L 351.154541015625 234.80056762695312 L 351.154541015625 306.5 L 326.80548095703125 306.5 L 326.80548095703125 234.80056762695312 Z" fill-opacity="1" clip-path="url(#VXFbAPAkFUpn)" stroke-opacity="1" stroke-linejoin="bevel" stroke-miterlimit="10"/><path fill="rgb(44,160,44)" stroke="rgb(255,255,255)" paint-order="fill" d="M 353.8599853515625 243.802490234375 L 378.2091064453125 243.802490234375 L 378.2091064453125 306.5 L 353.8599853515625 306.5 L 353.8599853515625 243.802490234375 Z" fill-opacity="1" clip-path="url(#VXFbAPAkFUpn)" stroke-opacity="1" stroke-linejoin="bevel" stroke-miterlimit="10"/><path fill="rgb(31,119,180)" stroke="rgb(255,255,255)" paint-order="fill" d="M 418.7908935546875 175.57748413085938 L 443.1400146484375 175.57748413085938 L 443.1400146484375 306.5 L 418.7908935546875 306.5 L 418.7908935546875 175.57748413085938 Z" fill-opacity="1" clip-path="url(#VXFbAPAkFUpn)" stroke-opacity="1" stroke-linejoin="bevel" stroke-miterlimit="10"/><path fill="rgb(255,127,14)" stroke="rgb(255,255,255)" paint-order="fill" d="M 445.845458984375 199.34568786621094 L 470.19451904296875 199.34568786621094 L 470.19451904296875 306.5 L 445.845458984375 306.5 L 445.845458984375 199.34568786621094 Z" fill-opacity="1" clip-path="url(#VXFbAPAkFUpn)" stroke-opacity="1" stroke-linejoin="bevel" stroke-miterlimit="10"/><path fill="rgb(44,160,44)" stroke="rgb(255,255,255)" paint-order="fill" d="M 472.9000244140625 211.58511352539062 L 497.24908447265625 211.58511352539062 L 497.24908447265625 306.5 L 472.9000244140625 306.5 L 472.9000244140625 211.58511352539062 Z" fill-opacity="1" clip-path="url(#VXFbAPAkFUpn)" stroke-opacity="1" stroke-linejoin="bevel" stroke-miterlimit="10"/><path fill="rgb(31,119,180)" stroke="rgb(255,255,255)" paint-order="fill" d="M 537.8309326171875 129.69932556152344 L 562.1800537109375 129.69932556152344 L 562.1800537109375 306.5 L 537.8309326171875 306.5 L 537.8309326171875 129.69932556152344 Z" fill-opacity="1" clip-path="url(#VXFbAPAkFUpn)" stroke-opacity="1" stroke-linejoin="bevel" stroke-miterlimit="10"/><path fill="rgb(255,127,14)" stroke="rgb(255,255,255)" paint-order="fill" d="M 564.8854370117188 162.4694366455078 L 589.2345581054688 162.4694366455078 L 589.2345581054688 306.5 L 564.8854370117188 306.5 L 564.8854370117188 162.4694366455078 Z" fill-opacity="1" clip-path="url(#VXFbAPAkFUpn)" stroke-opacity="1" stroke-linejoin="bevel" stroke-miterlimit="10"/><path fill="rgb(44,160,44)" stroke="rgb(255,255,255)" paint-order="fill" d="M 591.9400024414062 180.47325134277344 L 616.2891235351562 180.47325134277344 L 616.2891235351562 306.5 L 591.9400024414062 306.5 L 591.9400024414062 180.47325134277344 Z" fill-opacity="1" clip-path="url(#VXFbAPAkFUpn)" stroke-opacity="1" stroke-linejoin="bevel" stroke-miterlimit="10"/><path fill="rgb(31,119,180)" stroke="rgb(255,255,255)" paint-order="fill" d="M 656.8709106445312 40.78571319580078 L 681.2200317382812 40.78571319580078 L 681.2200317382812 306.5 L 656.8709106445312 306.5 L 656.8709106445312 40.78571319580078 Z" fill-opacity="1" clip-path="url(#VXFbAPAkFUpn)" stroke-opacity="1" stroke-linejoin="bevel" stroke-miterlimit="10"/><path fill="rgb(255,127,14)" stroke="rgb(255,255,255)" paint-order="fill" d="M 683.9254150390625 125.51422119140625 L 708.2745361328125 125.51422119140625 L 708.2745361328125 306.5 L 683.9254150390625 306.5 L 683.9254150390625 125.51422119140625 Z" fill-opacity="1" clip-path="url(#VXFbAPAkFUpn)" stroke-opacity="1" stroke-linejoin="bevel" stroke-miterlimit="10"/><path fill="rgb(44,160,44)" stroke="rgb(255,255,255)" paint-order="fill" d="M 710.97998046875 145.6500701904297 L 735.3291015625 145.6500701904297 L 735.3291015625 306.5 L 710.97998046875 306.5 L 710.97998046875 145.6500701904297 Z" fill-opacity="1" clip-path="url(#VXFbAPAkFUpn)" stroke-opacity="1" stroke-linejoin="bevel" stroke-miterlimit="10"/><path fill="none" stroke="rgb(0,0,0)" paint-order="fill" d="M 26.5 306.5 L 770.5 306.5" stroke-opacity="1" stroke-linejoin="bevel" stroke-miterlimit="10"/><path fill="none" stroke="rgb(0,0,0)" paint-order="fill" d="M 73.5 312.5 L 73.5 304.5 M 100.5 312.5 L 100.5 304.5 M 127.5 312.5 L 127.5 304.5 M 192.5 312.5 L 192.5 304.5 M 219.5 312.5 L 219.5 304.5 M 246.5 312.5 L 246.5 304.5 M 311.5 312.5 L 311.5 304.5 M 338.5 312.5 L 338.5 304.5 M 366.5 312.5 L 366.5 304.5 M 430.5 312.5 L 430.5 304.5 M 458.5 312.5 L 458.5 304.5 M 485.5 312.5 L 485.5 304.5 M 550.5 312.5 L 550.5 304.5 M 577.5 312.5 L 577.5 304.5 M 604.5 312.5 L 604.5 304.5 M 669.5 312.5 L 669.5 304.5 M 696.5 312.5 L 696.5 304.5 M 723.5 312.5 L 723.5 304.5" stroke-opacity="1" stroke-linejoin="bevel" stroke-miterlimit="10"/><path fill="none" stroke="rgb(0,0,0)" paint-order="fill" d="" stroke-opacity="1" stroke-linejoin="bevel" stroke-miterlimit="10"/><text fill="rgb(68,68,68)" stroke="none" font-family="helvetica" font-size="11px" font-style="normal" font-weight="normal" text-decoration="normal" x="38.48705291748047" y="321" text-anchor="start" dominant-baseline="alphabetic" transform="matrix(0.5403023058681398, -0.8414709848078965, 0.8414709848078965, 0.5403023058681398, -232.52956732115814, 207.9422382226548)" fill-opacity="1">Django</text><text fill="none" stroke="rgb(0,0,0)" font-family="helvetica" font-size="11px" font-style="normal" font-weight="normal" text-decoration="normal" x="38.48705291748047" y="321" text-anchor="start" dominant-baseline="alphabetic" transform="matrix(0.5403023058681398, -0.8414709848078965, 0.8414709848078965, 0.5403023058681398, -232.52956732115814, 207.9422382226548)" stroke-opacity="0" stroke-linejoin="bevel" stroke-miterlimit="10">Django</text><text fill="rgb(68,68,68)" stroke="none" font-family="helvetica" font-size="11px" font-style="normal" font-weight="normal" text-decoration="normal" x="31.918556213378906" y="321" text-anchor="start" dominant-baseline="alphabetic" transform="matrix(0.5403023058681398, -0.8414709848078965, 0.8414709848078965, 0.5403023058681398, -220.0926529918214, 230.70785719849533)" fill-opacity="1">Django-orjson</text><text fill="none" stroke="rgb(0,0,0)" font-family="helvetica" font-size="11px" font-style="normal" font-weight="normal" text-decoration="normal" x="31.918556213378906" y="321" text-anchor="start" dominant-baseline="alphabetic" transform="matrix(0.5403023058681398, -0.8414709848078965, 0.8414709848078965, 0.5403023058681398, -220.0926529918214, 230.70785719849533)" stroke-opacity="0" stroke-linejoin="bevel" stroke-miterlimit="10">Django-orjson</text><text fill="rgb(68,68,68)" stroke="none" font-family="helvetica" font-size="11px" font-style="normal" font-weight="normal" text-decoration="normal" x="95.05610656738281" y="321" text-anchor="start" dominant-baseline="alphabetic" transform="matrix(0.5403023058681398, -0.8414709848078965, 0.8414709848078965, 0.5403023058681398, -207.6557421696997, 253.47346975442176)" fill-opacity="1">Go-chi</text><text fill="none" stroke="rgb(0,0,0)" font-family="helvetica" font-size="11px" font-style="normal" font-weight="normal" text-decoration="normal" x="95.05610656738281" y="321" text-anchor="start" dominant-baseline="alphabetic" transform="matrix(0.5403023058681398, -0.8414709848078965, 0.8414709848078965, 0.5403023058681398, -207.6557421696997, 253.47346975442176)" stroke-opacity="0" stroke-linejoin="bevel" stroke-miterlimit="10">Go-chi</text><text fill="rgb(68,68,68)" stroke="none" font-family="helvetica" font-size="11px" font-style="normal" font-weight="normal" text-decoration="normal" x="157.5270538330078" y="321" text-anchor="start" dominant-baseline="alphabetic" transform="matrix(0.5403023058681398, -0.8414709848078965, 0.8414709848078965, 0.5403023058681398, -177.80715339083565, 308.1109450245765)" fill-opacity="1">Django</text><text fill="none" stroke="rgb(0,0,0)" font-family="helvetica" font-size="11px" font-style="normal" font-weight="normal" text-decoration="normal" x="157.5270538330078" y="321" text-anchor="start" dominant-baseline="alphabetic" transform="matrix(0.5403023058681398, -0.8414709848078965, 0.8414709848078965, 0.5403023058681398, -177.80715339083565, 308.1109450245765)" stroke-opacity="0" stroke-linejoin="bevel" stroke-miterlimit="10">Django</text><text fill="rgb(68,68,68)" stroke="none" font-family="helvetica" font-size="11px" font-style="normal" font-weight="normal" text-decoration="normal" x="150.95855712890625" y="321" text-anchor="start" dominant-baseline="alphabetic" transform="matrix(0.5403023058681398, -0.8414709848078965, 0.8414709848078965, 0.5403023058681398, -165.37023906149892, 330.87656400041703)" fill-opacity="1">Django-orjson</text><text fill="none" stroke="rgb(0,0,0)" font-family="helvetica" font-size="11px" font-style="normal" font-weight="normal" text-decoration="normal" x="150.95855712890625" y="321" text-anchor="start" dominant-baseline="alphabetic" transform="matrix(0.5403023058681398, -0.8414709848078965, 0.8414709848078965, 0.5403023058681398, -165.37023906149892, 330.87656400041703)" stroke-opacity="0" stroke-linejoin="bevel" stroke-miterlimit="10">Django-orjson</text><text fill="rgb(68,68,68)" stroke="none" font-family="helvetica" font-size="11px" font-style="normal" font-weight="normal" text-decoration="normal" x="214.0961151123047" y="321" text-anchor="start" dominant-baseline="alphabetic" transform="matrix(0.5403023058681398, -0.8414709848078965, 0.8414709848078965, 0.5403023058681398, -152.9333247321622, 353.6421829762576)" fill-opacity="1">Go-chi</text><text fill="none" stroke="rgb(0,0,0)" font-family="helvetica" font-size="11px" font-style="normal" font-weight="normal" text-decoration="normal" x="214.0961151123047" y="321" text-anchor="start" dominant-baseline="alphabetic" transform="matrix(0.5403023058681398, -0.8414709848078965, 0.8414709848078965, 0.5403023058681398, -152.9333247321622, 353.6421829762576)" stroke-opacity="0" stroke-linejoin="bevel" stroke-miterlimit="10">Go-chi</text><text fill="rgb(68,68,68)" stroke="none" font-family="helvetica" font-size="11px" font-style="normal" font-weight="normal" text-decoration="normal" x="276.5670471191406" y="321" text-anchor="start" dominant-baseline="alphabetic" transform="matrix(0.5403023058681398, -0.8414709848078965, 0.8414709848078965, 0.5403023058681398, -123.08474296772829, 408.279645406584)" fill-opacity="1">Django</text><text fill="none" stroke="rgb(0,0,0)" font-family="helvetica" font-size="11px" font-style="normal" font-weight="normal" text-decoration="normal" x="276.5670471191406" y="321" text-anchor="start" dominant-baseline="alphabetic" transform="matrix(0.5403023058681398, -0.8414709848078965, 0.8414709848078965, 0.5403023058681398, -123.08474296772829, 408.279645406584)" stroke-opacity="0" stroke-linejoin="bevel" stroke-miterlimit="10">Django</text><text fill="rgb(68,68,68)" stroke="none" font-family="helvetica" font-size="11px" font-style="normal" font-weight="normal" text-decoration="normal" x="269.9985656738281" y="321" text-anchor="start" dominant-baseline="alphabetic" transform="matrix(0.5403023058681398, -0.8414709848078965, 0.8414709848078965, 0.5403023058681398, -110.64782162396142, 431.0452772222528)" fill-opacity="1">Django-orjson</text><text fill="none" stroke="rgb(0,0,0)" font-family="helvetica" font-size="11px" font-style="normal" font-weight="normal" text-decoration="normal" x="269.9985656738281" y="321" text-anchor="start" dominant-baseline="alphabetic" transform="matrix(0.5403023058681398, -0.8414709848078965, 0.8414709848078965, 0.5403023058681398, -110.64782162396142, 431.0452772222528)" stroke-opacity="0" stroke-linejoin="bevel" stroke-miterlimit="10">Django-orjson</text><text fill="rgb(68,68,68)" stroke="none" font-family="helvetica" font-size="11px" font-style="normal" font-weight="normal" text-decoration="normal" x="333.1361083984375" y="321" text-anchor="start" dominant-baseline="alphabetic" transform="matrix(0.5403023058681398, -0.8414709848078965, 0.8414709848078965, 0.5403023058681398, -98.21091430905483, 453.8108833582652)" fill-opacity="1">Go-chi</text><text fill="none" stroke="rgb(0,0,0)" font-family="helvetica" font-size="11px" font-style="normal" font-weight="normal" text-decoration="normal" x="333.1361083984375" y="321" text-anchor="start" dominant-baseline="alphabetic" transform="matrix(0.5403023058681398, -0.8414709848078965, 0.8414709848078965, 0.5403023058681398, -98.21091430905483, 453.8108833582652)" stroke-opacity="0" stroke-linejoin="bevel" stroke-miterlimit="10">Go-chi</text><text fill="rgb(68,68,68)" stroke="none" font-family="helvetica" font-size="11px" font-style="normal" font-weight="normal" text-decoration="normal" x="395.6070556640625" y="321" text-anchor="start" dominant-baseline="alphabetic" transform="matrix(0.5403023058681398, -0.8414709848078965, 0.8414709848078965, 0.5403023058681398, -68.36232553019079, 508.4483586284199)" fill-opacity="1">Django</text><text fill="none" stroke="rgb(0,0,0)" font-family="helvetica" font-size="11px" font-style="normal" font-weight="normal" text-decoration="normal" x="395.6070556640625" y="321" text-anchor="start" dominant-baseline="alphabetic" transform="matrix(0.5403023058681398, -0.8414709848078965, 0.8414709848078965, 0.5403023058681398, -68.36232553019079, 508.4483586284199)" stroke-opacity="0" stroke-linejoin="bevel" stroke-miterlimit="10">Django</text><text fill="rgb(68,68,68)" stroke="none" font-family="helvetica" font-size="11px" font-style="normal" font-weight="normal" text-decoration="normal" x="389.0385437011719" y="321" text-anchor="start" dominant-baseline="alphabetic" transform="matrix(0.5403023058681398, -0.8414709848078965, 0.8414709848078965, 0.5403023058681398, -55.92541821528425, 531.2139647644321)" fill-opacity="1">Django-orjson</text><text fill="none" stroke="rgb(0,0,0)" font-family="helvetica" font-size="11px" font-style="normal" font-weight="normal" text-decoration="normal" x="389.0385437011719" y="321" text-anchor="start" dominant-baseline="alphabetic" transform="matrix(0.5403023058681398, -0.8414709848078965, 0.8414709848078965, 0.5403023058681398, -55.92541821528425, 531.2139647644321)" stroke-opacity="0" stroke-linejoin="bevel" stroke-miterlimit="10">Django-orjson</text><text fill="rgb(68,68,68)" stroke="none" font-family="helvetica" font-size="11px" font-style="normal" font-weight="normal" text-decoration="normal" x="452.1761169433594" y="321" text-anchor="start" dominant-baseline="alphabetic" transform="matrix(0.5403023058681398, -0.8414709848078965, 0.8414709848078965, 0.5403023058681398, -43.48849687151733, 553.979596580101)" fill-opacity="1">Go-chi</text><text fill="none" stroke="rgb(0,0,0)" font-family="helvetica" font-size="11px" font-style="normal" font-weight="normal" text-decoration="normal" x="452.1761169433594" y="321" text-anchor="start" dominant-baseline="alphabetic" transform="matrix(0.5403023058681398, -0.8414709848078965, 0.8414709848078965, 0.5403023058681398, -43.48849687151733, 553.979596580101)" stroke-opacity="0" stroke-linejoin="bevel" stroke-miterlimit="10">Go-chi</text><text fill="rgb(68,68,68)" stroke="none" font-family="helvetica" font-size="11px" font-style="normal" font-weight="normal" text-decoration="normal" x="514.6470336914062" y="321" text-anchor="start" dominant-baseline="alphabetic" transform="matrix(0.5403023058681398, -0.8414709848078965, 0.8414709848078965, 0.5403023058681398, -13.639922121513564, 608.6170461705992)" fill-opacity="1">Django</text><text fill="none" stroke="rgb(0,0,0)" font-family="helvetica" font-size="11px" font-style="normal" font-weight="normal" text-decoration="normal" x="514.6470336914062" y="321" text-anchor="start" dominant-baseline="alphabetic" transform="matrix(0.5403023058681398, -0.8414709848078965, 0.8414709848078965, 0.5403023058681398, -13.639922121513564, 608.6170461705992)" stroke-opacity="0" stroke-linejoin="bevel" stroke-miterlimit="10">Django</text><text fill="rgb(68,68,68)" stroke="none" font-family="helvetica" font-size="11px" font-style="normal" font-weight="normal" text-decoration="normal" x="508.07855224609375" y="321" text-anchor="start" dominant-baseline="alphabetic" transform="matrix(0.5403023058681398, -0.8414709848078965, 0.8414709848078965, 0.5403023058681398, -1.203000777746638, 631.3826779862679)" fill-opacity="1">Django-orjson</text><text fill="none" stroke="rgb(0,0,0)" font-family="helvetica" font-size="11px" font-style="normal" font-weight="normal" text-decoration="normal" x="508.07855224609375" y="321" text-anchor="start" dominant-baseline="alphabetic" transform="matrix(0.5403023058681398, -0.8414709848078965, 0.8414709848078965, 0.5403023058681398, -1.203000777746638, 631.3826779862679)" stroke-opacity="0" stroke-linejoin="bevel" stroke-miterlimit="10">Django-orjson</text><text fill="rgb(68,68,68)" stroke="none" font-family="helvetica" font-size="11px" font-style="normal" font-weight="normal" text-decoration="normal" x="571.2161254882812" y="321" text-anchor="start" dominant-baseline="alphabetic" transform="matrix(0.5403023058681398, -0.8414709848078965, 0.8414709848078965, 0.5403023058681398, 11.233920566020288, 654.1483098019368)" fill-opacity="1">Go-chi</text><text fill="none" stroke="rgb(0,0,0)" font-family="helvetica" font-size="11px" font-style="normal" font-weight="normal" text-decoration="normal" x="571.2161254882812" y="321" text-anchor="start" dominant-baseline="alphabetic" transform="matrix(0.5403023058681398, -0.8414709848078965, 0.8414709848078965, 0.5403023058681398, 11.233920566020288, 654.1483098019368)" stroke-opacity="0" stroke-linejoin="bevel" stroke-miterlimit="10">Go-chi</text><text fill="rgb(68,68,68)" stroke="none" font-family="helvetica" font-size="11px" font-style="normal" font-weight="normal" text-decoration="normal" x="633.6870727539062" y="321" text-anchor="start" dominant-baseline="alphabetic" transform="matrix(0.5403023058681398, -0.8414709848078965, 0.8414709848078965, 0.5403023058681398, 41.08250934488433, 708.7857850720915)" fill-opacity="1">Django</text><text fill="none" stroke="rgb(0,0,0)" font-family="helvetica" font-size="11px" font-style="normal" font-weight="normal" text-decoration="normal" x="633.6870727539062" y="321" text-anchor="start" dominant-baseline="alphabetic" transform="matrix(0.5403023058681398, -0.8414709848078965, 0.8414709848078965, 0.5403023058681398, 41.08250934488433, 708.7857850720915)" stroke-opacity="0" stroke-linejoin="bevel" stroke-miterlimit="10">Django</text><text fill="rgb(68,68,68)" stroke="none" font-family="helvetica" font-size="11px" font-style="normal" font-weight="normal" text-decoration="normal" x="627.1185302734375" y="321" text-anchor="start" dominant-baseline="alphabetic" transform="matrix(0.5403023058681398, -0.8414709848078965, 0.8414709848078965, 0.5403023058681398, 53.519402630930585, 731.5513655284473)" fill-opacity="1">Django-orjson</text><text fill="none" stroke="rgb(0,0,0)" font-family="helvetica" font-size="11px" font-style="normal" font-weight="normal" text-decoration="normal" x="627.1185302734375" y="321" text-anchor="start" dominant-baseline="alphabetic" transform="matrix(0.5403023058681398, -0.8414709848078965, 0.8414709848078965, 0.5403023058681398, 53.519402630930585, 731.5513655284473)" stroke-opacity="0" stroke-linejoin="bevel" stroke-miterlimit="10">Django-orjson</text><text fill="rgb(68,68,68)" stroke="none" font-family="helvetica" font-size="11px" font-style="normal" font-weight="normal" text-decoration="normal" x="690.256103515625" y="321" text-anchor="start" dominant-baseline="alphabetic" transform="matrix(0.5403023058681398, -0.8414709848078965, 0.8414709848078965, 0.5403023058681398, 65.9563239746974, 754.3169973441161)" fill-opacity="1">Go-chi</text><text fill="none" stroke="rgb(0,0,0)" font-family="helvetica" font-size="11px" font-style="normal" font-weight="normal" text-decoration="normal" x="690.256103515625" y="321" text-anchor="start" dominant-baseline="alphabetic" transform="matrix(0.5403023058681398, -0.8414709848078965, 0.8414709848078965, 0.5403023058681398, 65.9563239746974, 754.3169973441161)" stroke-opacity="0" stroke-linejoin="bevel" stroke-miterlimit="10">Go-chi</text><text fill="rgb(128,128,128)" stroke="none" font-family="helvetica" font-size="11px" font-style="normal" font-weight="bold" text-decoration="normal" x="97.3411636352539" y="397.1087768985952" text-anchor="start" dominant-baseline="alphabetic" transform="matrix(1, 0, 0, 1, 0.5, 0.5)" fill-opacity="1">1</text><text fill="none" stroke="rgb(0,0,0)" font-family="helvetica" font-size="11px" font-style="normal" font-weight="bold" text-decoration="normal" x="97.3411636352539" y="397.1087768985952" text-anchor="start" dominant-baseline="alphabetic" transform="matrix(1, 0, 0, 1, 0.5, 0.5)" stroke-opacity="0" stroke-linejoin="bevel" stroke-miterlimit="10">1</text><text fill="rgb(128,128,128)" stroke="none" font-family="helvetica" font-size="11px" font-style="normal" font-weight="bold" text-decoration="normal" x="213.32232666015625" y="397.1087768985952" text-anchor="start" dominant-baseline="alphabetic" transform="matrix(1, 0, 0, 1, 0.5, 0.5)" fill-opacity="1">50</text><text fill="none" stroke="rgb(0,0,0)" font-family="helvetica" font-size="11px" font-style="normal" font-weight="bold" text-decoration="normal" x="213.32232666015625" y="397.1087768985952" text-anchor="start" dominant-baseline="alphabetic" transform="matrix(1, 0, 0, 1, 0.5, 0.5)" stroke-opacity="0" stroke-linejoin="bevel" stroke-miterlimit="10">50</text><text fill="rgb(128,128,128)" stroke="none" font-family="helvetica" font-size="11px" font-style="normal" font-weight="bold" text-decoration="normal" x="329.3034973144531" y="397.1087768985952" text-anchor="start" dominant-baseline="alphabetic" transform="matrix(1, 0, 0, 1, 0.5, 0.5)" fill-opacity="1">100</text><text fill="none" stroke="rgb(0,0,0)" font-family="helvetica" font-size="11px" font-style="normal" font-weight="bold" text-decoration="normal" x="329.3034973144531" y="397.1087768985952" text-anchor="start" dominant-baseline="alphabetic" transform="matrix(1, 0, 0, 1, 0.5, 0.5)" stroke-opacity="0" stroke-linejoin="bevel" stroke-miterlimit="10">100</text><text fill="rgb(128,128,128)" stroke="none" font-family="helvetica" font-size="11px" font-style="normal" font-weight="bold" text-decoration="normal" x="448.3434753417969" y="397.1087768985952" text-anchor="start" dominant-baseline="alphabetic" transform="matrix(1, 0, 0, 1, 0.5, 0.5)" fill-opacity="1">150</text><text fill="none" stroke="rgb(0,0,0)" font-family="helvetica" font-size="11px" font-style="normal" font-weight="bold" text-decoration="normal" x="448.3434753417969" y="397.1087768985952" text-anchor="start" dominant-baseline="alphabetic" transform="matrix(1, 0, 0, 1, 0.5, 0.5)" stroke-opacity="0" stroke-linejoin="bevel" stroke-miterlimit="10">150</text><text fill="rgb(128,128,128)" stroke="none" font-family="helvetica" font-size="11px" font-style="normal" font-weight="bold" text-decoration="normal" x="567.3834838867188" y="397.1087768985952" text-anchor="start" dominant-baseline="alphabetic" transform="matrix(1, 0, 0, 1, 0.5, 0.5)" fill-opacity="1">200</text><text fill="none" stroke="rgb(0,0,0)" font-family="helvetica" font-size="11px" font-style="normal" font-weight="bold" text-decoration="normal" x="567.3834838867188" y="397.1087768985952" text-anchor="start" dominant-baseline="alphabetic" transform="matrix(1, 0, 0, 1, 0.5, 0.5)" stroke-opacity="0" stroke-linejoin="bevel" stroke-miterlimit="10">200</text><text fill="rgb(128,128,128)" stroke="none" font-family="helvetica" font-size="11px" font-style="normal" font-weight="bold" text-decoration="normal" x="686.4234619140625" y="397.1087768985952" text-anchor="start" dominant-baseline="alphabetic" transform="matrix(1, 0, 0, 1, 0.5, 0.5)" fill-opacity="1">250</text><text fill="none" stroke="rgb(0,0,0)" font-family="helvetica" font-size="11px" font-style="normal" font-weight="bold" text-decoration="normal" x="686.4234619140625" y="397.1087768985952" text-anchor="start" dominant-baseline="alphabetic" transform="matrix(1, 0, 0, 1, 0.5, 0.5)" stroke-opacity="0" stroke-linejoin="bevel" stroke-miterlimit="10">250</text><path fill="none" stroke="rgb(211,211,211)" paint-order="fill" d="M 160.5 388.5 L 160.5 309.5 M 279.5 388.5 L 279.5 309.5 M 398.5 388.5 L 398.5 309.5 M 517.5 388.5 L 517.5 309.5 M 636.5 388.5 L 636.5 309.5" stroke-opacity="1" stroke-linejoin="bevel" stroke-miterlimit="10" stroke-width="2"/><path fill="none" stroke="rgb(0,0,0)" paint-order="fill" d="M 26.5 306.5 L 26.5 27.5" stroke-opacity="1" stroke-linejoin="bevel" stroke-miterlimit="10"/><path fill="none" stroke="rgb(0,0,0)" paint-order="fill" d="M 20.5 306.5 L 28.5 306.5 M 20.5 267.5 L 28.5 267.5 M 20.5 227.5 L 28.5 227.5 M 20.5 188.5 L 28.5 188.5 M 20.5 148.5 L 28.5 148.5 M 20.5 109.5 L 28.5 109.5 M 20.5 69.5 L 28.5 69.5 M 20.5 30.5 L 28.5 30.5" stroke-opacity="1" stroke-linejoin="bevel" stroke-miterlimit="10"/><path fill="none" stroke="rgb(0,0,0)" paint-order="fill" d="M 22.5 306.5 L 26.5 306.5 M 22.5 298.5 L 26.5 298.5 M 22.5 290.5 L 26.5 290.5 M 22.5 282.5 L 26.5 282.5 M 22.5 274.5 L 26.5 274.5 M 22.5 267.5 L 26.5 267.5 M 22.5 259.5 L 26.5 259.5 M 22.5 251.5 L 26.5 251.5 M 22.5 243.5 L 26.5 243.5 M 22.5 235.5 L 26.5 235.5 M 22.5 227.5 L 26.5 227.5 M 22.5 219.5 L 26.5 219.5 M 22.5 211.5 L 26.5 211.5 M 22.5 203.5 L 26.5 203.5 M 22.5 195.5 L 26.5 195.5 M 22.5 188.5 L 26.5 188.5 M 22.5 180.5 L 26.5 180.5 M 22.5 172.5 L 26.5 172.5 M 22.5 164.5 L 26.5 164.5 M 22.5 156.5 L 26.5 156.5 M 22.5 148.5 L 26.5 148.5 M 22.5 140.5 L 26.5 140.5 M 22.5 132.5 L 26.5 132.5 M 22.5 124.5 L 26.5 124.5 M 22.5 116.5 L 26.5 116.5 M 22.5 109.5 L 26.5 109.5 M 22.5 101.5 L 26.5 101.5 M 22.5 93.5 L 26.5 93.5 M 22.5 85.5 L 26.5 85.5 M 22.5 77.5 L 26.5 77.5 M 22.5 69.5 L 26.5 69.5 M 22.5 61.5 L 26.5 61.5 M 22.5 53.5 L 26.5 53.5 M 22.5 45.5 L 26.5 45.5 M 22.5 38.5 L 26.5 38.5 M 22.5 30.5 L 26.5 30.5" stroke-opacity="1" stroke-linejoin="bevel" stroke-miterlimit="10"/><text fill="rgb(68,68,68)" stroke="none" font-family="helvetica" font-size="11px" font-style="normal" font-weight="normal" text-decoration="normal" x="8.88232421875" y="310" text-anchor="start" dominant-baseline="alphabetic" transform="matrix(1, 0, 0, 1, 0.5, 0.5)" fill-opacity="1">0</text><text fill="none" stroke="rgb(0,0,0)" font-family="helvetica" font-size="11px" font-style="normal" font-weight="normal" text-decoration="normal" x="8.88232421875" y="310" text-anchor="start" dominant-baseline="alphabetic" transform="matrix(1, 0, 0, 1, 0.5, 0.5)" stroke-opacity="0" stroke-linejoin="bevel" stroke-miterlimit="10">0</text><text fill="rgb(68,68,68)" stroke="none" font-family="helvetica" font-size="11px" font-style="normal" font-weight="normal" text-decoration="normal" x="8.88232421875" y="270.5179443359375" text-anchor="start" dominant-baseline="alphabetic" transform="matrix(1, 0, 0, 1, 0.5, 0.5)" fill-opacity="1">5</text><text fill="none" stroke="rgb(0,0,0)" font-family="helvetica" font-size="11px" font-style="normal" font-weight="normal" text-decoration="normal" x="8.88232421875" y="270.5179443359375" text-anchor="start" dominant-baseline="alphabetic" transform="matrix(1, 0, 0, 1, 0.5, 0.5)" stroke-opacity="0" stroke-linejoin="bevel" stroke-miterlimit="10">5</text><text fill="rgb(68,68,68)" stroke="none" font-family="helvetica" font-size="11px" font-style="normal" font-weight="normal" text-decoration="normal" x="2.7646484375" y="231.03587341308594" text-anchor="start" dominant-baseline="alphabetic" transform="matrix(1, 0, 0, 1, 0.5, 0.5)" fill-opacity="1">10</text><text fill="none" stroke="rgb(0,0,0)" font-family="helvetica" font-size="11px" font-style="normal" font-weight="normal" text-decoration="normal" x="2.7646484375" y="231.03587341308594" text-anchor="start" dominant-baseline="alphabetic" transform="matrix(1, 0, 0, 1, 0.5, 0.5)" stroke-opacity="0" stroke-linejoin="bevel" stroke-miterlimit="10">10</text><text fill="rgb(68,68,68)" stroke="none" font-family="helvetica" font-size="11px" font-style="normal" font-weight="normal" text-decoration="normal" x="2.7646484375" y="191.55381774902344" text-anchor="start" dominant-baseline="alphabetic" transform="matrix(1, 0, 0, 1, 0.5, 0.5)" fill-opacity="1">15</text><text fill="none" stroke="rgb(0,0,0)" font-family="helvetica" font-size="11px" font-style="normal" font-weight="normal" text-decoration="normal" x="2.7646484375" y="191.55381774902344" text-anchor="start" dominant-baseline="alphabetic" transform="matrix(1, 0, 0, 1, 0.5, 0.5)" stroke-opacity="0" stroke-linejoin="bevel" stroke-miterlimit="10">15</text><text fill="rgb(68,68,68)" stroke="none" font-family="helvetica" font-size="11px" font-style="normal" font-weight="normal" text-decoration="normal" x="2.7646484375" y="152.07174682617188" text-anchor="start" dominant-baseline="alphabetic" transform="matrix(1, 0, 0, 1, 0.5, 0.5)" fill-opacity="1">20</text><text fill="none" stroke="rgb(0,0,0)" font-family="helvetica" font-size="11px" font-style="normal" font-weight="normal" text-decoration="normal" x="2.7646484375" y="152.07174682617188" text-anchor="start" dominant-baseline="alphabetic" transform="matrix(1, 0, 0, 1, 0.5, 0.5)" stroke-opacity="0" stroke-linejoin="bevel" stroke-miterlimit="10">20</text><text fill="rgb(68,68,68)" stroke="none" font-family="helvetica" font-size="11px" font-style="normal" font-weight="normal" text-decoration="normal" x="2.7646484375" y="112.58968353271484" text-anchor="start" dominant-baseline="alphabetic" transform="matrix(1, 0, 0, 1, 0.5, 0.5)" fill-opacity="1">25</text><text fill="none" stroke="rgb(0,0,0)" font-family="helvetica" font-size="11px" font-style="normal" font-weight="normal" text-decoration="normal" x="2.7646484375" y="112.58968353271484" text-anchor="start" dominant-baseline="alphabetic" transform="matrix(1, 0, 0, 1, 0.5, 0.5)" stroke-opacity="0" stroke-linejoin="bevel" stroke-miterlimit="10">25</text><text fill="rgb(68,68,68)" stroke="none" font-family="helvetica" font-size="11px" font-style="normal" font-weight="normal" text-decoration="normal" x="2.7646484375" y="73.10762023925781" text-anchor="start" dominant-baseline="alphabetic" transform="matrix(1, 0, 0, 1, 0.5, 0.5)" fill-opacity="1">30</text><text fill="none" stroke="rgb(0,0,0)" font-family="helvetica" font-size="11px" font-style="normal" font-weight="normal" text-decoration="normal" x="2.7646484375" y="73.10762023925781" text-anchor="start" dominant-baseline="alphabetic" transform="matrix(1, 0, 0, 1, 0.5, 0.5)" stroke-opacity="0" stroke-linejoin="bevel" stroke-miterlimit="10">30</text><text fill="rgb(68,68,68)" stroke="none" font-family="helvetica" font-size="11px" font-style="normal" font-weight="normal" text-decoration="normal" x="2.7646484375" y="33.62555694580078" text-anchor="start" dominant-baseline="alphabetic" transform="matrix(1, 0, 0, 1, 0.5, 0.5)" fill-opacity="1">35</text><text fill="none" stroke="rgb(0,0,0)" font-family="helvetica" font-size="11px" font-style="normal" font-weight="normal" text-decoration="normal" x="2.7646484375" y="33.62555694580078" text-anchor="start" dominant-baseline="alphabetic" transform="matrix(1, 0, 0, 1, 0.5, 0.5)" stroke-opacity="0" stroke-linejoin="bevel" stroke-miterlimit="10">35</text><text fill="rgb(68,68,68)" stroke="none" font-family="helvetica" font-size="13px" font-style="normal" font-weight="bold" text-decoration="normal" x="0" y="12" text-anchor="start" dominant-baseline="alphabetic" transform="matrix(1, 0, 0, 1, 26.5, 7.5)" fill-opacity="1">Elapsed Time per Concurrency in secs</text><text fill="none" stroke="rgb(0,0,0)" font-family="helvetica" font-size="13px" font-style="normal" font-weight="bold" text-decoration="normal" x="0" y="12" text-anchor="start" dominant-baseline="alphabetic" transform="matrix(1, 0, 0, 1, 26.5, 7.5)" stroke-opacity="0" stroke-miterlimit="10" stroke-dasharray="">Elapsed Time per Concurrency in secs</text></svg>