<svg version="1.1" xmlns="http://www.w3.org/2000/svg" width="800" height="400"><defs><clipPath id="SFlHCMOAaPUv"><path fill="none" stroke="none" d="M 0.5 0.5 L 800.5 0.5 L 800.5 400.5 L 0.5 400.5 L 0.5 0.5 Z M 29.5 27.5 L 770.5 27.5 L 770.5 306.5 L 29.5 306.5 L 29.5 27.5 Z" clip-rule="evenodd"/></clipPath><clipPath id="rehHfLgzuqzp"><path fill="none" stroke="none" d="M 29.5 27.5 L 770.5 27.5 L 770.5 306.5 L 29.5 306.5 L 29.5 27.5 Z"/></clipPath><clipPath id="pgypXtgEqiwS"><path fill="none" stroke="none" d="M 29.5 27.5 L 770.5 27.5 L 770.5 306.5 L 29.5 306.5 L 29.5 27.5 Z"/></clipPath><clipPath id="DFcnRMFyqpug"><path fill="none" stroke="none" d="M 29.5 27.5 L 770.5 27.5 L 770.5 306.5 L 29.5 306.5 L 29.5 27.5 Z"/></clipPath><clipPath id="pmCDSHBgdoed"><path fill="none" stroke="none" d="M 29.5 27.5 L 770.5 27.5 L 770.5 306.5 L 29.5 306.5 L 29.5 27.5 Z"/></clipPath></defs><path fill="rgb(255,255,255)" stroke="none" paint-order="stroke" d="M 0.5 0.5 L 800.5 0.5 L 800.5 400.5 L 0.5 400.5 L 0.5 0.5 Z" fill-opacity="1" clip-path="url(#SFlHCMOAaPUv)"/><path fill="rgb(255,255,255)" stroke="none" paint-order="stroke" d="M 29.5 27.5 L 770.5 27.5 L 770.5 306.5 L 29.5 306.5 L 29.5 27.5 Z" fill-opacity="1"/><path fill="none" stroke="rgb(229,229,229)" paint-order="fill" d="M 29.5 27.5 L 770.5 27.5 L 770.5 306.5 L 29.5 306.5 L 29.5 27.5 Z" stroke-opacity="1" stroke-linejoin="bevel" stroke-miterlimit="10"/><path fill="none" stroke="rgb(229,229,229)" paint-order="fill" d="M 29.5 241.5 L 770.5 241.5 M 29.5 176.5 L 770.5 176.5 M 29.5 112.5 L 770.5 112.5 M 29.5 47.5 L 770.5 47.5" stroke-opacity="1" stroke-linejoin="bevel" stroke-miterlimit="10" clip-path="url(#pgypXtgEqiwS)"/><path fill="rgb(31,119,180)" stroke="rgb(255,255,255)" paint-order="fill" d="M 64.52909088134766 300.0191650390625 L 88.7800064086914 300.0191650390625 L 88.7800064086914 306.5 L 64.52909088134766 306.5 L 64.52909088134766 300.0191650390625 Z" fill-opacity="1" clip-path="url(#DFcnRMFyqpug)" stroke-opacity="1" stroke-linejoin="bevel" stroke-miterlimit="10"/><path fill="rgb(255,127,14)" stroke="rgb(255,255,255)" paint-order="fill" d="M 91.47454071044922 300.0191650390625 L 115.72545623779297 300.0191650390625 L 115.72545623779297 306.5 L 91.47454071044922 306.5 L 91.47454071044922 300.0191650390625 Z" fill-opacity="1" clip-path="url(#DFcnRMFyqpug)" stroke-opacity="1" stroke-linejoin="bevel" stroke-miterlimit="10"/><path fill="rgb(44,160,44)" stroke="rgb(255,255,255)" paint-order="fill" d="M 118.41999816894531 300.0191650390625 L 142.67091369628906 300.0191650390625 L 142.67091369628906 306.5 L 118.41999816894531 306.5 L 118.41999816894531 300.0191650390625 Z" fill-opacity="1" clip-path="url(#DFcnRMFyqpug)" stroke-opacity="1" stroke-linejoin="bevel" stroke-miterlimit="10"/><path fill="rgb(31,119,180)" stroke="rgb(255,255,255)" paint-order="fill" d="M 183.08909606933594 274.0958251953125 L 207.3400115966797 274.0958251953125 L 207.3400115966797 306.5 L 183.08909606933594 306.5 L 183.08909606933594 274.0958251953125 Z" fill-opacity="1" clip-path="url(#DFcnRMFyqpug)" stroke-opacity="1" stroke-linejoin="bevel" stroke-miterlimit="10"/><path fill="rgb(255,127,14)" stroke="rgb(255,255,255)" paint-order="fill" d="M 210.0345458984375 267.614990234375 L 234.28546142578125 267.614990234375 L 234.28546142578125 306.5 L 210.0345458984375 306.5 L 210.0345458984375 267.614990234375 Z" fill-opacity="1" clip-path="url(#DFcnRMFyqpug)" stroke-opacity="1" stroke-linejoin="bevel" stroke-miterlimit="10"/><path fill="rgb(44,160,44)" stroke="rgb(255,255,255)" paint-order="fill" d="M 236.97999572753906 280.57666015625 L 261.23089599609375 280.57666015625 L 261.23089599609375 306.5 L 236.97999572753906 306.5 L 236.97999572753906 280.57666015625 Z" fill-opacity="1" clip-path="url(#DFcnRMFyqpug)" stroke-opacity="1" stroke-linejoin="bevel" stroke-miterlimit="10"/><path fill="rgb(31,119,180)" stroke="rgb(255,255,255)" paint-order="fill" d="M 301.6490783691406 274.0958251953125 L 325.8999938964844 274.0958251953125 L 325.8999938964844 306.5 L 301.6490783691406 306.5 L 301.6490783691406 274.0958251953125 Z" fill-opacity="1" clip-path="url(#DFcnRMFyqpug)" stroke-opacity="1" stroke-linejoin="bevel" stroke-miterlimit="10"/><path fill="rgb(255,127,14)" stroke="rgb(255,255,255)" paint-order="fill" d="M 328.59454345703125 274.0958251953125 L 352.845458984375 274.0958251953125 L 352.845458984375 306.5 L 328.59454345703125 306.5 L 328.59454345703125 274.0958251953125 Z" fill-opacity="1" clip-path="url(#DFcnRMFyqpug)" stroke-opacity="1" stroke-linejoin="bevel" stroke-miterlimit="10"/><path fill="rgb(44,160,44)" stroke="rgb(255,255,255)" paint-order="fill" d="M 355.5400085449219 235.21080017089844 L 379.7909240722656 235.21080017089844 L 379.7909240722656 306.5 L 355.5400085449219 306.5 L 355.5400085449219 235.21080017089844 Z" fill-opacity="1" clip-path="url(#DFcnRMFyqpug)" stroke-opacity="1" stroke-linejoin="bevel" stroke-miterlimit="10"/><path fill="rgb(31,119,180)" stroke="rgb(255,255,255)" paint-order="fill" d="M 420.2090759277344 267.614990234375 L 444.4599914550781 267.614990234375 L 444.4599914550781 306.5 L 420.2090759277344 306.5 L 420.2090759277344 267.614990234375 Z" fill-opacity="1" clip-path="url(#DFcnRMFyqpug)" stroke-opacity="1" stroke-linejoin="bevel" stroke-miterlimit="10"/><path fill="rgb(255,127,14)" stroke="rgb(255,255,255)" paint-order="fill" d="M 447.154541015625 267.614990234375 L 471.40545654296875 267.614990234375 L 471.40545654296875 306.5 L 447.154541015625 306.5 L 447.154541015625 267.614990234375 Z" fill-opacity="1" clip-path="url(#DFcnRMFyqpug)" stroke-opacity="1" stroke-linejoin="bevel" stroke-miterlimit="10"/><path fill="rgb(44,160,44)" stroke="rgb(255,255,255)" paint-order="fill" d="M 474.1000061035156 170.40243530273438 L 498.3509216308594 170.40243530273438 L 498.3509216308594 306.5 L 474.1000061035156 306.5 L 474.1000061035156 170.40243530273438 Z" fill-opacity="1" clip-path="url(#DFcnRMFyqpug)" stroke-opacity="1" stroke-linejoin="bevel" stroke-miterlimit="10"/><path fill="rgb(31,119,180)" stroke="rgb(255,255,255)" paint-order="fill" d="M 538.7691040039062 267.614990234375 L 563.0199584960938 267.614990234375 L 563.0199584960938 306.5 L 538.7691040039062 306.5 L 538.7691040039062 267.614990234375 Z" fill-opacity="1" clip-path="url(#DFcnRMFyqpug)" stroke-opacity="1" stroke-linejoin="bevel" stroke-miterlimit="10"/><path fill="rgb(255,127,14)" stroke="rgb(255,255,255)" paint-order="fill" d="M 565.714599609375 254.65330505371094 L 589.9654541015625 254.65330505371094 L 589.9654541015625 306.5 L 565.714599609375 306.5 L 565.714599609375 254.65330505371094 Z" fill-opacity="1" clip-path="url(#DFcnRMFyqpug)" stroke-opacity="1" stroke-linejoin="bevel" stroke-miterlimit="10"/><path fill="rgb(44,160,44)" stroke="rgb(255,255,255)" paint-order="fill" d="M 592.6600341796875 118.55574798583984 L 616.910888671875 118.55574798583984 L 616.910888671875 306.5 L 592.6600341796875 306.5 L 592.6600341796875 118.55574798583984 Z" fill-opacity="1" clip-path="url(#DFcnRMFyqpug)" stroke-opacity="1" stroke-linejoin="bevel" stroke-miterlimit="10"/><path fill="rgb(31,119,180)" stroke="rgb(255,255,255)" paint-order="fill" d="M 657.3291015625 228.72996520996094 L 681.5799560546875 228.72996520996094 L 681.5799560546875 306.5 L 657.3291015625 306.5 L 657.3291015625 228.72996520996094 Z" fill-opacity="1" clip-path="url(#DFcnRMFyqpug)" stroke-opacity="1" stroke-linejoin="bevel" stroke-miterlimit="10"/><path fill="rgb(255,127,14)" stroke="rgb(255,255,255)" paint-order="fill" d="M 684.2745971679688 261.1341552734375 L 708.5254516601562 261.1341552734375 L 708.5254516601562 306.5 L 684.2745971679688 306.5 L 684.2745971679688 261.1341552734375 Z" fill-opacity="1" clip-path="url(#DFcnRMFyqpug)" stroke-opacity="1" stroke-linejoin="bevel" stroke-miterlimit="10"/><path fill="rgb(44,160,44)" stroke="rgb(255,255,255)" paint-order="fill" d="M 711.2200317382812 40.78571319580078 L 735.4708862304688 40.78571319580078 L 735.4708862304688 306.5 L 711.2200317382812 306.5 L 711.2200317382812 40.78571319580078 Z" fill-opacity="1" clip-path="url(#DFcnRMFyqpug)" stroke-opacity="1" stroke-linejoin="bevel" stroke-miterlimit="10"/><path fill="none" stroke="rgb(0,0,0)" paint-order="fill" d="M 29.5 306.5 L 770.5 306.5" stroke-opacity="1" stroke-linejoin="bevel" stroke-miterlimit="10"/><path fill="none" stroke="rgb(0,0,0)" paint-order="fill" d="M 76.5 312.5 L 76.5 304.5 M 103.5 312.5 L 103.5 304.5 M 130.5 312.5 L 130.5 304.5 M 195.5 312.5 L 195.5 304.5 M 222.5 312.5 L 222.5 304.5 M 249.5 312.5 L 249.5 304.5 M 313.5 312.5 L 313.5 304.5 M 340.5 312.5 L 340.5 304.5 M 367.5 312.5 L 367.5 304.5 M 432.5 312.5 L 432.5 304.5 M 459.5 312.5 L 459.5 304.5 M 486.5 312.5 L 486.5 304.5 M 550.5 312.5 L 550.5 304.5 M 577.5 312.5 L 577.5 304.5 M 604.5 312.5 L 604.5 304.5 M 669.5 312.5 L 669.5 304.5 M 696.5 312.5 L 696.5 304.5 M 723.5 312.5 L 723.5 304.5" stroke-opacity="1" stroke-linejoin="bevel" stroke-miterlimit="10"/><path fill="none" stroke="rgb(0,0,0)" paint-order="fill" d="" stroke-opacity="1" stroke-linejoin="bevel" stroke-miterlimit="10"/><text fill="rgb(68,68,68)" stroke="none" font-family="helvetica" font-size="11px" font-style="normal" font-weight="normal" text-decoration="normal" x="41.29615020751953" y="321" text-anchor="start" dominant-baseline="alphabetic" transform="matrix(0.5403023058681398, -0.8414709848078965, 0.8414709848078965, 0.5403023058681398, -231.23823177433513, 210.30601208572514)" fill-opacity="1">Django</text><text fill="none" stroke="rgb(0,0,0)" font-family="helvetica" font-size="11px" font-style="normal" font-weight="normal" text-decoration="normal" x="41.29615020751953" y="321" text-anchor="start" dominant-baseline="alphabetic" transform="matrix(0.5403023058681398, -0.8414709848078965, 0.8414709848078965, 0.5403023058681398, -231.23823177433513, 210.30601208572514)" stroke-opacity="0" stroke-linejoin="bevel" stroke-miterlimit="10">Django</text><text fill="rgb(68,68,68)" stroke="none" font-family="helvetica" font-size="11px" font-style="normal" font-weight="normal" text-decoration="normal" x="34.618553161621094" y="321" text-anchor="start" dominant-baseline="alphabetic" transform="matrix(0.5403023058681398, -0.8414709848078965, 0.8414709848078965, 0.5403023058681398, -218.85147062055137, 232.979826289511)" fill-opacity="1">Django-orjson</text><text fill="none" stroke="rgb(0,0,0)" font-family="helvetica" font-size="11px" font-style="normal" font-weight="normal" text-decoration="normal" x="34.618553161621094" y="321" text-anchor="start" dominant-baseline="alphabetic" transform="matrix(0.5403023058681398, -0.8414709848078965, 0.8414709848078965, 0.5403023058681398, -218.85147062055137, 232.979826289511)" stroke-opacity="0" stroke-linejoin="bevel" stroke-miterlimit="10">Django-orjson</text><text fill="rgb(68,68,68)" stroke="none" font-family="helvetica" font-size="11px" font-style="normal" font-weight="normal" text-decoration="normal" x="97.64701843261719" y="321" text-anchor="start" dominant-baseline="alphabetic" transform="matrix(0.5403023058681398, -0.8414709848078965, 0.8414709848078965, 0.5403023058681398, -206.4647059595526, 255.653646913211)" fill-opacity="1">Go-chi</text><text fill="none" stroke="rgb(0,0,0)" font-family="helvetica" font-size="11px" font-style="normal" font-weight="normal" text-decoration="normal" x="97.64701843261719" y="321" text-anchor="start" dominant-baseline="alphabetic" transform="matrix(0.5403023058681398, -0.8414709848078965, 0.8414709848078965, 0.5403023058681398, -206.4647059595526, 255.653646913211)" stroke-opacity="0" stroke-linejoin="bevel" stroke-miterlimit="10">Go-chi</text><text fill="rgb(68,68,68)" stroke="none" font-family="helvetica" font-size="11px" font-style="normal" font-weight="normal" text-decoration="normal" x="159.85614013671875" y="321" text-anchor="start" dominant-baseline="alphabetic" transform="matrix(0.5403023058681398, -0.8414709848078965, 0.8414709848078965, 0.5403023058681398, -176.73647778758567, 310.0708035702627)" fill-opacity="1">Django</text><text fill="none" stroke="rgb(0,0,0)" font-family="helvetica" font-size="11px" font-style="normal" font-weight="normal" text-decoration="normal" x="159.85614013671875" y="321" text-anchor="start" dominant-baseline="alphabetic" transform="matrix(0.5403023058681398, -0.8414709848078965, 0.8414709848078965, 0.5403023058681398, -176.73647778758567, 310.0708035702627)" stroke-opacity="0" stroke-linejoin="bevel" stroke-miterlimit="10">Django</text><text fill="rgb(68,68,68)" stroke="none" font-family="helvetica" font-size="11px" font-style="normal" font-weight="normal" text-decoration="normal" x="153.17855834960938" y="321" text-anchor="start" dominant-baseline="alphabetic" transform="matrix(0.5403023058681398, -0.8414709848078965, 0.8414709848078965, 0.5403023058681398, -164.34970961937177, 332.74463061387684)" fill-opacity="1">Django-orjson</text><text fill="none" stroke="rgb(0,0,0)" font-family="helvetica" font-size="11px" font-style="normal" font-weight="normal" text-decoration="normal" x="153.17855834960938" y="321" text-anchor="start" dominant-baseline="alphabetic" transform="matrix(0.5403023058681398, -0.8414709848078965, 0.8414709848078965, 0.5403023058681398, -164.34970961937177, 332.74463061387684)" stroke-opacity="0" stroke-linejoin="bevel" stroke-miterlimit="10">Django-orjson</text><text fill="rgb(68,68,68)" stroke="none" font-family="helvetica" font-size="11px" font-style="normal" font-weight="normal" text-decoration="normal" x="216.20701599121094" y="321" text-anchor="start" dominant-baseline="alphabetic" transform="matrix(0.5403023058681398, -0.8414709848078965, 0.8414709848078965, 0.5403023058681398, -151.96294846558806, 355.4184448176627)" fill-opacity="1">Go-chi</text><text fill="none" stroke="rgb(0,0,0)" font-family="helvetica" font-size="11px" font-style="normal" font-weight="normal" text-decoration="normal" x="216.20701599121094" y="321" text-anchor="start" dominant-baseline="alphabetic" transform="matrix(0.5403023058681398, -0.8414709848078965, 0.8414709848078965, 0.5403023058681398, -151.96294846558806, 355.4184448176627)" stroke-opacity="0" stroke-linejoin="bevel" stroke-miterlimit="10">Go-chi</text><text fill="rgb(68,68,68)" stroke="none" font-family="helvetica" font-size="11px" font-style="normal" font-weight="normal" text-decoration="normal" x="278.4161376953125" y="321" text-anchor="start" dominant-baseline="alphabetic" transform="matrix(0.5403023058681398, -0.8414709848078965, 0.8414709848078965, 0.5403023058681398, -122.23472029362114, 409.8356014747144)" fill-opacity="1">Django</text><text fill="none" stroke="rgb(0,0,0)" font-family="helvetica" font-size="11px" font-style="normal" font-weight="normal" text-decoration="normal" x="278.4161376953125" y="321" text-anchor="start" dominant-baseline="alphabetic" transform="matrix(0.5403023058681398, -0.8414709848078965, 0.8414709848078965, 0.5403023058681398, -122.23472029362114, 409.8356014747144)" stroke-opacity="0" stroke-linejoin="bevel" stroke-miterlimit="10">Django</text><text fill="rgb(68,68,68)" stroke="none" font-family="helvetica" font-size="11px" font-style="normal" font-weight="normal" text-decoration="normal" x="271.7385559082031" y="321" text-anchor="start" dominant-baseline="alphabetic" transform="matrix(0.5403023058681398, -0.8414709848078965, 0.8414709848078965, 0.5403023058681398, -109.84795212540723, 432.5094285183285)" fill-opacity="1">Django-orjson</text><text fill="none" stroke="rgb(0,0,0)" font-family="helvetica" font-size="11px" font-style="normal" font-weight="normal" text-decoration="normal" x="271.7385559082031" y="321" text-anchor="start" dominant-baseline="alphabetic" transform="matrix(0.5403023058681398, -0.8414709848078965, 0.8414709848078965, 0.5403023058681398, -109.84795212540723, 432.5094285183285)" stroke-opacity="0" stroke-linejoin="bevel" stroke-miterlimit="10">Django-orjson</text><text fill="rgb(68,68,68)" stroke="none" font-family="helvetica" font-size="11px" font-style="normal" font-weight="normal" text-decoration="normal" x="334.76702880859375" y="321" text-anchor="start" dominant-baseline="alphabetic" transform="matrix(0.5403023058681398, -0.8414709848078965, 0.8414709848078965, 0.5403023058681398, -97.46118395719338, 455.1832555619426)" fill-opacity="1">Go-chi</text><text fill="none" stroke="rgb(0,0,0)" font-family="helvetica" font-size="11px" font-style="normal" font-weight="normal" text-decoration="normal" x="334.76702880859375" y="321" text-anchor="start" dominant-baseline="alphabetic" transform="matrix(0.5403023058681398, -0.8414709848078965, 0.8414709848078965, 0.5403023058681398, -97.46118395719338, 455.1832555619426)" stroke-opacity="0" stroke-linejoin="bevel" stroke-miterlimit="10">Go-chi</text><text fill="rgb(68,68,68)" stroke="none" font-family="helvetica" font-size="11px" font-style="normal" font-weight="normal" text-decoration="normal" x="396.97613525390625" y="321" text-anchor="start" dominant-baseline="alphabetic" transform="matrix(0.5403023058681398, -0.8414709848078965, 0.8414709848078965, 0.5403023058681398, -67.7329627996566, 509.6003993791661)" fill-opacity="1">Django</text><text fill="none" stroke="rgb(0,0,0)" font-family="helvetica" font-size="11px" font-style="normal" font-weight="normal" text-decoration="normal" x="396.97613525390625" y="321" text-anchor="start" dominant-baseline="alphabetic" transform="matrix(0.5403023058681398, -0.8414709848078965, 0.8414709848078965, 0.5403023058681398, -67.7329627996566, 509.6003993791661)" stroke-opacity="0" stroke-linejoin="bevel" stroke-miterlimit="10">Django</text><text fill="rgb(68,68,68)" stroke="none" font-family="helvetica" font-size="11px" font-style="normal" font-weight="normal" text-decoration="normal" x="390.2985534667969" y="321" text-anchor="start" dominant-baseline="alphabetic" transform="matrix(0.5403023058681398, -0.8414709848078965, 0.8414709848078965, 0.5403023058681398, -55.34619463144281, 532.2742264227802)" fill-opacity="1">Django-orjson</text><text fill="none" stroke="rgb(0,0,0)" font-family="helvetica" font-size="11px" font-style="normal" font-weight="normal" text-decoration="normal" x="390.2985534667969" y="321" text-anchor="start" dominant-baseline="alphabetic" transform="matrix(0.5403023058681398, -0.8414709848078965, 0.8414709848078965, 0.5403023058681398, -55.34619463144281, 532.2742264227802)" stroke-opacity="0" stroke-linejoin="bevel" stroke-miterlimit="10">Django-orjson</text><text fill="rgb(68,68,68)" stroke="none" font-family="helvetica" font-size="11px" font-style="normal" font-weight="normal" text-decoration="normal" x="453.3270263671875" y="321" text-anchor="start" dominant-baseline="alphabetic" transform="matrix(0.5403023058681398, -0.8414709848078965, 0.8414709848078965, 0.5403023058681398, -42.959426463228965, 554.9480534663943)" fill-opacity="1">Go-chi</text><text fill="none" stroke="rgb(0,0,0)" font-family="helvetica" font-size="11px" font-style="normal" font-weight="normal" text-decoration="normal" x="453.3270263671875" y="321" text-anchor="start" dominant-baseline="alphabetic" transform="matrix(0.5403023058681398, -0.8414709848078965, 0.8414709848078965, 0.5403023058681398, -42.959426463228965, 554.9480534663943)" stroke-opacity="0" stroke-linejoin="bevel" stroke-miterlimit="10">Go-chi</text><text fill="rgb(68,68,68)" stroke="none" font-family="helvetica" font-size="11px" font-style="normal" font-weight="normal" text-decoration="normal" x="515.5361328125" y="321" text-anchor="start" dominant-baseline="alphabetic" transform="matrix(0.5403023058681398, -0.8414709848078965, 0.8414709848078965, 0.5403023058681398, -13.231205305692129, 609.3651972836178)" fill-opacity="1">Django</text><text fill="none" stroke="rgb(0,0,0)" font-family="helvetica" font-size="11px" font-style="normal" font-weight="normal" text-decoration="normal" x="515.5361328125" y="321" text-anchor="start" dominant-baseline="alphabetic" transform="matrix(0.5403023058681398, -0.8414709848078965, 0.8414709848078965, 0.5403023058681398, -13.231205305692129, 609.3651972836178)" stroke-opacity="0" stroke-linejoin="bevel" stroke-miterlimit="10">Django</text><text fill="rgb(68,68,68)" stroke="none" font-family="helvetica" font-size="11px" font-style="normal" font-weight="normal" text-decoration="normal" x="508.85858154296875" y="321" text-anchor="start" dominant-baseline="alphabetic" transform="matrix(0.5403023058681398, -0.8414709848078965, 0.8414709848078965, 0.5403023058681398, -0.8444231086180025, 632.0390500068884)" fill-opacity="1">Django-orjson</text><text fill="none" stroke="rgb(0,0,0)" font-family="helvetica" font-size="11px" font-style="normal" font-weight="normal" text-decoration="normal" x="508.85858154296875" y="321" text-anchor="start" dominant-baseline="alphabetic" transform="matrix(0.5403023058681398, -0.8414709848078965, 0.8414709848078965, 0.5403023058681398, -0.8444231086180025, 632.0390500068884)" stroke-opacity="0" stroke-linejoin="bevel" stroke-miterlimit="10">Django-orjson</text><text fill="rgb(68,68,68)" stroke="none" font-family="helvetica" font-size="11px" font-style="normal" font-weight="normal" text-decoration="normal" x="571.8870239257812" y="321" text-anchor="start" dominant-baseline="alphabetic" transform="matrix(0.5403023058681398, -0.8414709848078965, 0.8414709848078965, 0.5403023058681398, 11.542331030735568, 654.712851370846)" fill-opacity="1">Go-chi</text><text fill="none" stroke="rgb(0,0,0)" font-family="helvetica" font-size="11px" font-style="normal" font-weight="normal" text-decoration="normal" x="571.8870239257812" y="321" text-anchor="start" dominant-baseline="alphabetic" transform="matrix(0.5403023058681398, -0.8414709848078965, 0.8414709848078965, 0.5403023058681398, 11.542331030735568, 654.712851370846)" stroke-opacity="0" stroke-linejoin="bevel" stroke-miterlimit="10">Go-chi</text><text fill="rgb(68,68,68)" stroke="none" font-family="helvetica" font-size="11px" font-style="normal" font-weight="normal" text-decoration="normal" x="634.0961303710938" y="321" text-anchor="start" dominant-baseline="alphabetic" transform="matrix(0.5403023058681398, -0.8414709848078965, 0.8414709848078965, 0.5403023058681398, 41.270552188272404, 709.1299951880694)" fill-opacity="1">Django</text><text fill="none" stroke="rgb(0,0,0)" font-family="helvetica" font-size="11px" font-style="normal" font-weight="normal" text-decoration="normal" x="634.0961303710938" y="321" text-anchor="start" dominant-baseline="alphabetic" transform="matrix(0.5403023058681398, -0.8414709848078965, 0.8414709848078965, 0.5403023058681398, 41.270552188272404, 709.1299951880694)" stroke-opacity="0" stroke-linejoin="bevel" stroke-miterlimit="10">Django</text><text fill="rgb(68,68,68)" stroke="none" font-family="helvetica" font-size="11px" font-style="normal" font-weight="normal" text-decoration="normal" x="627.4185791015625" y="321" text-anchor="start" dominant-baseline="alphabetic" transform="matrix(0.5403023058681398, -0.8414709848078965, 0.8414709848078965, 0.5403023058681398, 53.65733438534653, 731.8038479113401)" fill-opacity="1">Django-orjson</text><text fill="none" stroke="rgb(0,0,0)" font-family="helvetica" font-size="11px" font-style="normal" font-weight="normal" text-decoration="normal" x="627.4185791015625" y="321" text-anchor="start" dominant-baseline="alphabetic" transform="matrix(0.5403023058681398, -0.8414709848078965, 0.8414709848078965, 0.5403023058681398, 53.65733438534653, 731.8038479113401)" stroke-opacity="0" stroke-linejoin="bevel" stroke-miterlimit="10">Django-orjson</text><text fill="rgb(68,68,68)" stroke="none" font-family="helvetica" font-size="11px" font-style="normal" font-weight="normal" text-decoration="normal" x="690.447021484375" y="321" text-anchor="start" dominant-baseline="alphabetic" transform="matrix(0.5403023058681398, -0.8414709848078965, 0.8414709848078965, 0.5403023058681398, 66.0440885247001, 754.4776492752977)" fill-opacity="1">Go-chi</text><text fill="none" stroke="rgb(0,0,0)" font-family="helvetica" font-size="11px" font-style="normal" font-weight="normal" text-decoration="normal" x="690.447021484375" y="321" text-anchor="start" dominant-baseline="alphabetic" transform="matrix(0.5403023058681398, -0.8414709848078965, 0.8414709848078965, 0.5403023058681398, 66.0440885247001, 754.4776492752977)" stroke-opacity="0" stroke-linejoin="bevel" stroke-miterlimit="10">Go-chi</text><text fill="rgb(128,128,128)" stroke="none" font-family="helvetica" font-size="11px" font-style="normal" font-weight="bold" text-decoration="normal" x="100.0411605834961" y="397.1087768985952" text-anchor="start" dominant-baseline="alphabetic" transform="matrix(1, 0, 0, 1, 0.5, 0.5)" fill-opacity="1">1</text><text fill="none" stroke="rgb(0,0,0)" font-family="helvetica" font-size="11px" font-style="normal" font-weight="bold" text-decoration="normal" x="100.0411605834961" y="397.1087768985952" text-anchor="start" dominant-baseline="alphabetic" transform="matrix(1, 0, 0, 1, 0.5, 0.5)" stroke-opacity="0" stroke-linejoin="bevel" stroke-miterlimit="10">1</text><text fill="rgb(128,128,128)" stroke="none" font-family="helvetica" font-size="11px" font-style="normal" font-weight="bold" text-decoration="normal" x="215.54232788085938" y="397.1087768985952" text-anchor="start" dominant-baseline="alphabetic" transform="matrix(1, 0, 0, 1, 0.5, 0.5)" fill-opacity="1">50</text><text fill="none" stroke="rgb(0,0,0)" font-family="helvetica" font-size="11px" font-style="normal" font-weight="bold" text-decoration="normal" x="215.54232788085938" y="397.1087768985952" text-anchor="start" dominant-baseline="alphabetic" transform="matrix(1, 0, 0, 1, 0.5, 0.5)" stroke-opacity="0" stroke-linejoin="bevel" stroke-miterlimit="10">50</text><text fill="rgb(128,128,128)" stroke="none" font-family="helvetica" font-size="11px" font-style="normal" font-weight="bold" text-decoration="normal" x="331.0434875488281" y="397.1087768985952" text-anchor="start" dominant-baseline="alphabetic" transform="matrix(1, 0, 0, 1, 0.5, 0.5)" fill-opacity="1">100</text><text fill="none" stroke="rgb(0,0,0)" font-family="helvetica" font-size="11px" font-style="normal" font-weight="bold" text-decoration="normal" x="331.0434875488281" y="397.1087768985952" text-anchor="start" dominant-baseline="alphabetic" transform="matrix(1, 0, 0, 1, 0.5, 0.5)" stroke-opacity="0" stroke-linejoin="bevel" stroke-miterlimit="10">100</text><text fill="rgb(128,128,128)" stroke="none" font-family="helvetica" font-size="11px" font-style="normal" font-weight="bold" text-decoration="normal" x="449.6034851074219" y="397.1087768985952" text-anchor="start" dominant-baseline="alphabetic" transform="matrix(1, 0, 0, 1, 0.5, 0.5)" fill-opacity="1">150</text><text fill="none" stroke="rgb(0,0,0)" font-family="helvetica" font-size="11px" font-style="normal" font-weight="bold" text-decoration="normal" x="449.6034851074219" y="397.1087768985952" text-anchor="start" dominant-baseline="alphabetic" transform="matrix(1, 0, 0, 1, 0.5, 0.5)" stroke-opacity="0" stroke-linejoin="bevel" stroke-miterlimit="10">150</text><text fill="rgb(128,128,128)" stroke="none" font-family="helvetica" font-size="11px" font-style="normal" font-weight="bold" text-decoration="normal" x="568.1635131835938" y="397.1087768985952" text-anchor="start" dominant-baseline="alphabetic" transform="matrix(1, 0, 0, 1, 0.5, 0.5)" fill-opacity="1">200</text><text fill="none" stroke="rgb(0,0,0)" font-family="helvetica" font-size="11px" font-style="normal" font-weight="bold" text-decoration="normal" x="568.1635131835938" y="397.1087768985952" text-anchor="start" dominant-baseline="alphabetic" transform="matrix(1, 0, 0, 1, 0.5, 0.5)" stroke-opacity="0" stroke-linejoin="bevel" stroke-miterlimit="10">200</text><text fill="rgb(128,128,128)" stroke="none" font-family="helvetica" font-size="11px" font-style="normal" font-weight="bold" text-decoration="normal" x="686.7235107421875" y="397.1087768985952" text-anchor="start" dominant-baseline="alphabetic" transform="matrix(1, 0, 0, 1, 0.5, 0.5)" fill-opacity="1">250</text><text fill="none" stroke="rgb(0,0,0)" font-family="helvetica" font-size="11px" font-style="normal" font-weight="bold" text-decoration="normal" x="686.7235107421875" y="397.1087768985952" text-anchor="start" dominant-baseline="alphabetic" transform="matrix(1, 0, 0, 1, 0.5, 0.5)" stroke-opacity="0" stroke-linejoin="bevel" stroke-miterlimit="10">250</text><path fill="none" stroke="rgb(211,211,211)" paint-order="fill" d="M 162.5 388.5 L 162.5 309.5 M 281.5 388.5 L 281.5 309.5 M 400.5 388.5 L 400.5 309.5 M 518.5 388.5 L 518.5 309.5 M 637.5 388.5 L 637.5 309.5" stroke-opacity="1" stroke-linejoin="bevel" stroke-miterlimit="10" stroke-width="2"/><path fill="none" stroke="rgb(0,0,0)" paint-order="fill" d="M 29.5 306.5 L 29.5 27.5" stroke-opacity="1" stroke-linejoin="bevel" stroke-miterlimit="10"/><path fill="none" stroke="rgb(0,0,0)" paint-order="fill" d="M 23.5 306.5 L 31.5 306.5 M 23.5 241.5 L 31.5 241.5 M 23.5 176.5 L 31.5 176.5 M 23.5 112.5 L 31.5 112.5 M 23.5 47.5 L 31.5 47.5" stroke-opacity="1" stroke-linejoin="bevel" stroke-miterlimit="10"/><path fill="none" stroke="rgb(0,0,0)" paint-order="fill" d="M 25.5 306.5 L 29.5 306.5 M 25.5 293.5 L 29.5 293.5 M 25.5 280.5 L 29.5 280.5 M 25.5 267.5 L 29.5 267.5 M 25.5 254.5 L 29.5 254.5 M 25.5 241.5 L 29.5 241.5 M 25.5 228.5 L 29.5 228.5 M 25.5 215.5 L 29.5 215.5 M 25.5 202.5 L 29.5 202.5 M 25.5 189.5 L 29.5 189.5 M 25.5 176.5 L 29.5 176.5 M 25.5 163.5 L 29.5 163.5 M 25.5 150.5 L 29.5 150.5 M 25.5 137.5 L 29.5 137.5 M 25.5 125.5 L 29.5 125.5 M 25.5 112.5 L 29.5 112.5 M 25.5 99.5 L 29.5 99.5 M 25.5 86.5 L 29.5 86.5 M 25.5 73.5 L 29.5 73.5 M 25.5 60.5 L 29.5 60.5 M 25.5 47.5 L 29.5 47.5 M 25.5 34.5 L 29.5 34.5" stroke-opacity="1" stroke-linejoin="bevel" stroke-miterlimit="10"/><text fill="rgb(68,68,68)" stroke="none" font-family="helvetica" font-size="11px" font-style="normal" font-weight="normal" text-decoration="normal" x="11.88232421875" y="310" text-anchor="start" dominant-baseline="alphabetic" transform="matrix(1, 0, 0, 1, 0.5, 0.5)" fill-opacity="1">0</text><text fill="none" stroke="rgb(0,0,0)" font-family="helvetica" font-size="11px" font-style="normal" font-weight="normal" text-decoration="normal" x="11.88232421875" y="310" text-anchor="start" dominant-baseline="alphabetic" transform="matrix(1, 0, 0, 1, 0.5, 0.5)" stroke-opacity="0" stroke-linejoin="bevel" stroke-miterlimit="10">0</text><text fill="rgb(68,68,68)" stroke="none" font-family="helvetica" font-size="11px" font-style="normal" font-weight="normal" text-decoration="normal" x="2.70849609375" y="245.19163513183594" text-anchor="start" dominant-baseline="alphabetic" transform="matrix(1, 0, 0, 1, 0.5, 0.5)" fill-opacity="1">0.1</text><text fill="none" stroke="rgb(0,0,0)" font-family="helvetica" font-size="11px" font-style="normal" font-weight="normal" text-decoration="normal" x="2.70849609375" y="245.19163513183594" text-anchor="start" dominant-baseline="alphabetic" transform="matrix(1, 0, 0, 1, 0.5, 0.5)" stroke-opacity="0" stroke-linejoin="bevel" stroke-miterlimit="10">0.1</text><text fill="rgb(68,68,68)" stroke="none" font-family="helvetica" font-size="11px" font-style="normal" font-weight="normal" text-decoration="normal" x="2.70849609375" y="180.38327026367188" text-anchor="start" dominant-baseline="alphabetic" transform="matrix(1, 0, 0, 1, 0.5, 0.5)" fill-opacity="1">0.2</text><text fill="none" stroke="rgb(0,0,0)" font-family="helvetica" font-size="11px" font-style="normal" font-weight="normal" text-decoration="normal" x="2.70849609375" y="180.38327026367188" text-anchor="start" dominant-baseline="alphabetic" transform="matrix(1, 0, 0, 1, 0.5, 0.5)" stroke-opacity="0" stroke-linejoin="bevel" stroke-miterlimit="10">0.2</text><text fill="rgb(68,68,68)" stroke="none" font-family="helvetica" font-size="11px" font-style="normal" font-weight="normal" text-decoration="normal" x="2.70849609375" y="115.57491302490234" text-anchor="start" dominant-baseline="alphabetic" transform="matrix(1, 0, 0, 1, 0.5, 0.5)" fill-opacity="1">0.3</text><text fill="none" stroke="rgb(0,0,0)" font-family="helvetica" font-size="11px" font-style="normal" font-weight="normal" text-decoration="normal" x="2.70849609375" y="115.57491302490234" text-anchor="start" dominant-baseline="alphabetic" transform="matrix(1, 0, 0, 1, 0.5, 0.5)" stroke-opacity="0" stroke-linejoin="bevel" stroke-miterlimit="10">0.3</text><text fill="rgb(68,68,68)" stroke="none" font-family="helvetica" font-size="11px" font-style="normal" font-weight="normal" text-decoration="normal" x="2.70849609375" y="50.76655197143555" text-anchor="start" dominant-baseline="alphabetic" transform="matrix(1, 0, 0, 1, 0.5, 0.5)" fill-opacity="1">0.4</text><text fill="none" stroke="rgb(0,0,0)" font-family="helvetica" font-size="11px" font-style="normal" font-weight="normal" text-decoration="normal" x="2.70849609375" y="50.76655197143555" text-anchor="start" dominant-baseline="alphabetic" transform="matrix(1, 0, 0, 1, 0.5, 0.5)" stroke-opacity="0" stroke-linejoin="bevel" stroke-miterlimit="10">0.4</text><text fill="rgb(68,68,68)" stroke="none" font-family="helvetica" font-size="13px" font-style="normal" font-weight="bold" text-decoration="normal" x="0" y="12" text-anchor="start" dominant-baseline="alphabetic" transform="matrix(1, 0, 0, 1, 29.5, 7.5)" fill-opacity="1">Longest Transaction in sec</text><text fill="none" stroke="rgb(0,0,0)" font-family="helvetica" font-size="13px" font-style="normal" font-weight="bold" text-decoration="normal" x="0" y="12" text-anchor="start" dominant-baseline="alphabetic" transform="matrix(1, 0, 0, 1, 29.5, 7.5)" stroke-opacity="0" stroke-miterlimit="10" stroke-dasharray="">Longest Transaction in sec</text></svg>