<svg version="1.1" xmlns="http://www.w3.org/2000/svg" width="800" height="400"><defs><clipPath id="yGeHdKOPSiLX"><path fill="none" stroke="none" d="M 0.5 0.5 L 800.5 0.5 L 800.5 400.5 L 0.5 400.5 L 0.5 0.5 Z M 42.5 27.5 L 770.5 27.5 L 770.5 306.5 L 42.5 306.5 L 42.5 27.5 Z" clip-rule="evenodd"/></clipPath><clipPath id="yXOLhrbezpWx"><path fill="none" stroke="none" d="M 42.5 27.5 L 770.5 27.5 L 770.5 306.5 L 42.5 306.5 L 42.5 27.5 Z"/></clipPath><clipPath id="XdwngtLeWnCv"><path fill="none" stroke="none" d="M 42.5 27.5 L 770.5 27.5 L 770.5 306.5 L 42.5 306.5 L 42.5 27.5 Z"/></clipPath><clipPath id="SHhTZhZTOKLQ"><path fill="none" stroke="none" d="M 42.5 27.5 L 770.5 27.5 L 770.5 306.5 L 42.5 306.5 L 42.5 27.5 Z"/></clipPath><clipPath id="ozSuGagvwcJX"><path fill="none" stroke="none" d="M 42.5 27.5 L 770.5 27.5 L 770.5 306.5 L 42.5 306.5 L 42.5 27.5 Z"/></clipPath></defs><path fill="rgb(255,255,255)" stroke="none" paint-order="stroke" d="M 0.5 0.5 L 800.5 0.5 L 800.5 400.5 L 0.5 400.5 L 0.5 0.5 Z" fill-opacity="1" clip-path="url(#yGeHdKOPSiLX)"/><path fill="rgb(255,255,255)" stroke="none" paint-order="stroke" d="M 42.5 27.5 L 770.5 27.5 L 770.5 306.5 L 42.5 306.5 L 42.5 27.5 Z" fill-opacity="1"/><path fill="none" stroke="rgb(229,229,229)" paint-order="fill" d="M 42.5 27.5 L 770.5 27.5 L 770.5 306.5 L 42.5 306.5 L 42.5 27.5 Z" stroke-opacity="1" stroke-linejoin="bevel" stroke-miterlimit="10"/><path fill="none" stroke="rgb(229,229,229)" paint-order="fill" d="M 42.5 262.5 L 770.5 262.5 M 42.5 217.5 L 770.5 217.5 M 42.5 173.5 L 770.5 173.5 M 42.5 129.5 L 770.5 129.5 M 42.5 85.5 L 770.5 85.5 M 42.5 40.5 L 770.5 40.5" stroke-opacity="1" stroke-linejoin="bevel" stroke-miterlimit="10" clip-path="url(#XdwngtLeWnCv)"/><path fill="rgb(31,119,180)" stroke="rgb(255,255,255)" paint-order="fill" d="M 76.91454315185547 306.5 L 100.73999786376953 306.5 L 100.73999786376953 306.5 L 76.91454315185547 306.5 L 76.91454315185547 306.5 Z" fill-opacity="1" clip-path="url(#SHhTZhZTOKLQ)" stroke-opacity="1" stroke-linejoin="bevel" stroke-miterlimit="10"/><path fill="rgb(255,127,14)" stroke="rgb(255,255,255)" paint-order="fill" d="M 103.38727569580078 306.5 L 127.21273040771484 306.5 L 127.21273040771484 306.5 L 103.38727569580078 306.5 L 103.38727569580078 306.5 Z" fill-opacity="1" clip-path="url(#SHhTZhZTOKLQ)" stroke-opacity="1" stroke-linejoin="bevel" stroke-miterlimit="10"/><path fill="rgb(44,160,44)" stroke="rgb(255,255,255)" paint-order="fill" d="M 129.8599853515625 306.5 L 153.68545532226562 306.5 L 153.68545532226562 306.5 L 129.8599853515625 306.5 L 129.8599853515625 306.5 Z" fill-opacity="1" clip-path="url(#SHhTZhZTOKLQ)" stroke-opacity="1" stroke-linejoin="bevel" stroke-miterlimit="10"/><path fill="rgb(31,119,180)" stroke="rgb(255,255,255)" paint-order="fill" d="M 193.39456176757812 217.92857360839844 L 217.22000122070312 217.92857360839844 L 217.22000122070312 306.5 L 193.39456176757812 306.5 L 193.39456176757812 217.92857360839844 Z" fill-opacity="1" clip-path="url(#SHhTZhZTOKLQ)" stroke-opacity="1" stroke-linejoin="bevel" stroke-miterlimit="10"/><path fill="rgb(255,127,14)" stroke="rgb(255,255,255)" paint-order="fill" d="M 219.86727905273438 306.5 L 243.69271850585938 306.5 L 243.69271850585938 306.5 L 219.86727905273438 306.5 L 219.86727905273438 306.5 Z" fill-opacity="1" clip-path="url(#SHhTZhZTOKLQ)" stroke-opacity="1" stroke-linejoin="bevel" stroke-miterlimit="10"/><path fill="rgb(44,160,44)" stroke="rgb(255,255,255)" paint-order="fill" d="M 246.33999633789062 306.5 L 270.1654357910156 306.5 L 270.1654357910156 306.5 L 246.33999633789062 306.5 L 246.33999633789062 306.5 Z" fill-opacity="1" clip-path="url(#SHhTZhZTOKLQ)" stroke-opacity="1" stroke-linejoin="bevel" stroke-miterlimit="10"/><path fill="rgb(31,119,180)" stroke="rgb(255,255,255)" paint-order="fill" d="M 309.87457275390625 217.92857360839844 L 333.70001220703125 217.92857360839844 L 333.70001220703125 306.5 L 309.87457275390625 306.5 L 309.87457275390625 217.92857360839844 Z" fill-opacity="1" clip-path="url(#SHhTZhZTOKLQ)" stroke-opacity="1" stroke-linejoin="bevel" stroke-miterlimit="10"/><path fill="rgb(255,127,14)" stroke="rgb(255,255,255)" paint-order="fill" d="M 336.3472900390625 217.92857360839844 L 360.1727294921875 217.92857360839844 L 360.1727294921875 306.5 L 336.3472900390625 306.5 L 336.3472900390625 217.92857360839844 Z" fill-opacity="1" clip-path="url(#SHhTZhZTOKLQ)" stroke-opacity="1" stroke-linejoin="bevel" stroke-miterlimit="10"/><path fill="rgb(44,160,44)" stroke="rgb(255,255,255)" paint-order="fill" d="M 362.82000732421875 217.92857360839844 L 386.64544677734375 217.92857360839844 L 386.64544677734375 306.5 L 362.82000732421875 306.5 L 362.82000732421875 217.92857360839844 Z" fill-opacity="1" clip-path="url(#SHhTZhZTOKLQ)" stroke-opacity="1" stroke-linejoin="bevel" stroke-miterlimit="10"/><path fill="rgb(31,119,180)" stroke="rgb(255,255,255)" paint-order="fill" d="M 426.35455322265625 129.35714721679688 L 450.17999267578125 129.35714721679688 L 450.17999267578125 306.5 L 426.35455322265625 306.5 L 426.35455322265625 129.35714721679688 Z" fill-opacity="1" clip-path="url(#SHhTZhZTOKLQ)" stroke-opacity="1" stroke-linejoin="bevel" stroke-miterlimit="10"/><path fill="rgb(255,127,14)" stroke="rgb(255,255,255)" paint-order="fill" d="M 452.8272705078125 217.92857360839844 L 476.6527099609375 217.92857360839844 L 476.6527099609375 306.5 L 452.8272705078125 306.5 L 452.8272705078125 217.92857360839844 Z" fill-opacity="1" clip-path="url(#SHhTZhZTOKLQ)" stroke-opacity="1" stroke-linejoin="bevel" stroke-miterlimit="10"/><path fill="rgb(44,160,44)" stroke="rgb(255,255,255)" paint-order="fill" d="M 479.29998779296875 217.92857360839844 L 503.12542724609375 217.92857360839844 L 503.12542724609375 306.5 L 479.29998779296875 306.5 L 479.29998779296875 217.92857360839844 Z" fill-opacity="1" clip-path="url(#SHhTZhZTOKLQ)" stroke-opacity="1" stroke-linejoin="bevel" stroke-miterlimit="10"/><path fill="rgb(31,119,180)" stroke="rgb(255,255,255)" paint-order="fill" d="M 542.8345336914062 129.35714721679688 L 566.6599731445312 129.35714721679688 L 566.6599731445312 306.5 L 542.8345336914062 306.5 L 542.8345336914062 129.35714721679688 Z" fill-opacity="1" clip-path="url(#SHhTZhZTOKLQ)" stroke-opacity="1" stroke-linejoin="bevel" stroke-miterlimit="10"/><path fill="rgb(255,127,14)" stroke="rgb(255,255,255)" paint-order="fill" d="M 569.3073120117188 129.35714721679688 L 593.1327514648438 129.35714721679688 L 593.1327514648438 306.5 L 569.3073120117188 306.5 L 569.3073120117188 129.35714721679688 Z" fill-opacity="1" clip-path="url(#SHhTZhZTOKLQ)" stroke-opacity="1" stroke-linejoin="bevel" stroke-miterlimit="10"/><path fill="rgb(44,160,44)" stroke="rgb(255,255,255)" paint-order="fill" d="M 595.780029296875 129.35714721679688 L 619.60546875 129.35714721679688 L 619.60546875 306.5 L 595.780029296875 306.5 L 595.780029296875 129.35714721679688 Z" fill-opacity="1" clip-path="url(#SHhTZhZTOKLQ)" stroke-opacity="1" stroke-linejoin="bevel" stroke-miterlimit="10"/><path fill="rgb(31,119,180)" stroke="rgb(255,255,255)" paint-order="fill" d="M 659.3145751953125 40.78571319580078 L 683.1400146484375 40.78571319580078 L 683.1400146484375 306.5 L 659.3145751953125 306.5 L 659.3145751953125 40.78571319580078 Z" fill-opacity="1" clip-path="url(#SHhTZhZTOKLQ)" stroke-opacity="1" stroke-linejoin="bevel" stroke-miterlimit="10"/><path fill="rgb(255,127,14)" stroke="rgb(255,255,255)" paint-order="fill" d="M 685.7872924804688 129.35714721679688 L 709.6127319335938 129.35714721679688 L 709.6127319335938 306.5 L 685.7872924804688 306.5 L 685.7872924804688 129.35714721679688 Z" fill-opacity="1" clip-path="url(#SHhTZhZTOKLQ)" stroke-opacity="1" stroke-linejoin="bevel" stroke-miterlimit="10"/><path fill="rgb(44,160,44)" stroke="rgb(255,255,255)" paint-order="fill" d="M 712.260009765625 129.35714721679688 L 736.08544921875 129.35714721679688 L 736.08544921875 306.5 L 712.260009765625 306.5 L 712.260009765625 129.35714721679688 Z" fill-opacity="1" clip-path="url(#SHhTZhZTOKLQ)" stroke-opacity="1" stroke-linejoin="bevel" stroke-miterlimit="10"/><path fill="none" stroke="rgb(0,0,0)" paint-order="fill" d="M 42.5 306.5 L 770.5 306.5" stroke-opacity="1" stroke-linejoin="bevel" stroke-miterlimit="10"/><path fill="none" stroke="rgb(0,0,0)" paint-order="fill" d="M 88.5 312.5 L 88.5 304.5 M 115.5 312.5 L 115.5 304.5 M 141.5 312.5 L 141.5 304.5 M 205.5 312.5 L 205.5 304.5 M 231.5 312.5 L 231.5 304.5 M 258.5 312.5 L 258.5 304.5 M 321.5 312.5 L 321.5 304.5 M 348.5 312.5 L 348.5 304.5 M 374.5 312.5 L 374.5 304.5 M 438.5 312.5 L 438.5 304.5 M 464.5 312.5 L 464.5 304.5 M 491.5 312.5 L 491.5 304.5 M 554.5 312.5 L 554.5 304.5 M 581.5 312.5 L 581.5 304.5 M 607.5 312.5 L 607.5 304.5 M 671.5 312.5 L 671.5 304.5 M 697.5 312.5 L 697.5 304.5 M 724.5 312.5 L 724.5 304.5" stroke-opacity="1" stroke-linejoin="bevel" stroke-miterlimit="10"/><path fill="none" stroke="rgb(0,0,0)" paint-order="fill" d="" stroke-opacity="1" stroke-linejoin="bevel" stroke-miterlimit="10"/><text fill="rgb(68,68,68)" stroke="none" font-family="helvetica" font-size="11px" font-style="normal" font-weight="normal" text-decoration="normal" x="53.4688720703125" y="321" text-anchor="start" dominant-baseline="alphabetic" transform="matrix(0.5403023058681398, -0.8414709848078965, 0.8414709848078965, 0.5403023058681398, -225.64245960270068, 220.54900433940216)" fill-opacity="1">Django</text><text fill="none" stroke="rgb(0,0,0)" font-family="helvetica" font-size="11px" font-style="normal" font-weight="normal" text-decoration="normal" x="53.4688720703125" y="321" text-anchor="start" dominant-baseline="alphabetic" transform="matrix(0.5403023058681398, -0.8414709848078965, 0.8414709848078965, 0.5403023058681398, -225.64245960270068, 220.54900433940216)" stroke-opacity="0" stroke-linejoin="bevel" stroke-miterlimit="10">Django</text><text fill="rgb(68,68,68)" stroke="none" font-family="helvetica" font-size="11px" font-style="normal" font-weight="normal" text-decoration="normal" x="46.31855773925781" y="321" text-anchor="start" dominant-baseline="alphabetic" transform="matrix(0.5403023058681398, -0.8414709848078965, 0.8414709848078965, 0.5403023058681398, -213.4730054948796, 242.8250406637119)" fill-opacity="1">Django-orjson</text><text fill="none" stroke="rgb(0,0,0)" font-family="helvetica" font-size="11px" font-style="normal" font-weight="normal" text-decoration="normal" x="46.31855773925781" y="321" text-anchor="start" dominant-baseline="alphabetic" transform="matrix(0.5403023058681398, -0.8414709848078965, 0.8414709848078965, 0.5403023058681398, -213.4730054948796, 242.8250406637119)" stroke-opacity="0" stroke-linejoin="bevel" stroke-miterlimit="10">Django-orjson</text><text fill="rgb(68,68,68)" stroke="none" font-family="helvetica" font-size="11px" font-style="normal" font-weight="normal" text-decoration="normal" x="108.87428283691406" y="321" text-anchor="start" dominant-baseline="alphabetic" transform="matrix(0.5403023058681398, -0.8414709848078965, 0.8414709848078965, 0.5403023058681398, -201.3035584014886, 265.10106414819336)" fill-opacity="1">Go-chi</text><text fill="none" stroke="rgb(0,0,0)" font-family="helvetica" font-size="11px" font-style="normal" font-weight="normal" text-decoration="normal" x="108.87428283691406" y="321" text-anchor="start" dominant-baseline="alphabetic" transform="matrix(0.5403023058681398, -0.8414709848078965, 0.8414709848078965, 0.5403023058681398, -201.3035584014886, 265.10106414819336)" stroke-opacity="0" stroke-linejoin="bevel" stroke-miterlimit="10">Go-chi</text><text fill="rgb(68,68,68)" stroke="none" font-family="helvetica" font-size="11px" font-style="normal" font-weight="normal" text-decoration="normal" x="169.94886779785156" y="321" text-anchor="start" dominant-baseline="alphabetic" transform="matrix(0.5403023058681398, -0.8414709848078965, 0.8414709848078965, 0.5403023058681398, -172.09687415426208, 318.56354105467403)" fill-opacity="1">Django</text><text fill="none" stroke="rgb(0,0,0)" font-family="helvetica" font-size="11px" font-style="normal" font-weight="normal" text-decoration="normal" x="169.94886779785156" y="321" text-anchor="start" dominant-baseline="alphabetic" transform="matrix(0.5403023058681398, -0.8414709848078965, 0.8414709848078965, 0.5403023058681398, -172.09687415426208, 318.56354105467403)" stroke-opacity="0" stroke-linejoin="bevel" stroke-miterlimit="10">Django</text><text fill="rgb(68,68,68)" stroke="none" font-family="helvetica" font-size="11px" font-style="normal" font-weight="normal" text-decoration="normal" x="162.79855346679688" y="321" text-anchor="start" dominant-baseline="alphabetic" transform="matrix(0.5403023058681398, -0.8414709848078965, 0.8414709848078965, 0.5403023058681398, -159.92742004644094, 340.83957737898373)" fill-opacity="1">Django-orjson</text><text fill="none" stroke="rgb(0,0,0)" font-family="helvetica" font-size="11px" font-style="normal" font-weight="normal" text-decoration="normal" x="162.79855346679688" y="321" text-anchor="start" dominant-baseline="alphabetic" transform="matrix(0.5403023058681398, -0.8414709848078965, 0.8414709848078965, 0.5403023058681398, -159.92742004644094, 340.83957737898373)" stroke-opacity="0" stroke-linejoin="bevel" stroke-miterlimit="10">Django-orjson</text><text fill="rgb(68,68,68)" stroke="none" font-family="helvetica" font-size="11px" font-style="normal" font-weight="normal" text-decoration="normal" x="225.35427856445312" y="321" text-anchor="start" dominant-baseline="alphabetic" transform="matrix(0.5403023058681398, -0.8414709848078965, 0.8414709848078965, 0.5403023058681398, -147.75797295304994, 363.1156008634652)" fill-opacity="1">Go-chi</text><text fill="none" stroke="rgb(0,0,0)" font-family="helvetica" font-size="11px" font-style="normal" font-weight="normal" text-decoration="normal" x="225.35427856445312" y="321" text-anchor="start" dominant-baseline="alphabetic" transform="matrix(0.5403023058681398, -0.8414709848078965, 0.8414709848078965, 0.5403023058681398, -147.75797295304994, 363.1156008634652)" stroke-opacity="0" stroke-linejoin="bevel" stroke-miterlimit="10">Go-chi</text><text fill="rgb(68,68,68)" stroke="none" font-family="helvetica" font-size="11px" font-style="normal" font-weight="normal" text-decoration="normal" x="286.4288635253906" y="321" text-anchor="start" dominant-baseline="alphabetic" transform="matrix(0.5403023058681398, -0.8414709848078965, 0.8414709848078965, 0.5403023058681398, -118.55128870582342, 416.57807776994593)" fill-opacity="1">Django</text><text fill="none" stroke="rgb(0,0,0)" font-family="helvetica" font-size="11px" font-style="normal" font-weight="normal" text-decoration="normal" x="286.4288635253906" y="321" text-anchor="start" dominant-baseline="alphabetic" transform="matrix(0.5403023058681398, -0.8414709848078965, 0.8414709848078965, 0.5403023058681398, -118.55128870582342, 416.57807776994593)" stroke-opacity="0" stroke-linejoin="bevel" stroke-miterlimit="10">Django</text><text fill="rgb(68,68,68)" stroke="none" font-family="helvetica" font-size="11px" font-style="normal" font-weight="normal" text-decoration="normal" x="279.278564453125" y="321" text-anchor="start" dominant-baseline="alphabetic" transform="matrix(0.5403023058681398, -0.8414709848078965, 0.8414709848078965, 0.5403023058681398, -106.3818275835722, 438.85412693408387)" fill-opacity="1">Django-orjson</text><text fill="none" stroke="rgb(0,0,0)" font-family="helvetica" font-size="11px" font-style="normal" font-weight="normal" text-decoration="normal" x="279.278564453125" y="321" text-anchor="start" dominant-baseline="alphabetic" transform="matrix(0.5403023058681398, -0.8414709848078965, 0.8414709848078965, 0.5403023058681398, -106.3818275835722, 438.85412693408387)" stroke-opacity="0" stroke-linejoin="bevel" stroke-miterlimit="10">Django-orjson</text><text fill="rgb(68,68,68)" stroke="none" font-family="helvetica" font-size="11px" font-style="normal" font-weight="normal" text-decoration="normal" x="341.83428955078125" y="321" text-anchor="start" dominant-baseline="alphabetic" transform="matrix(0.5403023058681398, -0.8414709848078965, 0.8414709848078965, 0.5403023058681398, -94.2123804901812, 461.13015041856534)" fill-opacity="1">Go-chi</text><text fill="none" stroke="rgb(0,0,0)" font-family="helvetica" font-size="11px" font-style="normal" font-weight="normal" text-decoration="normal" x="341.83428955078125" y="321" text-anchor="start" dominant-baseline="alphabetic" transform="matrix(0.5403023058681398, -0.8414709848078965, 0.8414709848078965, 0.5403023058681398, -94.2123804901812, 461.13015041856534)" stroke-opacity="0" stroke-linejoin="bevel" stroke-miterlimit="10">Go-chi</text><text fill="rgb(68,68,68)" stroke="none" font-family="helvetica" font-size="11px" font-style="normal" font-weight="normal" text-decoration="normal" x="402.90887451171875" y="321" text-anchor="start" dominant-baseline="alphabetic" transform="matrix(0.5403023058681398, -0.8414709848078965, 0.8414709848078965, 0.5403023058681398, -65.00569624295463, 514.592627325046)" fill-opacity="1">Django</text><text fill="none" stroke="rgb(0,0,0)" font-family="helvetica" font-size="11px" font-style="normal" font-weight="normal" text-decoration="normal" x="402.90887451171875" y="321" text-anchor="start" dominant-baseline="alphabetic" transform="matrix(0.5403023058681398, -0.8414709848078965, 0.8414709848078965, 0.5403023058681398, -65.00569624295463, 514.592627325046)" stroke-opacity="0" stroke-linejoin="bevel" stroke-miterlimit="10">Django</text><text fill="rgb(68,68,68)" stroke="none" font-family="helvetica" font-size="11px" font-style="normal" font-weight="normal" text-decoration="normal" x="395.758544921875" y="321" text-anchor="start" dominant-baseline="alphabetic" transform="matrix(0.5403023058681398, -0.8414709848078965, 0.8414709848078965, 0.5403023058681398, -52.83624914956363, 536.8686508095275)" fill-opacity="1">Django-orjson</text><text fill="none" stroke="rgb(0,0,0)" font-family="helvetica" font-size="11px" font-style="normal" font-weight="normal" text-decoration="normal" x="395.758544921875" y="321" text-anchor="start" dominant-baseline="alphabetic" transform="matrix(0.5403023058681398, -0.8414709848078965, 0.8414709848078965, 0.5403023058681398, -52.83624914956363, 536.8686508095275)" stroke-opacity="0" stroke-linejoin="bevel" stroke-miterlimit="10">Django-orjson</text><text fill="rgb(68,68,68)" stroke="none" font-family="helvetica" font-size="11px" font-style="normal" font-weight="normal" text-decoration="normal" x="458.3143005371094" y="321" text-anchor="start" dominant-baseline="alphabetic" transform="matrix(0.5403023058681398, -0.8414709848078965, 0.8414709848078965, 0.5403023058681398, -40.66678802731235, 559.1446999736654)" fill-opacity="1">Go-chi</text><text fill="none" stroke="rgb(0,0,0)" font-family="helvetica" font-size="11px" font-style="normal" font-weight="normal" text-decoration="normal" x="458.3143005371094" y="321" text-anchor="start" dominant-baseline="alphabetic" transform="matrix(0.5403023058681398, -0.8414709848078965, 0.8414709848078965, 0.5403023058681398, -40.66678802731235, 559.1446999736654)" stroke-opacity="0" stroke-linejoin="bevel" stroke-miterlimit="10">Go-chi</text><text fill="rgb(68,68,68)" stroke="none" font-family="helvetica" font-size="11px" font-style="normal" font-weight="normal" text-decoration="normal" x="519.3888549804688" y="321" text-anchor="start" dominant-baseline="alphabetic" transform="matrix(0.5403023058681398, -0.8414709848078965, 0.8414709848078965, 0.5403023058681398, -11.460117808946165, 612.6071512004896)" fill-opacity="1">Django</text><text fill="none" stroke="rgb(0,0,0)" font-family="helvetica" font-size="11px" font-style="normal" font-weight="normal" text-decoration="normal" x="519.3888549804688" y="321" text-anchor="start" dominant-baseline="alphabetic" transform="matrix(0.5403023058681398, -0.8414709848078965, 0.8414709848078965, 0.5403023058681398, -11.460117808946165, 612.6071512004896)" stroke-opacity="0" stroke-linejoin="bevel" stroke-miterlimit="10">Django</text><text fill="rgb(68,68,68)" stroke="none" font-family="helvetica" font-size="11px" font-style="normal" font-weight="normal" text-decoration="normal" x="512.238525390625" y="321" text-anchor="start" dominant-baseline="alphabetic" transform="matrix(0.5403023058681398, -0.8414709848078965, 0.8414709848078965, 0.5403023058681398, 0.7093292844448342, 634.8831746849711)" fill-opacity="1">Django-orjson</text><text fill="none" stroke="rgb(0,0,0)" font-family="helvetica" font-size="11px" font-style="normal" font-weight="normal" text-decoration="normal" x="512.238525390625" y="321" text-anchor="start" dominant-baseline="alphabetic" transform="matrix(0.5403023058681398, -0.8414709848078965, 0.8414709848078965, 0.5403023058681398, 0.7093292844448342, 634.8831746849711)" stroke-opacity="0" stroke-linejoin="bevel" stroke-miterlimit="10">Django-orjson</text><text fill="rgb(68,68,68)" stroke="none" font-family="helvetica" font-size="11px" font-style="normal" font-weight="normal" text-decoration="normal" x="574.7943115234375" y="321" text-anchor="start" dominant-baseline="alphabetic" transform="matrix(0.5403023058681398, -0.8414709848078965, 0.8414709848078965, 0.5403023058681398, 12.87880443555639, 657.1592495287656)" fill-opacity="1">Go-chi</text><text fill="none" stroke="rgb(0,0,0)" font-family="helvetica" font-size="11px" font-style="normal" font-weight="normal" text-decoration="normal" x="574.7943115234375" y="321" text-anchor="start" dominant-baseline="alphabetic" transform="matrix(0.5403023058681398, -0.8414709848078965, 0.8414709848078965, 0.5403023058681398, 12.87880443555639, 657.1592495287656)" stroke-opacity="0" stroke-linejoin="bevel" stroke-miterlimit="10">Go-chi</text><text fill="rgb(68,68,68)" stroke="none" font-family="helvetica" font-size="11px" font-style="normal" font-weight="normal" text-decoration="normal" x="635.868896484375" y="321" text-anchor="start" dominant-baseline="alphabetic" transform="matrix(0.5403023058681398, -0.8414709848078965, 0.8414709848078965, 0.5403023058681398, 42.08548868278285, 710.6217264352463)" fill-opacity="1">Django</text><text fill="none" stroke="rgb(0,0,0)" font-family="helvetica" font-size="11px" font-style="normal" font-weight="normal" text-decoration="normal" x="635.868896484375" y="321" text-anchor="start" dominant-baseline="alphabetic" transform="matrix(0.5403023058681398, -0.8414709848078965, 0.8414709848078965, 0.5403023058681398, 42.08548868278285, 710.6217264352463)" stroke-opacity="0" stroke-linejoin="bevel" stroke-miterlimit="10">Django</text><text fill="rgb(68,68,68)" stroke="none" font-family="helvetica" font-size="11px" font-style="normal" font-weight="normal" text-decoration="normal" x="628.7185668945312" y="321" text-anchor="start" dominant-baseline="alphabetic" transform="matrix(0.5403023058681398, -0.8414709848078965, 0.8414709848078965, 0.5403023058681398, 54.25493577617385, 732.8977499197277)" fill-opacity="1">Django-orjson</text><text fill="none" stroke="rgb(0,0,0)" font-family="helvetica" font-size="11px" font-style="normal" font-weight="normal" text-decoration="normal" x="628.7185668945312" y="321" text-anchor="start" dominant-baseline="alphabetic" transform="matrix(0.5403023058681398, -0.8414709848078965, 0.8414709848078965, 0.5403023058681398, 54.25493577617385, 732.8977499197277)" stroke-opacity="0" stroke-linejoin="bevel" stroke-miterlimit="10">Django-orjson</text><text fill="rgb(68,68,68)" stroke="none" font-family="helvetica" font-size="11px" font-style="normal" font-weight="normal" text-decoration="normal" x="691.2742919921875" y="321" text-anchor="start" dominant-baseline="alphabetic" transform="matrix(0.5403023058681398, -0.8414709848078965, 0.8414709848078965, 0.5403023058681398, 66.42438286956485, 755.1737734042092)" fill-opacity="1">Go-chi</text><text fill="none" stroke="rgb(0,0,0)" font-family="helvetica" font-size="11px" font-style="normal" font-weight="normal" text-decoration="normal" x="691.2742919921875" y="321" text-anchor="start" dominant-baseline="alphabetic" transform="matrix(0.5403023058681398, -0.8414709848078965, 0.8414709848078965, 0.5403023058681398, 66.42438286956485, 755.1737734042092)" stroke-opacity="0" stroke-linejoin="bevel" stroke-miterlimit="10">Go-chi</text><text fill="rgb(128,128,128)" stroke="none" font-family="helvetica" font-size="11px" font-style="normal" font-weight="bold" text-decoration="normal" x="111.74116516113281" y="397.1087768985952" text-anchor="start" dominant-baseline="alphabetic" transform="matrix(1, 0, 0, 1, 0.5, 0.5)" fill-opacity="1">1</text><text fill="none" stroke="rgb(0,0,0)" font-family="helvetica" font-size="11px" font-style="normal" font-weight="bold" text-decoration="normal" x="111.74116516113281" y="397.1087768985952" text-anchor="start" dominant-baseline="alphabetic" transform="matrix(1, 0, 0, 1, 0.5, 0.5)" stroke-opacity="0" stroke-linejoin="bevel" stroke-miterlimit="10">1</text><text fill="rgb(128,128,128)" stroke="none" font-family="helvetica" font-size="11px" font-style="normal" font-weight="bold" text-decoration="normal" x="225.16232299804688" y="397.1087768985952" text-anchor="start" dominant-baseline="alphabetic" transform="matrix(1, 0, 0, 1, 0.5, 0.5)" fill-opacity="1">50</text><text fill="none" stroke="rgb(0,0,0)" font-family="helvetica" font-size="11px" font-style="normal" font-weight="bold" text-decoration="normal" x="225.16232299804688" y="397.1087768985952" text-anchor="start" dominant-baseline="alphabetic" transform="matrix(1, 0, 0, 1, 0.5, 0.5)" stroke-opacity="0" stroke-linejoin="bevel" stroke-miterlimit="10">50</text><text fill="rgb(128,128,128)" stroke="none" font-family="helvetica" font-size="11px" font-style="normal" font-weight="bold" text-decoration="normal" x="338.58349609375" y="397.1087768985952" text-anchor="start" dominant-baseline="alphabetic" transform="matrix(1, 0, 0, 1, 0.5, 0.5)" fill-opacity="1">100</text><text fill="none" stroke="rgb(0,0,0)" font-family="helvetica" font-size="11px" font-style="normal" font-weight="bold" text-decoration="normal" x="338.58349609375" y="397.1087768985952" text-anchor="start" dominant-baseline="alphabetic" transform="matrix(1, 0, 0, 1, 0.5, 0.5)" stroke-opacity="0" stroke-linejoin="bevel" stroke-miterlimit="10">100</text><text fill="rgb(128,128,128)" stroke="none" font-family="helvetica" font-size="11px" font-style="normal" font-weight="bold" text-decoration="normal" x="455.0634765625" y="397.1087768985952" text-anchor="start" dominant-baseline="alphabetic" transform="matrix(1, 0, 0, 1, 0.5, 0.5)" fill-opacity="1">150</text><text fill="none" stroke="rgb(0,0,0)" font-family="helvetica" font-size="11px" font-style="normal" font-weight="bold" text-decoration="normal" x="455.0634765625" y="397.1087768985952" text-anchor="start" dominant-baseline="alphabetic" transform="matrix(1, 0, 0, 1, 0.5, 0.5)" stroke-opacity="0" stroke-linejoin="bevel" stroke-miterlimit="10">150</text><text fill="rgb(128,128,128)" stroke="none" font-family="helvetica" font-size="11px" font-style="normal" font-weight="bold" text-decoration="normal" x="571.54345703125" y="397.1087768985952" text-anchor="start" dominant-baseline="alphabetic" transform="matrix(1, 0, 0, 1, 0.5, 0.5)" fill-opacity="1">200</text><text fill="none" stroke="rgb(0,0,0)" font-family="helvetica" font-size="11px" font-style="normal" font-weight="bold" text-decoration="normal" x="571.54345703125" y="397.1087768985952" text-anchor="start" dominant-baseline="alphabetic" transform="matrix(1, 0, 0, 1, 0.5, 0.5)" stroke-opacity="0" stroke-linejoin="bevel" stroke-miterlimit="10">200</text><text fill="rgb(128,128,128)" stroke="none" font-family="helvetica" font-size="11px" font-style="normal" font-weight="bold" text-decoration="normal" x="688.0234985351562" y="397.1087768985952" text-anchor="start" dominant-baseline="alphabetic" transform="matrix(1, 0, 0, 1, 0.5, 0.5)" fill-opacity="1">250</text><text fill="none" stroke="rgb(0,0,0)" font-family="helvetica" font-size="11px" font-style="normal" font-weight="bold" text-decoration="normal" x="688.0234985351562" y="397.1087768985952" text-anchor="start" dominant-baseline="alphabetic" transform="matrix(1, 0, 0, 1, 0.5, 0.5)" stroke-opacity="0" stroke-linejoin="bevel" stroke-miterlimit="10">250</text><path fill="none" stroke="rgb(211,211,211)" paint-order="fill" d="M 173.5 388.5 L 173.5 309.5 M 290.5 388.5 L 290.5 309.5 M 406.5 388.5 L 406.5 309.5 M 522.5 388.5 L 522.5 309.5 M 639.5 388.5 L 639.5 309.5" stroke-opacity="1" stroke-linejoin="bevel" stroke-miterlimit="10" stroke-width="2"/><path fill="none" stroke="rgb(0,0,0)" paint-order="fill" d="M 42.5 306.5 L 42.5 27.5" stroke-opacity="1" stroke-linejoin="bevel" stroke-miterlimit="10"/><path fill="none" stroke="rgb(0,0,0)" paint-order="fill" d="M 36.5 306.5 L 44.5 306.5 M 36.5 262.5 L 44.5 262.5 M 36.5 217.5 L 44.5 217.5 M 36.5 173.5 L 44.5 173.5 M 36.5 129.5 L 44.5 129.5 M 36.5 85.5 L 44.5 85.5 M 36.5 40.5 L 44.5 40.5" stroke-opacity="1" stroke-linejoin="bevel" stroke-miterlimit="10"/><path fill="none" stroke="rgb(0,0,0)" paint-order="fill" d="M 38.5 306.5 L 42.5 306.5 M 38.5 297.5 L 42.5 297.5 M 38.5 288.5 L 42.5 288.5 M 38.5 279.5 L 42.5 279.5 M 38.5 271.5 L 42.5 271.5 M 38.5 262.5 L 42.5 262.5 M 38.5 253.5 L 42.5 253.5 M 38.5 244.5 L 42.5 244.5 M 38.5 235.5 L 42.5 235.5 M 38.5 226.5 L 42.5 226.5 M 38.5 217.5 L 42.5 217.5 M 38.5 209.5 L 42.5 209.5 M 38.5 200.5 L 42.5 200.5 M 38.5 191.5 L 42.5 191.5 M 38.5 182.5 L 42.5 182.5 M 38.5 173.5 L 42.5 173.5 M 38.5 164.5 L 42.5 164.5 M 38.5 155.5 L 42.5 155.5 M 38.5 147.5 L 42.5 147.5 M 38.5 138.5 L 42.5 138.5 M 38.5 129.5 L 42.5 129.5 M 38.5 120.5 L 42.5 120.5 M 38.5 111.5 L 42.5 111.5 M 38.5 102.5 L 42.5 102.5 M 38.5 93.5 L 42.5 93.5 M 38.5 85.5 L 42.5 85.5 M 38.5 76.5 L 42.5 76.5 M 38.5 67.5 L 42.5 67.5 M 38.5 58.5 L 42.5 58.5 M 38.5 49.5 L 42.5 49.5 M 38.5 40.5 L 42.5 40.5 M 38.5 31.5 L 42.5 31.5" stroke-opacity="1" stroke-linejoin="bevel" stroke-miterlimit="10"/><text fill="rgb(68,68,68)" stroke="none" font-family="helvetica" font-size="11px" font-style="normal" font-weight="normal" text-decoration="normal" x="24.88232421875" y="310" text-anchor="start" dominant-baseline="alphabetic" transform="matrix(1, 0, 0, 1, 0.5, 0.5)" fill-opacity="1">0</text><text fill="none" stroke="rgb(0,0,0)" font-family="helvetica" font-size="11px" font-style="normal" font-weight="normal" text-decoration="normal" x="24.88232421875" y="310" text-anchor="start" dominant-baseline="alphabetic" transform="matrix(1, 0, 0, 1, 0.5, 0.5)" stroke-opacity="0" stroke-linejoin="bevel" stroke-miterlimit="10">0</text><text fill="rgb(68,68,68)" stroke="none" font-family="helvetica" font-size="11px" font-style="normal" font-weight="normal" text-decoration="normal" x="3.47314453125" y="265.71429443359375" text-anchor="start" dominant-baseline="alphabetic" transform="matrix(1, 0, 0, 1, 0.5, 0.5)" fill-opacity="1">0.005</text><text fill="none" stroke="rgb(0,0,0)" font-family="helvetica" font-size="11px" font-style="normal" font-weight="normal" text-decoration="normal" x="3.47314453125" y="265.71429443359375" text-anchor="start" dominant-baseline="alphabetic" transform="matrix(1, 0, 0, 1, 0.5, 0.5)" stroke-opacity="0" stroke-linejoin="bevel" stroke-miterlimit="10">0.005</text><text fill="rgb(68,68,68)" stroke="none" font-family="helvetica" font-size="11px" font-style="normal" font-weight="normal" text-decoration="normal" x="9.5908203125" y="221.42857360839844" text-anchor="start" dominant-baseline="alphabetic" transform="matrix(1, 0, 0, 1, 0.5, 0.5)" fill-opacity="1">0.01</text><text fill="none" stroke="rgb(0,0,0)" font-family="helvetica" font-size="11px" font-style="normal" font-weight="normal" text-decoration="normal" x="9.5908203125" y="221.42857360839844" text-anchor="start" dominant-baseline="alphabetic" transform="matrix(1, 0, 0, 1, 0.5, 0.5)" stroke-opacity="0" stroke-linejoin="bevel" stroke-miterlimit="10">0.01</text><text fill="rgb(68,68,68)" stroke="none" font-family="helvetica" font-size="11px" font-style="normal" font-weight="normal" text-decoration="normal" x="3.47314453125" y="177.14285278320312" text-anchor="start" dominant-baseline="alphabetic" transform="matrix(1, 0, 0, 1, 0.5, 0.5)" fill-opacity="1">0.015</text><text fill="none" stroke="rgb(0,0,0)" font-family="helvetica" font-size="11px" font-style="normal" font-weight="normal" text-decoration="normal" x="3.47314453125" y="177.14285278320312" text-anchor="start" dominant-baseline="alphabetic" transform="matrix(1, 0, 0, 1, 0.5, 0.5)" stroke-opacity="0" stroke-linejoin="bevel" stroke-miterlimit="10">0.015</text><text fill="rgb(68,68,68)" stroke="none" font-family="helvetica" font-size="11px" font-style="normal" font-weight="normal" text-decoration="normal" x="9.5908203125" y="132.85714721679688" text-anchor="start" dominant-baseline="alphabetic" transform="matrix(1, 0, 0, 1, 0.5, 0.5)" fill-opacity="1">0.02</text><text fill="none" stroke="rgb(0,0,0)" font-family="helvetica" font-size="11px" font-style="normal" font-weight="normal" text-decoration="normal" x="9.5908203125" y="132.85714721679688" text-anchor="start" dominant-baseline="alphabetic" transform="matrix(1, 0, 0, 1, 0.5, 0.5)" stroke-opacity="0" stroke-linejoin="bevel" stroke-miterlimit="10">0.02</text><text fill="rgb(68,68,68)" stroke="none" font-family="helvetica" font-size="11px" font-style="normal" font-weight="normal" text-decoration="normal" x="3.47314453125" y="88.57142639160156" text-anchor="start" dominant-baseline="alphabetic" transform="matrix(1, 0, 0, 1, 0.5, 0.5)" fill-opacity="1">0.025</text><text fill="none" stroke="rgb(0,0,0)" font-family="helvetica" font-size="11px" font-style="normal" font-weight="normal" text-decoration="normal" x="3.47314453125" y="88.57142639160156" text-anchor="start" dominant-baseline="alphabetic" transform="matrix(1, 0, 0, 1, 0.5, 0.5)" stroke-opacity="0" stroke-linejoin="bevel" stroke-miterlimit="10">0.025</text><text fill="rgb(68,68,68)" stroke="none" font-family="helvetica" font-size="11px" font-style="normal" font-weight="normal" text-decoration="normal" x="9.5908203125" y="44.28571319580078" text-anchor="start" dominant-baseline="alphabetic" transform="matrix(1, 0, 0, 1, 0.5, 0.5)" fill-opacity="1">0.03</text><text fill="none" stroke="rgb(0,0,0)" font-family="helvetica" font-size="11px" font-style="normal" font-weight="normal" text-decoration="normal" x="9.5908203125" y="44.28571319580078" text-anchor="start" dominant-baseline="alphabetic" transform="matrix(1, 0, 0, 1, 0.5, 0.5)" stroke-opacity="0" stroke-linejoin="bevel" stroke-miterlimit="10">0.03</text><text fill="rgb(68,68,68)" stroke="none" font-family="helvetica" font-size="13px" font-style="normal" font-weight="bold" text-decoration="normal" x="0" y="12" text-anchor="start" dominant-baseline="alphabetic" transform="matrix(1, 0, 0, 1, 42.5, 7.5)" fill-opacity="1">Response Time</text><text fill="none" stroke="rgb(0,0,0)" font-family="helvetica" font-size="13px" font-style="normal" font-weight="bold" text-decoration="normal" x="0" y="12" text-anchor="start" dominant-baseline="alphabetic" transform="matrix(1, 0, 0, 1, 42.5, 7.5)" stroke-opacity="0" stroke-miterlimit="10" stroke-dasharray="">Response Time</text></svg>