<svg version="1.1" xmlns="http://www.w3.org/2000/svg" width="800" height="400"><defs><clipPath id="aRfwWhyZbukl"><path fill="none" stroke="none" d="M 0.5 0.5 L 800.5 0.5 L 800.5 400.5 L 0.5 400.5 L 0.5 0.5 Z M 26.5 27.5 L 770.5 27.5 L 770.5 316.5 L 26.5 316.5 L 26.5 27.5 Z" clip-rule="evenodd"/></clipPath><clipPath id="xepFmiQgdWaZ"><path fill="none" stroke="none" d="M 26.5 27.5 L 770.5 27.5 L 770.5 316.5 L 26.5 316.5 L 26.5 27.5 Z"/></clipPath><clipPath id="aSTygCLfRWlx"><path fill="none" stroke="none" d="M 26.5 27.5 L 770.5 27.5 L 770.5 316.5 L 26.5 316.5 L 26.5 27.5 Z"/></clipPath><clipPath id="LXKWKBwRVTZu"><path fill="none" stroke="none" d="M 26.5 27.5 L 770.5 27.5 L 770.5 316.5 L 26.5 316.5 L 26.5 27.5 Z"/></clipPath><clipPath id="TfcVHcDkPpVB"><path fill="none" stroke="none" d="M 26.5 27.5 L 770.5 27.5 L 770.5 316.5 L 26.5 316.5 L 26.5 27.5 Z"/></clipPath></defs><path fill="rgb(255,255,255)" stroke="none" paint-order="stroke" d="M 0.5 0.5 L 800.5 0.5 L 800.5 400.5 L 0.5 400.5 L 0.5 0.5 Z" fill-opacity="1" clip-path="url(#aRfwWhyZbukl)"/><path fill="rgb(255,255,255)" stroke="none" paint-order="stroke" d="M 26.5 27.5 L 770.5 27.5 L 770.5 316.5 L 26.5 316.5 L 26.5 27.5 Z" fill-opacity="1"/><path fill="none" stroke="rgb(229,229,229)" paint-order="fill" d="M 26.5 27.5 L 770.5 27.5 L 770.5 316.5 L 26.5 316.5 L 26.5 27.5 Z" stroke-opacity="1" stroke-linejoin="bevel" stroke-miterlimit="10"/><path fill="none" stroke="rgb(229,229,229)" paint-order="fill" d="M 26.5 274.5 L 770.5 274.5 M 26.5 232.5 L 770.5 232.5 M 26.5 189.5 L 770.5 189.5 M 26.5 147.5 L 770.5 147.5 M 26.5 105.5 L 770.5 105.5 M 26.5 63.5 L 770.5 63.5" stroke-opacity="1" stroke-linejoin="bevel" stroke-miterlimit="10" clip-path="url(#aSTygCLfRWlx)"/><path fill="rgb(31,119,180)" stroke="rgb(255,255,255)" paint-order="fill" d="M 63.284690856933594 141.08538818359375 L 116.68181610107422 141.08538818359375 L 116.68181610107422 316.5 L 63.284690856933594 316.5 L 63.284690856933594 141.08538818359375 Z" fill-opacity="1" clip-path="url(#LXKWKBwRVTZu)" stroke-opacity="1" stroke-linejoin="bevel" stroke-miterlimit="10"/><path fill="rgb(255,127,14)" stroke="rgb(255,255,255)" paint-order="fill" d="M 122.61483764648438 302.5191345214844 L 176.011962890625 302.5191345214844 L 176.011962890625 316.5 L 122.61483764648438 316.5 L 122.61483764648438 302.5191345214844 Z" fill-opacity="1" clip-path="url(#LXKWKBwRVTZu)" stroke-opacity="1" stroke-linejoin="bevel" stroke-miterlimit="10"/><path fill="rgb(44,160,44)" stroke="rgb(255,255,255)" paint-order="fill" d="M 181.94497680664062 208.27281188964844 L 235.34210205078125 208.27281188964844 L 235.34210205078125 316.5 L 181.94497680664062 316.5 L 181.94497680664062 208.27281188964844 Z" fill-opacity="1" clip-path="url(#LXKWKBwRVTZu)" stroke-opacity="1" stroke-linejoin="bevel" stroke-miterlimit="10"/><path fill="rgb(214,39,40)" stroke="rgb(255,255,255)" paint-order="fill" d="M 241.27513122558594 41.261905670166016 L 294.6722717285156 41.261905670166016 L 294.6722717285156 316.5 L 241.27513122558594 316.5 L 241.27513122558594 41.261905670166016 Z" fill-opacity="1" clip-path="url(#LXKWKBwRVTZu)" stroke-opacity="1" stroke-linejoin="bevel" stroke-miterlimit="10"/><path fill="rgb(148,103,189)" stroke="rgb(255,255,255)" paint-order="fill" d="M 300.6052551269531 103.20967102050781 L 354.0024108886719 103.20967102050781 L 354.0024108886719 316.5 L 300.6052551269531 316.5 L 300.6052551269531 103.20967102050781 Z" fill-opacity="1" clip-path="url(#LXKWKBwRVTZu)" stroke-opacity="1" stroke-linejoin="bevel" stroke-miterlimit="10"/><path fill="rgb(31,119,180)" stroke="rgb(255,255,255)" paint-order="fill" d="M 442.9975891113281 169.70523071289062 L 496.3947448730469 169.70523071289062 L 496.3947448730469 316.5 L 442.9975891113281 316.5 L 442.9975891113281 169.70523071289062 Z" fill-opacity="1" clip-path="url(#LXKWKBwRVTZu)" stroke-opacity="1" stroke-linejoin="bevel" stroke-miterlimit="10"/><path fill="rgb(255,127,14)" stroke="rgb(255,255,255)" paint-order="fill" d="M 502.3277282714844 263.099365234375 L 555.724853515625 263.099365234375 L 555.724853515625 316.5 L 502.3277282714844 316.5 L 502.3277282714844 263.099365234375 Z" fill-opacity="1" clip-path="url(#LXKWKBwRVTZu)" stroke-opacity="1" stroke-linejoin="bevel" stroke-miterlimit="10"/><path fill="rgb(44,160,44)" stroke="rgb(255,255,255)" paint-order="fill" d="M 561.6578979492188 149.6578369140625 L 615.0549926757812 149.6578369140625 L 615.0549926757812 316.5 L 561.6578979492188 316.5 L 561.6578979492188 149.6578369140625 Z" fill-opacity="1" clip-path="url(#LXKWKBwRVTZu)" stroke-opacity="1" stroke-linejoin="bevel" stroke-miterlimit="10"/><path fill="rgb(214,39,40)" stroke="rgb(255,255,255)" paint-order="fill" d="M 620.988037109375 215.6134033203125 L 674.3851318359375 215.6134033203125 L 674.3851318359375 316.5 L 620.988037109375 316.5 L 620.988037109375 215.6134033203125 Z" fill-opacity="1" clip-path="url(#LXKWKBwRVTZu)" stroke-opacity="1" stroke-linejoin="bevel" stroke-miterlimit="10"/><path fill="rgb(148,103,189)" stroke="rgb(255,255,255)" paint-order="fill" d="M 680.3181762695312 141.04319763183594 L 733.7152709960938 141.04319763183594 L 733.7152709960938 316.5 L 680.3181762695312 316.5 L 680.3181762695312 141.04319763183594 Z" fill-opacity="1" clip-path="url(#LXKWKBwRVTZu)" stroke-opacity="1" stroke-linejoin="bevel" stroke-miterlimit="10"/><path fill="none" stroke="rgb(0,0,0)" paint-order="fill" d="M 26.5 316.5 L 770.5 316.5" stroke-opacity="1" stroke-linejoin="bevel" stroke-miterlimit="10"/><path fill="none" stroke="rgb(0,0,0)" paint-order="fill" d="M 89.5 322.5 L 89.5 314.5 M 149.5 322.5 L 149.5 314.5 M 208.5 322.5 L 208.5 314.5 M 267.5 322.5 L 267.5 314.5 M 327.5 322.5 L 327.5 314.5 M 469.5 322.5 L 469.5 314.5 M 529.5 322.5 L 529.5 314.5 M 588.5 322.5 L 588.5 314.5 M 647.5 322.5 L 647.5 314.5 M 707.5 322.5 L 707.5 314.5" stroke-opacity="1" stroke-linejoin="bevel" stroke-miterlimit="10"/><path fill="none" stroke="rgb(0,0,0)" paint-order="fill" d="" stroke-opacity="1" stroke-linejoin="bevel" stroke-miterlimit="10"/><text fill="rgb(68,68,68)" stroke="none" font-family="helvetica" font-size="11px" font-style="normal" font-weight="normal" text-decoration="normal" x="69.3040542602539" y="331" text-anchor="start" dominant-baseline="alphabetic" transform="matrix(0.5403023058681398, -0.8414709848078965, 0.8414709848078965, 0.5403023058681398, -233.52576674446732, 226.11870740991034)" fill-opacity="1">json</text><text fill="none" stroke="rgb(0,0,0)" font-family="helvetica" font-size="11px" font-style="normal" font-weight="normal" text-decoration="normal" x="69.3040542602539" y="331" text-anchor="start" dominant-baseline="alphabetic" transform="matrix(0.5403023058681398, -0.8414709848078965, 0.8414709848078965, 0.5403023058681398, -233.52576674446732, 226.11870740991034)" stroke-opacity="0" stroke-linejoin="bevel" stroke-miterlimit="10">json</text><text fill="rgb(68,68,68)" stroke="none" font-family="helvetica" font-size="11px" font-style="normal" font-weight="normal" text-decoration="normal" x="118.85343933105469" y="331" text-anchor="start" dominant-baseline="alphabetic" transform="matrix(0.5403023058681398, -0.8414709848078965, 0.8414709848078965, 0.5403023058681398, -206.251835072806, 276.0433044577107)" fill-opacity="1">orjson</text><text fill="none" stroke="rgb(0,0,0)" font-family="helvetica" font-size="11px" font-style="normal" font-weight="normal" text-decoration="normal" x="118.85343933105469" y="331" text-anchor="start" dominant-baseline="alphabetic" transform="matrix(0.5403023058681398, -0.8414709848078965, 0.8414709848078965, 0.5403023058681398, -206.251835072806, 276.0433044577107)" stroke-opacity="0" stroke-linejoin="bevel" stroke-miterlimit="10">orjson</text><text fill="rgb(68,68,68)" stroke="none" font-family="helvetica" font-size="11px" font-style="normal" font-weight="normal" text-decoration="normal" x="181.84666442871094" y="331" text-anchor="start" dominant-baseline="alphabetic" transform="matrix(0.5403023058681398, -0.8414709848078965, 0.8414709848078965, 0.5403023058681398, -178.97790690835978, 325.9678950855969)" fill-opacity="1">ujson</text><text fill="none" stroke="rgb(0,0,0)" font-family="helvetica" font-size="11px" font-style="normal" font-weight="normal" text-decoration="normal" x="181.84666442871094" y="331" text-anchor="start" dominant-baseline="alphabetic" transform="matrix(0.5403023058681398, -0.8414709848078965, 0.8414709848078965, 0.5403023058681398, -178.97790690835978, 325.9678950855969)" stroke-opacity="0" stroke-linejoin="bevel" stroke-miterlimit="10">ujson</text><text fill="rgb(68,68,68)" stroke="none" font-family="helvetica" font-size="11px" font-style="normal" font-weight="normal" text-decoration="normal" x="215.50836181640625" y="331" text-anchor="start" dominant-baseline="alphabetic" transform="matrix(0.5403023058681398, -0.8414709848078965, 0.8414709848078965, 0.5403023058681398, -151.70397172948344, 375.8924985533114)" fill-opacity="1">simplejson</text><text fill="none" stroke="rgb(0,0,0)" font-family="helvetica" font-size="11px" font-style="normal" font-weight="normal" text-decoration="normal" x="215.50836181640625" y="331" text-anchor="start" dominant-baseline="alphabetic" transform="matrix(0.5403023058681398, -0.8414709848078965, 0.8414709848078965, 0.5403023058681398, -151.70397172948344, 375.8924985533114)" stroke-opacity="0" stroke-linejoin="bevel" stroke-miterlimit="10">simplejson</text><text fill="rgb(68,68,68)" stroke="none" font-family="helvetica" font-size="11px" font-style="normal" font-weight="normal" text-decoration="normal" x="282.1646728515625" y="331" text-anchor="start" dominant-baseline="alphabetic" transform="matrix(0.5403023058681398, -0.8414709848078965, 0.8414709848078965, 0.5403023058681398, -124.43004356503724, 425.8170891811976)" fill-opacity="1">rapidjson</text><text fill="none" stroke="rgb(0,0,0)" font-family="helvetica" font-size="11px" font-style="normal" font-weight="normal" text-decoration="normal" x="282.1646728515625" y="331" text-anchor="start" dominant-baseline="alphabetic" transform="matrix(0.5403023058681398, -0.8414709848078965, 0.8414709848078965, 0.5403023058681398, -124.43004356503724, 425.8170891811976)" stroke-opacity="0" stroke-linejoin="bevel" stroke-miterlimit="10">rapidjson</text><text fill="rgb(68,68,68)" stroke="none" font-family="helvetica" font-size="11px" font-style="normal" font-weight="normal" text-decoration="normal" x="449.0169677734375" y="331" text-anchor="start" dominant-baseline="alphabetic" transform="matrix(0.5403023058681398, -0.8414709848078965, 0.8414709848078965, 0.5403023058681398, -58.97261597036629, 545.6361066881245)" fill-opacity="1">json</text><text fill="none" stroke="rgb(0,0,0)" font-family="helvetica" font-size="11px" font-style="normal" font-weight="normal" text-decoration="normal" x="449.0169677734375" y="331" text-anchor="start" dominant-baseline="alphabetic" transform="matrix(0.5403023058681398, -0.8414709848078965, 0.8414709848078965, 0.5403023058681398, -58.97261597036629, 545.6361066881245)" stroke-opacity="0" stroke-linejoin="bevel" stroke-miterlimit="10">json</text><text fill="rgb(68,68,68)" stroke="none" font-family="helvetica" font-size="11px" font-style="normal" font-weight="normal" text-decoration="normal" x="498.56634521484375" y="331" text-anchor="start" dominant-baseline="alphabetic" transform="matrix(0.5403023058681398, -0.8414709848078965, 0.8414709848078965, 0.5403023058681398, -31.698687805920144, 595.5606973160108)" fill-opacity="1">orjson</text><text fill="none" stroke="rgb(0,0,0)" font-family="helvetica" font-size="11px" font-style="normal" font-weight="normal" text-decoration="normal" x="498.56634521484375" y="331" text-anchor="start" dominant-baseline="alphabetic" transform="matrix(0.5403023058681398, -0.8414709848078965, 0.8414709848078965, 0.5403023058681398, -31.698687805920144, 595.5606973160108)" stroke-opacity="0" stroke-linejoin="bevel" stroke-miterlimit="10">orjson</text><text fill="rgb(68,68,68)" stroke="none" font-family="helvetica" font-size="11px" font-style="normal" font-weight="normal" text-decoration="normal" x="561.5595703125" y="331" text-anchor="start" dominant-baseline="alphabetic" transform="matrix(0.5403023058681398, -0.8414709848078965, 0.8414709848078965, 0.5403023058681398, -4.424759641473884, 645.485287943897)" fill-opacity="1">ujson</text><text fill="none" stroke="rgb(0,0,0)" font-family="helvetica" font-size="11px" font-style="normal" font-weight="normal" text-decoration="normal" x="561.5595703125" y="331" text-anchor="start" dominant-baseline="alphabetic" transform="matrix(0.5403023058681398, -0.8414709848078965, 0.8414709848078965, 0.5403023058681398, -4.424759641473884, 645.485287943897)" stroke-opacity="0" stroke-linejoin="bevel" stroke-miterlimit="10">ujson</text><text fill="rgb(68,68,68)" stroke="none" font-family="helvetica" font-size="11px" font-style="normal" font-weight="normal" text-decoration="normal" x="595.2212524414062" y="331" text-anchor="start" dominant-baseline="alphabetic" transform="matrix(0.5403023058681398, -0.8414709848078965, 0.8414709848078965, 0.5403023058681398, 22.849168522972377, 695.4098785717832)" fill-opacity="1">simplejson</text><text fill="none" stroke="rgb(0,0,0)" font-family="helvetica" font-size="11px" font-style="normal" font-weight="normal" text-decoration="normal" x="595.2212524414062" y="331" text-anchor="start" dominant-baseline="alphabetic" transform="matrix(0.5403023058681398, -0.8414709848078965, 0.8414709848078965, 0.5403023058681398, 22.849168522972377, 695.4098785717832)" stroke-opacity="0" stroke-linejoin="bevel" stroke-miterlimit="10">simplejson</text><text fill="rgb(68,68,68)" stroke="none" font-family="helvetica" font-size="11px" font-style="normal" font-weight="normal" text-decoration="normal" x="661.8775634765625" y="331" text-anchor="start" dominant-baseline="alphabetic" transform="matrix(0.5403023058681398, -0.8414709848078965, 0.8414709848078965, 0.5403023058681398, 50.123096687418524, 745.3344691996695)" fill-opacity="1">rapidjson</text><text fill="none" stroke="rgb(0,0,0)" font-family="helvetica" font-size="11px" font-style="normal" font-weight="normal" text-decoration="normal" x="661.8775634765625" y="331" text-anchor="start" dominant-baseline="alphabetic" transform="matrix(0.5403023058681398, -0.8414709848078965, 0.8414709848078965, 0.5403023058681398, 50.123096687418524, 745.3344691996695)" stroke-opacity="0" stroke-linejoin="bevel" stroke-miterlimit="10">rapidjson</text><text fill="rgb(128,128,128)" stroke="none" font-family="helvetica" font-size="11px" font-style="normal" font-weight="bold" text-decoration="normal" x="190.11546325683594" y="395.2109467906229" text-anchor="start" dominant-baseline="alphabetic" transform="matrix(1, 0, 0, 1, 0.5, 0.5)" fill-opacity="1">dumps</text><text fill="none" stroke="rgb(0,0,0)" font-family="helvetica" font-size="11px" font-style="normal" font-weight="bold" text-decoration="normal" x="190.11546325683594" y="395.2109467906229" text-anchor="start" dominant-baseline="alphabetic" transform="matrix(1, 0, 0, 1, 0.5, 0.5)" stroke-opacity="0" stroke-linejoin="bevel" stroke-miterlimit="10">dumps</text><text fill="rgb(128,128,128)" stroke="none" font-family="helvetica" font-size="11px" font-style="normal" font-weight="bold" text-decoration="normal" x="573.491455078125" y="395.2109467906229" text-anchor="start" dominant-baseline="alphabetic" transform="matrix(1, 0, 0, 1, 0.5, 0.5)" fill-opacity="1">loads</text><text fill="none" stroke="rgb(0,0,0)" font-family="helvetica" font-size="11px" font-style="normal" font-weight="bold" text-decoration="normal" x="573.491455078125" y="395.2109467906229" text-anchor="start" dominant-baseline="alphabetic" transform="matrix(1, 0, 0, 1, 0.5, 0.5)" stroke-opacity="0" stroke-linejoin="bevel" stroke-miterlimit="10">loads</text><path fill="none" stroke="rgb(211,211,211)" paint-order="fill" d="M 398.5 388.5 L 398.5 319.5" stroke-opacity="1" stroke-linejoin="bevel" stroke-miterlimit="10" stroke-width="2"/><path fill="none" stroke="rgb(0,0,0)" paint-order="fill" d="M 26.5 316.5 L 26.5 27.5" stroke-opacity="1" stroke-linejoin="bevel" stroke-miterlimit="10"/><path fill="none" stroke="rgb(0,0,0)" paint-order="fill" d="M 20.5 316.5 L 28.5 316.5 M 20.5 274.5 L 28.5 274.5 M 20.5 232.5 L 28.5 232.5 M 20.5 189.5 L 28.5 189.5 M 20.5 147.5 L 28.5 147.5 M 20.5 105.5 L 28.5 105.5 M 20.5 63.5 L 28.5 63.5" stroke-opacity="1" stroke-linejoin="bevel" stroke-miterlimit="10"/><path fill="none" stroke="rgb(0,0,0)" paint-order="fill" d="M 22.5 316.5 L 26.5 316.5 M 22.5 308.5 L 26.5 308.5 M 22.5 299.5 L 26.5 299.5 M 22.5 291.5 L 26.5 291.5 M 22.5 282.5 L 26.5 282.5 M 22.5 274.5 L 26.5 274.5 M 22.5 265.5 L 26.5 265.5 M 22.5 257.5 L 26.5 257.5 M 22.5 249.5 L 26.5 249.5 M 22.5 240.5 L 26.5 240.5 M 22.5 232.5 L 26.5 232.5 M 22.5 223.5 L 26.5 223.5 M 22.5 215.5 L 26.5 215.5 M 22.5 206.5 L 26.5 206.5 M 22.5 198.5 L 26.5 198.5 M 22.5 189.5 L 26.5 189.5 M 22.5 181.5 L 26.5 181.5 M 22.5 173.5 L 26.5 173.5 M 22.5 164.5 L 26.5 164.5 M 22.5 156.5 L 26.5 156.5 M 22.5 147.5 L 26.5 147.5 M 22.5 139.5 L 26.5 139.5 M 22.5 130.5 L 26.5 130.5 M 22.5 122.5 L 26.5 122.5 M 22.5 114.5 L 26.5 114.5 M 22.5 105.5 L 26.5 105.5 M 22.5 97.5 L 26.5 97.5 M 22.5 88.5 L 26.5 88.5 M 22.5 80.5 L 26.5 80.5 M 22.5 71.5 L 26.5 71.5 M 22.5 63.5 L 26.5 63.5 M 22.5 54.5 L 26.5 54.5 M 22.5 46.5 L 26.5 46.5 M 22.5 38.5 L 26.5 38.5 M 22.5 29.5 L 26.5 29.5" stroke-opacity="1" stroke-linejoin="bevel" stroke-miterlimit="10"/><text fill="rgb(68,68,68)" stroke="none" font-family="helvetica" font-size="11px" font-style="normal" font-weight="normal" text-decoration="normal" x="8.88232421875" y="320" text-anchor="start" dominant-baseline="alphabetic" transform="matrix(1, 0, 0, 1, 0.5, 0.5)" fill-opacity="1">0</text><text fill="none" stroke="rgb(0,0,0)" font-family="helvetica" font-size="11px" font-style="normal" font-weight="normal" text-decoration="normal" x="8.88232421875" y="320" text-anchor="start" dominant-baseline="alphabetic" transform="matrix(1, 0, 0, 1, 0.5, 0.5)" stroke-opacity="0" stroke-linejoin="bevel" stroke-miterlimit="10">0</text><text fill="rgb(68,68,68)" stroke="none" font-family="helvetica" font-size="11px" font-style="normal" font-weight="normal" text-decoration="normal" x="8.88232421875" y="277.812744140625" text-anchor="start" dominant-baseline="alphabetic" transform="matrix(1, 0, 0, 1, 0.5, 0.5)" fill-opacity="1">5</text><text fill="none" stroke="rgb(0,0,0)" font-family="helvetica" font-size="11px" font-style="normal" font-weight="normal" text-decoration="normal" x="8.88232421875" y="277.812744140625" text-anchor="start" dominant-baseline="alphabetic" transform="matrix(1, 0, 0, 1, 0.5, 0.5)" stroke-opacity="0" stroke-linejoin="bevel" stroke-miterlimit="10">5</text><text fill="rgb(68,68,68)" stroke="none" font-family="helvetica" font-size="11px" font-style="normal" font-weight="normal" text-decoration="normal" x="2.7646484375" y="235.62548828125" text-anchor="start" dominant-baseline="alphabetic" transform="matrix(1, 0, 0, 1, 0.5, 0.5)" fill-opacity="1">10</text><text fill="none" stroke="rgb(0,0,0)" font-family="helvetica" font-size="11px" font-style="normal" font-weight="normal" text-decoration="normal" x="2.7646484375" y="235.62548828125" text-anchor="start" dominant-baseline="alphabetic" transform="matrix(1, 0, 0, 1, 0.5, 0.5)" stroke-opacity="0" stroke-linejoin="bevel" stroke-miterlimit="10">10</text><text fill="rgb(68,68,68)" stroke="none" font-family="helvetica" font-size="11px" font-style="normal" font-weight="normal" text-decoration="normal" x="2.7646484375" y="193.438232421875" text-anchor="start" dominant-baseline="alphabetic" transform="matrix(1, 0, 0, 1, 0.5, 0.5)" fill-opacity="1">15</text><text fill="none" stroke="rgb(0,0,0)" font-family="helvetica" font-size="11px" font-style="normal" font-weight="normal" text-decoration="normal" x="2.7646484375" y="193.438232421875" text-anchor="start" dominant-baseline="alphabetic" transform="matrix(1, 0, 0, 1, 0.5, 0.5)" stroke-opacity="0" stroke-linejoin="bevel" stroke-miterlimit="10">15</text><text fill="rgb(68,68,68)" stroke="none" font-family="helvetica" font-size="11px" font-style="normal" font-weight="normal" text-decoration="normal" x="2.7646484375" y="151.2509765625" text-anchor="start" dominant-baseline="alphabetic" transform="matrix(1, 0, 0, 1, 0.5, 0.5)" fill-opacity="1">20</text><text fill="none" stroke="rgb(0,0,0)" font-family="helvetica" font-size="11px" font-style="normal" font-weight="normal" text-decoration="normal" x="2.7646484375" y="151.2509765625" text-anchor="start" dominant-baseline="alphabetic" transform="matrix(1, 0, 0, 1, 0.5, 0.5)" stroke-opacity="0" stroke-linejoin="bevel" stroke-miterlimit="10">20</text><text fill="rgb(68,68,68)" stroke="none" font-family="helvetica" font-size="11px" font-style="normal" font-weight="normal" text-decoration="normal" x="2.7646484375" y="109.063720703125" text-anchor="start" dominant-baseline="alphabetic" transform="matrix(1, 0, 0, 1, 0.5, 0.5)" fill-opacity="1">25</text><text fill="none" stroke="rgb(0,0,0)" font-family="helvetica" font-size="11px" font-style="normal" font-weight="normal" text-decoration="normal" x="2.7646484375" y="109.063720703125" text-anchor="start" dominant-baseline="alphabetic" transform="matrix(1, 0, 0, 1, 0.5, 0.5)" stroke-opacity="0" stroke-linejoin="bevel" stroke-miterlimit="10">25</text><text fill="rgb(68,68,68)" stroke="none" font-family="helvetica" font-size="11px" font-style="normal" font-weight="normal" text-decoration="normal" x="2.7646484375" y="66.87646484375" text-anchor="start" dominant-baseline="alphabetic" transform="matrix(1, 0, 0, 1, 0.5, 0.5)" fill-opacity="1">30</text><text fill="none" stroke="rgb(0,0,0)" font-family="helvetica" font-size="11px" font-style="normal" font-weight="normal" text-decoration="normal" x="2.7646484375" y="66.87646484375" text-anchor="start" dominant-baseline="alphabetic" transform="matrix(1, 0, 0, 1, 0.5, 0.5)" stroke-opacity="0" stroke-linejoin="bevel" stroke-miterlimit="10">30</text><text fill="rgb(68,68,68)" stroke="none" font-family="helvetica" font-size="13px" font-style="normal" font-weight="bold" text-decoration="normal" x="0" y="12" text-anchor="start" dominant-baseline="alphabetic" transform="matrix(1, 0, 0, 1, 26.5, 7.5)" fill-opacity="1">Time needed to perform 100000 dumps and loads</text><text fill="none" stroke="rgb(0,0,0)" font-family="helvetica" font-size="13px" font-style="normal" font-weight="bold" text-decoration="normal" x="0" y="12" text-anchor="start" dominant-baseline="alphabetic" transform="matrix(1, 0, 0, 1, 26.5, 7.5)" stroke-opacity="0" stroke-miterlimit="10" stroke-dasharray="">Time needed to perform 100000 dumps and loads</text></svg>