<svg version="1.1" xmlns="http://www.w3.org/2000/svg" width="800" height="400"><defs><clipPath id="dGdnhiWztevo"><path fill="none" stroke="none" d="M 0.5 0.5 L 800.5 0.5 L 800.5 400.5 L 0.5 400.5 L 0.5 0.5 Z M 38.5 27.5 L 770.5 27.5 L 770.5 306.5 L 38.5 306.5 L 38.5 27.5 Z" clip-rule="evenodd"/></clipPath><clipPath id="MxdRXFVDsGwP"><path fill="none" stroke="none" d="M 38.5 27.5 L 770.5 27.5 L 770.5 306.5 L 38.5 306.5 L 38.5 27.5 Z"/></clipPath><clipPath id="EmAhUgEkoZwR"><path fill="none" stroke="none" d="M 38.5 27.5 L 770.5 27.5 L 770.5 306.5 L 38.5 306.5 L 38.5 27.5 Z"/></clipPath><clipPath id="ynbRsQJlxgva"><path fill="none" stroke="none" d="M 38.5 27.5 L 770.5 27.5 L 770.5 306.5 L 38.5 306.5 L 38.5 27.5 Z"/></clipPath><clipPath id="qugMDsZlnvpw"><path fill="none" stroke="none" d="M 38.5 27.5 L 770.5 27.5 L 770.5 306.5 L 38.5 306.5 L 38.5 27.5 Z"/></clipPath></defs><path fill="rgb(255,255,255)" stroke="none" paint-order="stroke" d="M 0.5 0.5 L 800.5 0.5 L 800.5 400.5 L 0.5 400.5 L 0.5 0.5 Z" fill-opacity="1" clip-path="url(#dGdnhiWztevo)"/><path fill="rgb(255,255,255)" stroke="none" paint-order="stroke" d="M 38.5 27.5 L 770.5 27.5 L 770.5 306.5 L 38.5 306.5 L 38.5 27.5 Z" fill-opacity="1"/><path fill="none" stroke="rgb(229,229,229)" paint-order="fill" d="M 38.5 27.5 L 770.5 27.5 L 770.5 306.5 L 38.5 306.5 L 38.5 27.5 Z" stroke-opacity="1" stroke-linejoin="bevel" stroke-miterlimit="10"/><path fill="none" stroke="rgb(229,229,229)" paint-order="fill" d="M 38.5 263.5 L 770.5 263.5 M 38.5 220.5 L 770.5 220.5 M 38.5 176.5 L 770.5 176.5 M 38.5 133.5 L 770.5 133.5 M 38.5 90.5 L 770.5 90.5 M 38.5 47.5 L 770.5 47.5" stroke-opacity="1" stroke-linejoin="bevel" stroke-miterlimit="10" clip-path="url(#EmAhUgEkoZwR)"/><path fill="rgb(31,119,180)" stroke="rgb(255,255,255)" paint-order="fill" d="M 73.1036376953125 273.24139404296875 L 97.05999755859375 273.24139404296875 L 97.05999755859375 306.5 L 73.1036376953125 306.5 L 73.1036376953125 273.24139404296875 Z" fill-opacity="1" clip-path="url(#ynbRsQJlxgva)" stroke-opacity="1" stroke-linejoin="bevel" stroke-miterlimit="10"/><path fill="rgb(255,127,14)" stroke="rgb(255,255,255)" paint-order="fill" d="M 99.72181701660156 252.2362060546875 L 123.67817687988281 252.2362060546875 L 123.67817687988281 306.5 L 99.72181701660156 306.5 L 99.72181701660156 252.2362060546875 Z" fill-opacity="1" clip-path="url(#ynbRsQJlxgva)" stroke-opacity="1" stroke-linejoin="bevel" stroke-miterlimit="10"/><path fill="rgb(44,160,44)" stroke="rgb(255,255,255)" paint-order="fill" d="M 126.33999633789062 266.8477783203125 L 150.29635620117188 266.8477783203125 L 150.29635620117188 306.5 L 126.33999633789062 306.5 L 126.33999633789062 266.8477783203125 Z" fill-opacity="1" clip-path="url(#ynbRsQJlxgva)" stroke-opacity="1" stroke-linejoin="bevel" stroke-miterlimit="10"/><path fill="rgb(31,119,180)" stroke="rgb(255,255,255)" paint-order="fill" d="M 190.22364807128906 120.72782135009766 L 214.1800079345703 120.72782135009766 L 214.1800079345703 306.5 L 190.22364807128906 306.5 L 190.22364807128906 120.72782135009766 Z" fill-opacity="1" clip-path="url(#ynbRsQJlxgva)" stroke-opacity="1" stroke-linejoin="bevel" stroke-miterlimit="10"/><path fill="rgb(255,127,14)" stroke="rgb(255,255,255)" paint-order="fill" d="M 216.84182739257812 77.88957214355469 L 240.79818725585938 77.88957214355469 L 240.79818725585938 306.5 L 216.84182739257812 306.5 L 216.84182739257812 77.88957214355469 Z" fill-opacity="1" clip-path="url(#ynbRsQJlxgva)" stroke-opacity="1" stroke-linejoin="bevel" stroke-miterlimit="10"/><path fill="rgb(44,160,44)" stroke="rgb(255,255,255)" paint-order="fill" d="M 243.4600067138672 40.78571319580078 L 267.4163818359375 40.78571319580078 L 267.4163818359375 306.5 L 243.4600067138672 306.5 L 243.4600067138672 40.78571319580078 Z" fill-opacity="1" clip-path="url(#ynbRsQJlxgva)" stroke-opacity="1" stroke-linejoin="bevel" stroke-miterlimit="10"/><path fill="rgb(31,119,180)" stroke="rgb(255,255,255)" paint-order="fill" d="M 307.3436584472656 121.22927856445312 L 331.3000183105469 121.22927856445312 L 331.3000183105469 306.5 L 307.3436584472656 306.5 L 307.3436584472656 121.22927856445312 Z" fill-opacity="1" clip-path="url(#ynbRsQJlxgva)" stroke-opacity="1" stroke-linejoin="bevel" stroke-miterlimit="10"/><path fill="rgb(255,127,14)" stroke="rgb(255,255,255)" paint-order="fill" d="M 333.9618225097656 79.40044403076172 L 357.9181823730469 79.40044403076172 L 357.9181823730469 306.5 L 333.9618225097656 306.5 L 333.9618225097656 79.40044403076172 Z" fill-opacity="1" clip-path="url(#ynbRsQJlxgva)" stroke-opacity="1" stroke-linejoin="bevel" stroke-miterlimit="10"/><path fill="rgb(44,160,44)" stroke="rgb(255,255,255)" paint-order="fill" d="M 360.58001708984375 46.80974197387695 L 384.536376953125 46.80974197387695 L 384.536376953125 306.5 L 360.58001708984375 306.5 L 360.58001708984375 46.80974197387695 Z" fill-opacity="1" clip-path="url(#ynbRsQJlxgva)" stroke-opacity="1" stroke-linejoin="bevel" stroke-miterlimit="10"/><path fill="rgb(31,119,180)" stroke="rgb(255,255,255)" paint-order="fill" d="M 424.463623046875 119.94320678710938 L 448.41998291015625 119.94320678710938 L 448.41998291015625 306.5 L 424.463623046875 306.5 L 424.463623046875 119.94320678710938 Z" fill-opacity="1" clip-path="url(#ynbRsQJlxgva)" stroke-opacity="1" stroke-linejoin="bevel" stroke-miterlimit="10"/><path fill="rgb(255,127,14)" stroke="rgb(255,255,255)" paint-order="fill" d="M 451.0818176269531 78.56394958496094 L 475.0381774902344 78.56394958496094 L 475.0381774902344 306.5 L 451.0818176269531 306.5 L 451.0818176269531 78.56394958496094 Z" fill-opacity="1" clip-path="url(#ynbRsQJlxgva)" stroke-opacity="1" stroke-linejoin="bevel" stroke-miterlimit="10"/><path fill="rgb(44,160,44)" stroke="rgb(255,255,255)" paint-order="fill" d="M 477.6999816894531 49.18736267089844 L 501.6563415527344 49.18736267089844 L 501.6563415527344 306.5 L 477.6999816894531 306.5 L 477.6999816894531 49.18736267089844 Z" fill-opacity="1" clip-path="url(#ynbRsQJlxgva)" stroke-opacity="1" stroke-linejoin="bevel" stroke-miterlimit="10"/><path fill="rgb(31,119,180)" stroke="rgb(255,255,255)" paint-order="fill" d="M 541.5836181640625 122.30569458007812 L 565.5400390625 122.30569458007812 L 565.5400390625 306.5 L 541.5836181640625 306.5 L 541.5836181640625 122.30569458007812 Z" fill-opacity="1" clip-path="url(#ynbRsQJlxgva)" stroke-opacity="1" stroke-linejoin="bevel" stroke-miterlimit="10"/><path fill="rgb(255,127,14)" stroke="rgb(255,255,255)" paint-order="fill" d="M 568.2017822265625 80.39688110351562 L 592.158203125 80.39688110351562 L 592.158203125 306.5 L 568.2017822265625 306.5 L 568.2017822265625 80.39688110351562 Z" fill-opacity="1" clip-path="url(#ynbRsQJlxgva)" stroke-opacity="1" stroke-linejoin="bevel" stroke-miterlimit="10"/><path fill="rgb(44,160,44)" stroke="rgb(255,255,255)" paint-order="fill" d="M 594.8200073242188 48.1109504699707 L 618.7764282226562 48.1109504699707 L 618.7764282226562 306.5 L 594.8200073242188 306.5 L 594.8200073242188 48.1109504699707 Z" fill-opacity="1" clip-path="url(#ynbRsQJlxgva)" stroke-opacity="1" stroke-linejoin="bevel" stroke-miterlimit="10"/><path fill="rgb(31,119,180)" stroke="rgb(255,255,255)" paint-order="fill" d="M 658.70361328125 153.3012237548828 L 682.6600341796875 153.3012237548828 L 682.6600341796875 306.5 L 658.70361328125 306.5 L 658.70361328125 153.3012237548828 Z" fill-opacity="1" clip-path="url(#ynbRsQJlxgva)" stroke-opacity="1" stroke-linejoin="bevel" stroke-miterlimit="10"/><path fill="rgb(255,127,14)" stroke="rgb(255,255,255)" paint-order="fill" d="M 685.32177734375 81.58136749267578 L 709.2781982421875 81.58136749267578 L 709.2781982421875 306.5 L 685.32177734375 306.5 L 685.32177734375 81.58136749267578 Z" fill-opacity="1" clip-path="url(#ynbRsQJlxgva)" stroke-opacity="1" stroke-linejoin="bevel" stroke-miterlimit="10"/><path fill="rgb(44,160,44)" stroke="rgb(255,255,255)" paint-order="fill" d="M 711.93994140625 53.43898010253906 L 735.8963623046875 53.43898010253906 L 735.8963623046875 306.5 L 711.93994140625 306.5 L 711.93994140625 53.43898010253906 Z" fill-opacity="1" clip-path="url(#ynbRsQJlxgva)" stroke-opacity="1" stroke-linejoin="bevel" stroke-miterlimit="10"/><path fill="none" stroke="rgb(0,0,0)" paint-order="fill" d="M 38.5 306.5 L 770.5 306.5" stroke-opacity="1" stroke-linejoin="bevel" stroke-miterlimit="10"/><path fill="none" stroke="rgb(0,0,0)" paint-order="fill" d="M 85.5 312.5 L 85.5 304.5 M 111.5 312.5 L 111.5 304.5 M 138.5 312.5 L 138.5 304.5 M 202.5 312.5 L 202.5 304.5 M 228.5 312.5 L 228.5 304.5 M 255.5 312.5 L 255.5 304.5 M 319.5 312.5 L 319.5 304.5 M 345.5 312.5 L 345.5 304.5 M 372.5 312.5 L 372.5 304.5 M 436.5 312.5 L 436.5 304.5 M 463.5 312.5 L 463.5 304.5 M 489.5 312.5 L 489.5 304.5 M 553.5 312.5 L 553.5 304.5 M 580.5 312.5 L 580.5 304.5 M 606.5 312.5 L 606.5 304.5 M 670.5 312.5 L 670.5 304.5 M 697.5 312.5 L 697.5 304.5 M 723.5 312.5 L 723.5 304.5" stroke-opacity="1" stroke-linejoin="bevel" stroke-miterlimit="10"/><path fill="none" stroke="rgb(0,0,0)" paint-order="fill" d="" stroke-opacity="1" stroke-linejoin="bevel" stroke-miterlimit="10"/><text fill="rgb(68,68,68)" stroke="none" font-family="helvetica" font-size="11px" font-style="normal" font-weight="normal" text-decoration="normal" x="49.723419189453125" y="321" text-anchor="start" dominant-baseline="alphabetic" transform="matrix(0.5403023058681398, -0.8414709848078965, 0.8414709848078965, 0.5403023058681398, -227.36423565551127, 217.39731441519385)" fill-opacity="1">Django</text><text fill="none" stroke="rgb(0,0,0)" font-family="helvetica" font-size="11px" font-style="normal" font-weight="normal" text-decoration="normal" x="49.723419189453125" y="321" text-anchor="start" dominant-baseline="alphabetic" transform="matrix(0.5403023058681398, -0.8414709848078965, 0.8414709848078965, 0.5403023058681398, -227.36423565551127, 217.39731441519385)" stroke-opacity="0" stroke-linejoin="bevel" stroke-miterlimit="10">Django</text><text fill="rgb(68,68,68)" stroke="none" font-family="helvetica" font-size="11px" font-style="normal" font-weight="normal" text-decoration="normal" x="42.71855163574219" y="321" text-anchor="start" dominant-baseline="alphabetic" transform="matrix(0.5403023058681398, -0.8414709848078965, 0.8414709848078965, 0.5403023058681398, -215.12791999952634, 239.79573998247213)" fill-opacity="1">Django-orjson</text><text fill="none" stroke="rgb(0,0,0)" font-family="helvetica" font-size="11px" font-style="normal" font-weight="normal" text-decoration="normal" x="42.71855163574219" y="321" text-anchor="start" dominant-baseline="alphabetic" transform="matrix(0.5403023058681398, -0.8414709848078965, 0.8414709848078965, 0.5403023058681398, -215.12791999952634, 239.79573998247213)" stroke-opacity="0" stroke-linejoin="bevel" stroke-miterlimit="10">Django-orjson</text><text fill="rgb(68,68,68)" stroke="none" font-family="helvetica" font-size="11px" font-style="normal" font-weight="normal" text-decoration="normal" x="105.41973876953125" y="321" text-anchor="start" dominant-baseline="alphabetic" transform="matrix(0.5403023058681398, -0.8414709848078965, 0.8414709848078965, 0.5403023058681398, -202.89160434354142, 262.19416554975044)" fill-opacity="1">Go-chi</text><text fill="none" stroke="rgb(0,0,0)" font-family="helvetica" font-size="11px" font-style="normal" font-weight="normal" text-decoration="normal" x="105.41973876953125" y="321" text-anchor="start" dominant-baseline="alphabetic" transform="matrix(0.5403023058681398, -0.8414709848078965, 0.8414709848078965, 0.5403023058681398, -202.89160434354142, 262.19416554975044)" stroke-opacity="0" stroke-linejoin="bevel" stroke-miterlimit="10">Go-chi</text><text fill="rgb(68,68,68)" stroke="none" font-family="helvetica" font-size="11px" font-style="normal" font-weight="normal" text-decoration="normal" x="166.84341430664062" y="321" text-anchor="start" dominant-baseline="alphabetic" transform="matrix(0.5403023058681398, -0.8414709848078965, 0.8414709848078965, 0.5403023058681398, -173.52444396340547, 315.95039204714965)" fill-opacity="1">Django</text><text fill="none" stroke="rgb(0,0,0)" font-family="helvetica" font-size="11px" font-style="normal" font-weight="normal" text-decoration="normal" x="166.84341430664062" y="321" text-anchor="start" dominant-baseline="alphabetic" transform="matrix(0.5403023058681398, -0.8414709848078965, 0.8414709848078965, 0.5403023058681398, -173.52444396340547, 315.95039204714965)" stroke-opacity="0" stroke-linejoin="bevel" stroke-miterlimit="10">Django</text><text fill="rgb(68,68,68)" stroke="none" font-family="helvetica" font-size="11px" font-style="normal" font-weight="normal" text-decoration="normal" x="159.83856201171875" y="321" text-anchor="start" dominant-baseline="alphabetic" transform="matrix(0.5403023058681398, -0.8414709848078965, 0.8414709848078965, 0.5403023058681398, -161.28812129299035, 338.3488304542562)" fill-opacity="1">Django-orjson</text><text fill="none" stroke="rgb(0,0,0)" font-family="helvetica" font-size="11px" font-style="normal" font-weight="normal" text-decoration="normal" x="159.83856201171875" y="321" text-anchor="start" dominant-baseline="alphabetic" transform="matrix(0.5403023058681398, -0.8414709848078965, 0.8414709848078965, 0.5403023058681398, -161.28812129299035, 338.3488304542562)" stroke-opacity="0" stroke-linejoin="bevel" stroke-miterlimit="10">Django-orjson</text><text fill="rgb(68,68,68)" stroke="none" font-family="helvetica" font-size="11px" font-style="normal" font-weight="normal" text-decoration="normal" x="222.5397491455078" y="321" text-anchor="start" dominant-baseline="alphabetic" transform="matrix(0.5403023058681398, -0.8414709848078965, 0.8414709848078965, 0.5403023058681398, -149.05180563700543, 360.7472560215345)" fill-opacity="1">Go-chi</text><text fill="none" stroke="rgb(0,0,0)" font-family="helvetica" font-size="11px" font-style="normal" font-weight="normal" text-decoration="normal" x="222.5397491455078" y="321" text-anchor="start" dominant-baseline="alphabetic" transform="matrix(0.5403023058681398, -0.8414709848078965, 0.8414709848078965, 0.5403023058681398, -149.05180563700543, 360.7472560215345)" stroke-opacity="0" stroke-linejoin="bevel" stroke-miterlimit="10">Go-chi</text><text fill="rgb(68,68,68)" stroke="none" font-family="helvetica" font-size="11px" font-style="normal" font-weight="normal" text-decoration="normal" x="283.9634094238281" y="321" text-anchor="start" dominant-baseline="alphabetic" transform="matrix(0.5403023058681398, -0.8414709848078965, 0.8414709848078965, 0.5403023058681398, -119.68465227129968, 414.5034696791055)" fill-opacity="1">Django</text><text fill="none" stroke="rgb(0,0,0)" font-family="helvetica" font-size="11px" font-style="normal" font-weight="normal" text-decoration="normal" x="283.9634094238281" y="321" text-anchor="start" dominant-baseline="alphabetic" transform="matrix(0.5403023058681398, -0.8414709848078965, 0.8414709848078965, 0.5403023058681398, -119.68465227129968, 414.5034696791055)" stroke-opacity="0" stroke-linejoin="bevel" stroke-miterlimit="10">Django</text><text fill="rgb(68,68,68)" stroke="none" font-family="helvetica" font-size="11px" font-style="normal" font-weight="normal" text-decoration="normal" x="276.95855712890625" y="321" text-anchor="start" dominant-baseline="alphabetic" transform="matrix(0.5403023058681398, -0.8414709848078965, 0.8414709848078965, 0.5403023058681398, -107.44832960088456, 436.90190808621196)" fill-opacity="1">Django-orjson</text><text fill="none" stroke="rgb(0,0,0)" font-family="helvetica" font-size="11px" font-style="normal" font-weight="normal" text-decoration="normal" x="276.95855712890625" y="321" text-anchor="start" dominant-baseline="alphabetic" transform="matrix(0.5403023058681398, -0.8414709848078965, 0.8414709848078965, 0.5403023058681398, -107.44832960088456, 436.90190808621196)" stroke-opacity="0" stroke-linejoin="bevel" stroke-miterlimit="10">Django-orjson</text><text fill="rgb(68,68,68)" stroke="none" font-family="helvetica" font-size="11px" font-style="normal" font-weight="normal" text-decoration="normal" x="339.6597595214844" y="321" text-anchor="start" dominant-baseline="alphabetic" transform="matrix(0.5403023058681398, -0.8414709848078965, 0.8414709848078965, 0.5403023058681398, -95.21200693046944, 459.30034649331856)" fill-opacity="1">Go-chi</text><text fill="none" stroke="rgb(0,0,0)" font-family="helvetica" font-size="11px" font-style="normal" font-weight="normal" text-decoration="normal" x="339.6597595214844" y="321" text-anchor="start" dominant-baseline="alphabetic" transform="matrix(0.5403023058681398, -0.8414709848078965, 0.8414709848078965, 0.5403023058681398, -95.21200693046944, 459.30034649331856)" stroke-opacity="0" stroke-linejoin="bevel" stroke-miterlimit="10">Go-chi</text><text fill="rgb(68,68,68)" stroke="none" font-family="helvetica" font-size="11px" font-style="normal" font-weight="normal" text-decoration="normal" x="401.0834045410156" y="321" text-anchor="start" dominant-baseline="alphabetic" transform="matrix(0.5403023058681398, -0.8414709848078965, 0.8414709848078965, 0.5403023058681398, -65.84486057919378, 513.0565473110612)" fill-opacity="1">Django</text><text fill="none" stroke="rgb(0,0,0)" font-family="helvetica" font-size="11px" font-style="normal" font-weight="normal" text-decoration="normal" x="401.0834045410156" y="321" text-anchor="start" dominant-baseline="alphabetic" transform="matrix(0.5403023058681398, -0.8414709848078965, 0.8414709848078965, 0.5403023058681398, -65.84486057919378, 513.0565473110612)" stroke-opacity="0" stroke-linejoin="bevel" stroke-miterlimit="10">Django</text><text fill="rgb(68,68,68)" stroke="none" font-family="helvetica" font-size="11px" font-style="normal" font-weight="normal" text-decoration="normal" x="394.07855224609375" y="321" text-anchor="start" dominant-baseline="alphabetic" transform="matrix(0.5403023058681398, -0.8414709848078965, 0.8414709848078965, 0.5403023058681398, -53.60853790877877, 535.4549857181678)" fill-opacity="1">Django-orjson</text><text fill="none" stroke="rgb(0,0,0)" font-family="helvetica" font-size="11px" font-style="normal" font-weight="normal" text-decoration="normal" x="394.07855224609375" y="321" text-anchor="start" dominant-baseline="alphabetic" transform="matrix(0.5403023058681398, -0.8414709848078965, 0.8414709848078965, 0.5403023058681398, -53.60853790877877, 535.4549857181678)" stroke-opacity="0" stroke-linejoin="bevel" stroke-miterlimit="10">Django-orjson</text><text fill="rgb(68,68,68)" stroke="none" font-family="helvetica" font-size="11px" font-style="normal" font-weight="normal" text-decoration="normal" x="456.7797546386719" y="321" text-anchor="start" dominant-baseline="alphabetic" transform="matrix(0.5403023058681398, -0.8414709848078965, 0.8414709848078965, 0.5403023058681398, -41.37221523836365, 557.8534241252744)" fill-opacity="1">Go-chi</text><text fill="none" stroke="rgb(0,0,0)" font-family="helvetica" font-size="11px" font-style="normal" font-weight="normal" text-decoration="normal" x="456.7797546386719" y="321" text-anchor="start" dominant-baseline="alphabetic" transform="matrix(0.5403023058681398, -0.8414709848078965, 0.8414709848078965, 0.5403023058681398, -41.37221523836365, 557.8534241252744)" stroke-opacity="0" stroke-linejoin="bevel" stroke-miterlimit="10">Go-chi</text><text fill="rgb(68,68,68)" stroke="none" font-family="helvetica" font-size="11px" font-style="normal" font-weight="normal" text-decoration="normal" x="518.2034301757812" y="321" text-anchor="start" dominant-baseline="alphabetic" transform="matrix(0.5403023058681398, -0.8414709848078965, 0.8414709848078965, 0.5403023058681398, -12.005054858227709, 611.6096506226736)" fill-opacity="1">Django</text><text fill="none" stroke="rgb(0,0,0)" font-family="helvetica" font-size="11px" font-style="normal" font-weight="normal" text-decoration="normal" x="518.2034301757812" y="321" text-anchor="start" dominant-baseline="alphabetic" transform="matrix(0.5403023058681398, -0.8414709848078965, 0.8414709848078965, 0.5403023058681398, -12.005054858227709, 611.6096506226736)" stroke-opacity="0" stroke-linejoin="bevel" stroke-miterlimit="10">Django</text><text fill="rgb(68,68,68)" stroke="none" font-family="helvetica" font-size="11px" font-style="normal" font-weight="normal" text-decoration="normal" x="511.19854736328125" y="321" text-anchor="start" dominant-baseline="alphabetic" transform="matrix(0.5403023058681398, -0.8414709848078965, 0.8414709848078965, 0.5403023058681398, 0.23125378332701985, 634.0080633501236)" fill-opacity="1">Django-orjson</text><text fill="none" stroke="rgb(0,0,0)" font-family="helvetica" font-size="11px" font-style="normal" font-weight="normal" text-decoration="normal" x="511.19854736328125" y="321" text-anchor="start" dominant-baseline="alphabetic" transform="matrix(0.5403023058681398, -0.8414709848078965, 0.8414709848078965, 0.5403023058681398, 0.23125378332701985, 634.0080633501236)" stroke-opacity="0" stroke-linejoin="bevel" stroke-miterlimit="10">Django-orjson</text><text fill="rgb(68,68,68)" stroke="none" font-family="helvetica" font-size="11px" font-style="normal" font-weight="normal" text-decoration="normal" x="573.8997192382812" y="321" text-anchor="start" dominant-baseline="alphabetic" transform="matrix(0.5403023058681398, -0.8414709848078965, 0.8414709848078965, 0.5403023058681398, 12.467562424881862, 656.4064760775736)" fill-opacity="1">Go-chi</text><text fill="none" stroke="rgb(0,0,0)" font-family="helvetica" font-size="11px" font-style="normal" font-weight="normal" text-decoration="normal" x="573.8997192382812" y="321" text-anchor="start" dominant-baseline="alphabetic" transform="matrix(0.5403023058681398, -0.8414709848078965, 0.8414709848078965, 0.5403023058681398, 12.467562424881862, 656.4064760775736)" stroke-opacity="0" stroke-linejoin="bevel" stroke-miterlimit="10">Go-chi</text><text fill="rgb(68,68,68)" stroke="none" font-family="helvetica" font-size="11px" font-style="normal" font-weight="normal" text-decoration="normal" x="635.3234252929688" y="321" text-anchor="start" dominant-baseline="alphabetic" transform="matrix(0.5403023058681398, -0.8414709848078965, 0.8414709848078965, 0.5403023058681398, 41.834736833878196, 710.1627282546293)" fill-opacity="1">Django</text><text fill="none" stroke="rgb(0,0,0)" font-family="helvetica" font-size="11px" font-style="normal" font-weight="normal" text-decoration="normal" x="635.3234252929688" y="321" text-anchor="start" dominant-baseline="alphabetic" transform="matrix(0.5403023058681398, -0.8414709848078965, 0.8414709848078965, 0.5403023058681398, 41.834736833878196, 710.1627282546293)" stroke-opacity="0" stroke-linejoin="bevel" stroke-miterlimit="10">Django</text><text fill="rgb(68,68,68)" stroke="none" font-family="helvetica" font-size="11px" font-style="normal" font-weight="normal" text-decoration="normal" x="628.3185424804688" y="321" text-anchor="start" dominant-baseline="alphabetic" transform="matrix(0.5403023058681398, -0.8414709848078965, 0.8414709848078965, 0.5403023058681398, 54.071045475432925, 732.5611409820793)" fill-opacity="1">Django-orjson</text><text fill="none" stroke="rgb(0,0,0)" font-family="helvetica" font-size="11px" font-style="normal" font-weight="normal" text-decoration="normal" x="628.3185424804688" y="321" text-anchor="start" dominant-baseline="alphabetic" transform="matrix(0.5403023058681398, -0.8414709848078965, 0.8414709848078965, 0.5403023058681398, 54.071045475432925, 732.5611409820793)" stroke-opacity="0" stroke-linejoin="bevel" stroke-miterlimit="10">Django-orjson</text><text fill="rgb(68,68,68)" stroke="none" font-family="helvetica" font-size="11px" font-style="normal" font-weight="normal" text-decoration="normal" x="691.0197143554688" y="321" text-anchor="start" dominant-baseline="alphabetic" transform="matrix(0.5403023058681398, -0.8414709848078965, 0.8414709848078965, 0.5403023058681398, 66.30735411698765, 754.9595537095294)" fill-opacity="1">Go-chi</text><text fill="none" stroke="rgb(0,0,0)" font-family="helvetica" font-size="11px" font-style="normal" font-weight="normal" text-decoration="normal" x="691.0197143554688" y="321" text-anchor="start" dominant-baseline="alphabetic" transform="matrix(0.5403023058681398, -0.8414709848078965, 0.8414709848078965, 0.5403023058681398, 66.30735411698765, 754.9595537095294)" stroke-opacity="0" stroke-linejoin="bevel" stroke-miterlimit="10">Go-chi</text><text fill="rgb(128,128,128)" stroke="none" font-family="helvetica" font-size="11px" font-style="normal" font-weight="bold" text-decoration="normal" x="108.14115905761719" y="397.1087768985952" text-anchor="start" dominant-baseline="alphabetic" transform="matrix(1, 0, 0, 1, 0.5, 0.5)" fill-opacity="1">1</text><text fill="none" stroke="rgb(0,0,0)" font-family="helvetica" font-size="11px" font-style="normal" font-weight="bold" text-decoration="normal" x="108.14115905761719" y="397.1087768985952" text-anchor="start" dominant-baseline="alphabetic" transform="matrix(1, 0, 0, 1, 0.5, 0.5)" stroke-opacity="0" stroke-linejoin="bevel" stroke-miterlimit="10">1</text><text fill="rgb(128,128,128)" stroke="none" font-family="helvetica" font-size="11px" font-style="normal" font-weight="bold" text-decoration="normal" x="222.20233154296875" y="397.1087768985952" text-anchor="start" dominant-baseline="alphabetic" transform="matrix(1, 0, 0, 1, 0.5, 0.5)" fill-opacity="1">50</text><text fill="none" stroke="rgb(0,0,0)" font-family="helvetica" font-size="11px" font-style="normal" font-weight="bold" text-decoration="normal" x="222.20233154296875" y="397.1087768985952" text-anchor="start" dominant-baseline="alphabetic" transform="matrix(1, 0, 0, 1, 0.5, 0.5)" stroke-opacity="0" stroke-linejoin="bevel" stroke-miterlimit="10">50</text><text fill="rgb(128,128,128)" stroke="none" font-family="helvetica" font-size="11px" font-style="normal" font-weight="bold" text-decoration="normal" x="336.26348876953125" y="397.1087768985952" text-anchor="start" dominant-baseline="alphabetic" transform="matrix(1, 0, 0, 1, 0.5, 0.5)" fill-opacity="1">100</text><text fill="none" stroke="rgb(0,0,0)" font-family="helvetica" font-size="11px" font-style="normal" font-weight="bold" text-decoration="normal" x="336.26348876953125" y="397.1087768985952" text-anchor="start" dominant-baseline="alphabetic" transform="matrix(1, 0, 0, 1, 0.5, 0.5)" stroke-opacity="0" stroke-linejoin="bevel" stroke-miterlimit="10">100</text><text fill="rgb(128,128,128)" stroke="none" font-family="helvetica" font-size="11px" font-style="normal" font-weight="bold" text-decoration="normal" x="453.38348388671875" y="397.1087768985952" text-anchor="start" dominant-baseline="alphabetic" transform="matrix(1, 0, 0, 1, 0.5, 0.5)" fill-opacity="1">150</text><text fill="none" stroke="rgb(0,0,0)" font-family="helvetica" font-size="11px" font-style="normal" font-weight="bold" text-decoration="normal" x="453.38348388671875" y="397.1087768985952" text-anchor="start" dominant-baseline="alphabetic" transform="matrix(1, 0, 0, 1, 0.5, 0.5)" stroke-opacity="0" stroke-linejoin="bevel" stroke-miterlimit="10">150</text><text fill="rgb(128,128,128)" stroke="none" font-family="helvetica" font-size="11px" font-style="normal" font-weight="bold" text-decoration="normal" x="570.5034790039062" y="397.1087768985952" text-anchor="start" dominant-baseline="alphabetic" transform="matrix(1, 0, 0, 1, 0.5, 0.5)" fill-opacity="1">200</text><text fill="none" stroke="rgb(0,0,0)" font-family="helvetica" font-size="11px" font-style="normal" font-weight="bold" text-decoration="normal" x="570.5034790039062" y="397.1087768985952" text-anchor="start" dominant-baseline="alphabetic" transform="matrix(1, 0, 0, 1, 0.5, 0.5)" stroke-opacity="0" stroke-linejoin="bevel" stroke-miterlimit="10">200</text><text fill="rgb(128,128,128)" stroke="none" font-family="helvetica" font-size="11px" font-style="normal" font-weight="bold" text-decoration="normal" x="687.6234741210938" y="397.1087768985952" text-anchor="start" dominant-baseline="alphabetic" transform="matrix(1, 0, 0, 1, 0.5, 0.5)" fill-opacity="1">250</text><text fill="none" stroke="rgb(0,0,0)" font-family="helvetica" font-size="11px" font-style="normal" font-weight="bold" text-decoration="normal" x="687.6234741210938" y="397.1087768985952" text-anchor="start" dominant-baseline="alphabetic" transform="matrix(1, 0, 0, 1, 0.5, 0.5)" stroke-opacity="0" stroke-linejoin="bevel" stroke-miterlimit="10">250</text><path fill="none" stroke="rgb(211,211,211)" paint-order="fill" d="M 170.5 388.5 L 170.5 309.5 M 287.5 388.5 L 287.5 309.5 M 404.5 388.5 L 404.5 309.5 M 521.5 388.5 L 521.5 309.5 M 638.5 388.5 L 638.5 309.5" stroke-opacity="1" stroke-linejoin="bevel" stroke-miterlimit="10" stroke-width="2"/><path fill="none" stroke="rgb(0,0,0)" paint-order="fill" d="M 38.5 306.5 L 38.5 27.5" stroke-opacity="1" stroke-linejoin="bevel" stroke-miterlimit="10"/><path fill="none" stroke="rgb(0,0,0)" paint-order="fill" d="M 32.5 306.5 L 40.5 306.5 M 32.5 263.5 L 40.5 263.5 M 32.5 220.5 L 40.5 220.5 M 32.5 176.5 L 40.5 176.5 M 32.5 133.5 L 40.5 133.5 M 32.5 90.5 L 40.5 90.5 M 32.5 47.5 L 40.5 47.5" stroke-opacity="1" stroke-linejoin="bevel" stroke-miterlimit="10"/><path fill="none" stroke="rgb(0,0,0)" paint-order="fill" d="M 34.5 306.5 L 38.5 306.5 M 34.5 297.5 L 38.5 297.5 M 34.5 289.5 L 38.5 289.5 M 34.5 280.5 L 38.5 280.5 M 34.5 271.5 L 38.5 271.5 M 34.5 263.5 L 38.5 263.5 M 34.5 254.5 L 38.5 254.5 M 34.5 245.5 L 38.5 245.5 M 34.5 237.5 L 38.5 237.5 M 34.5 228.5 L 38.5 228.5 M 34.5 220.5 L 38.5 220.5 M 34.5 211.5 L 38.5 211.5 M 34.5 202.5 L 38.5 202.5 M 34.5 194.5 L 38.5 194.5 M 34.5 185.5 L 38.5 185.5 M 34.5 176.5 L 38.5 176.5 M 34.5 168.5 L 38.5 168.5 M 34.5 159.5 L 38.5 159.5 M 34.5 150.5 L 38.5 150.5 M 34.5 142.5 L 38.5 142.5 M 34.5 133.5 L 38.5 133.5 M 34.5 124.5 L 38.5 124.5 M 34.5 116.5 L 38.5 116.5 M 34.5 107.5 L 38.5 107.5 M 34.5 98.5 L 38.5 98.5 M 34.5 90.5 L 38.5 90.5 M 34.5 81.5 L 38.5 81.5 M 34.5 73.5 L 38.5 73.5 M 34.5 64.5 L 38.5 64.5 M 34.5 55.5 L 38.5 55.5 M 34.5 47.5 L 38.5 47.5 M 34.5 38.5 L 38.5 38.5 M 34.5 29.5 L 38.5 29.5" stroke-opacity="1" stroke-linejoin="bevel" stroke-miterlimit="10"/><text fill="rgb(68,68,68)" stroke="none" font-family="helvetica" font-size="11px" font-style="normal" font-weight="normal" text-decoration="normal" x="20.88232421875" y="310" text-anchor="start" dominant-baseline="alphabetic" transform="matrix(1, 0, 0, 1, 0.5, 0.5)" fill-opacity="1">0</text><text fill="none" stroke="rgb(0,0,0)" font-family="helvetica" font-size="11px" font-style="normal" font-weight="normal" text-decoration="normal" x="20.88232421875" y="310" text-anchor="start" dominant-baseline="alphabetic" transform="matrix(1, 0, 0, 1, 0.5, 0.5)" stroke-opacity="0" stroke-linejoin="bevel" stroke-miterlimit="10">0</text><text fill="rgb(68,68,68)" stroke="none" font-family="helvetica" font-size="11px" font-style="normal" font-weight="normal" text-decoration="normal" x="8.64697265625" y="266.7705383300781" text-anchor="start" dominant-baseline="alphabetic" transform="matrix(1, 0, 0, 1, 0.5, 0.5)" fill-opacity="1">200</text><text fill="none" stroke="rgb(0,0,0)" font-family="helvetica" font-size="11px" font-style="normal" font-weight="normal" text-decoration="normal" x="8.64697265625" y="266.7705383300781" text-anchor="start" dominant-baseline="alphabetic" transform="matrix(1, 0, 0, 1, 0.5, 0.5)" stroke-opacity="0" stroke-linejoin="bevel" stroke-miterlimit="10">200</text><text fill="rgb(68,68,68)" stroke="none" font-family="helvetica" font-size="11px" font-style="normal" font-weight="normal" text-decoration="normal" x="8.64697265625" y="223.54104614257812" text-anchor="start" dominant-baseline="alphabetic" transform="matrix(1, 0, 0, 1, 0.5, 0.5)" fill-opacity="1">400</text><text fill="none" stroke="rgb(0,0,0)" font-family="helvetica" font-size="11px" font-style="normal" font-weight="normal" text-decoration="normal" x="8.64697265625" y="223.54104614257812" text-anchor="start" dominant-baseline="alphabetic" transform="matrix(1, 0, 0, 1, 0.5, 0.5)" stroke-opacity="0" stroke-linejoin="bevel" stroke-miterlimit="10">400</text><text fill="rgb(68,68,68)" stroke="none" font-family="helvetica" font-size="11px" font-style="normal" font-weight="normal" text-decoration="normal" x="8.64697265625" y="180.31158447265625" text-anchor="start" dominant-baseline="alphabetic" transform="matrix(1, 0, 0, 1, 0.5, 0.5)" fill-opacity="1">600</text><text fill="none" stroke="rgb(0,0,0)" font-family="helvetica" font-size="11px" font-style="normal" font-weight="normal" text-decoration="normal" x="8.64697265625" y="180.31158447265625" text-anchor="start" dominant-baseline="alphabetic" transform="matrix(1, 0, 0, 1, 0.5, 0.5)" stroke-opacity="0" stroke-linejoin="bevel" stroke-miterlimit="10">600</text><text fill="rgb(68,68,68)" stroke="none" font-family="helvetica" font-size="11px" font-style="normal" font-weight="normal" text-decoration="normal" x="8.64697265625" y="137.0821075439453" text-anchor="start" dominant-baseline="alphabetic" transform="matrix(1, 0, 0, 1, 0.5, 0.5)" fill-opacity="1">800</text><text fill="none" stroke="rgb(0,0,0)" font-family="helvetica" font-size="11px" font-style="normal" font-weight="normal" text-decoration="normal" x="8.64697265625" y="137.0821075439453" text-anchor="start" dominant-baseline="alphabetic" transform="matrix(1, 0, 0, 1, 0.5, 0.5)" stroke-opacity="0" stroke-linejoin="bevel" stroke-miterlimit="10">800</text><text fill="rgb(68,68,68)" stroke="none" font-family="helvetica" font-size="11px" font-style="normal" font-weight="normal" text-decoration="normal" x="2.529296875" y="93.85263061523438" text-anchor="start" dominant-baseline="alphabetic" transform="matrix(1, 0, 0, 1, 0.5, 0.5)" fill-opacity="1">1000</text><text fill="none" stroke="rgb(0,0,0)" font-family="helvetica" font-size="11px" font-style="normal" font-weight="normal" text-decoration="normal" x="2.529296875" y="93.85263061523438" text-anchor="start" dominant-baseline="alphabetic" transform="matrix(1, 0, 0, 1, 0.5, 0.5)" stroke-opacity="0" stroke-linejoin="bevel" stroke-miterlimit="10">1000</text><text fill="rgb(68,68,68)" stroke="none" font-family="helvetica" font-size="11px" font-style="normal" font-weight="normal" text-decoration="normal" x="2.529296875" y="50.62315368652344" text-anchor="start" dominant-baseline="alphabetic" transform="matrix(1, 0, 0, 1, 0.5, 0.5)" fill-opacity="1">1200</text><text fill="none" stroke="rgb(0,0,0)" font-family="helvetica" font-size="11px" font-style="normal" font-weight="normal" text-decoration="normal" x="2.529296875" y="50.62315368652344" text-anchor="start" dominant-baseline="alphabetic" transform="matrix(1, 0, 0, 1, 0.5, 0.5)" stroke-opacity="0" stroke-linejoin="bevel" stroke-miterlimit="10">1200</text><text fill="rgb(68,68,68)" stroke="none" font-family="helvetica" font-size="13px" font-style="normal" font-weight="bold" text-decoration="normal" x="0" y="12" text-anchor="start" dominant-baseline="alphabetic" transform="matrix(1, 0, 0, 1, 38.5, 7.5)" fill-opacity="1">Throughput MB/s</text><text fill="none" stroke="rgb(0,0,0)" font-family="helvetica" font-size="13px" font-style="normal" font-weight="bold" text-decoration="normal" x="0" y="12" text-anchor="start" dominant-baseline="alphabetic" transform="matrix(1, 0, 0, 1, 38.5, 7.5)" stroke-opacity="0" stroke-miterlimit="10" stroke-dasharray="">Throughput MB/s</text></svg>