<svg version="1.1" xmlns="http://www.w3.org/2000/svg" width="800" height="400"><defs><clipPath id="WSBKekGnOTgu"><path fill="none" stroke="none" d="M 0.5 0.5 L 800.5 0.5 L 800.5 400.5 L 0.5 400.5 L 0.5 0.5 Z M 45.5 27.5 L 770.5 27.5 L 770.5 306.5 L 45.5 306.5 L 45.5 27.5 Z" clip-rule="evenodd"/></clipPath><clipPath id="eSSAhrldPgEB"><path fill="none" stroke="none" d="M 45.5 27.5 L 770.5 27.5 L 770.5 306.5 L 45.5 306.5 L 45.5 27.5 Z"/></clipPath><clipPath id="pPqXSIDBqBeT"><path fill="none" stroke="none" d="M 45.5 27.5 L 770.5 27.5 L 770.5 306.5 L 45.5 306.5 L 45.5 27.5 Z"/></clipPath><clipPath id="AlrFuSszLxJH"><path fill="none" stroke="none" d="M 45.5 27.5 L 770.5 27.5 L 770.5 306.5 L 45.5 306.5 L 45.5 27.5 Z"/></clipPath><clipPath id="gwTupOtyxiaP"><path fill="none" stroke="none" d="M 45.5 27.5 L 770.5 27.5 L 770.5 306.5 L 45.5 306.5 L 45.5 27.5 Z"/></clipPath></defs><path fill="rgb(255,255,255)" stroke="none" paint-order="stroke" d="M 0.5 0.5 L 800.5 0.5 L 800.5 400.5 L 0.5 400.5 L 0.5 0.5 Z" fill-opacity="1" clip-path="url(#WSBKekGnOTgu)"/><path fill="rgb(255,255,255)" stroke="none" paint-order="stroke" d="M 45.5 27.5 L 770.5 27.5 L 770.5 306.5 L 45.5 306.5 L 45.5 27.5 Z" fill-opacity="1"/><path fill="none" stroke="rgb(229,229,229)" paint-order="fill" d="M 45.5 27.5 L 770.5 27.5 L 770.5 306.5 L 45.5 306.5 L 45.5 27.5 Z" stroke-opacity="1" stroke-linejoin="bevel" stroke-miterlimit="10"/><path fill="none" stroke="rgb(229,229,229)" paint-order="fill" d="M 45.5 265.5 L 770.5 265.5 M 45.5 224.5 L 770.5 224.5 M 45.5 182.5 L 770.5 182.5 M 45.5 141.5 L 770.5 141.5 M 45.5 100.5 L 770.5 100.5 M 45.5 59.5 L 770.5 59.5" stroke-opacity="1" stroke-linejoin="bevel" stroke-miterlimit="10" clip-path="url(#pPqXSIDBqBeT)"/><path fill="rgb(31,119,180)" stroke="rgb(255,255,255)" paint-order="fill" d="M 79.77272033691406 273.242919921875 L 103.5 273.242919921875 L 103.5 306.5 L 79.77272033691406 306.5 L 79.77272033691406 273.242919921875 Z" fill-opacity="1" clip-path="url(#AlrFuSszLxJH)" stroke-opacity="1" stroke-linejoin="bevel" stroke-miterlimit="10"/><path fill="rgb(255,127,14)" stroke="rgb(255,255,255)" paint-order="fill" d="M 106.13636779785156 252.2383270263672 L 129.86363220214844 252.2383270263672 L 129.86363220214844 306.5 L 106.13636779785156 306.5 L 106.13636779785156 252.2383270263672 Z" fill-opacity="1" clip-path="url(#AlrFuSszLxJH)" stroke-opacity="1" stroke-linejoin="bevel" stroke-miterlimit="10"/><path fill="rgb(44,160,44)" stroke="rgb(255,255,255)" paint-order="fill" d="M 132.5 266.8471984863281 L 156.22726440429688 266.8471984863281 L 156.22726440429688 306.5 L 132.5 306.5 L 132.5 266.8471984863281 Z" fill-opacity="1" clip-path="url(#AlrFuSszLxJH)" stroke-opacity="1" stroke-linejoin="bevel" stroke-miterlimit="10"/><path fill="rgb(31,119,180)" stroke="rgb(255,255,255)" paint-order="fill" d="M 195.77273559570312 120.73939514160156 L 219.5 120.73939514160156 L 219.5 306.5 L 195.77273559570312 306.5 L 195.77273559570312 120.73939514160156 Z" fill-opacity="1" clip-path="url(#AlrFuSszLxJH)" stroke-opacity="1" stroke-linejoin="bevel" stroke-miterlimit="10"/><path fill="rgb(255,127,14)" stroke="rgb(255,255,255)" paint-order="fill" d="M 222.13636779785156 77.90335845947266 L 245.86363220214844 77.90335845947266 L 245.86363220214844 306.5 L 222.13636779785156 306.5 L 222.13636779785156 77.90335845947266 Z" fill-opacity="1" clip-path="url(#AlrFuSszLxJH)" stroke-opacity="1" stroke-linejoin="bevel" stroke-miterlimit="10"/><path fill="rgb(44,160,44)" stroke="rgb(255,255,255)" paint-order="fill" d="M 248.50001525878906 40.78571319580078 L 272.227294921875 40.78571319580078 L 272.227294921875 306.5 L 248.50001525878906 306.5 L 248.50001525878906 40.78571319580078 Z" fill-opacity="1" clip-path="url(#AlrFuSszLxJH)" stroke-opacity="1" stroke-linejoin="bevel" stroke-miterlimit="10"/><path fill="rgb(31,119,180)" stroke="rgb(255,255,255)" paint-order="fill" d="M 311.7727355957031 121.24002838134766 L 335.5000305175781 121.24002838134766 L 335.5000305175781 306.5 L 311.7727355957031 306.5 L 311.7727355957031 121.24002838134766 Z" fill-opacity="1" clip-path="url(#AlrFuSszLxJH)" stroke-opacity="1" stroke-linejoin="bevel" stroke-miterlimit="10"/><path fill="rgb(255,127,14)" stroke="rgb(255,255,255)" paint-order="fill" d="M 338.1363525390625 79.41373443603516 L 361.8636474609375 79.41373443603516 L 361.8636474609375 306.5 L 338.1363525390625 306.5 L 338.1363525390625 79.41373443603516 Z" fill-opacity="1" clip-path="url(#AlrFuSszLxJH)" stroke-opacity="1" stroke-linejoin="bevel" stroke-miterlimit="10"/><path fill="rgb(44,160,44)" stroke="rgb(255,255,255)" paint-order="fill" d="M 364.5 46.80947494506836 L 388.227294921875 46.80947494506836 L 388.227294921875 306.5 L 364.5 306.5 L 364.5 46.80947494506836 Z" fill-opacity="1" clip-path="url(#AlrFuSszLxJH)" stroke-opacity="1" stroke-linejoin="bevel" stroke-miterlimit="10"/><path fill="rgb(31,119,180)" stroke="rgb(255,255,255)" paint-order="fill" d="M 427.772705078125 119.95523834228516 L 451.5 119.95523834228516 L 451.5 306.5 L 427.772705078125 306.5 L 427.772705078125 119.95523834228516 Z" fill-opacity="1" clip-path="url(#AlrFuSszLxJH)" stroke-opacity="1" stroke-linejoin="bevel" stroke-miterlimit="10"/><path fill="rgb(255,127,14)" stroke="rgb(255,255,255)" paint-order="fill" d="M 454.1363525390625 78.57720184326172 L 477.8636474609375 78.57720184326172 L 477.8636474609375 306.5 L 454.1363525390625 306.5 L 454.1363525390625 78.57720184326172 Z" fill-opacity="1" clip-path="url(#AlrFuSszLxJH)" stroke-opacity="1" stroke-linejoin="bevel" stroke-miterlimit="10"/><path fill="rgb(44,160,44)" stroke="rgb(255,255,255)" paint-order="fill" d="M 480.4999694824219 49.18606948852539 L 504.2272644042969 49.18606948852539 L 504.2272644042969 306.5 L 480.4999694824219 306.5 L 480.4999694824219 49.18606948852539 Z" fill-opacity="1" clip-path="url(#AlrFuSszLxJH)" stroke-opacity="1" stroke-linejoin="bevel" stroke-miterlimit="10"/><path fill="rgb(31,119,180)" stroke="rgb(255,255,255)" paint-order="fill" d="M 543.772705078125 122.31575012207031 L 567.5 122.31575012207031 L 567.5 306.5 L 543.772705078125 306.5 L 543.772705078125 122.31575012207031 Z" fill-opacity="1" clip-path="url(#AlrFuSszLxJH)" stroke-opacity="1" stroke-linejoin="bevel" stroke-miterlimit="10"/><path fill="rgb(255,127,14)" stroke="rgb(255,255,255)" paint-order="fill" d="M 570.1363525390625 80.40985870361328 L 593.8636474609375 80.40985870361328 L 593.8636474609375 306.5 L 570.1363525390625 306.5 L 570.1363525390625 80.40985870361328 Z" fill-opacity="1" clip-path="url(#AlrFuSszLxJH)" stroke-opacity="1" stroke-linejoin="bevel" stroke-miterlimit="10"/><path fill="rgb(44,160,44)" stroke="rgb(255,255,255)" paint-order="fill" d="M 596.5 48.11117935180664 L 620.227294921875 48.11117935180664 L 620.227294921875 306.5 L 596.5 306.5 L 596.5 48.11117935180664 Z" fill-opacity="1" clip-path="url(#AlrFuSszLxJH)" stroke-opacity="1" stroke-linejoin="bevel" stroke-miterlimit="10"/><path fill="rgb(31,119,180)" stroke="rgb(255,255,255)" paint-order="fill" d="M 659.772705078125 153.30963134765625 L 683.5 153.30963134765625 L 683.5 306.5 L 659.772705078125 306.5 L 659.772705078125 153.30963134765625 Z" fill-opacity="1" clip-path="url(#AlrFuSszLxJH)" stroke-opacity="1" stroke-linejoin="bevel" stroke-miterlimit="10"/><path fill="rgb(255,127,14)" stroke="rgb(255,255,255)" paint-order="fill" d="M 686.1363525390625 81.59362030029297 L 709.8636474609375 81.59362030029297 L 709.8636474609375 306.5 L 686.1363525390625 306.5 L 686.1363525390625 81.59362030029297 Z" fill-opacity="1" clip-path="url(#AlrFuSszLxJH)" stroke-opacity="1" stroke-linejoin="bevel" stroke-miterlimit="10"/><path fill="rgb(44,160,44)" stroke="rgb(255,255,255)" paint-order="fill" d="M 712.5 53.43882369995117 L 736.227294921875 53.43882369995117 L 736.227294921875 306.5 L 712.5 306.5 L 712.5 53.43882369995117 Z" fill-opacity="1" clip-path="url(#AlrFuSszLxJH)" stroke-opacity="1" stroke-linejoin="bevel" stroke-miterlimit="10"/><path fill="none" stroke="rgb(0,0,0)" paint-order="fill" d="M 45.5 306.5 L 770.5 306.5" stroke-opacity="1" stroke-linejoin="bevel" stroke-miterlimit="10"/><path fill="none" stroke="rgb(0,0,0)" paint-order="fill" d="M 91.5 312.5 L 91.5 304.5 M 118.5 312.5 L 118.5 304.5 M 144.5 312.5 L 144.5 304.5 M 207.5 312.5 L 207.5 304.5 M 234.5 312.5 L 234.5 304.5 M 260.5 312.5 L 260.5 304.5 M 323.5 312.5 L 323.5 304.5 M 350.5 312.5 L 350.5 304.5 M 376.5 312.5 L 376.5 304.5 M 439.5 312.5 L 439.5 304.5 M 466.5 312.5 L 466.5 304.5 M 492.5 312.5 L 492.5 304.5 M 555.5 312.5 L 555.5 304.5 M 582.5 312.5 L 582.5 304.5 M 608.5 312.5 L 608.5 304.5 M 671.5 312.5 L 671.5 304.5 M 698.5 312.5 L 698.5 304.5 M 724.5 312.5 L 724.5 304.5" stroke-opacity="1" stroke-linejoin="bevel" stroke-miterlimit="10"/><path fill="none" stroke="rgb(0,0,0)" paint-order="fill" d="" stroke-opacity="1" stroke-linejoin="bevel" stroke-miterlimit="10"/><text fill="rgb(68,68,68)" stroke="none" font-family="helvetica" font-size="11px" font-style="normal" font-weight="normal" text-decoration="normal" x="56.27796173095703" y="321" text-anchor="start" dominant-baseline="alphabetic" transform="matrix(0.5403023058681398, -0.8414709848078965, 0.8414709848078965, 0.5403023058681398, -224.35112756309275, 222.9127717825584)" fill-opacity="1">Django</text><text fill="none" stroke="rgb(0,0,0)" font-family="helvetica" font-size="11px" font-style="normal" font-weight="normal" text-decoration="normal" x="56.27796173095703" y="321" text-anchor="start" dominant-baseline="alphabetic" transform="matrix(0.5403023058681398, -0.8414709848078965, 0.8414709848078965, 0.5403023058681398, -224.35112756309275, 222.9127717825584)" stroke-opacity="0" stroke-linejoin="bevel" stroke-miterlimit="10">Django</text><text fill="rgb(68,68,68)" stroke="none" font-family="helvetica" font-size="11px" font-style="normal" font-weight="normal" text-decoration="normal" x="49.0185546875" y="321" text-anchor="start" dominant-baseline="alphabetic" transform="matrix(0.5403023058681398, -0.8414709848078965, 0.8414709848078965, 0.5403023058681398, -212.23182312360962, 245.09700975472754)" fill-opacity="1">Django-orjson</text><text fill="none" stroke="rgb(0,0,0)" font-family="helvetica" font-size="11px" font-style="normal" font-weight="normal" text-decoration="normal" x="49.0185546875" y="321" text-anchor="start" dominant-baseline="alphabetic" transform="matrix(0.5403023058681398, -0.8414709848078965, 0.8414709848078965, 0.5403023058681398, -212.23182312360962, 245.09700975472754)" stroke-opacity="0" stroke-linejoin="bevel" stroke-miterlimit="10">Django-orjson</text><text fill="rgb(68,68,68)" stroke="none" font-family="helvetica" font-size="11px" font-style="normal" font-weight="normal" text-decoration="normal" x="111.46519470214844" y="321" text-anchor="start" dominant-baseline="alphabetic" transform="matrix(0.5403023058681398, -0.8414709848078965, 0.8414709848078965, 0.5403023058681398, -200.1125221913415, 267.28124130698257)" fill-opacity="1">Go-chi</text><text fill="none" stroke="rgb(0,0,0)" font-family="helvetica" font-size="11px" font-style="normal" font-weight="normal" text-decoration="normal" x="111.46519470214844" y="321" text-anchor="start" dominant-baseline="alphabetic" transform="matrix(0.5403023058681398, -0.8414709848078965, 0.8414709848078965, 0.5403023058681398, -200.1125221913415, 267.28124130698257)" stroke-opacity="0" stroke-linejoin="bevel" stroke-miterlimit="10">Go-chi</text><text fill="rgb(68,68,68)" stroke="none" font-family="helvetica" font-size="11px" font-style="normal" font-weight="normal" text-decoration="normal" x="172.27796936035156" y="321" text-anchor="start" dominant-baseline="alphabetic" transform="matrix(0.5403023058681398, -0.8414709848078965, 0.8414709848078965, 0.5403023058681398, -171.0261915365819, 320.5234124401885)" fill-opacity="1">Django</text><text fill="none" stroke="rgb(0,0,0)" font-family="helvetica" font-size="11px" font-style="normal" font-weight="normal" text-decoration="normal" x="172.27796936035156" y="321" text-anchor="start" dominant-baseline="alphabetic" transform="matrix(0.5403023058681398, -0.8414709848078965, 0.8414709848078965, 0.5403023058681398, -171.0261915365819, 320.5234124401885)" stroke-opacity="0" stroke-linejoin="bevel" stroke-miterlimit="10">Django</text><text fill="rgb(68,68,68)" stroke="none" font-family="helvetica" font-size="11px" font-style="normal" font-weight="normal" text-decoration="normal" x="165.0185546875" y="321" text-anchor="start" dominant-baseline="alphabetic" transform="matrix(0.5403023058681398, -0.8414709848078965, 0.8414709848078965, 0.5403023058681398, -158.9068906043138, 342.70764399244354)" fill-opacity="1">Django-orjson</text><text fill="none" stroke="rgb(0,0,0)" font-family="helvetica" font-size="11px" font-style="normal" font-weight="normal" text-decoration="normal" x="165.0185546875" y="321" text-anchor="start" dominant-baseline="alphabetic" transform="matrix(0.5403023058681398, -0.8414709848078965, 0.8414709848078965, 0.5403023058681398, -158.9068906043138, 342.70764399244354)" stroke-opacity="0" stroke-linejoin="bevel" stroke-miterlimit="10">Django-orjson</text><text fill="rgb(68,68,68)" stroke="none" font-family="helvetica" font-size="11px" font-style="normal" font-weight="normal" text-decoration="normal" x="227.4652099609375" y="321" text-anchor="start" dominant-baseline="alphabetic" transform="matrix(0.5403023058681398, -0.8414709848078965, 0.8414709848078965, 0.5403023058681398, -146.78758265761553, 364.89188838452685)" fill-opacity="1">Go-chi</text><text fill="none" stroke="rgb(0,0,0)" font-family="helvetica" font-size="11px" font-style="normal" font-weight="normal" text-decoration="normal" x="227.4652099609375" y="321" text-anchor="start" dominant-baseline="alphabetic" transform="matrix(0.5403023058681398, -0.8414709848078965, 0.8414709848078965, 0.5403023058681398, -146.78758265761553, 364.89188838452685)" stroke-opacity="0" stroke-linejoin="bevel" stroke-miterlimit="10">Go-chi</text><text fill="rgb(68,68,68)" stroke="none" font-family="helvetica" font-size="11px" font-style="normal" font-weight="normal" text-decoration="normal" x="288.2779541015625" y="321" text-anchor="start" dominant-baseline="alphabetic" transform="matrix(0.5403023058681398, -0.8414709848078965, 0.8414709848078965, 0.5403023058681398, -117.70126603171627, 418.1340338380762)" fill-opacity="1">Django</text><text fill="none" stroke="rgb(0,0,0)" font-family="helvetica" font-size="11px" font-style="normal" font-weight="normal" text-decoration="normal" x="288.2779541015625" y="321" text-anchor="start" dominant-baseline="alphabetic" transform="matrix(0.5403023058681398, -0.8414709848078965, 0.8414709848078965, 0.5403023058681398, -117.70126603171627, 418.1340338380762)" stroke-opacity="0" stroke-linejoin="bevel" stroke-miterlimit="10">Django</text><text fill="rgb(68,68,68)" stroke="none" font-family="helvetica" font-size="11px" font-style="normal" font-weight="normal" text-decoration="normal" x="281.0185546875" y="321" text-anchor="start" dominant-baseline="alphabetic" transform="matrix(0.5403023058681398, -0.8414709848078965, 0.8414709848078965, 0.5403023058681398, -105.58195808501802, 440.31827823015954)" fill-opacity="1">Django-orjson</text><text fill="none" stroke="rgb(0,0,0)" font-family="helvetica" font-size="11px" font-style="normal" font-weight="normal" text-decoration="normal" x="281.0185546875" y="321" text-anchor="start" dominant-baseline="alphabetic" transform="matrix(0.5403023058681398, -0.8414709848078965, 0.8414709848078965, 0.5403023058681398, -105.58195808501802, 440.31827823015954)" stroke-opacity="0" stroke-linejoin="bevel" stroke-miterlimit="10">Django-orjson</text><text fill="rgb(68,68,68)" stroke="none" font-family="helvetica" font-size="11px" font-style="normal" font-weight="normal" text-decoration="normal" x="343.4652099609375" y="321" text-anchor="start" dominant-baseline="alphabetic" transform="matrix(0.5403023058681398, -0.8414709848078965, 0.8414709848078965, 0.5403023058681398, -93.46265013831976, 462.50252262224285)" fill-opacity="1">Go-chi</text><text fill="none" stroke="rgb(0,0,0)" font-family="helvetica" font-size="11px" font-style="normal" font-weight="normal" text-decoration="normal" x="343.4652099609375" y="321" text-anchor="start" dominant-baseline="alphabetic" transform="matrix(0.5403023058681398, -0.8414709848078965, 0.8414709848078965, 0.5403023058681398, -93.46265013831976, 462.50252262224285)" stroke-opacity="0" stroke-linejoin="bevel" stroke-miterlimit="10">Go-chi</text><text fill="rgb(68,68,68)" stroke="none" font-family="helvetica" font-size="11px" font-style="normal" font-weight="normal" text-decoration="normal" x="404.2779541015625" y="321" text-anchor="start" dominant-baseline="alphabetic" transform="matrix(0.5403023058681398, -0.8414709848078965, 0.8414709848078965, 0.5403023058681398, -64.3763335124205, 515.7446680757922)" fill-opacity="1">Django</text><text fill="none" stroke="rgb(0,0,0)" font-family="helvetica" font-size="11px" font-style="normal" font-weight="normal" text-decoration="normal" x="404.2779541015625" y="321" text-anchor="start" dominant-baseline="alphabetic" transform="matrix(0.5403023058681398, -0.8414709848078965, 0.8414709848078965, 0.5403023058681398, -64.3763335124205, 515.7446680757922)" stroke-opacity="0" stroke-linejoin="bevel" stroke-miterlimit="10">Django</text><text fill="rgb(68,68,68)" stroke="none" font-family="helvetica" font-size="11px" font-style="normal" font-weight="normal" text-decoration="normal" x="397.0185546875" y="321" text-anchor="start" dominant-baseline="alphabetic" transform="matrix(0.5403023058681398, -0.8414709848078965, 0.8414709848078965, 0.5403023058681398, -52.25702556572219, 537.9289124678755)" fill-opacity="1">Django-orjson</text><text fill="none" stroke="rgb(0,0,0)" font-family="helvetica" font-size="11px" font-style="normal" font-weight="normal" text-decoration="normal" x="397.0185546875" y="321" text-anchor="start" dominant-baseline="alphabetic" transform="matrix(0.5403023058681398, -0.8414709848078965, 0.8414709848078965, 0.5403023058681398, -52.25702556572219, 537.9289124678755)" stroke-opacity="0" stroke-linejoin="bevel" stroke-miterlimit="10">Django-orjson</text><text fill="rgb(68,68,68)" stroke="none" font-family="helvetica" font-size="11px" font-style="normal" font-weight="normal" text-decoration="normal" x="459.4652099609375" y="321" text-anchor="start" dominant-baseline="alphabetic" transform="matrix(0.5403023058681398, -0.8414709848078965, 0.8414709848078965, 0.5403023058681398, -40.13771761902399, 560.1131568599588)" fill-opacity="1">Go-chi</text><text fill="none" stroke="rgb(0,0,0)" font-family="helvetica" font-size="11px" font-style="normal" font-weight="normal" text-decoration="normal" x="459.4652099609375" y="321" text-anchor="start" dominant-baseline="alphabetic" transform="matrix(0.5403023058681398, -0.8414709848078965, 0.8414709848078965, 0.5403023058681398, -40.13771761902399, 560.1131568599588)" stroke-opacity="0" stroke-linejoin="bevel" stroke-miterlimit="10">Go-chi</text><text fill="rgb(68,68,68)" stroke="none" font-family="helvetica" font-size="11px" font-style="normal" font-weight="normal" text-decoration="normal" x="520.2779541015625" y="321" text-anchor="start" dominant-baseline="alphabetic" transform="matrix(0.5403023058681398, -0.8414709848078965, 0.8414709848078965, 0.5403023058681398, -11.051400993124616, 613.3553023135082)" fill-opacity="1">Django</text><text fill="none" stroke="rgb(0,0,0)" font-family="helvetica" font-size="11px" font-style="normal" font-weight="normal" text-decoration="normal" x="520.2779541015625" y="321" text-anchor="start" dominant-baseline="alphabetic" transform="matrix(0.5403023058681398, -0.8414709848078965, 0.8414709848078965, 0.5403023058681398, -11.051400993124616, 613.3553023135082)" stroke-opacity="0" stroke-linejoin="bevel" stroke-miterlimit="10">Django</text><text fill="rgb(68,68,68)" stroke="none" font-family="helvetica" font-size="11px" font-style="normal" font-weight="normal" text-decoration="normal" x="513.0185546875" y="321" text-anchor="start" dominant-baseline="alphabetic" transform="matrix(0.5403023058681398, -0.8414709848078965, 0.8414709848078965, 0.5403023058681398, 1.0679069535735835, 635.5395467055915)" fill-opacity="1">Django-orjson</text><text fill="none" stroke="rgb(0,0,0)" font-family="helvetica" font-size="11px" font-style="normal" font-weight="normal" text-decoration="normal" x="513.0185546875" y="321" text-anchor="start" dominant-baseline="alphabetic" transform="matrix(0.5403023058681398, -0.8414709848078965, 0.8414709848078965, 0.5403023058681398, 1.0679069535735835, 635.5395467055915)" stroke-opacity="0" stroke-linejoin="bevel" stroke-miterlimit="10">Django-orjson</text><text fill="rgb(68,68,68)" stroke="none" font-family="helvetica" font-size="11px" font-style="normal" font-weight="normal" text-decoration="normal" x="575.4652099609375" y="321" text-anchor="start" dominant-baseline="alphabetic" transform="matrix(0.5403023058681398, -0.8414709848078965, 0.8414709848078965, 0.5403023058681398, 13.187214900271783, 657.7237910976748)" fill-opacity="1">Go-chi</text><text fill="none" stroke="rgb(0,0,0)" font-family="helvetica" font-size="11px" font-style="normal" font-weight="normal" text-decoration="normal" x="575.4652099609375" y="321" text-anchor="start" dominant-baseline="alphabetic" transform="matrix(0.5403023058681398, -0.8414709848078965, 0.8414709848078965, 0.5403023058681398, 13.187214900271783, 657.7237910976748)" stroke-opacity="0" stroke-linejoin="bevel" stroke-miterlimit="10">Go-chi</text><text fill="rgb(68,68,68)" stroke="none" font-family="helvetica" font-size="11px" font-style="normal" font-weight="normal" text-decoration="normal" x="636.2779541015625" y="321" text-anchor="start" dominant-baseline="alphabetic" transform="matrix(0.5403023058681398, -0.8414709848078965, 0.8414709848078965, 0.5403023058681398, 42.273531526171155, 710.9659365512242)" fill-opacity="1">Django</text><text fill="none" stroke="rgb(0,0,0)" font-family="helvetica" font-size="11px" font-style="normal" font-weight="normal" text-decoration="normal" x="636.2779541015625" y="321" text-anchor="start" dominant-baseline="alphabetic" transform="matrix(0.5403023058681398, -0.8414709848078965, 0.8414709848078965, 0.5403023058681398, 42.273531526171155, 710.9659365512242)" stroke-opacity="0" stroke-linejoin="bevel" stroke-miterlimit="10">Django</text><text fill="rgb(68,68,68)" stroke="none" font-family="helvetica" font-size="11px" font-style="normal" font-weight="normal" text-decoration="normal" x="629.0185546875" y="321" text-anchor="start" dominant-baseline="alphabetic" transform="matrix(0.5403023058681398, -0.8414709848078965, 0.8414709848078965, 0.5403023058681398, 54.392839472869355, 733.1501809433075)" fill-opacity="1">Django-orjson</text><text fill="none" stroke="rgb(0,0,0)" font-family="helvetica" font-size="11px" font-style="normal" font-weight="normal" text-decoration="normal" x="629.0185546875" y="321" text-anchor="start" dominant-baseline="alphabetic" transform="matrix(0.5403023058681398, -0.8414709848078965, 0.8414709848078965, 0.5403023058681398, 54.392839472869355, 733.1501809433075)" stroke-opacity="0" stroke-linejoin="bevel" stroke-miterlimit="10">Django-orjson</text><text fill="rgb(68,68,68)" stroke="none" font-family="helvetica" font-size="11px" font-style="normal" font-weight="normal" text-decoration="normal" x="691.4652099609375" y="321" text-anchor="start" dominant-baseline="alphabetic" transform="matrix(0.5403023058681398, -0.8414709848078965, 0.8414709848078965, 0.5403023058681398, 66.51214741956755, 755.3344253353907)" fill-opacity="1">Go-chi</text><text fill="none" stroke="rgb(0,0,0)" font-family="helvetica" font-size="11px" font-style="normal" font-weight="normal" text-decoration="normal" x="691.4652099609375" y="321" text-anchor="start" dominant-baseline="alphabetic" transform="matrix(0.5403023058681398, -0.8414709848078965, 0.8414709848078965, 0.5403023058681398, 66.51214741956755, 755.3344253353907)" stroke-opacity="0" stroke-linejoin="bevel" stroke-miterlimit="10">Go-chi</text><text fill="rgb(128,128,128)" stroke="none" font-family="helvetica" font-size="11px" font-style="normal" font-weight="bold" text-decoration="normal" x="114.441162109375" y="397.1087768985952" text-anchor="start" dominant-baseline="alphabetic" transform="matrix(1, 0, 0, 1, 0.5, 0.5)" fill-opacity="1">1</text><text fill="none" stroke="rgb(0,0,0)" font-family="helvetica" font-size="11px" font-style="normal" font-weight="bold" text-decoration="normal" x="114.441162109375" y="397.1087768985952" text-anchor="start" dominant-baseline="alphabetic" transform="matrix(1, 0, 0, 1, 0.5, 0.5)" stroke-opacity="0" stroke-linejoin="bevel" stroke-miterlimit="10">1</text><text fill="rgb(128,128,128)" stroke="none" font-family="helvetica" font-size="11px" font-style="normal" font-weight="bold" text-decoration="normal" x="227.38232421875" y="397.1087768985952" text-anchor="start" dominant-baseline="alphabetic" transform="matrix(1, 0, 0, 1, 0.5, 0.5)" fill-opacity="1">50</text><text fill="none" stroke="rgb(0,0,0)" font-family="helvetica" font-size="11px" font-style="normal" font-weight="bold" text-decoration="normal" x="227.38232421875" y="397.1087768985952" text-anchor="start" dominant-baseline="alphabetic" transform="matrix(1, 0, 0, 1, 0.5, 0.5)" stroke-opacity="0" stroke-linejoin="bevel" stroke-miterlimit="10">50</text><text fill="rgb(128,128,128)" stroke="none" font-family="helvetica" font-size="11px" font-style="normal" font-weight="bold" text-decoration="normal" x="340.323486328125" y="397.1087768985952" text-anchor="start" dominant-baseline="alphabetic" transform="matrix(1, 0, 0, 1, 0.5, 0.5)" fill-opacity="1">100</text><text fill="none" stroke="rgb(0,0,0)" font-family="helvetica" font-size="11px" font-style="normal" font-weight="bold" text-decoration="normal" x="340.323486328125" y="397.1087768985952" text-anchor="start" dominant-baseline="alphabetic" transform="matrix(1, 0, 0, 1, 0.5, 0.5)" stroke-opacity="0" stroke-linejoin="bevel" stroke-miterlimit="10">100</text><text fill="rgb(128,128,128)" stroke="none" font-family="helvetica" font-size="11px" font-style="normal" font-weight="bold" text-decoration="normal" x="456.323486328125" y="397.1087768985952" text-anchor="start" dominant-baseline="alphabetic" transform="matrix(1, 0, 0, 1, 0.5, 0.5)" fill-opacity="1">150</text><text fill="none" stroke="rgb(0,0,0)" font-family="helvetica" font-size="11px" font-style="normal" font-weight="bold" text-decoration="normal" x="456.323486328125" y="397.1087768985952" text-anchor="start" dominant-baseline="alphabetic" transform="matrix(1, 0, 0, 1, 0.5, 0.5)" stroke-opacity="0" stroke-linejoin="bevel" stroke-miterlimit="10">150</text><text fill="rgb(128,128,128)" stroke="none" font-family="helvetica" font-size="11px" font-style="normal" font-weight="bold" text-decoration="normal" x="572.323486328125" y="397.1087768985952" text-anchor="start" dominant-baseline="alphabetic" transform="matrix(1, 0, 0, 1, 0.5, 0.5)" fill-opacity="1">200</text><text fill="none" stroke="rgb(0,0,0)" font-family="helvetica" font-size="11px" font-style="normal" font-weight="bold" text-decoration="normal" x="572.323486328125" y="397.1087768985952" text-anchor="start" dominant-baseline="alphabetic" transform="matrix(1, 0, 0, 1, 0.5, 0.5)" stroke-opacity="0" stroke-linejoin="bevel" stroke-miterlimit="10">200</text><text fill="rgb(128,128,128)" stroke="none" font-family="helvetica" font-size="11px" font-style="normal" font-weight="bold" text-decoration="normal" x="688.323486328125" y="397.1087768985952" text-anchor="start" dominant-baseline="alphabetic" transform="matrix(1, 0, 0, 1, 0.5, 0.5)" fill-opacity="1">250</text><text fill="none" stroke="rgb(0,0,0)" font-family="helvetica" font-size="11px" font-style="normal" font-weight="bold" text-decoration="normal" x="688.323486328125" y="397.1087768985952" text-anchor="start" dominant-baseline="alphabetic" transform="matrix(1, 0, 0, 1, 0.5, 0.5)" stroke-opacity="0" stroke-linejoin="bevel" stroke-miterlimit="10">250</text><path fill="none" stroke="rgb(211,211,211)" paint-order="fill" d="M 176.5 388.5 L 176.5 309.5 M 292.5 388.5 L 292.5 309.5 M 408.5 388.5 L 408.5 309.5 M 524.5 388.5 L 524.5 309.5 M 640.5 388.5 L 640.5 309.5" stroke-opacity="1" stroke-linejoin="bevel" stroke-miterlimit="10" stroke-width="2"/><path fill="none" stroke="rgb(0,0,0)" paint-order="fill" d="M 45.5 306.5 L 45.5 27.5" stroke-opacity="1" stroke-linejoin="bevel" stroke-miterlimit="10"/><path fill="none" stroke="rgb(0,0,0)" paint-order="fill" d="M 39.5 306.5 L 47.5 306.5 M 39.5 265.5 L 47.5 265.5 M 39.5 224.5 L 47.5 224.5 M 39.5 182.5 L 47.5 182.5 M 39.5 141.5 L 47.5 141.5 M 39.5 100.5 L 47.5 100.5 M 39.5 59.5 L 47.5 59.5" stroke-opacity="1" stroke-linejoin="bevel" stroke-miterlimit="10"/><path fill="none" stroke="rgb(0,0,0)" paint-order="fill" d="M 41.5 306.5 L 45.5 306.5 M 41.5 298.5 L 45.5 298.5 M 41.5 290.5 L 45.5 290.5 M 41.5 281.5 L 45.5 281.5 M 41.5 273.5 L 45.5 273.5 M 41.5 265.5 L 45.5 265.5 M 41.5 257.5 L 45.5 257.5 M 41.5 248.5 L 45.5 248.5 M 41.5 240.5 L 45.5 240.5 M 41.5 232.5 L 45.5 232.5 M 41.5 224.5 L 45.5 224.5 M 41.5 215.5 L 45.5 215.5 M 41.5 207.5 L 45.5 207.5 M 41.5 199.5 L 45.5 199.5 M 41.5 191.5 L 45.5 191.5 M 41.5 182.5 L 45.5 182.5 M 41.5 174.5 L 45.5 174.5 M 41.5 166.5 L 45.5 166.5 M 41.5 158.5 L 45.5 158.5 M 41.5 149.5 L 45.5 149.5 M 41.5 141.5 L 45.5 141.5 M 41.5 133.5 L 45.5 133.5 M 41.5 125.5 L 45.5 125.5 M 41.5 116.5 L 45.5 116.5 M 41.5 108.5 L 45.5 108.5 M 41.5 100.5 L 45.5 100.5 M 41.5 92.5 L 45.5 92.5 M 41.5 83.5 L 45.5 83.5 M 41.5 75.5 L 45.5 75.5 M 41.5 67.5 L 45.5 67.5 M 41.5 59.5 L 45.5 59.5 M 41.5 50.5 L 45.5 50.5 M 41.5 42.5 L 45.5 42.5 M 41.5 34.5 L 45.5 34.5" stroke-opacity="1" stroke-linejoin="bevel" stroke-miterlimit="10"/><text fill="rgb(68,68,68)" stroke="none" font-family="helvetica" font-size="11px" font-style="normal" font-weight="normal" text-decoration="normal" x="27.88232421875" y="310" text-anchor="start" dominant-baseline="alphabetic" transform="matrix(1, 0, 0, 1, 0.5, 0.5)" fill-opacity="1">0</text><text fill="none" stroke="rgb(0,0,0)" font-family="helvetica" font-size="11px" font-style="normal" font-weight="normal" text-decoration="normal" x="27.88232421875" y="310" text-anchor="start" dominant-baseline="alphabetic" transform="matrix(1, 0, 0, 1, 0.5, 0.5)" stroke-opacity="0" stroke-linejoin="bevel" stroke-miterlimit="10">0</text><text fill="rgb(68,68,68)" stroke="none" font-family="helvetica" font-size="11px" font-style="normal" font-weight="normal" text-decoration="normal" x="9.529296875" y="268.7611389160156" text-anchor="start" dominant-baseline="alphabetic" transform="matrix(1, 0, 0, 1, 0.5, 0.5)" fill-opacity="1">2000</text><text fill="none" stroke="rgb(0,0,0)" font-family="helvetica" font-size="11px" font-style="normal" font-weight="normal" text-decoration="normal" x="9.529296875" y="268.7611389160156" text-anchor="start" dominant-baseline="alphabetic" transform="matrix(1, 0, 0, 1, 0.5, 0.5)" stroke-opacity="0" stroke-linejoin="bevel" stroke-miterlimit="10">2000</text><text fill="rgb(68,68,68)" stroke="none" font-family="helvetica" font-size="11px" font-style="normal" font-weight="normal" text-decoration="normal" x="9.529296875" y="227.5222930908203" text-anchor="start" dominant-baseline="alphabetic" transform="matrix(1, 0, 0, 1, 0.5, 0.5)" fill-opacity="1">4000</text><text fill="none" stroke="rgb(0,0,0)" font-family="helvetica" font-size="11px" font-style="normal" font-weight="normal" text-decoration="normal" x="9.529296875" y="227.5222930908203" text-anchor="start" dominant-baseline="alphabetic" transform="matrix(1, 0, 0, 1, 0.5, 0.5)" stroke-opacity="0" stroke-linejoin="bevel" stroke-miterlimit="10">4000</text><text fill="rgb(68,68,68)" stroke="none" font-family="helvetica" font-size="11px" font-style="normal" font-weight="normal" text-decoration="normal" x="9.529296875" y="186.283447265625" text-anchor="start" dominant-baseline="alphabetic" transform="matrix(1, 0, 0, 1, 0.5, 0.5)" fill-opacity="1">6000</text><text fill="none" stroke="rgb(0,0,0)" font-family="helvetica" font-size="11px" font-style="normal" font-weight="normal" text-decoration="normal" x="9.529296875" y="186.283447265625" text-anchor="start" dominant-baseline="alphabetic" transform="matrix(1, 0, 0, 1, 0.5, 0.5)" stroke-opacity="0" stroke-linejoin="bevel" stroke-miterlimit="10">6000</text><text fill="rgb(68,68,68)" stroke="none" font-family="helvetica" font-size="11px" font-style="normal" font-weight="normal" text-decoration="normal" x="9.529296875" y="145.0446014404297" text-anchor="start" dominant-baseline="alphabetic" transform="matrix(1, 0, 0, 1, 0.5, 0.5)" fill-opacity="1">8000</text><text fill="none" stroke="rgb(0,0,0)" font-family="helvetica" font-size="11px" font-style="normal" font-weight="normal" text-decoration="normal" x="9.529296875" y="145.0446014404297" text-anchor="start" dominant-baseline="alphabetic" transform="matrix(1, 0, 0, 1, 0.5, 0.5)" stroke-opacity="0" stroke-linejoin="bevel" stroke-miterlimit="10">8000</text><text fill="rgb(68,68,68)" stroke="none" font-family="helvetica" font-size="11px" font-style="normal" font-weight="normal" text-decoration="normal" x="3.41162109375" y="103.80574798583984" text-anchor="start" dominant-baseline="alphabetic" transform="matrix(1, 0, 0, 1, 0.5, 0.5)" fill-opacity="1">10000</text><text fill="none" stroke="rgb(0,0,0)" font-family="helvetica" font-size="11px" font-style="normal" font-weight="normal" text-decoration="normal" x="3.41162109375" y="103.80574798583984" text-anchor="start" dominant-baseline="alphabetic" transform="matrix(1, 0, 0, 1, 0.5, 0.5)" stroke-opacity="0" stroke-linejoin="bevel" stroke-miterlimit="10">10000</text><text fill="rgb(68,68,68)" stroke="none" font-family="helvetica" font-size="11px" font-style="normal" font-weight="normal" text-decoration="normal" x="3.41162109375" y="62.566898345947266" text-anchor="start" dominant-baseline="alphabetic" transform="matrix(1, 0, 0, 1, 0.5, 0.5)" fill-opacity="1">12000</text><text fill="none" stroke="rgb(0,0,0)" font-family="helvetica" font-size="11px" font-style="normal" font-weight="normal" text-decoration="normal" x="3.41162109375" y="62.566898345947266" text-anchor="start" dominant-baseline="alphabetic" transform="matrix(1, 0, 0, 1, 0.5, 0.5)" stroke-opacity="0" stroke-linejoin="bevel" stroke-miterlimit="10">12000</text><text fill="rgb(68,68,68)" stroke="none" font-family="helvetica" font-size="13px" font-style="normal" font-weight="bold" text-decoration="normal" x="0" y="12" text-anchor="start" dominant-baseline="alphabetic" transform="matrix(1, 0, 0, 1, 45.5, 7.5)" fill-opacity="1">Transactions/s</text><text fill="none" stroke="rgb(0,0,0)" font-family="helvetica" font-size="13px" font-style="normal" font-weight="bold" text-decoration="normal" x="0" y="12" text-anchor="start" dominant-baseline="alphabetic" transform="matrix(1, 0, 0, 1, 45.5, 7.5)" stroke-opacity="0" stroke-miterlimit="10" stroke-dasharray="">Transactions/s</text></svg>